<svg xmlns="http://www.w3.org/2000/svg" xmlns:xlink="http://www.w3.org/1999/xlink" viewBox="0 0 1003.11 876.89"><defs><linearGradient id="linear-gradient" x1="732.01" y1="740.95" x2="938.22" y2="740.95" gradientUnits="userSpaceOnUse"><stop offset=".05" stop-color="#bad4ff"/><stop offset=".48" stop-color="#94ceff"/><stop offset=".68" stop-color="#9ec2ff"/><stop offset="1" stop-color="#85aaff"/></linearGradient><linearGradient id="linear-gradient-2" x1="445.58" y1="170.72" x2="602.58" y2="170.72" xlink:href="#linear-gradient"/><style>.cls-15,.cls-8{opacity:.4}.cls-15,.cls-4,.cls-8{mix-blend-mode:multiply}.cls-13,.cls-3,.cls-35,.cls-41{fill:none}.cls-3{stroke:#a8b2e5;stroke-miterlimit:10}.cls-3,.cls-41{stroke-width:2.19px}.cls-4{fill:#e8eefa}.cls-5{fill:#0f2f69}.cls-6{fill:#acaff2}.cls-7{fill:#dee5ff}.cls-8{fill:#a8c4e5}.cls-9{fill:#ebb44b}.cls-10{fill:#fff}.cls-11{fill:#ffd482}.cls-12{fill:#f2c97b}.cls-13{stroke:#ffd482;stroke-width:1.02px}.cls-13,.cls-35,.cls-41{stroke-linecap:round;stroke-linejoin:round}.cls-15{fill:#a8b2e5}.cls-16{fill:#ffa03a}.cls-17{fill:#ffc33a}.cls-18{fill:#1578ef}.cls-21{fill:#1c4591}.cls-22{fill:#e1eaf4}.cls-24{fill:#ff80ae}.cls-25{fill:#ffaa82}.cls-26{fill:#1575ef}.cls-27{fill:#ea8a6c}.cls-35{stroke:#fff;stroke-width:1.26px}.cls-36{fill:#eeedff}.cls-39{fill:#191791}.cls-41{stroke:#dee5ff}</style></defs><g style="isolation:isolate"><g id="image"><g style="mix-blend-mode:multiply" opacity=".4"><path class="cls-3" d="M65 246.3l97.15-54.73m195.92-5.8l97.16-54.73-1.62-103.67-97.15 54.74 1.61 103.66z"/><path class="cls-3" d="M260.92 240.5l97.15-54.73-1.61-103.66-97.15 54.73 1.61 103.66zM66.61 349.97l97.16-54.73-1.62-103.67L65 246.3l1.61 103.67zm388.61-218.93l1.62 103.67"/><path class="cls-3" d="M262.53 344.17l97.15-54.73-1.61-103.67-97.15 54.73 1.61 103.67z"/><path class="cls-3" d="M165.38 398.9l97.15-54.73-1.61-103.67-97.15 54.74 1.61 103.66z"/><path class="cls-3" d="M68.22 453.63l97.16-54.73-1.61-103.66-97.16 54.73 1.61 103.66zm388.62-218.92l1.61 103.66M361.3 393.1l97.15-54.73-1.61-103.66-97.16 54.73 1.62 103.66zm-97.16 54.74l97.16-54.74-1.62-103.66-97.15 54.73 1.61 103.67z"/><path class="cls-3" d="M166.99 502.57l97.15-54.73-1.61-103.67-97.15 54.73 1.61 103.67z"/><path class="cls-3" d="M69.84 557.3l97.15-54.73-1.61-103.67-97.16 54.73 1.62 103.67zm92.31-365.73l97.16-54.73"/></g><ellipse class="cls-4" cx="992.23" cy="571.86" rx="19.48" ry="39.22" transform="rotate(-88.9 927.277 589.891)"/><path class="cls-5" d="M961.1 563.1l16.58-11.31a12.8 12.8 0 017.69-.26c1.34.33 1.55-.67 1.48.58l1.44 5.23c1.35 3.48 1.73 4.06-2.26 5.43l-16.65 6.1c-2.81 1-6.83.66-8.94-.81l-.6-.42c-2.11-1.47-1.54-3.52 1.26-4.54z" transform="translate(-80.25 -46.15)"/><path class="cls-6" d="M986.82 553.08c-.08 4.09-10.05 3.91-10-.19l.25-13.32 10 .18z" transform="translate(-80.25 -46.15)"/><path class="cls-7" d="M988.23 548c-3.91 3-10.37 3.33-12.51.14a654.61 654.61 0 01-9.41-124.26l31-11c-3.8 33.56-8 64.62-9.51 93 2.83 16.2.01 31.63.43 42.12z" transform="translate(-80.25 -46.15)"/><path class="cls-6" d="M993.91 466.34l-4.13 13.18a170.49 170.49 0 01-7.08-37.63c1.55.38 1.47-1.51 3.21-1.29z" transform="translate(-80.25 -46.15)"/><ellipse class="cls-8" cx="794.2" cy="579.52" rx="64.63" ry="36.56"/><path class="cls-9" d="M917.43 612.59c.53 2.38-.48 20.28-1.56 22.84-2 8.19-9.18 16-21.22 21.68-26.42 12.56-66.4 10.53-89.3-4.54-10.67-7-16.47-14.16-16.6-23.07-.34-4.82-.49-18.28-.49-18.28.84-2.94 4.25.13 6.41-2.62 3.56-5.41 9.55-10.38 17.92-14.37 26.42-12.56 66.4-10.52 89.3 4.54 9.65 6.35 14.87 6.15 15.54 13.82z" transform="translate(-80.25 -46.15)"/><ellipse class="cls-10" cx="772.64" cy="566.43" rx="64.63" ry="36.56"/><ellipse class="cls-11" cx="772.64" cy="564.44" rx="64.63" ry="36.56"/><ellipse class="cls-10" cx="772.59" cy="563.48" rx="45.18" ry="25.56"/><path class="cls-12" d="M824 593.08c19.23-9 47.71-7.49 63.62 3.38 6.34 4.33 9.72 9.5 10.29 14.72.67-6.25-2.68-12.65-10.29-17.85-15.88-10.87-44.36-12.39-63.62-3.33-11.56 5.42-17.13 13.4-16.28 21.27.76-6.86 6.28-13.49 16.28-18.19z" transform="translate(-80.25 -46.15)"/><path class="cls-11" d="M832.87 618c-2.69-2.25-4.89-5.41-4.92-8.25l8.91-.52a9.32 9.32 0 004.21 6.59c2.93 1.95 5.53 2.18 8.12.9 5.79-2.87-8.12-12 2-17a21.55 21.55 0 0118.35.14l5.8-2.87 5.07 3.38-5.68 2.81c2.83 2.48 3.44 5 3.17 7.47l-8.6-.24a5.61 5.61 0 00-2.88-5.18c-2.51-1.67-4.93-2-7.47-.8-5.34 2.65 8.9 11.62-1.84 16.94a22.28 22.28 0 01-19-.09l-5.85 2.9-5.07-3.38z" transform="translate(-80.25 -46.15)"/><path class="cls-13" d="M773.58 603.65l.16 15.55m16.47-16.7l.06 15.12m15.74-18.94l.06 15.12m14.11-21.58l.06 13.94m11.54-23.73l-.32 14.17m-75.28 5.9l-.06 15.12m-15.74-18.94l-.06 15.12m-14.12-21.58l-.05 13.94m-11.55-23.73l.33 14.17"/><path class="cls-7" d="M606.3 343.15s-23.5-30.37-66.1-7.07c-32.57 17.8-15.37 16.55-54.52 29.18-23.09 7.44-59.43-34.18-116.3-7.3-103 48.67-139.93-48.37-184.37 5.28l2.33 249.48 419.31-232.06z" transform="translate(-80.25 -46.15)"/><path d="M606.68 383.53a1.47 1.47 0 001.41-1.5l-2.34-249.23a1.44 1.44 0 00-1.44-1.45 1.47 1.47 0 00-1.41 1.49l2.34 249.24a1.44 1.44 0 001.44 1.45zm-104.47 54.93a1.45 1.45 0 001.41-1.49l-2.33-249.23a1.44 1.44 0 00-1.44-1.45 1.45 1.45 0 00-1.41 1.49L500.77 437a1.44 1.44 0 001.44 1.46zm-104.43 58.07a1.47 1.47 0 001.41-1.5l-2.34-249.23a1.44 1.44 0 00-1.44-1.45 1.47 1.47 0 00-1.41 1.49l2.34 249.24a1.44 1.44 0 001.44 1.45zm-104.44 58a1.46 1.46 0 001.41-1.5l-2.34-249.23a1.43 1.43 0 00-1.43-1.45 1.45 1.45 0 00-1.41 1.49l2.33 249.24a1.44 1.44 0 001.44 1.45zM187.35 613a1.47 1.47 0 001.41-1.5l-2.34-249.23a1.44 1.44 0 00-1.42-1.47 1.47 1.47 0 00-1.41 1.49l2.34 249.24a1.44 1.44 0 001.42 1.47zm.23-271.87l13.77-8.47a7.06 7.06 0 002.73-5.55c0-2.11-1.28-3.07-2.8-2.13l-13.77 8.47a7.06 7.06 0 00-2.73 5.55c.02 2.11 1.28 3.07 2.8 2.13zm106.04-54.24l13.76-8.48a7 7 0 002.73-5.54c0-2.11-1.28-3.07-2.8-2.14l-13.76 8.48a7 7 0 00-2.74 5.54c.02 2.11 1.29 3.07 2.81 2.14zm103.69-53.64l13.77-8.48a7 7 0 002.73-5.54c0-2.11-1.28-3.07-2.8-2.14l-13.77 8.48a7 7 0 00-2.73 5.54c.02 2.11 1.28 3.07 2.8 2.14zm105.19-54.98l13.76-8.47a7 7 0 002.74-5.55c0-2.11-1.28-3.07-2.81-2.13l-13.76 8.48a7 7 0 00-2.73 5.54c.02 2.11 1.3 3.07 2.8 2.13zm103.62-55.69l13.76-8.47a7 7 0 002.73-5.54c0-2.12-1.28-3.08-2.8-2.14L606 114.91a7 7 0 00-2.73 5.54c.06 2.11 1.32 3.07 2.85 2.13zm-414.7 504.88l13.77-8.46a.67.67 0 00.12-.06l10.22-6.29c1.53-.94 2.79 0 2.81 2.13a7.06 7.06 0 01-2.73 5.55l-13.77 8.47a.52.52 0 01-.13.06l-10.22 6.29c-1.52.94-2.78 0-2.8-2.13a7 7 0 012.73-5.56zm221.41-129.25l13.76-8.47.13-.06 10.22-6.29c1.52-.94 2.79 0 2.8 2.13a7 7 0 01-2.73 5.54l-13.76 8.48a.52.52 0 00-.13.06l-10.22 6.29c-1.52.94-2.78 0-2.8-2.13a7.06 7.06 0 012.73-5.55zm-114.41 65.05l13.76-8.48.13-.06 10.22-6.29c1.53-.94 2.79 0 2.81 2.13a7 7 0 01-2.74 5.54l-13.76 8.48a.52.52 0 01-.13.06l-10.22 6.29c-1.52.94-2.78 0-2.8-2.13a7 7 0 012.73-5.54zm215.32-123.05l13.76-8.48.13-.06 10.22-6.29c1.53-.94 2.79 0 2.81 2.13a7 7 0 01-2.74 5.54l-13.76 8.48a.52.52 0 01-.13.06l-10.22 6.29c-1.52.94-2.78 0-2.8-2.13a7 7 0 012.73-5.54zm107.5-58.41l13.76-8.48.13-.06 10.22-6.26c1.52-.94 2.79 0 2.8 2.13a7 7 0 01-2.73 5.54l-13.76 8.48-.13.06-10.22 6.29c-1.52.94-2.78 0-2.8-2.13a7 7 0 012.73-5.57z" transform="translate(-80.25 -46.15)" fill="#abcfff"/><path class="cls-15" d="M534.14 534.42L132.62 757.78l-51.87-31.14 408.63-233.69 44.76 41.47z"/><path class="cls-16" d="M581.64 234.04v14.59l133.19 76 .38-15.15-133.57-75.44z"/><path class="cls-17" d="M534.14 533.9l-55.64-30.78-4.37-104.66 49.4-87.26-57.2-34.1-184.89 338.97 51.86 31.14L523.53 311.2l10.61 222.7"/><path class="cls-17" d="M674.39 285.74l15.58-14.59-61.38-37.11-146.9 269.31 51.87 31.14M333.45 644.54l-55.63-30.78-4.37-104.66 49.4-87.26-57.21-34.1L80.75 726.71l51.87 31.14 190.23-336.01 10.6 222.7"/><path class="cls-16" d="M333.3 647.21l-55.48-33.45-4.37-104.66 49.4-87.26-57.21-34.1 57.21 34.1 10.6 222.7m200.69-110.05l-55.64-30.78-4.37-104.66 49.4-87.26-57.2-34.09 57.2 34.09 10.61 222.7"/><path class="cls-17" d="M581.64 234.04l127.18-69.77 6.31 147.58-133.49-77.81z"/><path class="cls-18" d="M539.75 490.29c4.79-3 10.46-6.54 13.76-10.6a9.25 9.25 0 002.44-4.38c.48-1.62-.07 1.08.11-.6q.06-.56.09-1.11c.07-1.61.23-.2-.2-2.11-1-4.24-11.51-18.73-14.14-23.25-4.17-7.16-.62-4.22-5-11.26s-1.4-14.84 4.45-9.16c6.25 6.07 17 19.27 21.38 27.19 2.82 5 5.57 10.55 6.17 16.26 1.43 13.63-10.11 22.11-20.54 28.65-2.89 1.81-6.54 2-9.07-.85-2.09-2.32-2.3-7 .56-8.78z" transform="translate(-80.25 -46.15)"/><path fill="#bad4ff" d="M336.34 376.59l-10.35-1.28 7.73-6.32 2.62 7.6z"/><path d="M409.29 421.84l-3.05-.38 2.67-2.18c-1.07 1.24-.91 2.07.38 2.56z" transform="translate(-80.25 -46.15)" fill="#3b2ad1"/><path class="cls-21" d="M412.2 418.62a4.13 4.13 0 004.39 4.12 4.58 4.58 0 004.41-4.44 4.13 4.13 0 00-4.39-4.12 4.59 4.59 0 00-4.41 4.44z" transform="translate(-80.25 -46.15)"/><path class="cls-21" d="M336.74 368.03l43.19-9.54.22 8.54-36.47 7.93-6.94-6.93z"/><path class="cls-21" d="M415.84 418.87a4.87 4.87 0 001.09-.18l38.4-8.65 2.66 3.68-40.26 8.75a4.87 4.87 0 01-1.09.18 4.18 4.18 0 01-4.28-3.14z" transform="translate(-80.25 -46.15)"/><path class="cls-22" d="M458.12 405.07l2.56-.53v1.5a4.78 4.78 0 011.15 3 5.08 5.08 0 01-1 3.36v.66l-1.36.39a2.87 2.87 0 01-.69.16c-1.82.14-3.36-1.65-3.46-4s1.12-4.23 2.8-4.54z" transform="translate(-80.25 -46.15)"/><path d="M460.3 404.58h.13l2.63-.42.11 2.22a5.16 5.16 0 01.59 2.21 5.43 5.43 0 01-.38 2.23l.09 1.87-2.46.38a2 2 0 01-.35.06c-1.81.14-3.36-1.65-3.46-4s1.29-4.4 3.1-4.55z" transform="translate(-80.25 -46.15)" fill="#e6558a"/><path class="cls-24" d="M459.83 408.7c.1 2.35 1.65 4.14 3.46 4s3.2-2.18 3.1-4.54-1.64-4.15-3.46-4-3.19 2.18-3.1 4.54z" transform="translate(-80.25 -46.15)"/><ellipse class="cls-8" cx="586.71" cy="644.97" rx="64.63" ry="36.56"/><path class="cls-9" d="M709.94 678c.53 2.38-.48 20.28-1.56 22.84-2 8.19-9.18 16-21.22 21.68-26.42 12.56-66.4 10.53-89.3-4.54-10.67-7-16.46-14.16-16.6-23.07-.34-4.82-.49-18.28-.49-18.28.85-2.94 4.25.13 6.41-2.62 3.57-5.41 9.55-10.38 17.93-14.37 26.42-12.56 66.4-10.52 89.3 4.54 9.64 6.39 14.86 6.19 15.53 13.82z" transform="translate(-80.25 -46.15)"/><ellipse class="cls-10" cx="565.15" cy="631.88" rx="64.63" ry="36.56"/><ellipse class="cls-11" cx="565.15" cy="629.89" rx="64.63" ry="36.56"/><ellipse class="cls-10" cx="565.11" cy="628.93" rx="45.18" ry="25.56"/><path class="cls-12" d="M616.55 658.53c19.22-9 47.7-7.49 63.61 3.38 6.34 4.33 9.73 9.5 10.29 14.72.68-6.25-2.68-12.65-10.29-17.85-15.91-10.87-44.39-12.39-63.61-3.38-11.56 5.41-17.14 13.4-16.29 21.27.74-6.81 6.26-13.44 16.29-18.14z" transform="translate(-80.25 -46.15)"/><path class="cls-11" d="M625.38 683.48c-2.69-2.25-4.88-5.41-4.92-8.25l8.92-.53a9.31 9.31 0 004.2 6.6c2.93 2 5.53 2.18 8.12.89 5.8-2.86-8.11-12 2-17a21.55 21.55 0 0118.35.14l5.79-2.87 5.07 3.38-5.68 2.81c2.84 2.48 3.44 5 3.17 7.47l-8.59-.24a5.65 5.65 0 00-2.88-5.18c-2.51-1.67-4.94-2.05-7.47-.8-5.35 2.65 8.9 11.62-1.85 16.93a22.24 22.24 0 01-19-.08l-5.85 2.9-5.07-3.38z" transform="translate(-80.25 -46.15)"/><path class="cls-13" d="M566.09 669.1l.17 15.55m16.46-16.7l.06 15.12m15.74-18.94l.06 15.12m14.11-21.58l.06 13.94m11.55-23.73l-.33 14.17m-75.28 5.9l-.06 15.12m-15.74-18.94l-.06 15.12m-14.11-21.58l-.06 13.94m-11.54-23.73l.32 14.17"/><ellipse class="cls-8" cx="938.48" cy="641.71" rx="64.63" ry="36.56"/><path class="cls-9" d="M1061.71 674.78c.53 2.39-.47 20.28-1.56 22.85-2 8.18-9.17 16-21.21 21.68-26.43 12.56-66.41 10.53-89.3-4.54-10.68-7-16.47-14.16-16.61-23.08-.34-4.82-.48-18.27-.48-18.27.84-2.94 4.24.12 6.4-2.62 3.57-5.42 9.55-10.39 17.93-14.37 26.42-12.56 66.4-10.53 89.3 4.54 9.64 6.34 14.82 6.15 15.53 13.81z" transform="translate(-80.25 -46.15)"/><ellipse class="cls-10" cx="916.93" cy="628.63" rx="64.63" ry="36.56"/><ellipse class="cls-11" cx="916.93" cy="626.63" rx="64.63" ry="36.56"/><ellipse class="cls-10" cx="916.88" cy="625.67" rx="45.18" ry="25.56"/><path class="cls-12" d="M968.32 655.28c19.22-9 47.7-7.5 63.61 3.37 6.35 4.34 9.73 9.5 10.29 14.72.68-6.25-2.67-12.65-10.29-17.85-15.91-10.87-44.39-12.38-63.61-3.38-11.56 5.42-17.13 13.41-16.29 21.28.74-6.82 6.26-13.42 16.29-18.14z" transform="translate(-80.25 -46.15)"/><path class="cls-11" d="M977.15 680.22c-2.69-2.25-4.88-5.41-4.92-8.24l8.92-.53a9.29 9.29 0 004.21 6.59c2.92 2 5.52 2.18 8.11.9 5.8-2.87-8.11-12 2-17a21.55 21.55 0 0118.35.13l5.8-2.86 5.06 3.37-5.68 2.81c2.84 2.48 3.44 5 3.17 7.47l-8.59-.23a5.65 5.65 0 00-2.88-5.19c-2.51-1.67-4.94-2-7.47-.79-5.35 2.64 8.9 11.61-1.85 16.93a22.25 22.25 0 01-18.95-.08l-5.86 2.89-5.04-3.39z" transform="translate(-80.25 -46.15)"/><path class="cls-13" d="M917.86 665.85l.17 15.54m16.46-16.7l.06 15.12m15.74-18.94l.06 15.12m14.12-21.57l.05 13.94m11.55-23.73l-.33 14.17m-75.28 5.89l-.06 15.12m-15.74-18.94l-.06 15.12m-14.11-21.57l-.06 13.94m-11.54-23.73l.32 14.17"/><ellipse class="cls-8" cx="755.21" cy="504.22" rx="64.63" ry="36.56"/><path class="cls-9" d="M878.45 537.29c.53 2.38-.48 20.28-1.56 22.84-2 8.19-9.18 16-21.22 21.68-26.42 12.56-66.4 10.53-89.3-4.54-10.67-7-16.47-14.16-16.6-23.07-.35-4.82-.49-18.28-.49-18.28.84-2.94 4.25.13 6.41-2.62 3.56-5.41 9.55-10.38 17.92-14.36 26.42-12.57 66.4-10.53 89.3 4.53 9.64 6.35 14.86 6.15 15.54 13.82z" transform="translate(-80.25 -46.15)"/><ellipse class="cls-10" cx="733.66" cy="491.13" rx="64.63" ry="36.56"/><ellipse class="cls-11" cx="733.66" cy="489.14" rx="64.63" ry="36.56"/><ellipse class="cls-10" cx="733.61" cy="488.18" rx="45.18" ry="25.56"/><path class="cls-12" d="M785.05 517.78c19.23-9 47.71-7.49 63.62 3.38 6.34 4.33 9.72 9.5 10.29 14.72.67-6.25-2.68-12.65-10.29-17.85-15.91-10.87-44.39-12.39-63.62-3.38-11.56 5.42-17.13 13.4-16.28 21.27.73-6.81 6.23-13.44 16.28-18.14z" transform="translate(-80.25 -46.15)"/><path class="cls-11" d="M793.89 542.73c-2.69-2.25-4.89-5.41-4.92-8.24l8.91-.53a9.32 9.32 0 004.21 6.59c2.93 2 5.53 2.18 8.12.9 5.79-2.87-8.12-12 2-17a21.55 21.55 0 0118.35.14l5.8-2.87 5.07 3.38-5.68 2.81c2.83 2.48 3.44 5 3.17 7.47l-8.6-.24a5.61 5.61 0 00-2.88-5.18c-2.51-1.67-4.93-2.05-7.47-.8-5.34 2.65 8.9 11.62-1.84 16.94a22.28 22.28 0 01-19-.09l-5.85 2.9-5.07-3.38z" transform="translate(-80.25 -46.15)"/><path class="cls-13" d="M734.6 528.36l.16 15.54m16.47-16.7l.06 15.12m15.74-18.94l.06 15.12m14.11-21.58l.06 13.95m11.54-23.74l-.32 14.17m-75.28 5.9l-.06 15.12m-15.74-18.94l-.06 15.12m-14.12-21.58l-.05 13.95m-11.55-23.74l.33 14.17"/><path class="cls-9" d="M878.45 510.46c.53 2.39-.48 20.28-1.56 22.84-2 8.19-9.18 16-21.22 21.68-26.42 12.56-66.4 10.53-89.3-4.53-10.67-7-16.47-14.16-16.6-23.08-.35-4.82-.49-18.28-.49-18.28.84-2.94 4.25.13 6.41-2.62 3.56-5.41 9.55-10.38 17.92-14.36 26.42-12.56 66.4-10.53 89.3 4.53 9.64 6.36 14.86 6.16 15.54 13.82z" transform="translate(-80.25 -46.15)"/><ellipse class="cls-10" cx="733.66" cy="464.3" rx="64.63" ry="36.56"/><ellipse class="cls-11" cx="733.66" cy="462.31" rx="64.63" ry="36.56"/><ellipse class="cls-10" cx="733.61" cy="461.35" rx="45.18" ry="25.56"/><path class="cls-12" d="M785.05 491c19.23-9 47.71-7.49 63.62 3.38 6.34 4.33 9.72 9.5 10.29 14.72.67-6.25-2.68-12.65-10.29-17.85-15.91-10.87-44.39-12.38-63.62-3.38-11.56 5.42-17.13 13.4-16.28 21.27.73-6.86 6.23-13.49 16.28-18.14z" transform="translate(-80.25 -46.15)"/><path class="cls-11" d="M793.89 515.9c-2.69-2.25-4.89-5.41-4.92-8.24l8.91-.53a9.32 9.32 0 004.21 6.59c2.93 1.95 5.53 2.18 8.12.9 5.79-2.87-8.12-12 2-17a21.55 21.55 0 0118.35.14l5.8-2.87 5.07 3.38-5.68 2.81c2.83 2.48 3.44 5 3.17 7.47l-8.6-.24a5.61 5.61 0 00-2.88-5.18c-2.51-1.67-4.93-2.05-7.47-.79-5.34 2.64 8.9 11.61-1.84 16.93a22.24 22.24 0 01-19-.09l-5.85 2.9-5.07-3.38z" transform="translate(-80.25 -46.15)"/><path class="cls-13" d="M734.6 501.53l.16 15.54m16.47-16.7l.06 15.12m15.74-18.94l.06 15.12m14.11-21.58l.06 13.95m11.54-23.74l-.32 14.17m-75.28 5.9l-.06 15.12m-15.74-18.94l-.06 15.12m-14.12-21.58l-.05 13.95m-11.55-23.74l.33 14.17"/><path class="cls-9" d="M878.45 481.8c.53 2.38-.48 20.28-1.56 22.84-2 8.19-9.18 16-21.22 21.68-26.42 12.56-66.4 10.53-89.3-4.54-10.67-7-16.47-14.16-16.6-23.07-.35-4.82-.49-18.28-.49-18.28.84-2.94 4.25.12 6.41-2.62 3.56-5.41 9.55-10.39 17.92-14.37C800 450.88 840 452.91 862.91 468c9.64 6.33 14.86 6.13 15.54 13.8z" transform="translate(-80.25 -46.15)"/><ellipse class="cls-10" cx="733.66" cy="435.64" rx="64.63" ry="36.56"/><ellipse class="cls-11" cx="733.66" cy="433.65" rx="64.63" ry="36.56"/><ellipse class="cls-10" cx="733.61" cy="432.69" rx="45.18" ry="25.56"/><path class="cls-12" d="M785.05 462.29c19.23-9 47.71-7.49 63.62 3.38 6.34 4.33 9.72 9.5 10.29 14.72.67-6.25-2.68-12.65-10.29-17.85-15.91-10.88-44.39-12.39-63.62-3.38-11.56 5.41-17.13 13.4-16.28 21.27.73-6.81 6.23-13.43 16.28-18.14z" transform="translate(-80.25 -46.15)"/><path class="cls-11" d="M793.89 487.24C791.2 485 789 481.83 789 479l8.91-.53a9.34 9.34 0 004.21 6.6c2.93 1.95 5.53 2.17 8.12.89 5.79-2.86-8.12-12 2-17a21.55 21.55 0 0118.35.14l5.8-2.87 5.07 3.38-5.68 2.81c2.83 2.48 3.44 5 3.17 7.47l-8.6-.24a5.61 5.61 0 00-2.88-5.18c-2.51-1.68-4.93-2.05-7.47-.8-5.34 2.65 8.9 11.61-1.84 16.93a22.24 22.24 0 01-19-.08l-5.85 2.9-5.05-3.42z" transform="translate(-80.25 -46.15)"/><path class="cls-13" d="M734.6 472.86l.16 15.54m16.47-16.69l.06 15.12m15.74-18.94l.06 15.12m14.11-21.58l.06 13.94m11.54-23.73l-.32 14.17m-75.28 5.9l-.06 15.12m-15.74-18.94l-.06 15.12m-14.12-21.58l-.05 13.94m-11.55-23.73l.33 14.17"/><path class="cls-9" d="M878.45 454.74c.53 2.39-.48 20.28-1.56 22.85-2 8.18-9.18 16-21.22 21.68-26.42 12.56-66.4 10.53-89.3-4.54-10.67-7-16.47-14.16-16.6-23.08-.35-4.82-.49-18.27-.49-18.27.84-2.94 4.25.12 6.41-2.62 3.56-5.42 9.55-10.39 17.92-14.37 26.42-12.56 66.4-10.53 89.3 4.54 9.64 6.34 14.86 6.15 15.54 13.81z" transform="translate(-80.25 -46.15)"/><ellipse class="cls-10" cx="733.66" cy="408.59" rx="64.63" ry="36.56"/><ellipse class="cls-11" cx="733.66" cy="406.59" rx="64.63" ry="36.56"/><ellipse class="cls-10" cx="733.61" cy="405.63" rx="45.18" ry="25.56"/><path class="cls-12" d="M785.05 435.24c19.23-9 47.71-7.5 63.62 3.37 6.34 4.34 9.72 9.5 10.29 14.72.67-6.25-2.68-12.65-10.29-17.85-15.91-10.87-44.39-12.38-63.62-3.38-11.56 5.42-17.13 13.41-16.28 21.28.73-6.82 6.23-13.45 16.28-18.14z" transform="translate(-80.25 -46.15)"/><path class="cls-11" d="M793.89 460.18c-2.69-2.25-4.89-5.41-4.92-8.24l8.91-.53a9.32 9.32 0 004.21 6.59c2.93 1.95 5.53 2.18 8.12.9 5.79-2.87-8.12-12 2-17a21.55 21.55 0 0118.35.13l5.8-2.86 5.07 3.37-5.68 2.81c2.83 2.48 3.44 5 3.17 7.47l-8.6-.23a5.63 5.63 0 00-2.88-5.19c-2.51-1.67-4.93-2.05-7.47-.79-5.34 2.64 8.9 11.61-1.84 16.93a22.28 22.28 0 01-19-.08l-5.85 2.89-5.02-3.35z" transform="translate(-80.25 -46.15)"/><path class="cls-13" d="M734.6 445.81l.16 15.54m16.47-16.7l.06 15.12m15.74-18.94l.06 15.12m14.11-21.57l.06 13.94m11.54-23.73l-.32 14.16m-75.28 5.9l-.06 15.12m-15.74-18.94l-.06 15.12m-14.12-21.57l-.05 13.94m-11.55-23.73l.33 14.16"/><ellipse class="cls-8" cx="655.2" cy="561.15" rx="64.63" ry="36.56"/><path class="cls-9" d="M778.43 594.22c.53 2.38-.48 20.28-1.56 22.84-2 8.19-9.18 16-21.22 21.68-26.42 12.56-66.4 10.53-89.3-4.54-10.67-7-16.46-14.16-16.6-23.07-.34-4.82-.49-18.28-.49-18.28.85-2.94 4.25.13 6.41-2.62 3.57-5.41 9.55-10.38 17.93-14.37 26.4-12.56 66.4-10.52 89.3 4.54 9.64 6.35 14.86 6.15 15.53 13.82z" transform="translate(-80.25 -46.15)"/><ellipse class="cls-10" cx="633.64" cy="548.06" rx="64.63" ry="36.56"/><ellipse class="cls-11" cx="633.64" cy="546.07" rx="64.63" ry="36.56"/><ellipse class="cls-10" cx="633.6" cy="545.11" rx="45.18" ry="25.56"/><path class="cls-12" d="M685 574.71c19.22-9 47.7-7.49 63.61 3.38 6.34 4.33 9.73 9.5 10.29 14.72.68-6.25-2.68-12.65-10.29-17.85-15.91-10.87-44.39-12.39-63.61-3.38-11.52 5.42-17.1 13.42-16.25 21.27.74-6.85 6.25-13.44 16.25-18.14z" transform="translate(-80.25 -46.15)"/><path class="cls-11" d="M693.87 599.66c-2.69-2.25-4.88-5.41-4.92-8.25l8.92-.52a9.31 9.31 0 004.2 6.59c2.93 1.95 5.53 2.18 8.12.9 5.8-2.87-8.11-12 2-17a21.55 21.55 0 0118.35.14l5.79-2.87 5.07 3.38-5.68 2.81c2.84 2.48 3.44 5 3.17 7.47l-8.59-.24a5.65 5.65 0 00-2.88-5.18c-2.51-1.67-4.94-2-7.47-.8-5.35 2.65 8.9 11.62-1.85 16.93a22.24 22.24 0 01-19-.08l-5.85 2.9-5.07-3.38z" transform="translate(-80.25 -46.15)"/><path class="cls-13" d="M634.58 585.28l.17 15.55m16.46-16.7l.06 15.12m15.74-18.94l.06 15.12m14.11-21.58l.06 13.94m11.55-23.73l-.33 14.17m-75.28 5.9l-.06 15.12m-15.74-18.94l-.06 15.12m-14.11-21.58l-.06 13.94m-11.54-23.73l.32 14.17"/><path class="cls-9" d="M778.43 567.39c.53 2.38-.48 20.28-1.56 22.84-2 8.19-9.18 16-21.22 21.68-26.42 12.56-66.4 10.53-89.3-4.53-10.67-7-16.46-14.16-16.6-23.08-.34-4.82-.49-18.28-.49-18.28.85-2.94 4.25.13 6.41-2.62 3.57-5.4 9.55-10.4 17.93-14.4 26.42-12.57 66.4-10.53 89.3 4.53 9.64 6.39 14.86 6.2 15.53 13.86z" transform="translate(-80.25 -46.15)"/><ellipse class="cls-10" cx="633.64" cy="521.23" rx="64.63" ry="36.56"/><ellipse class="cls-11" cx="633.64" cy="519.24" rx="64.63" ry="36.56"/><ellipse class="cls-10" cx="633.6" cy="518.28" rx="45.18" ry="25.56"/><path class="cls-12" d="M685 547.88c19.22-9 47.7-7.49 63.61 3.38 6.34 4.33 9.73 9.5 10.29 14.72.68-6.25-2.68-12.65-10.29-17.85-15.91-10.87-44.39-12.39-63.61-3.38-11.56 5.42-17.14 13.4-16.29 21.27.78-6.81 6.29-13.44 16.29-18.14z" transform="translate(-80.25 -46.15)"/><path class="cls-11" d="M693.87 572.83c-2.69-2.25-4.88-5.41-4.92-8.24l8.92-.53a9.31 9.31 0 004.2 6.59c2.93 2 5.53 2.18 8.12.9 5.8-2.87-8.11-12 2-17a21.55 21.55 0 0118.35.14l5.79-2.87 5.07 3.38-5.66 2.8c2.84 2.48 3.44 5 3.17 7.47l-8.59-.24a5.65 5.65 0 00-2.88-5.18c-2.51-1.67-4.94-2-7.47-.8-5.35 2.65 8.9 11.62-1.85 16.94a22.24 22.24 0 01-19-.09l-5.85 2.9-5.07-3.38z" transform="translate(-80.25 -46.15)"/><path class="cls-13" d="M634.58 558.46l.17 15.54m16.46-16.7l.06 15.12m15.74-18.94l.06 15.12m14.11-21.58l.06 13.95m11.55-23.74l-.33 14.17m-75.28 5.9l-.06 15.12m-15.74-18.94l-.06 15.12m-14.11-21.58l-.06 13.95m-11.54-23.74l.32 14.17"/><path class="cls-9" d="M778.43 538.73c.53 2.38-.48 20.28-1.56 22.84-2 8.19-9.18 16-21.22 21.68-26.42 12.56-66.4 10.53-89.3-4.54-10.67-7-16.46-14.16-16.6-23.07-.34-4.82-.49-18.28-.49-18.28.85-2.94 4.25.12 6.41-2.62 3.57-5.41 9.55-10.39 17.93-14.37 26.42-12.56 66.4-10.53 89.3 4.54 9.64 6.35 14.86 6.15 15.53 13.82z" transform="translate(-80.25 -46.15)"/><ellipse class="cls-10" cx="633.64" cy="492.57" rx="64.63" ry="36.56"/><ellipse class="cls-11" cx="633.64" cy="490.58" rx="64.63" ry="36.56"/><ellipse class="cls-10" cx="633.6" cy="489.62" rx="45.18" ry="25.56"/><path class="cls-12" d="M685 519.22c19.22-9 47.7-7.49 63.61 3.38 6.34 4.33 9.73 9.5 10.29 14.72.68-6.25-2.68-12.65-10.29-17.85-15.91-10.88-44.39-12.39-63.61-3.38-11.56 5.41-17.14 13.4-16.29 21.27.78-6.81 6.29-13.44 16.29-18.14z" transform="translate(-80.25 -46.15)"/><path class="cls-11" d="M693.87 544.16c-2.69-2.24-4.88-5.4-4.92-8.24l8.92-.53a9.33 9.33 0 004.2 6.6c2.93 1.94 5.53 2.17 8.12.89 5.8-2.87-8.11-12 2-17a21.52 21.52 0 0118.35.14l5.79-2.87 5.07 3.38-5.68 2.81c2.84 2.48 3.44 5 3.17 7.47l-8.59-.24a5.65 5.65 0 00-2.88-5.18c-2.51-1.68-4.94-2-7.47-.8-5.35 2.65 8.9 11.61-1.85 16.93a22.24 22.24 0 01-19-.08l-5.85 2.9-5.01-3.34z" transform="translate(-80.25 -46.15)"/><path class="cls-13" d="M634.58 529.79l.17 15.54m16.46-16.69l.06 15.12m15.74-18.94l.06 15.12m14.11-21.58l.06 13.94m11.55-23.73l-.33 14.17m-75.28 5.9l-.06 15.12m-15.74-18.94l-.06 15.12m-14.11-21.58l-.06 13.94m-11.54-23.73l.32 14.17"/><path class="cls-9" d="M778.43 511.67c.53 2.39-.48 20.28-1.56 22.85-2 8.18-9.18 16-21.22 21.68-26.42 12.56-66.4 10.53-89.3-4.54-10.67-7-16.46-14.16-16.6-23.08-.34-4.82-.49-18.27-.49-18.27.85-2.94 4.25.12 6.41-2.62 3.57-5.42 9.55-10.39 17.93-14.37 26.42-12.56 66.4-10.53 89.3 4.54 9.64 6.34 14.86 6.14 15.53 13.81z" transform="translate(-80.25 -46.15)"/><ellipse class="cls-10" cx="633.64" cy="465.52" rx="64.63" ry="36.56"/><ellipse class="cls-11" cx="633.64" cy="463.52" rx="64.63" ry="36.56"/><ellipse class="cls-10" cx="633.6" cy="462.56" rx="45.18" ry="25.56"/><path class="cls-12" d="M685 492.17c19.22-9 47.7-7.5 63.61 3.37 6.34 4.34 9.73 9.5 10.29 14.72.68-6.25-2.68-12.65-10.29-17.85C732.74 481.54 704.26 480 685 489c-11.56 5.42-17.14 13.41-16.29 21.28.78-6.79 6.29-13.42 16.29-18.11z" transform="translate(-80.25 -46.15)"/><path class="cls-11" d="M693.87 517.11c-2.69-2.25-4.88-5.41-4.92-8.24l8.92-.53a9.31 9.31 0 004.2 6.59c2.93 2 5.53 2.18 8.12.9 5.8-2.87-8.11-12 2-17a21.59 21.59 0 0118.35.14l5.79-2.87 5.07 3.38-5.68 2.81c2.84 2.48 3.44 5 3.17 7.47l-8.59-.23a5.66 5.66 0 00-2.88-5.19c-2.51-1.67-4.94-2.05-7.47-.79-5.35 2.64 8.9 11.61-1.85 16.93a22.28 22.28 0 01-19-.08l-5.85 2.89-5.07-3.37z" transform="translate(-80.25 -46.15)"/><path class="cls-13" d="M634.58 502.74l.17 15.54m16.46-16.7l.06 15.12m15.74-18.94l.06 15.12m14.11-21.57l.06 13.94m11.55-23.73l-.33 14.16m-75.28 5.9l-.06 15.12m-15.74-18.94l-.06 15.12m-14.11-21.57l-.06 13.94m-11.54-23.73l.32 14.16"/><path class="cls-9" d="M917.43 587.45c.53 2.38-.48 20.28-1.56 22.84-2 8.19-9.18 16-21.22 21.68-26.42 12.56-66.4 10.53-89.3-4.54-10.67-7-16.47-14.16-16.6-23.07-.34-4.82-.49-18.28-.49-18.28.84-2.94 4.25.12 6.41-2.62 3.56-5.41 9.55-10.38 17.92-14.37 26.42-12.56 66.4-10.53 89.3 4.54 9.65 6.37 14.87 6.15 15.54 13.82z" transform="translate(-80.25 -46.15)"/><ellipse class="cls-10" cx="772.64" cy="541.29" rx="64.63" ry="36.56"/><ellipse class="cls-11" cx="772.64" cy="539.3" rx="64.63" ry="36.56"/><ellipse class="cls-10" cx="772.59" cy="538.34" rx="45.18" ry="25.56"/><path class="cls-12" d="M824 567.94c19.23-9 47.71-7.49 63.62 3.38 6.34 4.33 9.72 9.5 10.29 14.72.67-6.25-2.68-12.65-10.29-17.85-15.91-10.87-44.39-12.39-63.62-3.38-11.56 5.41-17.13 13.4-16.28 21.27.76-6.81 6.28-13.44 16.28-18.14z" transform="translate(-80.25 -46.15)"/><path class="cls-11" d="M832.87 592.89c-2.69-2.25-4.89-5.41-4.92-8.25l8.91-.53a9.32 9.32 0 004.21 6.6c2.93 1.95 5.53 2.18 8.12.89 5.79-2.86-8.12-12 2-17a21.55 21.55 0 0118.35.14l5.8-2.87 5.07 3.38-5.68 2.81c2.83 2.48 3.44 5 3.17 7.47l-8.6-.24a5.61 5.61 0 00-2.88-5.18c-2.51-1.67-4.93-2.05-7.47-.8-5.34 2.65 8.9 11.61-1.84 16.93a22.24 22.24 0 01-19-.08l-5.85 2.9-5.07-3.38z" transform="translate(-80.25 -46.15)"/><path class="cls-13" d="M773.58 578.51l.16 15.54m16.47-16.69l.06 15.12m15.74-18.94l.06 15.12m14.11-21.58l.06 13.94m11.54-23.73l-.32 14.17m-75.28 5.9l-.06 15.12m-15.74-18.94l-.06 15.12m-14.12-21.58l-.05 13.94m-11.55-23.73l.33 14.17"/><path class="cls-5" d="M994.17 338.8s8.51 1.47 8.93 5.72a46.15 46.15 0 010 8.26l-28.42-3.07 1.73-11.78z" transform="translate(-80.25 -46.15)"/><path class="cls-25" d="M955.47 367.53s-16 25.87-15.4 41.93c0 0 6.39 8.8 9.32 1 7.15-19.06 11.71-35.38 18.51-41.87s-12.43-1.06-12.43-1.06z" transform="translate(-80.25 -46.15)"/><path class="cls-5" d="M998.16 578l7.33-16.72c1.24-1.43 4.68-2.62 7.25-2.71a3.23 3.23 0 012.84 2.24l1.09 2.86c1.7 4.1 1.58 4.77 0 6.67l-9.72 11.28a6.62 6.62 0 01-7 1.78l-.63-.27c-2.32-.89-2.8-3.2-1.16-5.13z" transform="translate(-80.25 -46.15)"/><path class="cls-6" d="M1016.62 561c0 4-9.93 5-9.91 1v-12.92l9.92-1.05z" transform="translate(-80.25 -46.15)"/><path class="cls-7" d="M1017.52 552.67c-2.81 4.86-9.88 5.65-12.19 2.61L982 420.76l33.19-2.52.72 86c5.01 21.91 3.3 35.16 1.61 48.43z" transform="translate(-80.25 -46.15)"/><path class="cls-25" d="M1008 382c7.42 8.77 11.09 13 16.91 25.06 3.8 7.87 2.13 14.68-1.16 19-4.49 5.86-9.66 12.45-9.66 12.45l5.77 5.24s21-17.95 17.62-34.43l-12.37-39z" transform="translate(-80.25 -46.15)"/><path class="cls-25" d="M1019 440l-.93-.88a4.56 4.56 0 00-6.37.51l-3.66 3.89a4.54 4.54 0 00-.14 6.38l.94.88a4.53 4.53 0 006.36-.51l3.67-3.88a4.54 4.54 0 00.13-6.39z" transform="translate(-80.25 -46.15)"/><path class="cls-26" d="M964.44 345.85c-9.88 15.84-19.37 31.78-20.44 42.61 2.6 9.06 5.1 4 11.44 6.28l18.95-33.27-5.19-8.71z" transform="translate(-80.25 -46.15)"/><path class="cls-26" d="M963.4 421.67c-.49-15.68-.92-30.22-3.86-49.68-.85-27 9.06-37.36 26.29-31.68l7.09 1.65c20.91 10.43 31.33 9.55 28.34 31.43l-2.11 47.8c.76 24.56-56.15 29.38-55.75.48z" transform="translate(-80.25 -46.15)"/><path class="cls-5" d="M927.7 334.21l10.02 36.53 1.17 3.55.75-17.78-11.94-22.3z"/><path class="cls-26" d="M1006.17 376.09l19.33 36.67c1.53 2.22 12.77-1.25 12.64-5.16-.28-8.18-13.1-50.63-25.3-55.94-9.92-4.3-12.48 11.34-6.67 24.43z" transform="translate(-80.25 -46.15)"/><path class="cls-21" d="M987.8 374.56s-2.88 2.11-1.43 5.1 16.36 1.09 15.27-3.71-1.97-6.87-13.84-1.39zm-35.28 22.54a4.22 4.22 0 005.06-3.29v-.09c.55-3.28-12.67-10.4-14.57-5.86-1.77 4.27-1.22 6.91 9.51 9.24z" transform="translate(-80.25 -46.15)"/><path class="cls-10" d="M1001.61 345.89s1.28 7.37-9.36 13.8c-5.48 3.32-8.12 8.78-9.4 13.29-.74 2.63-2.3 1.37-2.65-1.38-.91-7.16-1.2-9.24-2.82-14.52-2.61-8.54.82-21.33 1.29-21.43s22.94 10.24 22.94 10.24zM978.67 379a1.79 1.79 0 101.79-1.8 1.79 1.79 0 00-1.79 1.8zm.26 6.92a1.8 1.8 0 101.79-1.79 1.79 1.79 0 00-1.79 1.79z" transform="translate(-80.25 -46.15)"/><path class="cls-5" d="M986.67 340.65s-10.26 3.44-7.74 13.11l.41 11.48s-8.19-12.9-4.66-25.15 11.99.56 11.99.56z" transform="translate(-80.25 -46.15)"/><path class="cls-5" d="M982.72 341.06s2.22 2.68 3.47 3.12 16.53-8.84 13.22-22c-2.09-8.33-17.88-4.15-17.88-4.15z" transform="translate(-80.25 -46.15)"/><path class="cls-25" d="M991.45 352.38l-.76.22a4.86 4.86 0 01-6-3.36l-4.07-14.47a4.86 4.86 0 013.36-6l.76-.21a4.86 4.86 0 016 3.35l6 13.33c.67 2.6-2.74 6.42-5.29 7.14z" transform="translate(-80.25 -46.15)"/><path class="cls-27" d="M982.85 342.59a13.27 13.27 0 009.82-7s-3 9.68-8.69 11.08z" transform="translate(-80.25 -46.15)"/><path class="cls-5" d="M996.32 339.54s7.35 8.46-5.69 15.7c0 0-5 5.39-5 11.2 0 0 4.35-3.58 6.87-5.53s21.5-13.86 3.82-21.37z" transform="translate(-80.25 -46.15)"/><path class="cls-25" d="M985.55 336.36c-2.41 6.82-7.68 8.46-11.78 3.67s-5.48-14.2-3.07-21 7.68-8.46 11.78-3.67 5.52 14.18 3.07 21z" transform="translate(-80.25 -46.15)"/><path class="cls-25" d="M993 334.6c-2.41 6.81-14 11.36-18.08 6.57s-1.49-16.68.92-23.5 7.68-8.46 11.78-3.67 7.77 13.78 5.38 20.6z" transform="translate(-80.25 -46.15)"/><path class="cls-5" d="M984.65 318.5s-1.07 13.37 9.58 16c0 0 11.67-7.27 2.5-19.8-8.07-11-20.13-2-20.13-2zm-15.07 9.5s1.22-5.75 8.08-8.39l-5.59-3.09s-5.55 1.48-2.49 11.48z" transform="translate(-80.25 -46.15)"/><path class="cls-5" d="M990.44 326.14c-2.42-3-7.37-2.84-14.32-.07a6 6 0 01-3.32.45c-5.27-.9-6.28-7.36-6.28-7.36-1.27-4.29 1.53-6.35 5.83-7.62l11.19-3.32c6.33-1.92 12.7 3.12 14 7.42l.32.71c1.25 4.29-3.13 8.52-7.42 9.79z" transform="translate(-80.25 -46.15)"/><path class="cls-25" d="M995.4 334.05a3.18 3.18 0 11-1.94-4.06 3.17 3.17 0 011.94 4.06z" transform="translate(-80.25 -46.15)"/><path class="cls-6" d="M1015 455.33s-8.21-14.43-8.33-15.9c0 0-3.12 7.53 0 11.71a11.22 11.22 0 008.33 4.19zm-36.82-45.82l-4.36-1.51-.51-.51-.32-.58-32.78-17a1.68 1.68 0 00-1.45.05l-12.51 7.34v-.2l-2.36.94.1 1a.54.54 0 00.26.26l34.1 17.73a.16.16 0 01.09.13c.72 2.61 1.91 4.95 4.13 3.59l13.86-8.16a3.34 3.34 0 001.75-3z" transform="translate(-80.25 -46.15)"/><path class="cls-22" d="M959.75 419.64l-39.27-20.42c-.46-.24-.45-.65 0-.93l16.69-9.78a1.89 1.89 0 011.67-.07l39.27 20.42c.46.24.45.66 0 .93l-16.69 9.78a1.89 1.89 0 01-1.67.07z" transform="translate(-80.25 -46.15)"/><path class="cls-6" d="M960.85 406.49l-9.5-4.95c-.11-.05-.11-.15 0-.22l4-2.37a.47.47 0 01.4 0l9.51 4.94c.11.06.11.16 0 .22l-4 2.37a.49.49 0 01-.41.01z" transform="translate(-80.25 -46.15)"/><path class="cls-10" d="M956.31 396.66a4.51 4.51 0 00-2-2.47l-39-19.95a1 1 0 00-.82-.13.4.4 0 00-.18.14l-1.08 1.22 1.1-.1 5.89 21.63a4.47 4.47 0 002 2.47L959 418.3l1.26 1.2.17.3c.72.15 2.28-1 2.28-1z" transform="translate(-80.25 -46.15)"/><path d="M960 420.69l-39-20a4.43 4.43 0 01-2-2.46l-5.91-21.82c-.25-.93.22-1.34 1.06-.91l39 20a4.43 4.43 0 012 2.46l5.91 21.82c.24.93-.23 1.34-1.06.91z" transform="translate(-80.25 -46.15)" fill="#2153ad"/><path class="cls-10" d="M938.14 399.56c.32 1.16-.76 1.42-2.39.58a7.47 7.47 0 01-3.54-3.62c-.31-1.15.76-1.41 2.4-.57a7.34 7.34 0 013.53 3.61z" transform="translate(-80.25 -46.15)"/><path class="cls-25" d="M935.33 412.07l5.17 3.25a4 4 0 005.55-1.26 4.05 4.05 0 00-1.26-5.56l-5.17-3.25a4.05 4.05 0 00-5.56 1.26 4 4 0 001.27 5.56z" transform="translate(-80.25 -46.15)"/><path d="M843 690.77l117.37 67.05c3.18 1.82 2.8 5.06-.84 7.21l-71.28 42.06c-3.65 2.15-23.94 3.14-27.12 1.32l-102.64-67.76c-3.18-1.82-2.8-5.06.85-7.21l71.27-42.06c3.65-2.15 9.23-2.38 12.39-.61z" transform="translate(-80.25 -46.15)" style="mix-blend-mode:multiply" fill="#bbdaff" opacity=".4"/><path d="M938.63 760.81l-.41-8.33-13.68-1.48-105.43-60.23c-3.18-1.81-8.77-1.54-12.41.61L739.55 731l-7.44-.8.31 7.43a3.75 3.75 0 002.15 2.94l117.37 67c3.18 1.82 8.76 1.55 12.41-.6L935.63 765c2-1.21 3.07-2.76 3-4.22z" transform="translate(-80.25 -46.15)" fill="#729ce3"/><path d="M818.7 682.49l117.37 67c3.17 1.82 2.79 5.06-.85 7.21l-71.28 42.1c-3.64 2.15-9.23 2.42-12.41.61l-117.37-67c-3.18-1.82-2.8-5.06.85-7.21l71.28-42.06c3.64-2.2 9.23-2.47 12.41-.65z" transform="translate(-80.25 -46.15)" fill="url(#linear-gradient)"/><path class="cls-10" d="M843.56 773.51l20.85 11.91c1 .58.89 1.6-.26 2.28a4.35 4.35 0 01-3.93.19L839.37 776c-1-.57-.88-1.6.27-2.28a4.36 4.36 0 013.92-.21zM815.92 690l20 11.41c1.25.71 1.1 2-.33 2.83a5.39 5.39 0 01-4.88.24l-20-11.4c-1.25-.71-1.1-2 .33-2.84a5.45 5.45 0 014.88-.24z" transform="translate(-80.25 -46.15)"/><path class="cls-11" d="M801 699.63l17.16 9.8c2 1.16 1.78 3.22-.53 4.58l-3.32 1.99c-2.31 1.36-5.86 1.54-7.88.38l-17.16-9.8c-2-1.15-1.78-3.22.54-4.58l3.28-1.94c2.31-1.41 5.91-1.59 7.91-.43z" transform="translate(-80.25 -46.15)"/><path class="cls-10" d="M757.52 724.92l52.28 29.86c1 .58.89 1.6-.26 2.28a4.33 4.33 0 01-3.92.19l-52.29-29.86c-1-.58-.89-1.6.27-2.28a4.33 4.33 0 013.92-.19zm106.74 38.89l17.36 9.92c1.52.87 1.34 2.42-.4 3.45a6.57 6.57 0 01-5.93.29l-17.37-9.92c-1.52-.87-1.34-2.42.4-3.45a6.59 6.59 0 015.94-.29zM834.89 747l17.37 10c1.52.87 1.33 2.42-.41 3.45a6.57 6.57 0 01-5.93.29l-17.37-9.92c-1.52-.87-1.34-2.42.41-3.45a6.63 6.63 0 015.93-.37zm-29.37-16.74l17.37 9.92c1.52.87 1.34 2.42-.4 3.45a6.59 6.59 0 01-5.94.29L799.19 734c-1.53-.87-1.34-2.42.4-3.45a6.57 6.57 0 015.93-.29zm-29.37-16.78l17.37 9.92c1.52.87 1.34 2.42-.4 3.45a6.57 6.57 0 01-5.93.29l-17.37-9.92c-1.52-.87-1.34-2.42.4-3.45a6.63 6.63 0 015.93-.29zm118.94 34.26c4.54-2.68 12-2.72 16.58-.09s4.66 6.94.11 9.63-12 2.72-16.58.09-4.66-6.95-.11-9.63z" transform="translate(-80.25 -46.15)"/><path d="M853.9 710.59l-71.28 42.06c-3.64 2.15-9.22 2.42-12.4.61l-117.37-67" stroke-width="1.74" stroke="#fff" stroke-linecap="round" stroke-linejoin="round" fill="none"/><path class="cls-15" d="M590.75 761c-15.69-31.7-66-48-120.86-38.93-48.55 8-79 34.78-74.55 62.79a35.84 35.84 0 003.56 21.88 50.6 50.6 0 008.51 12l-16.36 9.44a29.6 29.6 0 00-6.79-4.6c-5.14-2.45-9.57-2.26-12.54 0l-90.35 54c-3.32 1.91-5.19 6-4.73 11.85.87 11 9.62 23.67 19.54 28.39 4.4 2.1 8.29 2.27 11.19.85l.12-.07a9.32 9.32 0 001.05-.62l89.7-53.67c3.85-1.67 6.07-6 5.57-12.29a27.72 27.72 0 00-.88-4.88l23.79-13.73c25.67 14.2 63.34 20.38 100 14.34 48.56-8 79-34.78 74.56-62.79 1.12-7.21-6.91-16.67-10.53-23.96zM439 808.75c1.68 1.09 3.45 2.13 5.29 3.11-1.83-.98-3.6-2.02-5.29-3.11zm131.4-14a32.83 32.83 0 003.24-6.24 32.83 32.83 0 01-3.24 6.24 40.55 40.55 0 01-3 4 40.55 40.55 0 003.01-3.95zM459.47 818.2zm36.09 5.68c-3.84 0-7.64-.27-11.38-.64 3.74.37 7.54.59 11.38.64zm23.29-1.74c13-2.14 24.22-6 33.21-11.13-9 5.09-20.25 9-33.2 11.13a130.9 130.9 0 01-15.57 1.62 130.52 130.52 0 0015.56-1.62zm42.87-17.78q-2.13 1.78-4.55 3.45 2.42-1.66 4.55-3.45z" transform="translate(-80.25 -46.15)"/><path d="M295.94 805.39l-19.54-11.28 53-30.61c10.91-6.68 22.81 7.88 14.46 13.71z" stroke="#35519c" stroke-width="1.27" fill="#fff" stroke-miterlimit="10"/><path d="M587.84 759.5c-15.68-31.7-72.9-50-127.8-41s-86.67 42.09-71 73.78 72.91 50.05 127.8 41 86.69-42.09 71-73.78zm-75.76 62.8c-47 7.75-96-8-109.43-35.09s13.78-55.42 60.78-63.18 96 8 109.43 35.1-13.78 55.42-60.78 63.17z" transform="translate(-80.25 -46.15)" fill="#1550ef"/><ellipse class="cls-26" cx="377.26" cy="841.87" rx="14.07" ry="24.37" transform="rotate(-34.54 262.918 947.87)"/><path class="cls-26" d="M192.55 829.83l90.35-53.95 26.52 40.68-90.87 54.37-26-41.1z"/><ellipse class="cls-26" cx="286.04" cy="896.4" rx="14.07" ry="24.37" transform="rotate(-34.54 171.682 1002.383)"/><path class="cls-35" d="M270.11 877.7c3-2 7.29-2.12 12.25.25 9.92 4.72 18.67 17.44 19.54 28.39.36 4.53-.69 8-2.73 10.28" transform="translate(-80.25 -46.15)"/><path class="cls-26" d="M587.84 753.64c-15.68-31.7-72.9-50-127.8-41s-86.67 42.09-71 73.78 72.91 50.05 127.8 41 86.69-42.09 71-73.78zm-75.76 62.8c-47 7.76-96-8-109.43-35.09s13.78-55.42 60.78-63.17 96 8 109.43 35.09-13.78 55.42-60.78 63.17z" transform="translate(-80.25 -46.15)"/><path class="cls-10" d="M507.59 793.35l.7.13a3.91 3.91 0 004-2.05l19.67-39.67a2 2 0 00-1.43-3.07l-.7-.13a3.93 3.93 0 00-4 2.05l-19.68 39.67a2 2 0 001.44 3.07zm-16.33-7.45l.33.06a1.87 1.87 0 001.89-1l21-42.35a1 1 0 00-.68-1.46l-.33-.06a1.89 1.89 0 00-1.9 1l-21 42.35a1 1 0 00.69 1.46z" transform="translate(-80.25 -46.15)"/><path class="cls-35" d="M376.52 822s12.25 3.56 18.45 26.27" transform="translate(-80.25 -46.15)"/><path class="cls-24" d="M719.43 818.61c-6.85 9.76-10.74 14.57-22.59 16.9-16.39 3.22-29.87-17.92-41-29.18-5-5 1.94-13.79 7-8.68 9 9.11 20.76 17.69 34.26 14.81 9-1.92 10.89-1.88 16.06-9.25 4.11-5.86 12.19 6.06 8.09 11.92z" transform="translate(-80.25 -46.15)"/><path class="cls-25" d="M655.35 803.34l-4.35-3.58a5.3 5.3 0 01-.69-7.45 5.32 5.32 0 017.46-.69l4.3 3.58a5.32 5.32 0 01.69 7.46 5.29 5.29 0 01-7.41.68z" transform="translate(-80.25 -46.15)"/><ellipse class="cls-4" cx="707.05" cy="899.57" rx="19.99" ry="40.23" transform="rotate(-84.29 641.477 920.833)"/><path class="cls-25" d="M675 878.73s.14 15.82 39.73 27.54l2.41-3.7-33.55-33.37z" transform="translate(-80.25 -46.15)"/><path class="cls-5" d="M714 906.86l6.48 3c3.87 3.47 5.49 5.68 7.87 5.15l.68-.14c2.37-.53 2.77-2.66.87-4.73l-7.42-11a6.88 6.88 0 00-7.53-1.6s-1.43.65-2 5.11c-.26 2.51-.45 2.55 1.05 4.21z" transform="translate(-80.25 -46.15)"/><path class="cls-25" d="M664.92 882.64s-12.4 10.59 41.4 32.26l3.51-6.95-34.07-26.78z" transform="translate(-80.25 -46.15)"/><path class="cls-26" d="M730.07 859.24L681.56 862s-32.93 18.43-6.36 29.2l37.08 12.52c8 2.77 15.24 2.65 20.64-4.45 4.77-6.26 4.91-20.68 1.71-27.06z" transform="translate(-80.25 -46.15)"/><path class="cls-5" d="M706 914.83l6.48 3c3.87 3.47 5.49 5.67 7.87 5.15l.68-.15c2.38-.52 2.77-2.65.87-4.72l-7.42-11a6.86 6.86 0 00-7.53-1.6s-1.43.65-2 5.11c-.33 2.52-.51 2.55 1.05 4.21z" transform="translate(-80.25 -46.15)"/><path class="cls-36" d="M639.91 811.9l13.74-6.11a2.13 2.13 0 001.05-2.43l-6.24-26a1.41 1.41 0 00-1.9-1.16l-13.63 5.89a2.13 2.13 0 00-1 2.43l6.21 25.88c.15.65.43.79 1 1.07z" transform="translate(-80.25 -46.15)"/><path class="cls-36" d="M643.9 788s11 16.4 10.8 15.41l-6.06-26.8-1.08-.37a1.24 1.24 0 00-1 0l-13.63 5.89a1.82 1.82 0 00-.91.94z" transform="translate(-80.25 -46.15)"/><path class="cls-5" d="M641.14 812l13.59-5.88a2.13 2.13 0 001-2.44l-6.24-26a1.4 1.4 0 00-1.89-1.16l-13.6 5.92a2.13 2.13 0 00-1 2.44l6.24 26a1.37 1.37 0 001.9 1.12z" transform="translate(-80.25 -46.15)"/><path class="cls-7" d="M640.18 807.76l13.38-5.76-5.43-22.92-13.3 5.74 5.65 22.4c.05.18-.48.62-.3.54z" transform="translate(-80.25 -46.15)"/><path d="M697.44 791.34c3.13 7.95 9.39 7 14 1.2s5.91-14.35 2.78-22.3-9.42-9.68-14.06-3.85-5.84 17-2.72 24.95z" transform="translate(-80.25 -46.15)" fill="#cf8484"/><path class="cls-25" d="M690.25 790c3 7.55 11.56 9.57 16 4s5.58-16.14 2.61-23.69-8.94-9.18-13.35-3.65-8.23 15.75-5.26 23.34z" transform="translate(-80.25 -46.15)"/><path class="cls-25" d="M712.66 812l.66-.28c2.23-.92 1.9-4.07.68-7l-5.69-16.5c-1.21-2.92-4-4.56-6.25-3.64l-.66.28c-2.23.92-3.06 4.07-1.85 7l4.81 16.58c1.21 2.98 6.07 4.56 8.3 3.56z" transform="translate(-80.25 -46.15)"/><path class="cls-5" d="M716.37 785.88s-.08 4.31-8.1 5.92c-7.65 1.54-7.88-10.3-15.45-10.8-8.33-.56-9.75-9.36-6.89-13.56s11.7-7.09 18.51-4.83 14.21 3.67 11.93 23.27z" transform="translate(-80.25 -46.15)"/><path class="cls-24" d="M730.51 820.86l3.65 41.24s1 11.41-22.9 13.88c-18.4 1.9-20.75-12.49-21.82-14.67l-7.11-31.47-17 10a55.2 55.2 0 0126.94-34.71c4.1-2.21 10.14-4.84 15.08-6.89 7.34-3 10.63-1.83 17.27 2.53 3.58 2.28 5.89 20.09 5.89 20.09z" transform="translate(-80.25 -46.15)"/><path class="cls-25" d="M634.54 808.93a4.13 4.13 0 004.19-4l.08-4.21a4.13 4.13 0 00-4-4.19 4.13 4.13 0 00-4.19 4l-.08 4.21a4.13 4.13 0 004 4.19z" transform="translate(-80.25 -46.15)"/><path class="cls-10" d="M700.69 801.07s7-5.27 12.13-4.3c0 0-.44 6.91-12.13 4.3z" transform="translate(-80.25 -46.15)"/><path class="cls-5" d="M696.2 762.07a21.62 21.62 0 0119.41 2.12c10.45 6.47 6 13.39 5.32 23.8s3.49 5.9-3.2 7.4-17.94-4.32-22.5-13.77-7.1-12.58-7.1-12.58z" transform="translate(-80.25 -46.15)"/><path class="cls-25" d="M694.22 786.39a3.57 3.57 0 102-4.63 3.58 3.58 0 00-2 4.63z" transform="translate(-80.25 -46.15)"/><path class="cls-24" d="M694.25 822.29l-20.87 22a15.58 15.58 0 01-24.69-2.81l-17.76-32.84 8.4-1.61L657 828.22a6.09 6.09 0 009.21.21c6.09-6.72 16.37-17.56 19.75-18.14 4.9-.83 8.29 12 8.29 12z" transform="translate(-80.25 -46.15)"/><path class="cls-5" d="M719.12 789.48s12.55-1.13 17.44 9.61 29.32 10.61 22.63 21.58-15.85 19.39-24.94 6.36-18.52-18.67-20.62-30.46 5.49-7.09 5.49-7.09z" transform="translate(-80.25 -46.15)"/><path class="cls-10" d="M721.1 788.81c.71 1.13-.49 3.16-2.69 4.53s-4.54 1.56-5.25.43.49-3.16 2.69-4.53 4.54-1.57 5.25-.43z" transform="translate(-80.25 -46.15)"/><path class="cls-25" d="M434.27 422.22a4.38 4.38 0 00-.78-6.13l-3.49-2.74a4.38 4.38 0 00-6.13.78 4.4 4.4 0 00.78 6.14l3.54 2.73a4.37 4.37 0 006.08-.78z" transform="translate(-80.25 -46.15)"/><ellipse cx="518.81" cy="663.25" rx="37.46" ry="18.61" transform="rotate(-1.8 -991.247 3193.52)" style="mix-blend-mode:multiply" fill="#e0e6ff"/><path class="cls-39" d="M546.18 644.79l-9.39-1.18c-6.27-2.85-9.21-5-12-3.37l-.8.45c-2.79 1.62-2.44 4.47.79 6.34l13.78 11a9.1 9.1 0 0010.16-1s1.55-1.4.44-7.27c-.62-3.35-.4-3.47-2.98-4.97zm-41 18.75l-9.18 3.22c-7.1.36-10.8-.18-12.63 2.51l-.51.76c-1.83 2.68-.18 5 3.66 5.18l20 3.34c3.84.17 5.38-2.33 6.71-5.48a13.45 13.45 0 00-1.37-8c-1.57-2.97-3.6-1.4-6.68-1.53z" transform="translate(-80.25 -46.15)"/><path class="cls-10" d="M501.16 666.77c0 4.39 10.68 4.39 10.68 0V652.5h-10.68z" transform="translate(-80.25 -46.15)"/><path class="cls-21" d="M499.81 657.75c1.35 5.56 12.46 5.16 14.62 1.56-.71-48 5.14-97.87 17.25-148.65h-38.55c-.19 49.24 1.69 98.34 6.68 147.09z" transform="translate(-80.25 -46.15)"/><path class="cls-10" d="M537.52 645.66c.24 4 10.92 4 10.68 0l-.79-12.92h-10.68z" transform="translate(-80.25 -46.15)"/><path class="cls-21" d="M535.42 639.92c4.27 4.39 12.67 2.52 14.28-.65L544 510.53l-26.84 4z" transform="translate(-80.25 -46.15)"/><path class="cls-25" d="M499.56 413.12c2.75 8.58 12.12 11.43 17.41 5.62s7.34-17.49 4.6-26.07-9.26-10.83-14.54-5-10.21 16.87-7.47 25.45z" transform="translate(-80.25 -46.15)"/><path class="cls-25" d="M521.31 437.47l.93-.24a5.85 5.85 0 004.21-7.1L522 412.58a5.86 5.86 0 00-7.11-4.22l-.92.24a5.86 5.86 0 00-4.22 7.1l1.83 17.5c.77 3.11 6.62 5.06 9.73 4.27z" transform="translate(-80.25 -46.15)"/><path class="cls-39" d="M528.2 412.57s-.58 5.5-8.77 5.35c-7.88-.14-5.94-13.61-13.78-14.65-8.61-1.13-10.49-11.68-7.23-15.85s12.63-6.57 19.56-3.77 18.02 3.44 10.22 28.92z" transform="translate(-80.25 -46.15)"/><path class="cls-25" d="M506.39 408.54a4 4 0 102.57-5 4 4 0 00-2.57 5z" transform="translate(-80.25 -46.15)"/><path class="cls-26" d="M545.17 508.85c-3.15-17.28 3.35-29.07 3.07-47.45 1.5-30.68-8.39-39.06-19-37.95 0 0-9.58 2.82-11.75 3.94-23 11.87-29.18 15.53-28.17 29.29-.1 22.67 3.24 48.09 3.72 59.25 4.75 15.67 46.86 4.14 52.13-7.08z" transform="translate(-80.25 -46.15)"/><path class="cls-27" d="M510.37 421.79l.87-2.2a6 6 0 01-4.82 1.41 7.65 7.65 0 003.95.79z" transform="translate(-80.25 -46.15)"/><path class="cls-5" d="M442.98 511.24l11.32-16.26-11.32 4.98v11.28z"/><path class="cls-18" d="M348.31 380.3l25.24 21.79 36.86 16.63 14.57-30.98-43.38-1.48-26.99-14.49-6.3 8.53z"/><path d="M507 432.91c12.42-.82 20.44-.35 22.52-9.2-2-1.13-3.42-1.34-4.93-.36a28.55 28.55 0 01-12.55 4.3 5.35 5.35 0 00-3.66 2.54z" transform="translate(-80.25 -46.15)" fill="#46a6e8"/><path class="cls-18" d="M489.23 464.23l3.82 51.7s1.73 8.18 12.18 7.64z" transform="translate(-80.25 -46.15)"/><path class="cls-41" d="M663.27 191.3c.36-.86 50-84.82 50-84.82M81.35 498.61c.35-.86 25-42.52 25-42.52m798.73 67.27c.36-.85 25-42.51 25-42.51" transform="translate(-80.25 -46.15)"/><path d="M409.56 39.85c.32-.78 22.83-38.87 22.83-38.87" stroke-width="2" stroke="#dee5ff" stroke-linecap="round" stroke-linejoin="round" fill="none"/><path class="cls-41" d="M231.53 182.07c.36-.86 25-42.51 25-42.51M825.12 383.9c.36-.86 50-84.82 50-84.82" transform="translate(-80.25 -46.15)"/><path opacity=".74" fill="#729ce3" d="M585.58 157.07l-157 89.36V146.7l157-89.36v99.73z"/><path fill="url(#linear-gradient-2)" d="M602.58 175.91l-157 89.36v-99.73l157-89.36v99.73z"/><ellipse cx="609.02" cy="216.88" rx="36.15" ry="24.92" transform="rotate(-68.1 534.73 253.183)" stroke-width="1.17" stroke="#fff" stroke-linecap="round" stroke-linejoin="round" fill="none"/><path stroke="#fff" stroke-linecap="round" stroke-linejoin="round" fill="none" d="M450.63 176.54l4.6-10.65L593.1 87.54l5.3 3.88v74.83l-4.24 10.29-136.94 77.94-6.59-4.07v-73.87z"/><path class="cls-10" d="M608.32 231.79c-2.66 2.08-5.33 3.09-7.07 3l1.58-3.76c1.79 0 3.91-.64 6.44-2.87 3.08-2.7 4.62-5.75 4.62-8.33 0-6.74-11.6 4.9-11.6-3.2 0-3.71 2.41-8.48 6-12.2v-4.2l2.49-2.19v4.12c2.66-2 4.41-2.29 5.9-2l-1.82 3.65c-1.54-.15-2.83.11-5.08 2.08-2.53 2.23-4.15 5.23-4.15 7.64 0 6 11.6-5.82 11.6 3.12 0 3.95-2.5 8.89-6.45 12.89v4.2l-2.49 2.19z" transform="translate(-80.25 -46.15)"/></g></g></svg>