<svg xmlns="http://www.w3.org/2000/svg" viewBox="0 0 1005.19 817.16"><defs><style>.cls-2{fill:#e1eaf4}.cls-3{opacity:.4}.cls-3,.cls-31,.cls-54{mix-blend-mode:multiply}.cls-4{fill:#a8c4e5}.cls-6{fill:#2c1f9c}.cls-7{fill:#00409d}.cls-9{fill:#e6f0ff}.cls-12{fill:#fff}.cls-14{fill:#d9e9ff}.cls-15{fill:#bad4f5}.cls-17{fill:#1d76ef}.cls-19{fill:#b9c4f0}.cls-24{fill:#c6d2f2}.cls-25{fill:#2776ef}.cls-26{fill:#00a5ff}.cls-27{fill:#ffc2b0}.cls-28{fill:#f09a82}.cls-29{fill:#ffac00}.cls-30{fill:#ff6543}.cls-31{opacity:.36}.cls-32{fill:#88bdeb}.cls-33{fill:#dbefff}.cls-34{fill:#bad4ff}.cls-35{fill:#9ec2ff}.cls-36{fill:#3b2ad1}.cls-40{fill:#22009c}.cls-41{fill:#fd67c1}.cls-43{fill:#dcdcf7}.cls-44{fill:#4949de}.cls-45{fill:#e69f35}.cls-46{fill:#ffc248}.cls-51{fill:#6899e3}.cls-55{fill:#bacdeb}.cls-56{fill:#0040d0}.cls-65{fill:#4857ff}</style></defs><g style="isolation:isolate"><g id="image"><path class="cls-2" d="M814.56 840.63l30.43 3a2.84 2.84 0 003.11-2.55 2.85 2.85 0 00-2.55-3.11l-30.44-3a2.85 2.85 0 00-3.11 2.55 2.84 2.84 0 002.56 3.11zm-.26 8.66l30.44 3a2.83 2.83 0 003.1-2.55 2.85 2.85 0 00-2.55-3.11l-30.43-3a2.84 2.84 0 00-3.11 2.55 2.84 2.84 0 002.55 3.11z" transform="translate(-441.95 -121.54)"/><g class="cls-3"><path class="cls-4" d="M877.5 818.81c-8.18-16.54-34.42-25-63.06-20.31-25.34 4.18-41.24 18.15-38.91 32.76a18.77 18.77 0 001.86 11.42 26.64 26.64 0 004.44 6.28l-8.54 4.93a15.21 15.21 0 00-3.54-2.41c-2.68-1.27-5-1.17-6.54 0l-47.15 28.15c-1.73 1-2.71 3.15-2.46 6.19.45 5.72 5 12.35 10.19 14.82 2.3 1.09 4.33 1.18 5.84.44h.06a3.76 3.76 0 00.55-.32l46.81-28c2-.87 3.16-3.13 2.9-6.41a14.74 14.74 0 00-.46-2.55l12.42-7.16c13.39 7.41 33.05 10.63 52.17 7.48 25.34-4.18 41.24-18.15 38.91-32.77.59-3.78-3.6-8.72-5.49-12.54zm-79.17 24.94zm68.56-7.28a17.15 17.15 0 001.69-3.26 17.15 17.15 0 01-1.69 3.26 22.57 22.57 0 01-1.57 2.07 22.57 22.57 0 001.57-2.07zM809 848.68c1 .33 2.07.62 3.13.9-1.06-.28-2.11-.57-3.13-.9zm18.83 3c-2 0-4-.14-5.93-.33 1.94.15 3.93.26 5.93.29zm12.16-.91a52.49 52.49 0 0017.32-5.81 52.49 52.49 0 01-17.31 5.77 68.14 68.14 0 01-8.13.85 68.14 68.14 0 008.13-.85zm22.36-9.27c-.73.62-1.53 1.22-2.37 1.8.84-.62 1.64-1.22 2.37-1.84z" transform="translate(-441.95 -121.54)"/></g><path d="M873.68 820.26l-2 2a1.47 1.47 0 00-.1-.22c-8.18-16.54-28.54-34.65-65.91-30.35-19.85 2.28-34.16 16.07-38.5 29.83l-1.41-2.07.05 10.77a20.5 20.5 0 002 8.94c8.19 16.53 38 26.11 66.69 21.38 23.42-3.86 38.77-16.08 39.12-29.45zm-65.62-12.64c21.64-3.57 44.2 3.67 50.38 16.16 2.61 5.27 2.31 9.14-.51 12.13l-.53.53c-3.76 3.47-11.15 5.71-21.57 7.57l-14.3 1.18a118.85 118.85 0 01-21-2.75l-21.37-8c-3.75-11.73 8.54-23.44 28.9-26.82z" transform="translate(-441.95 -121.54)" fill="#4e75d4"/><path class="cls-6" d="M752 868.21l-11.64-6.72L772 843.26c6.5-4 13.59 4.69 8.62 8.16z" transform="translate(-441.95 -121.54)"/><path class="cls-7" d="M771.08 861.5c.46 5.71-3.37 8.35-8.55 5.88s-9.74-9.1-10.2-14.82 3.38-8.35 8.56-5.88 9.74 9.1 10.19 14.82z" transform="translate(-441.95 -121.54)"/><path class="cls-7" d="M265.25 753.29l47.14-28.15 13.84 21.23-47.41 28.37-13.57-21.45z"/><ellipse class="cls-7" cx="714.11" cy="885.48" rx="7.34" ry="12.72" transform="rotate(-34.54 297.662 1535.498)"/><path class="cls-9" d="M866.45 813.72c-7.38-14.9-34.27-23.52-60.07-19.27s-40.75 19.79-33.38 34.69 34.27 23.52 60.07 19.26 40.75-19.78 33.38-34.68z" transform="translate(-441.95 -121.54)" opacity=".69"/><path d="M871.59 811c-8.18-16.54-38-26.12-66.68-21.39s-45.24 22-37 38.5 38 26.12 66.69 21.39 45.18-21.97 36.99-38.5zm-91.52 14.69c-6.18-12.5 6.35-25.52 28-29.09s44.2 3.66 50.38 16.16-6.35 25.51-28 29.08-44.19-3.67-50.38-16.16z" transform="translate(-441.95 -121.54)" fill="#85bcff"/><path d="M808.06 796.8c-21.09 3.48-33.52 15.94-28.42 28.13 3.35-8 13.8-14.68 28.42-17.09 21.64-3.57 44.19 3.66 50.38 16.16.16.31.3.62.43.93a14 14 0 00-.43-12c-6.19-12.46-28.74-19.7-50.38-16.13z" transform="translate(-441.95 -121.54)" fill="#6588e0"/><path class="cls-12" d="M833 836.64l.36.07a2 2 0 002.08-1.07l10.26-20.7a1 1 0 00-.75-1.6l-.36-.07a2.06 2.06 0 00-2.07 1.07L832.27 835a1.05 1.05 0 00.73 1.64zm-8.5-3.89h.17a1 1 0 001-.51l11-22.1a.5.5 0 00-.36-.76h-.17a1 1 0 00-1 .51l-11 22.1a.5.5 0 00.36.76zM771 860.71a.33.33 0 01-.32-.24c-3.14-11.5-9.34-13.46-9.4-13.48a.33.33 0 01-.22-.41.32.32 0 01.4-.22c.27.08 6.61 2 9.85 13.93a.33.33 0 01-.23.41z" transform="translate(-441.95 -121.54)"/><path class="cls-12" d="M819.09 851.57c-1.58 0-3.15-.05-4.72-.14-28.32-1.63-38.07-13-38.17-13.07a.33.33 0 010-.46.32.32 0 01.46 0c.09.11 9.7 11.22 37.69 12.84 27.09 1.56 53-11.24 57.14-23.3a.32.32 0 01.41-.2.33.33 0 01.2.42c-2.07 6-9.44 12.29-19.73 16.92a82.35 82.35 0 01-33.28 6.99zm-39.68-36.74h-.08a.33.33 0 01-.24-.39c0-.14 3.63-14.33 29.77-18.08s39.52 6.26 39.65 6.36a.33.33 0 01.06.46.31.31 0 01-.46.06c-.13-.1-13.4-9.93-39.16-6.23s-29.19 17.44-29.22 17.58a.33.33 0 01-.32.24z" transform="translate(-441.95 -121.54)"/><path d="M819.65 862c-26.75 0-40-10.13-40.16-10.25a.36.36 0 01-.06-.5.35.35 0 01.5-.06c.17.13 16.58 12.66 49.9 9.62s41.6-22.22 41.68-22.41a.36.36 0 01.47-.19.35.35 0 01.19.46c-.08.2-8.59 19.79-42.28 22.85-3.61.33-7.02.48-10.24.48z" transform="translate(-441.95 -121.54)" fill="#173891"/><path class="cls-14" d="M1443.4 736.49L965.68 460.67c-5.53-3.19-15.28-2.79-21.66.9L715.1 593.73a14.13 14.13 0 00-3 2.29l-34.75 20.06c-6.39 3.69-7.09 9.32-1.56 12.51l462.52 277.73c5.53 3.19 30.49.88 36.87-2.81l228.92-132.16a14.13 14.13 0 003-2.29l34.75-20.06c6.38-3.69 7.08-9.32 1.55-12.51z" transform="translate(-441.95 -121.54)"/><path class="cls-15" d="M1394 400.07v-1.14c0-.16 0-.31-.07-.47s-.05-.31-.09-.46a.15.15 0 000-.07v-.07a3 3 0 01-.07-.32l-.12-.46a1.41 1.41 0 00-.06-.22.36.36 0 000-.1.83.83 0 010-.15c0-.15-.09-.31-.14-.46l-.15-.44c-.05-.15-.11-.31-.17-.47l-.18-.46a.61.61 0 010-.12.36.36 0 010-.09c0-.08-.07-.17-.11-.25s-.13-.29-.19-.44a3.54 3.54 0 01-.16-.34v-.05l-.49-.49-.21-.41-.09-.16v-.08l-.09-.16-.24-.41-.25-.41v-.06l-.28-.44-.27-.39-.18-.27-.09-.12c-.15-.22-.31-.43-.47-.64l-.15-.21q-.3-.39-.63-.78l-.09-.11-.09-.09-.22-.27-.39-.42-.15-.16-.08-.08-.14-.15-.39-.39-.29-.28-.06-.05v-.05l-.42-.38-.44-.39-.43-.36c-.15-.12-.3-.24-.46-.35l-.07-.05-.33-.25-.46-.31-.13-.09-.27-.18-.46-.28s-10.88-6.28-10.91-6.31l-438.66-253.3-.66-.39-1.18-.68-.46-.24-.46-.22-.46-.21c-.16-.06-.31-.13-.47-.18l-.47-.17-.5-.16h-.08l-.42-.11h-.53l-.51-.08h-1.74a1.66 1.66 0 00-.22 0h-.05a5.06 5.06 0 00-.79.19h-.08a5 5 0 00-.94.41s-18.15 12.24-17.83 12.12c.12 0 448.11 254 448.11 254l-.41.25s11.43 6.06 11.58 6.16l.46.29.46.32.45.34a1.33 1.33 0 01.19.14c.25.19.49.38.72.58.24.21.48.41.71.63l.09.08c.22.2.43.41.65.63l.1.1c.2.21.41.42.61.64l.11.12c.2.22.39.44.58.67l.29.36.35.43.38.52c.09.11.17.22.25.34l.21.3.36.54.09.14c.16.25.32.5.47.76v.06c.16.27.31.53.45.8a.36.36 0 010 .09c.14.26.28.52.4.79l.05.1c.13.26.24.53.35.79v.12c.11.26.22.52.31.78l.05.12c.09.26.18.53.26.79a.49.49 0 000 .11c.08.27.15.53.22.79v.11c.07.26.13.52.18.79s0 .26.07.39 0 .31.07.46 0 .33 0 .49v2.11l-1.07 39.78-6.94 3.73.4.24-7.61 4.1 3.4 2 .45.3c.16.1.31.21.46.32l.46.33.19.15.72.58.71.62.08.08.66.63.09.1c.21.21.42.43.62.65l.11.12c.19.22.39.44.58.67s.19.24.29.35l.35.44.38.52.25.33.21.31.36.53.09.15c.16.25.31.5.46.75v.06q.24.4.45.81v.08c.14.27.27.53.4.8v.1c.12.26.24.52.35.78a.61.61 0 010 .12c.11.26.21.53.31.79a.56.56 0 010 .12q.15.39.27.78v.12c.08.26.16.52.23.79a.36.36 0 000 .1c.07.27.12.53.17.79s0 .27.08.4a2.7 2.7 0 000 .28L1368 680.43c0 1.27-3.89 9.26-2.86 8.66l2.88-2.62-1.65 61.4c0 1.27-3.88 9.27-2.85 8.66l3.91-5.07c-.7 1.77-.61 5.37-.15 5.11l13.89-10.22c2.23-2 4.4-4.09 4.49-7.33l6.25-267.49c0-1.28.09-3.19.09-3.19v-.8a.37.37 0 000-.11v-1.15l2-62.28c0-1.27.09-3.19.09-3.19v-.39c-.04-.13-.04-.24-.09-.35z" transform="translate(-441.95 -121.54)"/><path d="M1365.71 463c6.11 3.53 10.94 11.25 10.78 17.24L1369.21 752c-.15 6-5.24 8-11.36 4.45L907 496.08c-6.12-3.54-10.95-11.25-10.79-17.25L903.52 207c.16-6 5.25-8 11.37-4.45z" transform="translate(-441.95 -121.54)" fill="#e5f2ff"/><path class="cls-7" d="M1366 431.26c6.12 3.53 10.34.06 10.18 6.05l-6.14 283.12c-.15 6-5.77 7.89-11.89 4.36l-450.8-260.41c-6.11-3.53-10.94-11.25-10.78-17.24l7.27-271.84c.16-6 5.24-8 11.36-4.45z" transform="translate(-441.95 -121.54)"/><path class="cls-7" d="M1366 395.51c6.12 3.53 11 11.25 10.79 17.24l-6.75 271.93c-.15 6-5.77 7.89-11.89 4.35l-450.8-260.4c-6.11-3.54-10.55 9.81-10.39 3.82l6.88-292.9c.16-6 5.24-8 11.36-4.45z" transform="translate(-441.95 -121.54)"/><path class="cls-17" d="M1365.21 428.56c.2-5-4.33-11.76-10.13-15.06l-427-242.68c-5.79-3.3-10.65-1.89-10.84 3.13l-1.3 32.92a6.27 6.27 0 00-.32 1.8L909.72 437c-.2 5 6.35 14.24 12.15 17.53l421.88 239.77c5.79 3.29 10.65 1.89 10.85-3.14l1.3-32.91a6.63 6.63 0 00.32-1.81z" transform="translate(-441.95 -121.54)"/><path class="cls-7" d="M1359.87 774.94l-.13-17.86-17.33 11.09-3.71-8.57-434.35-250.77c-5.23-3-15.62-2.63-21.66.85l-188.17 108v-3l-28.58 13.89-4-5 .54 16.6c.44 2.88 1.55 4.07 3.32 5.09l452 261.64c5.23 3 14.46 3 20.5-.5l216.58-124.87c3.3-1.91 5-4.27 5-6.6z" transform="translate(-441.95 -121.54)"/><path d="M1117.53 889.28l-452-261c-5.24-3-4.57-8.34 1.47-11.83l216.58-125c6-3.49 15.26-3.87 20.5-.85l452 260.95c5.23 3 4.57 8.34-1.47 11.83L1138 888.43c-6 3.49-15.24 3.87-20.47.85z" transform="translate(-441.95 -121.54)" fill="#c9d5f5"/><path class="cls-19" d="M910.68 538.94a3.44 3.44 0 01-3-.34l-27.44-15.84c-1-.57-1.26-1.34-.61-1.72l18.18-10.5a3.46 3.46 0 013 .34l27.44 15.84c1 .57 1.26 1.34.6 1.72zm31.83 47.28a3.4 3.4 0 01-3-.34L912.08 570c-1-.57-1.25-1.33-.59-1.72l18.19-10.5a3.47 3.47 0 013 .35l27.4 15.87c1 .58 1.26 1.35.62 1.72zm-16.09 19.63a3.42 3.42 0 01-3-.35L896 589.67c-1-.57-1.27-1.34-.61-1.72l18.19-10.51a3.5 3.5 0 013 .35L944 593.63c1 .57 1.25 1.35.61 1.72zm-43.54 3.79a3.46 3.46 0 01-3-.34l-27.44-15.84c-1-.56-1.25-1.34-.6-1.72l18.18-10.5a3.48 3.48 0 013 .34l27.44 15.84c1 .57 1.25 1.34.59 1.72zm-75.51-11.01a3.45 3.45 0 01-3-.35L777 582.44c-1-.57-1.27-1.34-.61-1.72l21.35-12.33a3.49 3.49 0 013 .35l27.44 15.83c1 .57 1.25 1.35.6 1.72zm47.31 27.3c-.66.38-2.24.08-3.54-.68l-35.95-20.74c-1.29-.75-1.82-1.66-1.16-2l21.35-12.34c.64-.37 2.24-.07 3.53.67l36 20.75c1.3.75 1.81 1.67 1.17 2zm236.18 136.49a3.37 3.37 0 01-2.78-.46l-27.42-15.82c-1-.58-1.37-1.31-.82-1.62l7.89-4.56a3.46 3.46 0 012.8.47l27.47 15.83c1 .57 1.35 1.29.81 1.6zm36.67 21.71a3.38 3.38 0 01-2.79-.46l-27.42-15.83c-1-.58-1.37-1.3-.82-1.62l7.89-4.55a3.41 3.41 0 012.81.47l27.41 15.86c1 .57 1.35 1.3.81 1.61zm38.87 21.92a3.36 3.36 0 01-2.75-.48l-27.43-15.83c-1-.57-1.38-1.29-.86-1.59l7.61-4.4a3.46 3.46 0 012.75.49l27.43 15.83c1 .57 1.37 1.29.85 1.59zm-23.91-30.29a3.38 3.38 0 01-2.75-.49l-27.43-15.82c-1-.57-1.38-1.29-.85-1.6l7.6-4.39a3.44 3.44 0 012.76.49l27.43 15.83c1 .57 1.36 1.29.84 1.59zm-99.05-40.92a3.47 3.47 0 01-3-.36l-178.56-103c-1-.56-1.27-1.35-.61-1.73l21.35-12.33a3.52 3.52 0 013 .35l178.56 103c1 .57 1.27 1.36.62 1.73z" transform="translate(-441.95 -121.54)"/><path class="cls-19" d="M849.78 619.12s-.17 0-.28-.08l-21-12.1c-.11-.07-.18-.14-.14-.17l1.33-.76s.17 0 .28.07l21 12.11c.12.07.18.14.14.17zM796 585.77a.18.18 0 01-.16 0l-8.91-5.14s-.06-.07 0-.09l1.32-.77a.2.2 0 01.17 0l8.9 5.14c.05 0 .06.07 0 .09zm124.5 45.56a3.48 3.48 0 01-3-.35l-27.43-15.83c-1-.57-1.26-1.35-.61-1.73l18.18-10.5a3.51 3.51 0 013 .35l27.44 15.83c1 .58 1.25 1.35.6 1.73zm37.78 21.8a3.45 3.45 0 01-3-.34L927.87 637c-1-.57-1.26-1.35-.61-1.73l18.18-10.5a3.47 3.47 0 013 .35l27.44 15.83c1 .56 1.24 1.34.59 1.72zm37.78 21.81a3.46 3.46 0 01-3-.35l-27.44-15.83c-1-.57-1.25-1.34-.6-1.72l18.18-10.5a3.44 3.44 0 013 .34l27.44 15.84c1 .56 1.25 1.34.59 1.71zm37.79 21.8a3.44 3.44 0 01-3-.34l-27.44-15.84c-1-.57-1.26-1.35-.61-1.72l18.18-10.5a3.46 3.46 0 013 .34l27.45 15.84c1 .57 1.24 1.34.59 1.72zm37.78 21.81a3.45 3.45 0 01-3-.36l-27.43-15.83c-1-.56-1.25-1.34-.6-1.71l18.18-10.51a3.51 3.51 0 013 .34l27.43 15.83c1 .58 1.27 1.36.62 1.74zm37.79 21.79a3.49 3.49 0 01-3-.35L1079 724.16c-1-.57-1.26-1.35-.61-1.72l18.18-10.51a3.47 3.47 0 013 .35l27.43 15.83c1 .57 1.26 1.35.6 1.73zm85.11 49.11a3.45 3.45 0 01-3-.35l-74.74-43.1c-1-.57-1.26-1.34-.61-1.72l18.18-10.5a3.46 3.46 0 013 .34l74.76 43.14c1 .57 1.25 1.35.6 1.73zM964 625.4a3.4 3.4 0 01-3-.34l-27.45-15.84c-1-.57-1.26-1.33-.6-1.71L951.18 597a3.47 3.47 0 013 .35l27.44 15.84c1 .57 1.24 1.33.6 1.71zm37.81 23.94a3.42 3.42 0 01-3-.34l-27.45-15.85c-1-.56-1.25-1.32-.59-1.71l18.23-10.5a3.47 3.47 0 013 .34l27.45 15.85c1 .56 1.26 1.34.61 1.71zm37.79 21.81a3.48 3.48 0 01-3-.35l-27.42-15.8c-1-.56-1.27-1.34-.61-1.72l18.18-10.5a3.48 3.48 0 013 .35l27.44 15.84c1 .56 1.26 1.34.61 1.71zm37.78 21.85a3.45 3.45 0 01-3-.35L1047 676.77c-1-.57-1.27-1.34-.61-1.72l18.19-10.51a3.48 3.48 0 013 .36l27.42 15.83c1 .57 1.26 1.34.61 1.71zm37.79 21.75a3.46 3.46 0 01-3-.35l-27.45-15.84c-1-.57-1.26-1.34-.6-1.72l18.19-10.51a3.45 3.45 0 013 .35l27.45 15.84c1 .57 1.26 1.35.61 1.72zm37.83 21.79a3.45 3.45 0 01-3-.34l-27.43-15.83c-1-.58-1.28-1.35-.62-1.73l18.19-10.5a3.46 3.46 0 013 .35l27.43 15.83c1 .57 1.25 1.34.6 1.72zm37.73 21.81a3.43 3.43 0 01-3-.35l-27.45-15.84c-1-.57-1.25-1.33-.59-1.71l18.19-10.51a3.42 3.42 0 012.95.35l27.45 15.84c1 .56 1.25 1.34.61 1.71zM980.12 607.91a3.46 3.46 0 01-3-.34l-27.44-15.84c-1-.56-1.24-1.33-.58-1.72l18.19-10.5a3.47 3.47 0 013 .34l27.44 15.84c1 .57 1.25 1.34.61 1.71zm37.78 21.8a3.47 3.47 0 01-3-.34l-27.44-15.83c-1-.57-1.26-1.35-.6-1.73l18.19-10.5a3.43 3.43 0 013 .35l27.44 15.83c1 .57 1.25 1.34.6 1.71zm37.79 21.81a3.49 3.49 0 01-3-.35l-27.43-15.83c-1-.57-1.25-1.34-.59-1.72l18.18-10.51a3.46 3.46 0 013 .35l27.43 15.83c1 .58 1.27 1.35.62 1.72zm37.77 21.8a3.44 3.44 0 01-3-.34L1063 657.14c-1-.57-1.26-1.34-.6-1.72l18.19-10.51a3.47 3.47 0 013 .35L1111 661.1c1 .57 1.25 1.34.61 1.71zm37.8 21.79a3.47 3.47 0 01-3-.34l-27.44-15.83c-1-.58-1.26-1.34-.59-1.73l18.18-10.5a3.47 3.47 0 013 .35l27.44 15.84c1 .56 1.24 1.33.6 1.7zm37.79 21.81a3.49 3.49 0 01-3-.35l-27.44-15.84c-1-.56-1.25-1.33-.59-1.72l18.19-10.5a3.44 3.44 0 013 .35l27.44 15.83c1 .57 1.27 1.35.62 1.72zm37.77 21.8a3.47 3.47 0 01-3-.34l-27.44-15.84c-1-.57-1.26-1.34-.59-1.72l18.21-10.51a3.47 3.47 0 013 .35l27.44 15.84c1 .56 1.25 1.34.61 1.71zm-302.09-174.3a3.46 3.46 0 01-3-.34l-46.52-26.85c-1-.57-1.27-1.35-.6-1.73L872.8 525a3.45 3.45 0 013 .35l46.5 26.85c1 .57 1.26 1.34.62 1.72zm364.91 181.64a3.45 3.45 0 01-3-.35l-46.53-26.85c-1-.56-1.25-1.34-.6-1.72l18.18-10.5a3.47 3.47 0 013 .34l46.53 26.85c1 .57 1.26 1.35.6 1.73zM888.63 584.05a3.43 3.43 0 01-3-.36l-55.46-32c-1-.58-1.27-1.34-.61-1.72l18.18-10.51a3.49 3.49 0 013 .35l55.46 32c1 .58 1.26 1.35.62 1.72zm-43.52 3.8a3.46 3.46 0 01-3-.36l-37-21.34c-1-.57-1.26-1.34-.61-1.72l18.18-10.5a3.47 3.47 0 013 .34l37 21.35c1 .57 1.26 1.34.6 1.72zm103.35-27.11a3.44 3.44 0 01-3-.35l-27.42-15.82c-1-.57-1.27-1.35-.61-1.73l18.18-10.5a3.45 3.45 0 013 .35L966 548.52c1 .57 1.26 1.34.6 1.72zm37.61 21.69a3.45 3.45 0 01-3-.35l-27.44-15.83c-1-.57-1.26-1.35-.61-1.72l18.2-10.53a3.45 3.45 0 013 .35l27.45 15.84c1 .57 1.26 1.34.6 1.72zm37.77 21.8a3.42 3.42 0 01-3-.34l-27.44-15.84c-1-.57-1.26-1.34-.6-1.72l18.18-10.5a3.48 3.48 0 013 .34l27.45 15.83c1 .57 1.25 1.34.59 1.72zm37.8 21.77a3.47 3.47 0 01-3-.35l-27.42-15.82c-1-.58-1.27-1.35-.61-1.73l18.18-10.5a3.44 3.44 0 013 .35l27.42 15.82c1 .57 1.26 1.35.6 1.73zm37.77 21.83a3.44 3.44 0 01-3-.33L1069 631.66c-1-.57-1.26-1.34-.61-1.72l18.18-10.5a3.44 3.44 0 013 .35l27.43 15.83c1 .57 1.25 1.33.59 1.71zm37.8 21.8a3.47 3.47 0 01-3-.34l-27.45-15.84c-1-.57-1.24-1.34-.59-1.72l18.18-10.5a3.45 3.45 0 013 .34l27.45 15.84c1 .57 1.26 1.34.6 1.72zm37.79 21.81a3.45 3.45 0 01-3-.35l-27.44-15.83c-1-.58-1.27-1.35-.61-1.73l18.18-10.5a3.47 3.47 0 013 .35l27.44 15.83c1 .57 1.26 1.35.6 1.73zm37.76 21.79a3.43 3.43 0 01-3-.33l-27.46-15.85c-1-.56-1.24-1.33-.59-1.71l18.18-10.5a3.45 3.45 0 013 .33l27.47 15.83c1 .57 1.24 1.33.58 1.71zm21.98 19.23a4.18 4.18 0 00-1.61-.52 2.19 2.19 0 00-1.35.18l-18.19 10.5a.64.64 0 00-.33.79 2 2 0 00.91.93l7.17 4.13-23.85 13.78a.62.62 0 00-.31.79 2 2 0 00.92.93l18.49 10.67a4.25 4.25 0 001.61.53 2.27 2.27 0 001.37-.18l43.23-25a.6.6 0 00.3-.79 1.9 1.9 0 00-.92-.93z" transform="translate(-441.95 -121.54)"/><path class="cls-19" d="M840.19 579s-.17 0-.28-.08l-21-12.1c-.11-.07-.18-.14-.13-.17l1.32-.76a.45.45 0 01.29.08l21 12.1c.12.07.18.15.14.17z" transform="translate(-441.95 -121.54)"/><g class="cls-3"><path class="cls-4" d="M1081.07 925.51l-35-29.21c-2.75-2.29-8.17-3-12-1.58l-9.13 3.36c-.26.09-.49.19-.72.29l-5.57 2c-3.88 1.42-4.81 4.47-2.06 6.76l35 29.2c2.75 2.3 8.17 3 12 1.58l9.13-3.35a7.76 7.76 0 00.72-.3l5.57-2c3.89-1.42 4.81-4.46 2.06-6.75z" transform="translate(-441.95 -121.54)"/></g><path d="M1071.09 928.07a.29.29 0 010-.09l-4.48-16.26-33.72-16.23a11.33 11.33 0 00-2-.74l-25.6-9.28 4.56 17.13a4 4 0 001.54 2.5l35 29.2c2.75 2.29 8.17 3 12.05 1.58l9.13-3.35c2.6-.99 3.87-2.73 3.52-4.46z" transform="translate(-441.95 -121.54)" fill="#88b9e3"/><path d="M1041.77 917.13l-35-29.21c-2.75-2.29-1.82-5.33 2.06-6.76l9.13-3.35c3.88-1.43 9.3-.71 12 1.58l35 29.2c2.74 2.3 1.82 5.34-2.06 6.76l-9.13 3.35c-3.83 1.43-9.26.72-12-1.57z" transform="translate(-441.95 -121.54)" fill="#96ccfa"/><path d="M1071.09 928.07a.29.29 0 010-.09l-4.48-16.26-20.8-10-15.62 5.75-1.07 12.46 17.23 14.38c2.75 2.29 8.17 3 12.05 1.58l9.13-3.35c2.66-1 3.93-2.72 3.58-4.45z" transform="translate(-441.95 -121.54)" fill="#ffe573"/><path d="M1065 908.59l-11.62-9.69-23.22 8.55 11.6 9.68c2.74 2.29 8.17 3 12 1.57l9.13-3.35c3.94-1.42 4.86-4.46 2.11-6.76z" transform="translate(-441.95 -121.54)" fill="#ffe173"/><path class="cls-12" d="M1029.57 907.35a.43.43 0 01-.26-.09l-23.46-19.68a.4.4 0 01.52-.62l23.46 19.68a.41.41 0 01.05.57.43.43 0 01-.31.14zm19.53 12.7a12.88 12.88 0 01-6.56-1.82l-11.9-9.86a.4.4 0 11.52-.62l11.86 9.84a12 12 0 009.81 1c5.46-2 11.55-4.4 11.61-4.42a.4.4 0 11.3.74c-.06 0-6.17 2.48-11.63 4.44a11.78 11.78 0 01-4.01.7z" transform="translate(-441.95 -121.54)"/><g class="cls-3"><ellipse class="cls-4" cx="736.21" cy="615.54" rx="15.69" ry="31.59" transform="rotate(-88.98 453.43 779.712)"/></g><path class="cls-6" d="M729.76 623.24l-12.06-12c-1.62-.93-5.26-1.33-7.74-1a2.38 2.38 0 00-2 2.19l-.18 2.41c-.38 3.47-.07 4 2.07 5.21l12.69 7.32a8.1 8.1 0 007.25.31l.52-.31c1.82-1.02 1.59-2.9-.55-4.13z" transform="translate(-441.95 -121.54)"/><path class="cls-24" d="M708.46 610.65c0 3.9 9.47 3.9 9.47 0V598h-9.47z" transform="translate(-441.95 -121.54)"/><path class="cls-6" d="M760.69 606.19l-11.84-11.72c-1.59-.92-5.16-1.31-7.59-1a2.31 2.31 0 00-2 2.15l-.18 2.37c-.37 3.4-.06 3.89 2 5.1l12.44 7.19a7.94 7.94 0 007.12.29l.51-.29c1.85-1.03 1.64-2.88-.46-4.09z" transform="translate(-441.95 -121.54)"/><path class="cls-24" d="M739.58 593.94c0 3.9 9.47 3.9 9.47 0v-12.65h-9.47z" transform="translate(-441.95 -121.54)"/><path class="cls-25" d="M738.31 590.35c3.71 2.66 9.85 2.6 11.9-.5l9.57-116.91-29.43-8.73z" transform="translate(-441.95 -121.54)"/><path class="cls-25" d="M707.36 602.62c3 4.46 9.77 4.49 11.77 1.27L739 471h-34.23z" transform="translate(-441.95 -121.54)"/><path class="cls-6" d="M291.66 385.27l.72 9.3 8.42-28.8-4.7.9-4.44 18.6z"/><path class="cls-6" d="M755.52 399.51l13.32 25c-2.18 8.69-6.88 13.11-12.83 15.44l-5-33.76z" transform="translate(-441.95 -121.54)"/><path class="cls-12" d="M748.4 434.07a.47.47 0 01-.15-.92c13.87-4.75 18.29-15.62 18.33-15.73a.48.48 0 01.62-.27.46.46 0 01.26.61c0 .12-4.6 11.39-18.91 16.29z" transform="translate(-441.95 -121.54)"/><path class="cls-26" d="M759.9 468.15v-45.68c0-25.69-9.71-35.2-25.9-29.3l-6.68 1.83c-19.54 10.53-29.47 10-26 30.67l3.45 45.33c0 23.28 56.37 24.58 55.13-2.85z" transform="translate(-441.95 -121.54)"/><path class="cls-6" d="M272.29 311.9l-8.43 34.98-1 3.41-1.24-16.86 10.67-21.53z"/><path class="cls-6" d="M733.77 392.38s-3.08 1.85-4.45 1.85-12.25-11.61-4.5-23.29c4.9-7.4 18-.57 18-.57z" transform="translate(-441.95 -121.54)"/><ellipse class="cls-27" cx="742.85" cy="380.95" rx="15.6" ry="8.84" transform="rotate(-66.62 429.44 656.445)"/><path class="cls-27" d="M726 382.57c0 7.46 6.67 12.08 12.31 8.82s10.21-11.94 10.21-19.41-4.57-10.87-10.21-7.62S726 375.1 726 382.57z" transform="translate(-441.95 -121.54)"/><path class="cls-27" d="M732 404.36l.78.13a4.86 4.86 0 005.58-4l2.51-14.8a4.86 4.86 0 00-4-5.58l-.78-.13a4.86 4.86 0 00-5.58 4L726 397.84c-.45 2.63 3.33 6.07 6 6.52z" transform="translate(-441.95 -121.54)"/><path class="cls-27" d="M724.82 385.33a3.29 3.29 0 103.28-3.33 3.29 3.29 0 00-3.28 3.33z" transform="translate(-441.95 -121.54)"/><path class="cls-6" d="M743.92 370.37s-1.34 17.31-19.1 11.67c0 0-8.86-11.09 4.37-20.13 11.66-8 20.3 4.94 20.3 4.94z" transform="translate(-441.95 -121.54)"/><path class="cls-6" d="M752.74 378.54s-1.59-5.86-8.82-8.17l5.57-3.52s5.81 1.15 3.25 11.69z" transform="translate(-441.95 -121.54)"/><path class="cls-12" d="M722.81 447.36a3 3 0 01-3-3v-12.48a1.41 1.41 0 011.27-1.41 10.2 10.2 0 006.89-3.33 1.37 1.37 0 011.53-.33 1.4 1.4 0 01.89 1.31v13c0 4.39-4 6.1-7.5 6.23zm6.19-19.71a.43.43 0 00-.31.14 11.18 11.18 0 01-7.5 3.63.45.45 0 00-.4.46v12.51a2 2 0 00.62 1.46 2 2 0 001.48.56c3-.11 6.59-1.56 6.59-5.28v-13a.45.45 0 00-.3-.43.4.4 0 00-.18-.05z" transform="translate(-441.95 -121.54)"/><path class="cls-12" d="M720.39 435.59l-.16-.93c5-.86 7.92-2.59 9.29-5.44l.86.41c-1.52 3.15-4.69 5.05-9.99 5.96z" transform="translate(-441.95 -121.54)"/><path class="cls-28" d="M739.13 395.14a13.23 13.23 0 01-10.49-5.95s4 9.29 9.79 10.09z" transform="translate(-441.95 -121.54)"/><path class="cls-29" d="M731.79 503l50.8-28c4.36-2.39 7.88-9.13 7.87-15l-.1-56.41c0-5.92-3.55-8.77-7.9-6.37l-50.81 27.95c-4.35 2.4-7.88 9.14-7.87 15.05l.1 56.41c.01 5.88 3.55 8.74 7.91 6.37z" transform="translate(-441.95 -121.54)"/><path class="cls-29" d="M285.19 381.93l14.82 8.62 60.12-106.71-14.12-8.17-60.82 106.26z"/><path class="cls-30" d="M746.49 511.54l50.79-28c4.36-2.4 7.88-9.13 7.87-15l-.1-56.41c0-5.91-3.55-8.76-7.9-6.37l-50.8 28c-4.35 2.39-7.87 9.13-7.86 15l.1 56.4c.01 5.93 3.55 8.78 7.9 6.38z" transform="translate(-441.95 -121.54)"/><path class="cls-27" d="M703.87 432.69s-12.17 18.85 8.39 48.31c5.66 8.1 36.71 10.76 36.71 10.76v-6.46s-21.36-1.79-26.65-11.16c-5.98-10.59-1.7-46.47-18.45-41.45z" transform="translate(-441.95 -121.54)"/><path class="cls-27" d="M752.89 495.62l-3.27-.7c-2.51-.53-4.56-3.35-4.55-6.25 0-2.9 2.07-4.83 4.58-4.3l3.27.7c2.52.54 4.56 3.35 4.56 6.25-.01 2.9-2.08 4.84-4.59 4.3z" transform="translate(-441.95 -121.54)"/><path class="cls-26" d="M717.55 427.59l1.78 30.71c-.41 2.69-21.7 2.78-21.44-1.14.05-.69-3.12-37.24 4.89-47.8 6.5-8.59 14.56 3.91 14.77 18.23z" transform="translate(-441.95 -121.54)"/><path class="cls-12" d="M708.81 452.24a26.24 26.24 0 01-11.66-2.76.44.44 0 11.39-.78 24.5 24.5 0 0021.09.6.43.43 0 01.59.18.44.44 0 01-.18.59 23.89 23.89 0 01-10.23 2.17zM774.42 470a9 9 0 01-4.6-1.2c-3.22-1.86-5-5.58-5-10.47 0-9.21 6.29-20.06 14.31-24.69 4.29-2.47 8.44-2.8 11.69-.93s5 5.58 5 10.47c0 9.21-6.29 20.06-14.31 24.69a14.34 14.34 0 01-7.09 2.13zm11.79-33.72a9.67 9.67 0 00-4.7 1.48c-6.47 3.73-11.94 13.15-11.94 20.57 0 3.12.93 5.38 2.63 6.36s4.22.64 6.93-.93c6.47-3.74 11.94-13.16 11.94-20.58 0-3.12-.94-5.38-2.63-6.35a4.36 4.36 0 00-2.23-.55zm-27.77 49.51a2.37 2.37 0 01-2-3.73l6.56-9.5a2.38 2.38 0 113.91 2.7l-6.56 9.5a2.38 2.38 0 01-1.91 1.03z" transform="translate(-441.95 -121.54)"/><g class="cls-31"><path class="cls-32" d="M859.49 923L879 911.32a2.6 2.6 0 000-4.45l-30.81-18.31-34.65 8z" transform="translate(-441.95 -121.54)"/></g><path class="cls-33" d="M392.98 785.99l25.89-14.95-25.73-14.85L367 771.1l25.98 14.89z"/><path class="cls-35" d="M392.98 785.99l-.04-.03v29.74l25.89-14.95v-29.69l-25.85 14.93z"/><path class="cls-34" d="M392.98 785.99L367 771.1v28.81l26.44 15.85v-30.04l-.46.27z"/><path class="cls-12" d="M413.62 795.03l-13.41 7.51v-13.41l13.41-7.52v13.42z"/><g class="cls-31"><path class="cls-32" d="M1368.63 910.58l26.49-15.91a3.53 3.53 0 00-.06-6l-41.81-24.86-47 10.81z" transform="translate(-441.95 -121.54)"/></g><path class="cls-33" d="M893.35 767.98l35.14-20.29-34.92-20.17-35.49 20.25 35.27 20.21z"/><path class="cls-35" d="M893.35 767.98l-.05-.03v40.36l35.14-20.29v-40.3l-35.09 20.26z"/><path class="cls-34" d="M893.35 767.98l-35.27-20.21v39.11l35.89 21.51v-40.77l-.62.36z"/><path class="cls-12" d="M921.37 780.25l-18.22 10.2v-18.21l18.22-10.2v18.21z"/><g class="cls-31"><path class="cls-32" d="M510.55 910.56l26.45-15.9a3.54 3.54 0 000-6l-41.81-24.86-47 10.82z" transform="translate(-441.95 -121.54)"/></g><path class="cls-33" d="M35.27 767.96l35.14-20.29-34.92-20.16L0 747.75l35.27 20.21z"/><path class="cls-35" d="M35.27 767.96l-.05-.03v40.36L70.36 788v-40.3l-35.09 20.26z"/><path class="cls-34" d="M35.27 767.96L0 747.75v39.12l35.88 21.51V767.6l-.61.36z"/><path class="cls-12" d="M63.29 780.24l-18.22 10.2v-18.22l18.22-10.2v18.22z"/><ellipse class="cls-14" cx="665.5" cy="839.94" rx="19.35" ry="32.61" transform="matrix(.09 -1 1 .09 -670.79 1308.77)"/><path class="cls-14" d="M213.01 706.38l82.16-47.43-81.64-47.14-82.96 47.33 82.44 47.24z"/><path class="cls-33" d="M161.76 665.46l82.15-47.43-81.64-47.14-82.96 47.34 82.45 47.23z"/><path class="cls-35" d="M161.76 665.46l-.12 70.53 82.15-47.43v-70.53l-82.03 47.43z"/><path class="cls-34" d="M161.76 665.46l-82.45-47.23v67.67l83.89 50.29-1.44-70.73z"/><path class="cls-12" d="M149.79 717.83l-16.41-9.55v-12.29l16.41 9.55v12.29zM128 705.54l-16.42-9.55v-22.58l16.42 9.55v22.58zM89.8 683.7l16.41 9.55v-37.72l-16.41-9.54v37.71z"/><path class="cls-36" d="M642 758.05c-2.25 0-47.32 16.25-47.28-21.08s57.54 5.29 57.54 5.29z" transform="translate(-441.95 -121.54)"/><path class="cls-6" d="M693.87 838.89l-14.79-15c-2-1.18-6.5-1.74-9.58-1.37a3 3 0 00-2.56 2.69l-.26 3c-.53 4.3-.15 4.93 2.48 6.5l15.63 9.3c2.64 1.56 6.69 1.78 9 .49l.66-.37c2.31-1.33 2.05-3.68-.58-5.24z" transform="translate(-441.95 -121.54)"/><path class="cls-24" d="M668 824.45c0 4.42 10.76 4.42 10.76 0v-14.38H668z" transform="translate(-441.95 -121.54)"/><path class="cls-6" d="M665.47 854.77L652.66 838c-1.83-1.42-6.24-2.53-9.34-2.55a3 3 0 00-2.87 2.36l-.63 2.93c-1.06 4.2-.76 4.87 1.66 6.75l14.35 11.17c2.42 1.88 6.41 2.61 8.87 1.61l.7-.29c2.45-.98 2.49-3.33.07-5.21z" transform="translate(-441.95 -121.54)"/><path class="cls-24" d="M641.63 837.24c-.55 4.39 10.13 5.72 10.68 1.33l1.79-14.27-10.68-1.3z" transform="translate(-441.95 -121.54)"/><path class="cls-17" d="M644.09 724s33.32 17 34.71 25.93c1.23 7.79 2.57 53.93 1.79 64.77a4.34 4.34 0 01-2.43 3.61c-3.3 1.57-9.27 3.29-11.26-3.43-2.81-9.48-1.84-41.89-8.56-51.17s-40.05-22.36-40.05-22.36z" transform="translate(-441.95 -121.54)"/><path class="cls-17" d="M621.73 739.46s37.28 18.59 38.38 27c.95 7.37-3.65 49.39-4.84 60a4.4 4.4 0 01-2.77 3.6c-3.39 1.34-9.23 2.58-11-3.74-2.49-9.08-.43-39.73-6.85-48.75-3.49-4.89-12.44-10.43-27.72-17.64-7-3.3-12-17-3.51-18.13z" transform="translate(-441.95 -121.54)"/><path class="cls-27" d="M654.07 672.23l7.11 27.25c.61 3.24 1.71 8 2.51 13.52a32.49 32.49 0 01-6.51 24.46s-2.53-13.35-5-19.63a216.6 216.6 0 01-8-24.45c-.03-.71 9.89-21.15 9.89-21.15z" transform="translate(-441.95 -121.54)"/><path class="cls-15" d="M643.52 653.72l16.72 28.72c-2.28 9.13-7.23 13.78-13.48 16.23l-5.31-35.49z" transform="translate(-441.95 -121.54)"/><path class="cls-12" d="M638.75 694a1.91 1.91 0 01-.61-3.72c13.75-4.7 16.48-11.82 16.5-11.89a1.91 1.91 0 013.61 1.24c-.12.36-3.17 8.89-18.88 14.26a1.88 1.88 0 01-.62.11z" transform="translate(-441.95 -121.54)"/><path class="cls-15" d="M648.54 722.66c-2.57-14.13-2-22.76.32-42.27 0-27-8.22-37.07-25.24-30.86l-7 1.87c-20.54 11.07-31 10.51-27.3 32.25l3.6 47.66c-.04 24.53 56.93 20.2 55.62-8.65z" transform="translate(-441.95 -121.54)"/><path class="cls-6" d="M626.28 649.73s-2.69 2.48-4 2.77-16-11.52-10.67-24.75c3.34-8.38 19.18-1.82 19.18-1.82z" transform="translate(-441.95 -121.54)"/><path class="cls-27" d="M621.46 661.29l.81.14a5.1 5.1 0 005.87-4.16l2.64-15.56a5.1 5.1 0 00-4.16-5.87l-.82-.14a5.11 5.11 0 00-5.87 4.17l-4.73 14.57c-.47 2.76 3.5 6.38 6.26 6.85z" transform="translate(-441.95 -121.54)"/><path class="cls-28" d="M629 652.19a13.93 13.93 0 01-11-6.26s4.2 9.77 10.3 10.6z" transform="translate(-441.95 -121.54)"/><ellipse class="cls-27" cx="632.94" cy="636.47" rx="15.86" ry="8.99" transform="rotate(-78.4 337.492 846.642)"/><path class="cls-27" d="M616.5 641.57c1.55 7.43 9.15 10.64 14.09 6.23s7.68-14 6.13-21.44-6.8-9.87-11.74-5.46-9.98 13.24-8.48 20.67z" transform="translate(-441.95 -121.54)"/><path class="cls-6" d="M627.43 626s-.76 14-12.21 15.3c0 0-11.12-9.2.17-20.95 10-10.35 21.23.71 21.23.71z" transform="translate(-441.95 -121.54)"/><path d="M642.29 632s-2.81-5.5-10.49-6.31l4.82-4.65s6.03-.04 5.67 10.96z" transform="translate(-441.95 -121.54)" fill="#21ded5"/><path class="cls-6" d="M620.34 633.13c3.12-3 8.67-1.8 16.12 2.65 7.29 1.69 9.74-6.56 9.74-6.56 1.93-4.29-.7-6.82-5-8.75l-11.18-5c-6.32-2.88-13.65 1.47-15.58 5.77l-.43.68c-1.93 4.28 2.04 9.28 6.33 11.21z" transform="translate(-441.95 -121.54)"/><path class="cls-27" d="M614.39 643.24a3.34 3.34 0 102.59-4 3.34 3.34 0 00-2.59 4z" transform="translate(-441.95 -121.54)"/><path class="cls-12" d="M629 652.19s5.65 7.88-2.31 11.27c-12.62 5.36-16.54-8.92-14.57-9.74l4-2.06a5.37 5.37 0 001.26 7.3c3 2.5 8.3 3 10.59-.87z" transform="translate(-441.95 -121.54)"/><path fill="#98c1f5" d="M165.58 558.85v46.27l-8.54-5.01 8.54-41.26z"/><path class="cls-4" d="M616.73 744.63l3.95-1.39.46-.46.3-.53 29.73-15.47a1.53 1.53 0 011.32.06l11.36 6.65v-.18l2.14.86-.1.88a.5.5 0 01-.23.23l-30.95 16.09a.18.18 0 00-.08.12c-.64 2.37-1.72 4.49-3.74 3.26l-12.58-7.41a3 3 0 01-1.58-2.71z" transform="translate(-441.95 -121.54)"/><path class="cls-2" d="M633.45 753.83l35.63-18.53c.41-.22.41-.6 0-.84l-15.14-8.88a1.73 1.73 0 00-1.52-.06l-35.63 18.53c-.41.21-.41.59 0 .84l15.14 8.88a1.8 1.8 0 001.52.06z" transform="translate(-441.95 -121.54)"/><path class="cls-4" d="M632.45 741.89l8.62-4.48c.1 0 .1-.15 0-.21l-3.67-2.14a.42.42 0 00-.36 0l-8.63 4.49c-.1.05-.1.14 0 .2l3.66 2.15a.44.44 0 00.38-.01z" transform="translate(-441.95 -121.54)"/><path class="cls-12" d="M636.57 733a4.05 4.05 0 011.79-2.23l35.35-18.11a.9.9 0 01.75-.11.4.4 0 01.16.13l1 1.11-1-.09-5.31 19.58a4 4 0 01-1.79 2.24l-33.42 17.09-1.1 1.09-.16.27c-.65.13-2.06-.9-2.06-.9z" transform="translate(-441.95 -121.54)"/><path d="M633.23 754.78s36.91-19.5 37.14-20.35l5.36-19.79c.23-.85-.2-1.22-1-.83l-35.35 18.11a4 4 0 00-1.79 2.24L632.27 754c-.27.8.2 1.17.96.78z" transform="translate(-441.95 -121.54)" fill="#1d57ef"/><path class="cls-12" d="M653.05 735.61c-.28 1 .69 1.29 2.18.53a6.74 6.74 0 003.2-3.29c.29-1.05-.69-1.28-2.17-.52a6.75 6.75 0 00-3.21 3.28z" transform="translate(-441.95 -121.54)"/><path class="cls-27" d="M606.13 680.39l-4.68 41.47c-.18 2.22 33.91 13.15 33.91 13.15l-2.87 12-34.87-8.92c-9.22-3.87-9-10.92-8.88-16.71l.65-35.93z" transform="translate(-441.95 -121.54)"/><path class="cls-15" d="M607.17 684.93l-2.94 30.71c-.87 2.55-23.81-2.7-22.91-6.5.16-.67 2.52-37.47 12.82-45.88 8.36-6.83 15.06 7.5 13.03 21.67z" transform="translate(-441.95 -121.54)"/><path class="cls-12" d="M600.86 709.74c-4.12 0-11.09-1.09-19-6.89a1.91 1.91 0 112.26-3.07c10.82 8 19.33 6 19.68 5.88a1.91 1.91 0 01.95 3.69 16.63 16.63 0 01-3.89.39zM1191.78 364L937.67 195.55c-5.18-2.9-9.49-1.67-9.66 2.76l-5.9 231.51c-.16 4.42 5.71 12.53 10.88 15.43l251.4 140.87z" transform="translate(-441.95 -121.54)"/><path class="cls-40" d="M1191.37 376.34l1.55-32.83c.17-4.42-1.46-5.75-6.64-8.64L937.71 195.55c-5.17-2.9-9.49-1.67-9.65 2.76l-1.17 30.83z" transform="translate(-441.95 -121.54)"/><path class="cls-41" d="M954.35 226.18c0 3-2.14 4.26-4.79 2.73a10.53 10.53 0 01-4.78-8.25c0-3 2.14-4.26 4.78-2.73a10.52 10.52 0 014.79 8.25z" transform="translate(-441.95 -121.54)"/><path class="cls-12" d="M972.8 236.83c0 3-2.15 4.26-4.79 2.73a10.53 10.53 0 01-4.78-8.25c0-3 2.14-4.26 4.78-2.73a10.56 10.56 0 014.79 8.25z" transform="translate(-441.95 -121.54)"/><path d="M991.24 247.48c0 3-2.14 4.26-4.78 2.73a10.54 10.54 0 01-4.79-8.25c0-3 2.15-4.26 4.79-2.73a10.55 10.55 0 014.78 8.25z" transform="translate(-441.95 -121.54)" fill="#babaff"/><path class="cls-43" d="M1175 390.24L1046.18 316a4.13 4.13 0 00-.49-.22l-96.56-55.68c-2.43-1.4-4.49.1-4.56 3.35l-3.89 164.36c-.07 3.24 1.86 7.05 4.29 8.45l128.81 74.28a4.13 4.13 0 00.49.22l96.55 55.68c2.44 1.4 4.5-.1 4.57-3.35l3.88-164.36c.08-3.28-1.85-7.09-4.27-8.49z" transform="translate(-441.95 -121.54)"/><path class="cls-12" d="M1063.36 404.85l-40.24-23.21c-2.34-1.35-4.19-5-4.12-8.1l1.09-46.08c.08-3.11 2-4.56 4.38-3.21l40.25 23.21c2.33 1.35 4.18 5 4.11 8.1l-1.09 46.08c-.07 3.11-2.04 4.56-4.38 3.21zm-4.54 80.48l-99.24-57.23c-2.43-1.41-4.37-5.21-4.29-8.46l1.25-53c.08-3.25 2.14-4.75 4.57-3.35l99.25 57.23c2.43 1.41 4.36 5.21 4.29 8.46l-1.26 53c-.07 3.25-2.13 4.75-4.57 3.35z" transform="translate(-441.95 -121.54)"/><path class="cls-43" d="M968.81 430.54l-.09-.06a1.42 1.42 0 01-.59-1.19l1.28-48.21c0-.45.3-.66.64-.47l.09.06a1.46 1.46 0 01.6 1.19l-1.29 48.21c-.01.45-.3.66-.64.47zm15.89 9.29l-.1-.06a1.48 1.48 0 01-.59-1.19l1.29-48.2c0-.46.3-.67.63-.47h.1a1.45 1.45 0 01.59 1.19l-1.28 48.21c-.02.51-.34.69-.64.52zm15.89 9.29l-.1-.06a1.43 1.43 0 01-.59-1.18l1.29-48.21c0-.46.29-.67.63-.47l.1.05a1.45 1.45 0 01.59 1.19l-1.29 48.21c-.01.46-.29.67-.63.47zm15.88 9.29l-.09-.05a1.42 1.42 0 01-.59-1.19l1.28-48.21c0-.46.3-.67.64-.47l.09.06a1.44 1.44 0 01.6 1.18l-1.29 48.21c-.01.46-.3.67-.64.47zm15.89 9.29l-.09-.05a1.46 1.46 0 01-.6-1.19l1.29-48.21c0-.46.3-.67.64-.47l.09.06a1.42 1.42 0 01.59 1.19l-1.28 48.2c0 .46-.3.67-.64.47z" transform="translate(-441.95 -121.54)"/><path class="cls-43" d="M968.12 429.35c0-.42.28-.62.59-.43l79.62 46.56a1.35 1.35 0 01.55 1.11c0 .42-.27.62-.59.43l-79.62-46.57a1.34 1.34 0 01-.55-1.1z" transform="translate(-441.95 -121.54)"/><path class="cls-43" d="M1048.25 477l-.1-.06a1.45 1.45 0 01-.59-1.19l1.29-48.21c0-.45.29-.66.63-.47l.1.06a1.45 1.45 0 01.59 1.19l-1.29 48.21c-.01.47-.29.66-.63.47z" transform="translate(-441.95 -121.54)"/><path class="cls-44" d="M1045.41 431.11c-3 0-6.62-1.07-10.54-4.33-10.16-8.45-13.24-8.84-22-2.78-11.21 7.77-16.08 3.5-25.76-5-1.51-1.32-3.21-2.82-5.07-4.38-3.8-3.2-7.14-4.46-9.94-3.74-3.65.94-5.24 5-5.26 5a1.16 1.16 0 11-2.17-.84c.08-.21 2-5.21 6.85-6.44 3.56-.92 7.61.49 12 4.21 1.87 1.57 3.59 3.08 5.1 4.41 9.6 8.43 13.18 11.58 22.9 4.84s13.84-6.21 24.8 2.91c9.64 8 16.57.91 16.86.6a1.17 1.17 0 011.7 1.6 14.07 14.07 0 01-9.47 3.94z" transform="translate(-441.95 -121.54)"/><path class="cls-44" d="M1002.78 428.29c0 1.4-1 2-2.25 1.26a4.69 4.69 0 01-2.12-3.81c0-1.41 1-2 2.25-1.27a4.72 4.72 0 012.12 3.82zm25.41-7.06c0 1.4-1 2-2.25 1.26a4.69 4.69 0 01-2.12-3.81c0-1.41 1-2 2.25-1.27a4.72 4.72 0 012.12 3.82z" transform="translate(-441.95 -121.54)"/><path class="cls-12" d="M1146.12 534.78L1087 500.64c-5.6-3.23-10.07-11.84-9.93-19.12l2.12-114c.14-7.28 4.83-10.59 10.43-7.36l59.13 34.14c5.6 3.23 10.07 11.84 9.93 19.12l-2.12 114c-.15 7.28-4.84 10.58-10.44 7.36z" transform="translate(-441.95 -121.54)"/><path class="cls-45" d="M1006.61 370.28L966 347.94c-3.48-1.92-6.3-7.3-6.29-12l.08-45.07c0-4.73 2.84-7 6.32-5.09l40.59 22.34c3.48 1.91 6.3 7.3 6.29 12l-.08 45.08c.01 4.71-2.82 6.99-6.3 5.08z" transform="translate(-441.95 -121.54)"/><path class="cls-45" d="M568.38 249.14l-11.85 6.89-48.03-85.27 11.28-6.54 48.6 84.92z"/><path class="cls-46" d="M994.86 377.13l-40.6-22.34c-3.47-1.91-6.29-7.3-6.28-12l.08-45.08c0-4.72 2.83-7 6.31-5.09L995 314.94c3.48 1.91 6.29 7.3 6.29 12l-.08 45.08c-.04 4.75-2.87 6.98-6.35 5.11z" transform="translate(-441.95 -121.54)"/><path class="cls-12" d="M966.32 321.68l-8.08 4c-.75.37-1.92-.35-2.61-1.6s-.65-2.57.09-2.94l8.08-4c.74-.37 1.91.35 2.6 1.6.7 1.26.66 2.57-.08 2.94z" transform="translate(-441.95 -121.54)"/><path class="cls-12" d="M963.17 337.71l-7.55-13.63c-.7-1.25-.66-2.57.08-2.94.74-.37 1.92.35 2.61 1.6l7.55 13.64c.7 1.25.66 2.57-.08 2.94-.78.37-1.92-.32-2.61-1.61zm19.75-6.44L991 344.6c.74 1.22 1.91 1.86 2.61 1.41.69-.45.65-1.82-.09-3.05l-8.08-13.33c-.74-1.22-1.91-1.85-2.61-1.4-.69.45-.65 1.82.09 3.04z" transform="translate(-441.95 -121.54)"/><path class="cls-12" d="M986.07 350.93l7.55-4.91c.69-.45.65-1.82-.09-3-.74-1.22-1.91-1.85-2.6-1.4l-7.56 4.91c-.69.45-.65 1.82.09 3 .74 1.22 1.91 1.85 2.61 1.4zm-14.96-6.31l4.83-8.63c.45-.79.06-2.29-.85-3.32-.91-1-2-1.24-2.46-.44l-4.84 8.62c-.44.79 0 2.29.86 3.32.91 1.04 2.02 1.24 2.46.45z" transform="translate(-441.95 -121.54)"/><path class="cls-12" d="M975.9 336.07l4.83-8.63c.45-.79.06-2.29-.85-3.32-.91-1-2-1.24-2.46-.44l-4.84 8.62c-.44.79-.06 2.29.86 3.32.91 1.04 2.02 1.24 2.46.45z" transform="translate(-441.95 -121.54)"/><path d="M1375.36 805.37l-144.58-97.84c-9-5.33-16.19-19.59-15.94-31.85l6.64-320.85c.26-12.26 7.8-17.87 16.86-12.54l151.22 89c9.06 5.33 16.2 19.59 15.94 31.85l-6.6 319.33c-.17 8.07-3.25 11.42-8.37 14.34z" transform="translate(-441.95 -121.54)" fill="#a8c9ed"/><path d="M1296.81 503.76s-82.28 183.86-82 171.6l-6.18-324.47 19.45-10.14c2.85-1.33 6.41-1 10.23 1.22l151.22 89c4.42 2.61 8.39 7.34 11.26 12.93z" transform="translate(-441.95 -121.54)" fill="#ebf3ff"/><path class="cls-12" d="M1366.42 804.31l-150.84-89c-9.06-5.33-15.82-19.59-15.57-31.85l6.64-320.85c.26-12.26 7.61-17.88 16.67-12.55l150.76 89c9.06 5.33 15.74 19.58 15.48 31.84l-6.64 320.85c-.25 12.25-7.44 17.89-16.5 12.56z" transform="translate(-441.95 -121.54)"/><path class="cls-7" d="M1363.34 805.44l-150.84-89c-9.06-5.34-15.82-19.59-15.57-31.85l6.64-320.85c.25-12.26 7.61-17.88 16.67-12.55l150.75 89c9.06 5.33 15.74 19.58 15.49 31.84l-6.64 320.85c-.26 12.27-7.44 17.89-16.5 12.56z" transform="translate(-441.95 -121.54)"/><path class="cls-17" d="M1360.24 750.6l-147.08-86.55a4.91 4.91 0 01-2.41-4.35l5.61-271a5.08 5.08 0 017.59-4.32L1371 471a4.91 4.91 0 012.41 4.35l-5.61 271a5.08 5.08 0 01-7.56 4.25z" transform="translate(-441.95 -121.54)"/><path d="M1320.76 431.77l-46.64-27.45a7.08 7.08 0 01-2.89-5.77c0-2.22 1.42-3.24 3.06-2.28l46.64 27.45a7.09 7.09 0 012.89 5.78c-.04 2.21-1.42 3.24-3.06 2.27z" transform="translate(-441.95 -121.54)" fill="#5732db"/><path class="cls-9" d="M1396 515.92c-2.53 1.07-4.55-.28-4.49-3l.38-18.27a8.32 8.32 0 014.69-6.86c2.53-1.06 4.55.29 4.5 3l-.38 18.27a8.32 8.32 0 01-4.7 6.86z" transform="translate(-441.95 -121.54)"/><path class="cls-51" d="M1397.91 516.17c-2.53 1.07-4.55-.28-4.49-3l.38-18.27a8.32 8.32 0 014.69-6.86c2.53-1.06 4.55.29 4.5 3l-.38 18.26a8.32 8.32 0 01-4.7 6.87z" transform="translate(-441.95 -121.54)"/><path class="cls-9" d="M1395.27 549.18c-2.52 1.06-4.55-.28-4.49-3l.38-18.27a8.32 8.32 0 014.7-6.86c2.52-1.07 4.54.28 4.49 3l-.38 18.27a8.32 8.32 0 01-4.7 6.86z" transform="translate(-441.95 -121.54)"/><path class="cls-51" d="M1397.22 549.43c-2.52 1.06-4.55-.28-4.49-3l.38-18.27a8.32 8.32 0 014.7-6.86c2.52-1.07 4.54.28 4.49 3l-.38 18.27a8.32 8.32 0 01-4.7 6.86z" transform="translate(-441.95 -121.54)"/><path d="M1240.93 569.26l41.39 23.91c3.55 2.05 6.51-.24 6.62-5.12l1-46.48c.11-4.87-2.68-10.48-6.23-12.53l-41.39-23.91c-3.55-2.05-6.51.24-6.62 5.12l-1 46.48c-.11 4.87 2.68 10.48 6.23 12.53zM1286 450.33l-41.53-25.13c-3.55-2.15-6.46 0-6.5 4.73l-.29 45.47c0 4.76 2.83 10.37 6.39 12.53l41.52 25.13c3.56 2.15 6.47 0 6.5-4.73l.3-45.47c0-4.76-2.86-10.37-6.39-12.53zm27.89 78.99l41.53 25.14c3.55 2.15 6.46 0 6.5-4.73l.29-45.47c0-4.77-2.83-10.38-6.39-12.53l-41.52-25.13c-3.56-2.16-6.47 0-6.5 4.73l-.3 45.46c-.03 4.77 2.83 10.38 6.39 12.53zm-31.3 83.98l-41.53-25.14c-3.56-2.15-6.47 0-6.5 4.73l-.29 45.47c0 4.77 2.83 10.38 6.38 12.53l41.53 25.11c3.56 2.16 6.47 0 6.5-4.73l.29-45.46c.03-4.75-2.82-10.36-6.38-12.51zm69.85 41.39l-41.52-25.13c-3.56-2.16-6.47 0-6.5 4.73l-.3 45.46c0 4.77 2.83 10.38 6.39 12.54l41.49 25.13c3.56 2.15 6.47 0 6.5-4.73l.3-45.47c.06-4.76-2.8-10.38-6.36-12.53zm-42.6-44.04l41.09 23c3.52 2 6.46-.34 6.57-5.15l1-45.83c.11-4.81-2.66-10.3-6.18-12.27l-41.08-22.94c-3.52-2-6.46.33-6.57 5.14l-1 45.84c-.11 4.75 2.65 10.24 6.17 12.21z" transform="translate(-441.95 -121.54)" fill="#0063d0"/><path class="cls-30" d="M1272.19 600.12l-41.39-23.91c-3.54-2.05-6.33-7.66-6.22-12.54l1.05-46.48c.11-4.87 3.07-7.16 6.62-5.11l41.39 23.9c3.54 2 6.33 7.66 6.22 12.54l-1 46.48c-.15 4.88-3.12 7.17-6.67 5.12z" transform="translate(-441.95 -121.54)"/><path class="cls-12" d="M800.61 441.48l-10.08-15.94 8.27-6.3 2.12 3.4-5.45 4.16 7.92 12.52-2.78 2.16zm18.87 9.53l-2.13-3.41 5.37-4.09-8.02-12.69 2.78-2.16 10.19 16.1-8.19 6.25zm-14.15-2.47l-3.07-1.87 10.76-24.33 3.07 1.87-10.76 24.33z"/><path class="cls-46" d="M1275.44 520l-41.53-25.14c-3.56-2.15-6.42-7.76-6.39-12.53l.3-45.46c0-4.77 2.94-6.89 6.5-4.73l41.52 25.13c3.56 2.15 6.42 7.76 6.39 12.53l-.29 45.47c-.03 4.73-2.94 6.89-6.5 4.73z" transform="translate(-441.95 -121.54)"/><path class="cls-17" d="M1272.06 683l-41.53-25.13c-3.56-2.16-6.42-7.77-6.39-12.53l.3-45.47c0-4.77 2.94-6.89 6.5-4.73l41.52 25.13c3.56 2.16 6.42 7.77 6.39 12.53l-.3 45.47c-.03 4.73-2.94 6.85-6.49 4.73z" transform="translate(-441.95 -121.54)"/><path class="cls-30" d="M1341.91 724.37l-41.53-25.14c-3.55-2.15-6.41-7.76-6.38-12.53l.29-45.46c0-4.77 2.94-6.89 6.5-4.74l41.53 25.14c3.55 2.15 6.41 7.76 6.38 12.53l-.29 45.46c-.03 4.77-2.94 6.89-6.5 4.74z" transform="translate(-441.95 -121.54)"/><path class="cls-34" d="M1340.8 640.54l-41.08-22.94c-3.52-2-6.29-7.46-6.18-12.27l1-45.83c.11-4.81 3-7.11 6.57-5.15l41.09 22.95c3.52 2 6.29 7.46 6.18 12.26l-1 45.84c-.11 4.81-3.06 7.11-6.58 5.14z" transform="translate(-441.95 -121.54)"/><path class="cls-12" d="M1326 614.66l.66.37c1.44.8 1.83.41 1.88-1.81s0-4.2 0-6.66c.07-3.07.92-3.78 2.65-3.31v-.16c-1.71-1.44-2.51-3.07-2.44-6.14 0-2.47.24-4.33.28-6.51s-.31-3-1.75-3.84l-.66-.37.07-3.15 2.17 1.21c3 1.69 4.37 3.83 4.27 8.2-.06 2.86-.44 4.16-.5 6.71a5.34 5.34 0 002.89 4.64l-.08 3.47c-2.23-1.17-3-.08-3 1.34-.06 2.54.25 4.23.19 7.09-.1 4.37-1.51 5-4.53 3.28l-2.17-1.21zm-10.79-2.85l-2.16-1.21c-3-1.69-4.37-3.83-4.27-8.19.06-2.86.44-4.17.5-6.71a5.34 5.34 0 00-2.89-4.64l.08-3.47c2.23 1.16 3 .07 3-1.34.06-2.54-.25-4.23-.19-7.1.1-4.36 1.5-5 4.53-3.27l2.17 1.21-.08 3.15-.65-.37c-1.44-.81-1.83-.41-1.88 1.81s0 4.2 0 6.66c-.07 3.07-.93 3.78-2.65 3.3v.16c1.71 1.45 2.51 3.08 2.44 6.15-.06 2.46-.24 4.32-.29 6.5s.32 3 1.76 3.85l.65.36zm23.47-61.62l-28.89-17.49c-2.47-1.5-4.43-5.42-4.36-8.76l.67-31.86c.06-3.34 2.13-4.84 4.6-3.34l28.89 17.49c2.48 1.5 4.43 5.42 4.36 8.76l-.66 31.86c-.07 3.34-2.14 4.84-4.61 3.34z" transform="translate(-441.95 -121.54)"/><path d="M1308.9 532.43a2.55 2.55 0 01-.53-3.95l3.75-3.94a2.88 2.88 0 014.71.86l5.57 12.52 6.41-8.83a2.88 2.88 0 015 .77l7 19.09a1.34 1.34 0 01-2 1.6z" transform="translate(-441.95 -121.54)" fill="#27e0c0"/><path class="cls-46" d="M1320.92 511.85c0 3.85-2.33 5.54-5.24 3.78s-5.29-6.31-5.3-10.16 2.33-5.54 5.24-3.78 5.29 6.31 5.3 10.16z" transform="translate(-441.95 -121.54)"/><path class="cls-12" d="M1262.71 643.83c-1.58-1-2.37-3.66-1.23-4.28 1.28-.69 1.29-3.07 0-5.31l-.65-1.15c-1.26-2.23-3.32-3.48-4.6-2.78-1.14.61-3-1.47-3-3.3a7.39 7.39 0 00-3.23-5.73l-.93-.56c-1.8-1.09-3.27-.29-3.28 1.79 0 1.83-1.94 1.58-3-.39-1.27-2.24-3.33-3.49-4.61-2.79l-.66.36c-1.28.7-1.3 3.07 0 5.31 1.11 2 .3 3.71-1.29 2.74-1.8-1.08-3.26-.29-3.28 1.79v1.07a7.35 7.35 0 003.23 5.72c1.59 1 2.37 3.66 1.24 4.27-1.29.7-1.3 3.08 0 5.31l.65 1.15c1.26 2.24 3.33 3.49 4.61 2.79 1.13-.61 3 1.47 3 3.3a7.39 7.39 0 003.23 5.72l.93.56c1.8 1.09 3.27.29 3.28-1.78 0-1.83 1.94-1.58 3.06.39 1.26 2.24 3.32 3.48 4.6 2.79l.66-.36c1.28-.7 1.3-3.07 0-5.31-1.11-2-.3-3.71 1.29-2.75 1.8 1.09 3.27.29 3.28-1.78v-1.07a7.39 7.39 0 00-3.3-5.72zm-13.37 5.56c-4.46-2.7-8-9.06-8-14.21s3.68-7.13 8.14-4.42 8.06 9.06 8 14.21-3.68 7.12-8.14 4.42zm13.82-171.3l-4.36-9a5.73 5.73 0 011.13-6.28l2.88-2.71a2.75 2.75 0 014.61.89l4.36 9a5.74 5.74 0 01-1.13 6.28l-2.88 2.7a2.75 2.75 0 01-4.61-.88zm-20.77 10.24l-4.36-9a5.76 5.76 0 011.14-6.28l2.88-2.7a2.75 2.75 0 014.61.88l4.36 9a5.75 5.75 0 01-1.14 6.28l-2.88 2.7a2.75 2.75 0 01-4.61-.88z" transform="translate(-441.95 -121.54)"/><path class="cls-12" d="M1245.46 490.26s20.06-3.31 26.41-15.88l-5-8.42s-15.58 18.24-26.58 11.47z" transform="translate(-441.95 -121.54)"/><path class="cls-30" d="M1142.16 461.55l-46-25.32c-3.94-2.18-7.13-8.28-7.12-13.64l.09-51.1c0-5.36 3.21-7.94 7.16-5.77l46 25.33c4 2.17 7.14 8.27 7.13 13.63l-.09 51.1c-.02 5.36-3.23 7.94-7.17 5.77z" transform="translate(-441.95 -121.54)"/><path class="cls-30" d="M704.42 340.46l-13.43 7.81-54.46-96.66 12.79-7.41 55.1 96.26z"/><path class="cls-30" d="M1128.84 469.32l-46-25.33c-3.94-2.17-7.13-8.27-7.13-13.63l.09-51.1c0-5.36 3.22-7.94 7.16-5.77l46 25.33c3.94 2.17 7.13 8.27 7.13 13.63l-.09 51.1c0 5.36-3.22 7.94-7.16 5.77z" transform="translate(-441.95 -121.54)"/><path class="cls-41" d="M1133.56 394.79a1.61 1.61 0 01-1.52-1.1l-21-62.43a1.61 1.61 0 013-1l21 62.43a1.61 1.61 0 01-1 2 1.63 1.63 0 01-.48.1z" transform="translate(-441.95 -121.54)"/><path class="cls-41" d="M1091.64 372.61a1.53 1.53 0 01-.74-.18 1.61 1.61 0 01-.69-2.17l20.73-39.91V186.43a1.61 1.61 0 013.22 0v144.31a1.6 1.6 0 01-.19.74l-20.9 40.27a1.61 1.61 0 01-1.43.86z" transform="translate(-441.95 -121.54)"/><path class="cls-12" d="M1124.51 458.28l-36.38-21c-3.12-1.8-5.64-6.62-5.64-10.78v-39.64c0-4.16 2.52-6.07 5.64-4.27l36.38 21c3.11 1.8 5.64 6.63 5.64 10.79V454c0 4.17-2.53 6.08-5.64 4.28z" transform="translate(-441.95 -121.54)"/><path class="cls-46" d="M1116.86 447.22c2.37 1.42 5.14-1.24 4.39-4.23a28.79 28.79 0 00-2.39-6.8 15.05 15.05 0 00-2.19-2.56c-.73-.73-1.69-1.77-2.62-2.78l-.93-1-1.88-2.13-.85-1.15a1.85 1.85 0 01-.19-.27 3.52 3.52 0 010-.45l-.2-2.85a3.82 3.82 0 001.23-2.93c1.24.77 1.44-1.09 1.51-2.4 0-.93.07-3.27-.9-4.08v-.42a12.82 12.82 0 00.18-2.46 9.05 9.05 0 00-.56-2.84 2.4 2.4 0 00-.32-.64 4 4 0 00-.19-1 14.94 14.94 0 00-3.86-6.53 7.54 7.54 0 00-4.55-2.13c-1.06-.1-2.45.17-2.4 2.36a2.48 2.48 0 00.16.81c-.21-.1-.36.06-.45.25a4.77 4.77 0 00-.31 2.33 20.94 20.94 0 00.44 2.83c0 .15.06.32.09.49-1.18-.73-.85 2.06-.68 3.19.21 1.42.63 3.55 1.75 4.29a14.57 14.57 0 00.43 1.91 11.63 11.63 0 001.08 2.5c.07 1 .14 2 .2 3a1.79 1.79 0 010 .34c0-.07-.18.11-.23.14l-.49.32-.48-.05h-.12a7.45 7.45 0 00-1-.08h-1.22c-.73 0-1.47-.12-2.18-.06-1.76.16-4.09 2.2-4.26 7a6.09 6.09 0 002.63 5.43zm-4.39-29.64v.34c-.02-.11-.01-.22 0-.34z" transform="translate(-441.95 -121.54)"/><g class="cls-54"><path class="cls-55" d="M909.56 555.14l-7.07-13.49-89.1 58.49a7.24 7.24 0 108 12z" transform="translate(-441.95 -121.54)"/></g><g class="cls-54"><path class="cls-55" d="M981.49 596.7l-7.07-13.49-89.11 58.49a7.25 7.25 0 008.05 12z" transform="translate(-441.95 -121.54)"/></g><path class="cls-7" d="M975.33 599.56a4.85 4.85 0 01-2.34-3.28l-35.2-180a5.87 5.87 0 018.7-6.21l36 184.33a4.87 4.87 0 01-7.16 5.16zm-68.15-51.35a4.87 4.87 0 01-2.34-3.28l-35.2-180a5.87 5.87 0 018.7-6.22l36 184.34a4.87 4.87 0 01-7.16 5.16z" transform="translate(-441.95 -121.54)"/><path class="cls-7" d="M823.4 611.52l-12.22 5.66 53.91-239.43 10.61 6.13-50.06 223.5c-.47 2.08-.39 3.08-2.24 4.14z" transform="translate(-441.95 -121.54)"/><path class="cls-56" d="M483.51 357.73l-71.46-41.26 10.9-6.61 65.21 37.46-4.65 10.41z"/><path class="cls-36" d="M864.88 377.75s11.84-48.87 54.85-24 30 73 30 73l-10.61-6.12s12.12-36.2-19.7-59.3-43.94 22.56-43.94 22.56z" transform="translate(-441.95 -121.54)"/><path class="cls-17" d="M490.71 368.34l-79.83-46.09 1.2-5.79 79.84 46.09-1.21 5.79z"/><path class="cls-56" d="M474.11 400.72l-71.47-41.26 10.91-6.61 65.21 37.46-4.65 10.41z"/><path class="cls-56" d="M481.31 411.33l-79.84-46.09 1.21-5.79 79.84 46.09-1.21 5.79zm-16.6 32.38l-71.47-41.27 10.91-6.6 65.21 37.45-4.65 10.42z"/><path class="cls-17" d="M471.91 454.32l-79.84-46.09 1.21-5.8 79.84 46.1-1.21 5.79z"/><path class="cls-56" d="M455.31 486.69l-71.47-41.26 10.91-6.6 65.2 37.45-4.64 10.41z"/><path class="cls-17" d="M462.5 497.31l-79.83-46.1 1.21-5.79 79.83 46.09-1.21 5.8z"/><path class="cls-7" d="M895.41 654.54l-10.41 6.3 54.15-240.22 10.61 6.12-50.86 223.5a6.63 6.63 0 01-3.49 4.3z" transform="translate(-441.95 -121.54)"/><path class="cls-17" d="M881 660.77a3.57 3.57 0 01-1.43-3.75c5.7-23.8 52.42-218.46 57.91-245.53 2.3-11.31.32-23.42-5.87-36-.49-1-1-2-1.49-2.88C926 365 920 358.7 913.78 355.36c-16-8.61-28.81-7.75-38.19 2.57-8.32 9.16-10.67 22.6-10.69 22.73v.12l-50.17 233.59a3.56 3.56 0 01-5.48 2.2l-.24-.16a3.57 3.57 0 01-1.49-3.74L860.27 377c.2-1.18 2.75-14.8 11.43-24.35a26.38 26.38 0 0119.14-9.13c9.29-.32 19.59 3.72 31.63 12.11l1.32 1.15a53.55 53.55 0 0112.93 19.5c3.72 10.11 8.63 23.08 5.4 39-5.33 26.26-47.89 210.15-55.59 243.39a3.56 3.56 0 01-5.53 2.1z" transform="translate(-441.95 -121.54)"/><path class="cls-41" d="M846.44 529.25l8.17-1c5.46-2.47 8-4.33 10.45-2.93l.69.4c2.44 1.41 2.13 3.88-.68 5.51l-12 9.54a7.93 7.93 0 01-8.84-.86s-1.35-1.21-.39-6.32c.54-2.94.35-3.04 2.6-4.34zm45.47-34.9l8.55 3.77c6.77.77 10.34.45 11.89 3.24l.44.79c1.56 2.79-.19 5-3.87 5l-17.26 2.29c-3.69-.06-7.76-1.15-7.62-4.81 0 0-.53-4 3.38-8.46 2.23-2.56 1.58-1.87 4.49-1.82z" transform="translate(-441.95 -121.54)"/><path class="cls-27" d="M885.94 333.56l39.39 18.77L943.41 332l9.51 5.64-21.17 26.44a8.2 8.2 0 01-9.28 2.56l-26.09-9.74z" transform="translate(-441.95 -121.54)"/><path class="cls-28" d="M863.64 334.49l-.94-.26a5.66 5.66 0 01-3.84-7.35l6-17.82a6.44 6.44 0 017.69-4.16l.94.26a5.66 5.66 0 013.84 7.34l-3.22 17.83c-1.11 3.17-7.3 5.03-10.47 4.16z" transform="translate(-441.95 -121.54)"/><path class="cls-27" d="M886.65 306.75c.12 11.48-11.94 12.3-18.46 7.07s-9.49-15.41-8-24.87 12.66-14.94 19.18-9.71 7.17 17.87 7.28 27.51z" transform="translate(-441.95 -121.54)"/><path class="cls-6" d="M886.24 287.35a4.88 4.88 0 11-5.46-4.23 4.88 4.88 0 015.46 4.23z" transform="translate(-441.95 -121.54)"/><path class="cls-6" d="M885.48 281.38a4.89 4.89 0 11-5.47-4.23 4.88 4.88 0 015.47 4.23z" transform="translate(-441.95 -121.54)"/><path class="cls-28" d="M876.14 318.53c-8.33-.45-11.46-4.67-5-10.6 0 0 1.12 9 8.73 8.63-.02 0-2.79.62-3.73 1.97z" transform="translate(-441.95 -121.54)"/><path class="cls-6" d="M855.9 312a8.13 8.13 0 008 5.68c8.92-.26 4.93-21 14-24.63 4.72-1.92 8.23-8.49 3.85-12.57s-7.86-4.84-17-1.73c-8.04 2.73-23.89 9.1-8.85 33.25z" transform="translate(-441.95 -121.54)"/><path d="M871.37 308.72a4.22 4.22 0 011.24-8.34 23.64 23.64 0 00-1.24 8.34z" transform="translate(-441.95 -121.54)" fill="#ffae96"/><path class="cls-12" d="M895.91 498.4c-1.08 4-9.57 1.77-8.49-2.27l3.51-13.13 8.49 2.28z" transform="translate(-441.95 -121.54)"/><path class="cls-35" d="M891.21 405.43l21 25.76a19.43 19.43 0 012.92 19.35l-17.36 43.94c-2.06 2.21-14.16-.05-12.44-7l11.88-43.12L859.35 419z" transform="translate(-441.95 -121.54)"/><path class="cls-12" d="M853.75 531.18c-.19 4.07-8.92 3.65-8.72-.42l.64-13.24 8.73.42z" transform="translate(-441.95 -121.54)"/><path d="M868.89 423.41l-12.67 98.13c0 5.67-12.94 5.67-12.94 0l-3.21-107.74z" transform="translate(-441.95 -121.54)" fill="#89aef0"/><path class="cls-35" d="M879.87 429.31c-6.35-3.91-25.49-4.17-34.59-8.73-6.08-4.52-5.49-6.89-5.76-12.44l-.32-6.65 48.74 10.43z" transform="translate(-441.95 -121.54)"/><path class="cls-46" d="M838.19 398.73c-.63-13.3 0-4.75-.47-25.73.4-20.17-1.73-29.05.1-39.22 2-11 9.35-16.8 18.4-15.25 0 0 7 1.69 9.3 2.57 24.42 9.32 26 4.69 29.05 32.3l-2.29 49.26c8.66 14.68-53.08 26.49-54.09-3.93z" transform="translate(-441.95 -121.54)"/><path class="cls-12" d="M856.22 318.53a10.3 10.3 0 006.92 9.5c7 2.49 14.64-2.52 14.64-2.52s-13.1-6.68-21.56-6.98z" transform="translate(-441.95 -121.54)"/><path class="cls-6" d="M873.47 303.28a1.59 1.59 0 01-1.59-1.59v-7.53a1.6 1.6 0 011.59-1.59 1.6 1.6 0 011.6 1.59v7.53a1.6 1.6 0 01-1.6 1.59z" transform="translate(-441.95 -121.54)"/><path class="cls-27" d="M942.72 339.48a6.25 6.25 0 011.63-8.64l3.74-2.55a6.23 6.23 0 018.64 1.63 6.24 6.24 0 01-1.62 8.64l-3.74 2.55a6.24 6.24 0 01-8.65-1.63z" transform="translate(-441.95 -121.54)"/><path class="cls-45" d="M895.13 353.22c-2.17-19.43-3.08-19.6-12.23-23.19.63 3.85 5.05 6.07 5.66 11.55 0 0-6.17 71.7-6.58 73.47 8.43-2.76 13.86-7.5 10.87-12.58z" transform="translate(-441.95 -121.54)"/><path class="cls-46" d="M889 355.88l17.19 8.28c6.71 2.61 16.46-16.35 12-17.78-.78-.26-28.6-20.53-37.64-19.14-13.74 2.11-7.1 22.06 8.45 28.64z" transform="translate(-441.95 -121.54)"/><path d="M1100.77 592.68c4.86 8.67 12.92 26 22.55 28.92 13.32 4 26.28-12.35 36.41-20.75 4.54-3.76-.44-11.6-5-7.79-8.21 6.81-18.71 12.93-29.66 9.41-7.32-2.36-12.81-8.3-16.47-14.84-2.92-5.21-10.7-.15-7.79 5z" transform="translate(-441.95 -121.54)" fill="#7297d4"/><path class="cls-27" d="M1167.84 610.54a4.2 4.2 0 01-3-5.11l2.5-9.57a4.2 4.2 0 015.11-3 4.21 4.21 0 013 5.12l-2.5 9.57a4.2 4.2 0 01-5.11 2.99z" transform="translate(-441.95 -121.54)"/><path class="cls-29" d="M1142.36 693.07l.06-.24 6.62-23.33a13.52 13.52 0 00-7.78-16.08c-6.15-2.38-12.63 1-14.48 7.47l-6.62 23.32c0 .07 0 .15-.08.22a13.53 13.53 0 007.79 16.09c6.13 2.4 12.64-.95 14.49-7.45z" transform="translate(-441.95 -121.54)"/><path fill="#3f5fc2" d="M681.37 550.76l37.9-133.47 13.35 2.57-40.02 141.75-11.23-10.85z"/><path class="cls-36" d="M1174.57 541.4c5.18 3 4.82-2.82 10 3L1147 677.26c-4.83 7.94-8.86 8.74-12.56 6.46z" transform="translate(-441.95 -121.54)"/><path d="M1146.34 679.4l.06-.24 1.27-4.48a10.94 10.94 0 01-14.33 6.15 13.65 13.65 0 01-8.06-16.17c0-.08 0-.15.07-.23l-1.76 5.95-.07.22c-3.21 12.16 19.58 21.04 22.82 8.8z" transform="translate(-441.95 -121.54)" fill="#e655be"/><path d="M1133.29 680.81c6.31 2.42 12.25 1.65 14.1-4.85l.72-2.78 1.27-4.48c-2.71 8.23-25.32 2.35-22.38-10a1 1 0 01.07-.23l-1.76 5.95-.07.22a13.64 13.64 0 008.05 16.17zm51.64-137.25l-6.45-30.36-17.06 23.88c.27 8.97 22.03 13.53 23.51 6.48z" transform="translate(-441.95 -121.54)" fill="#deeaff"/><path d="M1179 511.57l2.29 15s0 1.82-3 1.23-2.13 1.48-5.41.4-3.65-2.12-3.65-2.12z" transform="translate(-441.95 -121.54)" fill="#4c73db"/><path class="cls-35" d="M1125.24 611.9l16.7 25.8a8.65 8.65 0 0015.15-1.14l15.68-27.71-5-5-17.18 18.39s-12.74-21.8-17.48-25.11c-3.61-2.51-7.87 14.77-7.87 14.77z" transform="translate(-441.95 -121.54)"/><ellipse cx="668.73" cy="678.29" rx="44.7" ry="23.36" fill="#e8eefa"/><path class="cls-36" d="M1087.73 784.26l7.82-1c5.23-2.37 7.67-4.15 10-2.8l.66.38c2.33 1.34 2 3.71-.65 5.27l-11.49 9.13a7.6 7.6 0 01-8.47-.83s-1.28-1.16-.36-6c.52-2.81.34-2.91 2.49-4.15zm28.42 10.48l8.79 1.65c6.48-.74 9.74-1.82 11.79.45l.58.64c2 2.26.91 4.72-2.54 5.46l-15.59 5.88a8.62 8.62 0 01-8.86-3.83s-1-1.7 1.7-6.66c1.54-2.83 1.37-3 4.13-3.59z" transform="translate(-441.95 -121.54)"/><path class="cls-27" d="M1083.08 677.33l3.09 107.57c.19 6.84 8.09 4.41 9 .23l2-99.74zm22.75 5.67l6.58 116c.3 7.25 7.91 4.78 8.7.36l1.89-108.1z" transform="translate(-441.95 -121.54)"/><path class="cls-65" d="M1129.71 642.77L1122.09 783s-5.48 8.54-12.92 0l-5.48-116-2.89-24.22z" transform="translate(-441.95 -121.54)"/><path class="cls-65" d="M1101.29 645.76l-3.1 121.85s-8.57 8.19-15.74-2.05l-2-123.5z" transform="translate(-441.95 -121.54)"/><path class="cls-65" transform="rotate(26.74 1140.552 -324.916)" d="M1088.37 654.54h35.32v22.39h-35.32z"/><path class="cls-27" d="M1114.69 571.38c-2.49 8.68-9.17 8.33-14.63 2.66s-7.66-14.49-5.17-23.17 8.94-11.12 14.41-5.46 7.88 17.29 5.39 25.97z" transform="translate(-441.95 -121.54)"/><path class="cls-27" d="M1123.84 568.63c-2.49 8.67-11.79 11.81-17.26 6.15s-7.88-17.29-5.39-26 12.89-11.82 18.36-6.15 6.78 17.37 4.29 26z" transform="translate(-441.95 -121.54)"/><path class="cls-27" d="M1101.35 595.44l-.76-.23c-2.57-.79-2.54-4.31-1.5-7.68l4.56-18.87c1-3.37 4-5.48 6.55-4.69l.76.24c2.56.78 3.81 4.19 2.78 7.55l-3.58 18.88c-1.03 3.36-6.25 5.59-8.81 4.8z" transform="translate(-441.95 -121.54)"/><path class="cls-6" d="M1094.48 566.86s.53 4.77 9.59 5.71c8.63.89 7.64-12.24 16-13.6 9.17-1.5 9.81-11.4 6.2-15.75s-13.7-6.61-21-3.39-15.4 5.56-10.79 27.03z" transform="translate(-441.95 -121.54)"/><path class="cls-27" d="M1119.06 565.09a4 4 0 11-2.72-4.92 4 4 0 012.72 4.92z" transform="translate(-441.95 -121.54)"/><path class="cls-35" d="M1080 603.22l-2.37 46.16s-3 8.67 21.53 15.18c20.17 5.35 31.63-3.76 32.8-6l-1.24-44.88 17.73 10.84a58.3 58.3 0 00-27.78-37.18c-4.28-2.42-10.62-5.31-15.8-7.57-7.69-3.35-11.19-2.14-18.29 2.33-3.84 2.35-6.58 21.12-6.58 21.12z" transform="translate(-441.95 -121.54)"/><path class="cls-65" d="M1107.16 552.37c-.62 5.38-4.88 9.31-9.51 8.77s-7.89-5.33-7.26-10.71 4.87-9.31 9.5-8.77 7.89 5.34 7.27 10.71z" transform="translate(-441.95 -121.54)"/><path class="cls-6" d="M1098.89 548.41c1-5.12-5.9-7.9-9-3.72a20.52 20.52 0 00-2.67 5.37c-5.11 14.59-30.09 9.51-20.75 37.3 0 0-13.26 16 6.83 25.69 3.22 1.56 7.22.26 11.18-2.26 10-6.37 14.43-18.51 12-30.12-.85-4.07-.91-8.4 1-11.89 2.44-4.43 3.44-9.61 1.84-14.4a11.69 11.69 0 01-.43-5.97z" transform="translate(-441.95 -121.54)"/><path class="cls-12" d="M1111.84 582.9s-7.27-5.7-12.73-4.77c0 0 .33 7.3 12.73 4.77z" transform="translate(-441.95 -121.54)"/><path class="cls-12" d="M528.51 584.25l25.19 17.03 19.25-42.05-25.99-15.3-18.45 40.32z"/><path class="cls-27" d="M475.65 577.9h-2.34l17.4 37.3 7.01-11.76-16.27-27.12-5.8 1.58z"/><path class="cls-65" d="M932.85 653l-17 22.76a24.87 24.87 0 00-4.41 20.67c.81 3.3 2.16 5.85 4.2 7.34a1.63 1.63 0 001.75.14l7-3.81a1.49 1.49 0 00.66-1.91 10.6 10.6 0 01.12-7.89c2.09-5.77 19.18-25.09 19.18-25.09z" transform="translate(-441.95 -121.54)"/><g class="cls-3"><ellipse class="cls-4" cx="955.54" cy="863.1" rx="39.36" ry="19.56" transform="rotate(-1.02 -6096.157 25623.465)"/></g><path class="cls-27" d="M966.5 644.17c-2.58 9-9.27 11.53-15 5.66s-8.17-17.94-5.59-26.94 9.27-11.53 14.95-5.66 8.22 17.94 5.64 26.94z" transform="translate(-441.95 -121.54)"/><path class="cls-27" d="M976 641.31c-2.59 9-12.23 12.26-17.91 6.38s-8.17-17.93-5.59-26.93 9.27-11.54 15-5.66 11.07 17.21 8.5 26.21z" transform="translate(-441.95 -121.54)"/><path class="cls-27" d="M954.16 667.29l-1-.22a6.08 6.08 0 01-4.6-7.24l4.1-18.38a6.08 6.08 0 017.24-4.6l1 .21a6.09 6.09 0 014.6 7.25l-1.34 18.23c-.73 3.26-6.74 5.46-10 4.75z" transform="translate(-441.95 -121.54)"/><path class="cls-6" d="M946.46 642.61s-1.12 6.24 9.77 6.84c8.71.48 6.13-15.28 14.77-16.69 9.5-1.55 11.22-13.29 7.48-17.8s-14.22-6.86-21.8-3.52-23.5 5.79-10.22 31.17z" transform="translate(-441.95 -121.54)"/><path class="cls-27" d="M971 637.64a4.12 4.12 0 11-2.82-5.1 4.12 4.12 0 012.82 5.1z" transform="translate(-441.95 -121.54)"/><path class="cls-65" d="M929.46 735.81c1.54-8.44 1.06-10.85 2.67-23.39 1-7.63-2.8-23-2.67-32 .31-23.31-1.51-32.87 15.54-28l4.8 1.27a33.23 33.23 0 016.66 2.57c22.47 11.58 28.47 15.15 27.48 28.58.1 22.11-6.05 20.73-5.51 41.06-4.63 15.36-43.83 20.85-48.97 9.91z" transform="translate(-441.95 -121.54)"/><path class="cls-28" d="M965 650.65l-1-2.25a6.18 6.18 0 005.05 1.31 7.89 7.89 0 01-4.05.94z" transform="translate(-441.95 -121.54)"/><ellipse class="cls-6" cx="502.99" cy="503.99" rx="10.59" ry="11.46"/><path class="cls-12" d="M949.66 651.54a2.7 2.7 0 00-3.27 3.08c.36 2.11 1.64 4.62 5.48 5.92 5.31 1.8 11.15.83 14 .17a.77.77 0 00.22-1.4c-3.21-1.96-10.81-6.41-16.43-7.77z" transform="translate(-441.95 -121.54)"/><path class="cls-27" d="M1012.91 693.47a4.57 4.57 0 00-6.32 1.26l-5.72 8.59a4.56 4.56 0 001.26 6.31 4.56 4.56 0 006.31-1.27l5.72-8.58a4.57 4.57 0 00-1.25-6.31z" transform="translate(-441.95 -121.54)"/><path class="cls-27" d="M986.87 724.32v-5.67l15-16.17s7.09 5.25 6.69 5.48-5.35 6.93-13.31 16.13c-3.84 4.45-7.94 5.58-8.33.23z" transform="translate(-441.95 -121.54)"/><path d="M973.69 688.38l4.74 37.62c-.09.43-4.85 17.49-11.36 18z" transform="translate(-441.95 -121.54)" fill="#3f4ce0"/><path class="cls-6" d="M934.77 851.14l8.47-1.63c5.55-3 8.09-5.09 10.74-3.79l.75.37c2.64 1.3 2.49 3.91-.34 5.81l-11.91 10.8a8.31 8.31 0 01-9.3-.29s-1.49-1.18-.83-6.58c.37-3.08.16-3.18 2.42-4.69z" transform="translate(-441.95 -121.54)"/><path class="cls-27" d="M943 852.63c-.3 6-9.23 4.87-9.53.38l-2.6-120.21 30-2.67z" transform="translate(-441.95 -121.54)"/><path class="cls-6" d="M965.1 862.83l8.9 1.67c6.53-.75 9.82-1.84 11.88.44l.59.65c2.06 2.28.91 4.76-2.56 5.51l-15.76 5.9a8.69 8.69 0 01-8.93-3.86s-1.91-2.67.8-7.66c1.55-2.83 2.3-2.05 5.08-2.65z" transform="translate(-441.95 -121.54)"/><path class="cls-27" d="M968.61 866.72c-1.88 4.78-9 4.18-8.89.26 3.87-47.33-6.17-92.48-17.65-136l34.73-3.75c1.36 50.92.9 94.53-8.19 139.49z" transform="translate(-441.95 -121.54)"/><path class="cls-29" d="M978.43 720.16l2 83.7s-16.65 27.63-51-2.11l1.06-37.22c-4-18.12-4.72-38.53.33-47.65 15.58 11.28 31.18 11.58 47.61 3.28z" transform="translate(-441.95 -121.54)"/><path d="M930.52 764.53l9.15 6.41s-10.16-9.53-10.75-15z" transform="translate(-441.95 -121.54)" fill="#de5aa9"/><path class="cls-40" d="M954.37 727.91c-16.45 0-24.48-9.28-25-9.83a1.87 1.87 0 01.24-2.62 1.85 1.85 0 012.61.23c.61.72 14.79 16.78 45.39 2.78a1.86 1.86 0 011.54 3.38c-9.71 4.47-17.97 6.06-24.78 6.06z" transform="translate(-441.95 -121.54)"/><path class="cls-65" d="M982.8 675.28s7.33 17.05 6.75 42c0 .76.28 5.07.53 8.43.24 3.17-2.87 4.41-6 4.54-2.84.12-4.65-2.3-5.52-5.4-1.84-6.57-6.25-23.91-5.52-32.3 1.08-12.76 9.76-17.27 9.76-17.27z" transform="translate(-441.95 -121.54)"/><path class="cls-12" d="M944.94 637.92a.93.93 0 01-.26-1.82c8.72-2.54 9.93-6.58 9.93-10.57 0-7.39-4.7-10.55-4.9-10.68a.94.94 0 01-.28-1.29.92.92 0 011.28-.27c.24.15 5.75 3.8 5.75 12.24 0 6.28-3.47 10.09-11.26 12.35a.75.75 0 01-.26.04z" transform="translate(-441.95 -121.54)"/></g></g></svg>