<svg xmlns="http://www.w3.org/2000/svg" viewBox="0 0 1071.53 904.3"><defs><style>.cls-2{fill:#edf7ff}.cls-3{fill:#d9e9ff}.cls-4{fill:#2c1f9c}.cls-5{fill:#ffc2b0}.cls-6{fill:#ffce43}.cls-8{fill:#fff}.cls-11{fill:#add5f7;opacity:.56}.cls-12{fill:#94a6eb}.cls-13{fill:#c9d5f5}.cls-15{fill:#f2bc49}.cls-19{fill:#bad4f5}.cls-20{fill:#00409d}.cls-21{fill:#1d76ef}.cls-22{fill:#3b2ad1}.cls-25{fill:#4852db}.cls-29{fill:#f09a82}.cls-30,.cls-45{fill:#a8c4e5}.cls-31{fill:#e1eaf4}.cls-45{mix-blend-mode:multiply}.cls-34{fill:#c6d2f2}.cls-39{fill:#22009c}.cls-41{fill:#97cbff}.cls-45{opacity:.4}</style></defs><g style="isolation:isolate"><g id="image"><path class="cls-2" d="M971.22 46.82c2-10.71 6.45-14.53 12-11.31s7.73 10.91 5.7 21.62-6.48 14.74-12 11.54-7.72-11.13-5.7-21.85zm14.23 8.3c1.77-9.37.33-14.44-2.87-16.3s-6.13.66-7.9 10-.37 14.64 2.88 16.53 6.11-.87 7.89-10.23zm7.26 4.23c2-10.72 6.44-14.54 12-11.31s7.73 10.9 5.7 21.62-6.48 14.74-12 11.54-7.73-11.13-5.7-21.85zm14.21 8.29c1.78-9.36.34-14.43-2.86-16.29s-6.13.65-7.9 10S995.79 76 999 77.89s6.15-.89 7.92-10.25zm7.26 4.24c2-10.72 6.45-14.54 12-11.31s7.73 10.9 5.7 21.62-6.48 14.74-12 11.53-7.72-11.12-5.7-21.84zm14.23 8.29c1.77-9.37.33-14.43-2.87-16.3s-6.13.66-7.9 10-.37 14.64 2.88 16.53 6.11-.86 7.89-10.23zm7.26 4.23c2-10.71 6.44-14.53 12-11.31s7.73 10.9 5.7 21.62-6.48 14.74-12 11.54-7.73-11.13-5.7-21.85zm14.22 8.3c1.77-9.37.33-14.44-2.87-16.3s-6.13.65-7.9 10-.37 14.63 2.88 16.52 6.11-.86 7.89-10.22zm6.37 17.78l6.31 3.69 4.43-23.55-5-2.92.5-2.65a13.9 13.9 0 006.28 1l2.73 1.59-5.4 28.55 5.7 3.33-.64 3.41-15.56-9.08zm21.48 12.52l6.31 3.68 4.45-23.54-5-2.92.5-2.66a14 14 0 006.28 1.05l2.73 1.59-5.4 28.55 5.7 3.33-.64 3.4-15.56-9.07zm21.48 12.54l6.31 3.68 4.46-23.54-5-2.93.5-2.65a14 14 0 006.29 1.05l2.72 1.59-5.4 28.55 5.7 3.32-.64 3.41-15.56-9.08zm22.37-1.03c2-10.72 6.44-14.54 12-11.31s7.73 10.9 5.71 21.62-6.49 14.74-12 11.54-7.74-11.13-5.71-21.85zm14.22 8.29c1.77-9.36.33-14.43-2.87-16.3s-6.12.66-7.9 10-.36 14.63 2.88 16.52 6.08-.85 7.89-10.22zm7.26 4.2c2-10.72 6.44-14.54 12-11.31s7.73 10.9 5.71 21.62-6.49 14.74-12 11.53-7.78-11.08-5.71-21.84zm14.22 8.29c1.77-9.37.33-14.43-2.87-16.3s-6.12.66-7.89 10-.37 14.64 2.87 16.53 6.12-.82 7.89-10.19zm7.26 4.27c2-10.72 6.44-14.53 12-11.31s7.73 10.9 5.71 21.62-6.49 14.74-12 11.54-7.74-11.13-5.71-21.85zm14.22 8.3c1.77-9.37.33-14.44-2.87-16.3s-6.12.65-7.89 10-.37 14.63 2.87 16.52 6.12-.86 7.89-10.22zm7.23 4.23c2-10.72 6.44-14.54 12-11.31s7.73 10.9 5.71 21.62-6.49 14.74-12 11.54-7.71-11.13-5.71-21.85zm14.22 8.29c1.77-9.36.33-14.43-2.87-16.3s-6.12.66-7.89 10-.37 14.63 2.87 16.52 6.15-.85 7.92-10.22zm6.41 17.79l6.31 3.68 4.45-23.54-5-2.92.51-2.66a13.93 13.93 0 006.28 1.05l2.72 1.59-5.4 28.55 5.71 3.33-.65 3.4-15.56-9.07zM959 120.49l6.31 3.68 4.45-23.54-5-2.92.5-2.66a14 14 0 006.28 1l2.73 1.59-5.4 28.55 5.7 3.33-.64 3.4-15.56-9.07zm22.34-1.03c2-10.71 6.44-14.53 12-11.31s7.73 10.91 5.7 21.62-6.48 14.74-12 11.54-7.73-11.13-5.7-21.85zm14.22 8.3c1.77-9.37.33-14.44-2.87-16.3s-6.13.65-7.9 10-.36 14.63 2.88 16.53 6.11-.87 7.89-10.23zm7.26 4.24c2-10.72 6.44-14.54 12-11.31s7.73 10.9 5.7 21.62-6.48 14.74-12 11.54-7.73-11.14-5.7-21.85zm14.22 8.29c1.77-9.36.33-14.43-2.87-16.29s-6.12.65-7.9 10-.36 14.63 2.88 16.52 6.12-.87 7.85-10.24zm6.37 17.78l6.31 3.68 4.45-23.54-5-2.92.5-2.66a14 14 0 006.28 1.05l2.73 1.59-5.4 28.55 5.7 3.33-.64 3.4-15.56-9.07zm21.48 12.53l6.31 3.68 4.46-23.54-5-2.93.5-2.65a14 14 0 006.28 1.05l2.73 1.59-5.4 28.55 5.7 3.32-.64 3.41-15.58-9.08zm22.37-1.03c2-10.72 6.44-14.54 12-11.31s7.73 10.9 5.71 21.62-6.49 14.74-12 11.54-7.74-11.13-5.71-21.85zm14.22 8.29c1.77-9.36.33-14.43-2.87-16.3s-6.12.66-7.9 10-.36 14.63 2.88 16.52 6.12-.85 7.89-10.22zm6.37 17.79l6.31 3.68 4.46-23.54-5-2.92.5-2.66a14 14 0 006.29 1l2.72 1.59-5.4 28.55 5.7 3.33-.64 3.4-15.56-9.07zm22.37-1.03c2-10.71 6.44-14.53 12-11.31s7.73 10.9 5.71 21.62-6.49 14.74-12 11.54-7.74-11.13-5.71-21.85zm14.22 8.3c1.77-9.37.33-14.44-2.87-16.3s-6.12.65-7.89 10-.37 14.63 2.87 16.52 6.12-.86 7.89-10.22zm6.37 17.79l6.32 3.67 4.45-23.54-5-2.92.51-2.66a13.78 13.78 0 006.28 1.05l2.72 1.59-5.4 28.55 5.7 3.33-.64 3.41-15.56-9.08zm22.37-1.03c2-10.72 6.44-14.54 12-11.32s7.72 10.91 5.7 21.63-6.49 14.73-12 11.53-7.73-11.12-5.7-21.84zm14.22 8.32c1.77-9.37.33-14.43-2.87-16.3s-6.12.66-7.89 10-.37 14.64 2.87 16.53 6.12-.89 7.89-10.23zm6.37 17.76l6.32 3.68 4.45-23.54-5-2.93.51-2.65a13.91 13.91 0 006.28 1.05L1189 223l-5.4 28.55 5.71 3.32-.65 3.41-15.56-9.08zm22.37-1.03c2-10.72 6.44-14.54 12-11.31s7.73 10.9 5.7 21.62-6.49 14.74-12 11.54-7.73-11.13-5.7-21.85zm14.22 8.29c1.77-9.36.33-14.43-2.87-16.3s-6.12.66-7.89 10-.37 14.63 2.87 16.52 6.12-.85 7.89-10.24zM947.6 180.61l6.31 3.68 4.45-23.55-5-2.92.5-2.65a14.09 14.09 0 006.28 1.05l2.73 1.58-5.4 28.55 5.7 3.33-.64 3.41L947 184zm21.48 12.52l6.31 3.68 4.45-23.54-5-2.92.5-2.66a14 14 0 006.28 1.05l2.73 1.59-5.4 28.55 5.7 3.33-.64 3.4-15.56-9.07zm22.37-1.03c2-10.71 6.44-14.53 12-11.31s7.73 10.91 5.7 21.62-6.48 14.74-12 11.54-7.73-11.13-5.7-21.85zm14.22 8.3c1.77-9.37.33-14.44-2.87-16.3s-6.12.65-7.9 10-.36 14.63 2.88 16.52 6.12-.86 7.89-10.22zm6.33 17.79l6.31 3.68 4.46-23.55-5-2.92.5-2.65a13.92 13.92 0 006.28 1l2.73 1.59-5.4 28.55 5.7 3.33-.64 3.41-15.56-9.08zm22.41-1.03c2-10.72 6.44-14.54 12-11.31s7.73 10.9 5.7 21.62-6.48 14.74-12 11.53-7.73-11.12-5.7-21.84zm14.22 8.29c1.77-9.37.33-14.43-2.87-16.3s-6.12.66-7.89 10-.37 14.64 2.87 16.53 6.12-.86 7.89-10.23zm7.26 4.23c2-10.71 6.44-14.53 12-11.31s7.73 10.9 5.71 21.62-6.49 14.74-12 11.54-7.74-11.13-5.71-21.85zm14.22 8.3c1.77-9.37.33-14.44-2.87-16.3s-6.12.65-7.9 10-.36 14.63 2.88 16.52 6.12-.86 7.89-10.2zm6.37 17.78l6.31 3.69 4.46-23.55-5-2.92.51-2.65a13.88 13.88 0 006.28 1l2.72 1.59-5.4 28.55 5.7 3.33-.64 3.41-15.56-9.08zm21.52 12.53l6.31 3.68 4.46-23.54-5-2.92.5-2.66a14 14 0 006.29 1.05l2.72 1.59-5.4 28.55 5.71 3.33-.65 3.4-15.56-9.07zm21.44 12.53l6.32 3.68 4.45-23.54-5-2.93.51-2.65a13.91 13.91 0 006.28 1.05l2.72 1.59-5.4 28.54 5.71 3.33-.65 3.41-15.56-9.08zm22.37-1.03c2-10.72 6.44-14.54 12-11.31s7.73 10.9 5.7 21.62-6.49 14.74-12 11.54-7.73-11.13-5.7-21.85zm14.22 8.29c1.77-9.36.33-14.43-2.87-16.3s-6.12.66-7.89 10-.37 14.63 2.87 16.52 6.12-.85 7.86-10.22zm7.26 4.24c2-10.72 6.44-14.54 12-11.32s7.72 10.91 5.7 21.63-6.48 14.73-12 11.53-7.73-11.16-5.7-21.84zm14.22 8.29c1.77-9.37.33-14.43-2.87-16.3s-6.12.66-7.89 10-.37 14.64 2.87 16.53 6.12-.84 7.89-10.23zm6.38 17.79l6.31 3.68 4.45-23.54-5-2.93.51-2.65a13.93 13.93 0 006.28 1.05l2.72 1.59-5.4 28.55 5.71 3.32-.65 3.41-15.56-9.08zm-247.66-77.68l6.31 3.68 4.46-23.54-5-2.93.5-2.65a14 14 0 006.28 1.05l2.73 1.59-5.4 28.55 5.7 3.32-.64 3.41-15.56-9.08zm22.37-1.03c2-10.72 6.44-14.54 12-11.31s7.73 10.9 5.7 21.62-6.48 14.74-12 11.54-7.73-11.13-5.7-21.85zm14.22 8.31c1.77-9.36.33-14.43-2.87-16.29s-6.12.65-7.9 10-.36 14.63 2.88 16.52 6.12-.88 7.89-10.23zm7.26 4.22c2-10.72 6.44-14.54 12-11.31s7.73 10.9 5.7 21.62-6.48 14.74-12 11.53-7.73-11.12-5.7-21.84zm14.22 8.29c1.77-9.37.33-14.43-2.87-16.3s-6.12.66-7.9 10-.36 14.64 2.88 16.53 6.12-.86 7.89-10.23zm7.26 4.23c2-10.71 6.44-14.53 12-11.31s7.73 10.91 5.71 21.62-6.49 14.74-12 11.54-7.74-11.13-5.71-21.85zm14.22 8.3c1.77-9.37.33-14.44-2.87-16.3s-6.12.65-7.9 10-.36 14.63 2.88 16.52 6.11-.86 7.89-10.26zm6.37 17.79l6.31 3.67 4.46-23.54-5-2.92.51-2.65a13.88 13.88 0 006.28 1l2.72 1.59-5.4 28.55 5.7 3.33-.64 3.41-15.56-9.08zm22.37-1.03c2-10.72 6.44-14.54 12-11.31s7.73 10.9 5.71 21.62-6.49 14.73-12 11.53-7.74-11.12-5.71-21.84zm14.22 8.29c1.77-9.37.33-14.43-2.87-16.3s-6.12.66-7.89 10-.37 14.64 2.87 16.53 6.15-.86 7.89-10.23zm6.37 17.79l6.32 3.68 4.45-23.54-5-2.93.51-2.65a13.91 13.91 0 006.28 1.05l2.72 1.59-5.4 28.55 5.7 3.32-.64 3.41-15.56-9.08zm22.37-1.03c2-10.72 6.44-14.54 12-11.31s7.72 10.9 5.7 21.62-6.49 14.74-12 11.54-7.73-11.13-5.7-21.85zm14.22 8.29c1.77-9.36.33-14.43-2.87-16.3s-6.12.66-7.89 10-.37 14.63 2.87 16.52 6.12-.85 7.89-10.22zm7.3 4.24c2-10.72 6.44-14.54 12-11.32s7.72 10.91 5.7 21.63-6.48 14.73-12 11.53-7.77-11.12-5.7-21.84zm14.22 8.29c1.77-9.37.33-14.43-2.87-16.3s-6.12.66-7.89 10-.37 14.64 2.87 16.53 6.08-.9 7.85-10.23zm6.34 17.79l6.31 3.68 4.45-23.54-5-2.93.51-2.65a13.93 13.93 0 006.28 1.05l2.72 1.59-5.4 28.54 5.71 3.33-.65 3.41-15.56-9.08zm22.36-1.03c2-10.72 6.44-14.54 12-11.31s7.73 10.9 5.7 21.62-6.48 14.74-12 11.54-7.73-11.13-5.7-21.85zm14.22 8.29c1.77-9.36.33-14.43-2.87-16.3s-6.12.66-7.89 10-.37 14.63 2.87 16.52 6.12-.85 7.89-10.22zm7.26 4.28c2-10.72 6.45-14.54 12-11.32s7.73 10.91 5.7 21.63-6.49 14.73-12 11.53-7.73-11.16-5.7-21.84zm14.22 8.29c1.77-9.37.33-14.43-2.87-16.3s-6.12.66-7.89 10-.37 14.64 2.87 16.53 6.12-.9 7.89-10.27zm-262.76-72.46l6.31 3.68 4.46-23.51-5-2.92.5-2.66a14 14 0 006.29 1.05l2.72 1.59-5.4 28.55 5.7 3.33-.64 3.4-15.56-9.07zm21.48 12.53l6.31 3.68 4.46-23.54-5-2.93.51-2.65a13.89 13.89 0 006.27 1.05l2.73 1.59-5.4 28.55 5.7 3.32-.64 3.41-15.56-9.08zm22.37-1.03c2-10.72 6.44-14.54 12-11.31s7.73 10.9 5.71 21.62-6.49 14.74-12 11.54-7.74-11.13-5.71-21.85zm14.22 8.29c1.77-9.36.33-14.43-2.87-16.3s-6.12.66-7.89 10-.37 14.68 2.83 16.55 6.16-.87 7.93-10.25zm7.26 4.24c2-10.72 6.44-14.54 12-11.31s7.73 10.9 5.71 21.62-6.49 14.73-12 11.53-7.74-11.12-5.71-21.84zm14.22 8.29c1.77-9.37.33-14.43-2.87-16.3s-6.12.66-7.89 10-.37 14.64 2.87 16.53 6.12-.86 7.89-10.23zm7.26 4.23c2-10.71 6.44-14.53 12-11.31s7.72 10.91 5.7 21.62-6.49 14.74-12 11.54-7.73-11.13-5.7-21.85zm14.22 8.3c1.77-9.37.33-14.44-2.87-16.3s-6.12.65-7.89 10-.37 14.63 2.87 16.52 6.12-.9 7.89-10.22zm6.37 17.79l6.32 3.67 4.42-23.54-5-2.92.51-2.65a13.9 13.9 0 006.28 1l2.72 1.59-5.4 28.55 5.71 3.33-.65 3.41-15.56-9.08zm22.37-1.03c2-10.72 6.44-14.54 12-11.31s7.72 10.9 5.7 21.62-6.48 14.74-12 11.53-7.73-11.12-5.7-21.84zm14.22 8.29c1.77-9.37.33-14.43-2.87-16.3s-6.12.66-7.89 10-.37 14.64 2.87 16.53 6.12-.86 7.89-10.23zm6.38 17.79l6.31 3.68 4.45-23.54-5-2.93.51-2.65a13.93 13.93 0 006.28 1.05l2.72 1.59-5.4 28.55 5.71 3.32-.65 3.41-15.56-9.08zm21.48 12.48l6.31 3.69 4.45-23.55-5-2.92.5-2.65a13.9 13.9 0 006.28 1l2.72 1.59-5.4 28.55 5.71 3.33-.65 3.4-15.56-9.07zm21.48 12.57l6.31 3.68 4.45-23.54-5-2.92.51-2.66a13.93 13.93 0 006.28 1.05l2.72 1.59-5.4 28.55 5.71 3.33-.65 3.4-15.58-9.05zm21.48 12.53l6.31 3.68 4.45-23.54-5-2.93.5-2.65a13.93 13.93 0 006.28 1l2.72 1.59-5.4 28.54 5.71 3.33-.65 3.41-15.59-9.03zm22.33-1.03c2-10.72 6.45-14.54 12-11.31s7.73 10.9 5.7 21.62-6.48 14.74-12 11.54-7.7-11.13-5.7-21.85zm14.22 8.29c1.77-9.36.33-14.43-2.87-16.3s-6.12.66-7.89 10-.37 14.63 2.87 16.52 6.15-.85 7.92-10.22zm-257.84-66.12l6.31 3.68 4.45-23.54-5-2.92.5-2.66a13.79 13.79 0 006.28 1.05l2.72 1.59-5.41 28.56 5.71 3.33-.65 3.4-15.56-9.07zm22.36-1.02c2-10.72 6.45-14.54 12-11.32s7.73 10.91 5.7 21.63-6.48 14.73-12 11.53-7.73-11.13-5.7-21.84zm14.26 8.29c1.77-9.37.33-14.43-2.87-16.3s-6.12.66-7.89 10-.37 14.64 2.87 16.53 6.08-.86 7.89-10.23zm7.22 4.23c2-10.72 6.45-14.54 12-11.31s7.73 10.9 5.7 21.62-6.48 14.74-12 11.54-7.73-11.13-5.7-21.85zm14.22 8.3c1.77-9.37.33-14.44-2.87-16.3s-6.12.65-7.89 10-.37 14.63 2.87 16.52 6.12-.86 7.89-10.26zm6.38 17.78l6.31 3.68 4.45-23.5-5-2.92.5-2.66a13.93 13.93 0 006.28 1.05l2.72 1.59-5.4 28.55 5.71 3.33-.65 3.4-15.56-9.07zm21.48 12.53l6.31 3.68 4.45-23.54-5-2.93.5-2.65a13.93 13.93 0 006.28 1l2.72 1.59-5.4 28.55 5.71 3.32-.65 3.41-15.56-9.07zm22.36-1.03c2-10.72 6.45-14.54 12-11.31s7.73 10.9 5.7 21.62-6.48 14.74-12 11.54-7.72-11.17-5.7-21.85zm14.22 8.29c1.77-9.36.33-14.43-2.87-16.29s-6.12.65-7.89 10-.37 14.63 2.87 16.52 6.12-.84 7.89-10.23zm6.38 17.79l6.31 3.68 4.45-23.54-5-2.92.5-2.66a13.79 13.79 0 006.28 1.05l2.72 1.59-5.4 28.55 5.71 3.33-.64 3.4-15.57-9.07zm22.36-1.02c2-10.72 6.45-14.54 12-11.32s7.73 10.91 5.7 21.62-6.48 14.74-12 11.54-7.72-11.13-5.7-21.84zm14.22 8.29c1.78-9.37.33-14.44-2.86-16.3s-6.13.66-7.9 10-.37 14.64 2.87 16.53 6.12-.9 7.89-10.23zm6.38 17.79l6.31 3.68 4.47-23.54-5-2.93.5-2.65a14.07 14.07 0 006.28 1.05l2.72 1.58-5.39 28.55 5.7 3.33-.64 3.41-15.56-9.08zm22.36-1.03c2-10.72 6.45-14.54 12-11.31s7.73 10.9 5.7 21.62-6.48 14.74-12 11.53-7.72-11.12-5.7-21.84zm14.22 8.29c1.78-9.36.34-14.43-2.86-16.3s-6.13.66-7.9 10-.37 14.64 2.88 16.53 6.08-.86 7.88-10.23zm6.38 17.79l6.31 3.68 4.45-23.54-5-2.93.5-2.65a13.93 13.93 0 006.28 1.05l2.73 1.59-5.4 28.55 5.7 3.32-.64 3.41-15.56-9.07zm22.36-1.03c2-10.72 6.45-14.54 12-11.31s7.73 10.9 5.7 21.62-6.48 14.74-12 11.54-7.72-11.13-5.7-21.85zm14.23 8.29c1.77-9.36.33-14.43-2.87-16.29s-6.13.65-7.9 10-.37 14.63 2.88 16.52 6.12-.86 7.89-10.23zM907 427.36l6.31 3.68 4.45-23.54-5-2.93.5-2.65a13.93 13.93 0 006.28 1.05l2.72 1.58-5.4 28.55 5.71 3.33-.65 3.41-15.56-9.08zm21.49 12.52l6.31 3.68 4.45-23.56-5-2.92.5-2.66a13.79 13.79 0 006.28 1.05l2.72 1.59-5.4 28.55 5.71 3.33-.65 3.4-15.56-9.07zm22.36-1.02c2-10.72 6.45-14.54 12-11.32s7.73 10.91 5.7 21.63-6.48 14.73-12 11.53-7.73-11.13-5.7-21.84zm14.22 8.29c1.77-9.37.33-14.43-2.87-16.3s-6.12.66-7.89 10-.37 14.64 2.87 16.53 6.12-.86 7.89-10.23zm6.38 17.79l6.31 3.68 4.45-23.54-5-2.93.5-2.65a13.93 13.93 0 006.28 1.05l2.72 1.58-5.4 28.55L987 474l-.64 3.41-15.57-9.08zm22.36-1.03c2-10.72 6.45-14.54 12-11.31s7.73 10.9 5.7 21.62-6.48 14.74-12 11.54-7.72-11.13-5.7-21.85zm14.19 8.29c1.78-9.36.33-14.43-2.86-16.3s-6.13.66-7.9 10-.37 14.64 2.87 16.53 6.15-.86 7.89-10.23zm7.29 4.24c2-10.72 6.45-14.54 12-11.32S1035 476 1033 486.74s-6.48 14.74-12 11.54-7.73-11.13-5.71-21.84zm14.22 8.29c1.78-9.37.33-14.43-2.87-16.3s-6.12.66-7.89 10-.37 14.64 2.87 16.53 6.12-.87 7.89-10.23zm6.38 17.79l6.31 3.68 4.45-23.54-5-2.93.5-2.65a13.93 13.93 0 006.28 1.05l2.72 1.58-5.4 28.55 5.71 3.33-.64 3.41-15.56-9.08zm21.48 12.48l6.31 3.68 4.45-23.54-5-2.92.5-2.66a13.93 13.93 0 006.28 1l2.72 1.59-5.4 28.55 5.71 3.33-.64 3.4-15.56-9.07zm21.48 12.57l6.31 3.68 4.45-23.54-5-2.93.5-2.65a13.93 13.93 0 006.28 1.05l2.73 1.59-5.4 28.55 5.7 3.32-.64 3.41-15.57-9.05zm22.36-1.03c2-10.72 6.45-14.54 12-11.31s7.73 10.9 5.7 21.62-6.48 14.74-12 11.54-7.72-11.13-5.7-21.85zm14.23 8.29c1.77-9.36.33-14.43-2.87-16.29s-6.13.65-7.9 10-.37 14.63 2.88 16.52 6.11-.86 7.89-10.23zm7.26 4.24c2-10.72 6.44-14.54 12-11.31s7.73 10.9 5.7 21.62-6.48 14.74-12 11.53-7.73-11.12-5.7-21.84zm14.22 8.29c1.77-9.36.33-14.43-2.87-16.3s-6.13.66-7.9 10-.36 14.64 2.88 16.53 6.11-.86 7.89-10.23zm6.37 17.79l6.31 3.68 4.45-23.54-5-2.93.5-2.65a14 14 0 006.28 1l2.73 1.59-5.4 28.55 5.7 3.32-.64 3.41-15.56-9.07zm85.32-364.68c2-10.72 6.44-14.54 12-11.31s7.72 10.9 5.7 21.62-6.49 14.74-12 11.54-7.73-11.13-5.7-21.85zm14.22 8.29c1.77-9.36.33-14.43-2.87-16.3s-6.12.66-7.89 10-.37 14.64 2.87 16.53 6.12-.86 7.89-10.23zm7.26 4.24c2-10.71 6.44-14.53 12-11.31s7.72 10.91 5.7 21.62-6.49 14.74-12 11.54-7.73-11.14-5.7-21.85zm14.22 8.3c1.77-9.37.33-14.44-2.87-16.3s-6.12.66-7.89 10-.37 14.64 2.87 16.53 6.12-.88 7.89-10.24zm7.26 4.22c2-10.72 6.44-14.54 12-11.31s7.72 10.9 5.7 21.62-6.49 14.74-12 11.54-7.73-11.13-5.7-21.85zm14.22 8.29c1.77-9.36.33-14.43-2.87-16.29s-6.12.65-7.89 10-.37 14.63 2.87 16.52 6.1-.86 7.89-10.23zm7.26 4.24c2-10.72 6.44-14.54 12-11.31s7.73 10.9 5.7 21.62-6.49 14.74-12 11.53-7.75-11.12-5.7-21.84zm14.22 8.29c1.77-9.37.33-14.43-2.87-16.3s-6.12.66-7.89 10-.37 14.64 2.87 16.53 6.12-.86 7.89-10.23zm6.38 17.79l6.31 3.68 4.45-23.54-5-2.93.51-2.65a13.93 13.93 0 006.28 1.05l2.72 1.59-5.4 28.55 5.71 3.32-.65 3.41-15.58-9.07zm21.48 12.53l6.31 3.68 4.45-23.55-5-2.92.51-2.65a14.07 14.07 0 006.28 1.05l2.72 1.58-5.4 28.55 5.71 3.33-.65 3.41-15.56-9.08zm21.48 12.52l6.31 3.68 4.45-23.54-5-2.92.5-2.66a13.93 13.93 0 006.28 1.05l2.72 1.59-5.4 28.55 5.71 3.33-.65 3.4-15.53-9.07zm22.39-1.03c2-10.71 6.45-14.53 12-11.31s7.73 10.9 5.7 21.62-6.48 14.74-12 11.54-7.76-11.13-5.7-21.85zm14.22 8.3c1.77-9.37.33-14.44-2.87-16.3s-6.12.65-7.89 10-.37 14.63 2.87 16.52 6.09-.86 7.86-10.22zm7.23 4.23c2-10.72 6.45-14.54 12-11.31s7.73 10.9 5.7 21.62-6.48 14.74-12 11.54-7.73-11.13-5.7-21.85zm14.22 8.29c1.77-9.36.33-14.43-2.87-16.29s-6.12.65-7.89 10-.37 14.63 2.87 16.52 6.12-.86 7.89-10.2zm7.26 4.24c2-10.72 6.45-14.54 12-11.31s7.73 10.9 5.7 21.62-6.48 14.74-12 11.53-7.73-11.12-5.7-21.84zm14.22 8.29c1.77-9.37.33-14.43-2.87-16.3s-6.12.66-7.89 10-.37 14.64 2.87 16.53 6.12-.86 7.89-10.23zm7.26 4.23c2-10.71 6.45-14.53 12-11.31s7.73 10.91 5.7 21.62-6.48 14.74-12 11.54-7.73-11.13-5.7-21.85zm14.22 8.3c1.77-9.37.33-14.44-2.87-16.3s-6.12.65-7.89 10-.37 14.63 2.87 16.52 6.12-.86 7.89-10.25zm6.37 17.79l6.31 3.67 4.45-23.54-5-2.92.5-2.65a13.9 13.9 0 006.28 1l2.72 1.59-5.4 28.55 5.71 3.33-.64 3.41-15.57-9.08zm-247.64-77.68l6.31 3.68 4.45-23.54-5-2.93.51-2.65a14.05 14.05 0 006.28 1.05l2.72 1.58-5.4 28.55 5.71 3.33-.65 3.41-15.56-9.08zm22.36-1.03c2-10.72 6.44-14.54 12-11.31s7.72 10.9 5.7 21.62-6.49 14.74-12 11.53-7.73-11.12-5.7-21.84zm14.22 8.29c1.77-9.36.33-14.43-2.87-16.3s-6.12.66-7.89 10-.37 14.64 2.87 16.53 6.12-.86 7.89-10.23zm7.26 4.23c2-10.71 6.44-14.53 12-11.31s7.72 10.91 5.7 21.62-6.48 14.74-12 11.54-7.73-11.13-5.7-21.85zm14.22 8.3c1.77-9.37.33-14.44-2.87-16.3s-6.12.65-7.89 10-.37 14.64 2.87 16.53 6.12-.87 7.89-10.23zm6.38 17.79l6.31 3.68 4.45-23.55-5-2.92.5-2.65a13.93 13.93 0 006.28 1.05l2.72 1.58-5.4 28.55 5.71 3.33-.65 3.41-15.56-9.08zm21.48 12.52l6.31 3.68 4.45-23.54-5-2.92.5-2.66a13.93 13.93 0 006.28 1.05l2.72 1.59-5.4 28.55 5.71 3.33-.65 3.4-15.56-9.07zm22.36-1.03c2-10.71 6.45-14.53 12-11.31s7.73 10.91 5.7 21.62-6.48 14.74-12 11.54-7.73-11.13-5.7-21.85zm14.22 8.3c1.77-9.37.33-14.44-2.87-16.3s-6.12.66-7.89 10-.37 14.63 2.87 16.53 6.12-.87 7.89-10.23zm6.38 17.79l6.31 3.68 4.45-23.55-5-2.92.5-2.65a14.07 14.07 0 006.28 1.05l2.72 1.58-5.4 28.55 5.71 3.33-.65 3.41-15.56-9.08zm22.36-1.03c2-10.72 6.45-14.54 12-11.31s7.73 10.9 5.7 21.62-6.48 14.73-12 11.53-7.73-11.11-5.7-21.84zm14.22 8.29c1.77-9.37.33-14.43-2.87-16.3s-6.12.66-7.89 10-.37 14.64 2.87 16.53 6.12-.86 7.89-10.23zm6.38 17.79l6.31 3.68 4.45-23.54-5-2.93.5-2.65a13.93 13.93 0 006.28 1l2.72 1.59-5.4 28.55 5.71 3.32-.65 3.41-15.56-9.08zm22.36-1.03c2-10.72 6.45-14.54 12-11.31s7.73 10.9 5.7 21.62-6.48 14.74-12 11.54-7.73-11.17-5.7-21.85zm14.22 8.29c1.77-9.36.33-14.43-2.87-16.3s-6.12.66-7.89 10-.37 14.63 2.87 16.52 6.11-.83 7.89-10.22zm6.38 17.79l6.31 3.68 4.45-23.54-5-2.92.5-2.66a13.93 13.93 0 006.28 1.05l2.72 1.59-5.4 28.55 5.71 3.33-.65 3.4-15.56-9.07zm22.36-1.03c2-10.71 6.45-14.53 12-11.31s7.73 10.91 5.7 21.62-6.48 14.74-12 11.54-7.72-11.13-5.7-21.85zm14.22 8.3c1.78-9.37.33-14.44-2.87-16.3s-6.12.65-7.89 10-.37 14.63 2.87 16.52 6.15-.89 7.89-10.22zM1205 334.25l6.31 3.68 4.45-23.54-5-2.93.51-2.65a13.91 13.91 0 006.28 1.05l2.72 1.59-5.4 28.55 5.71 3.32-.65 3.41-15.56-9.07zm21.47 12.53l6.31 3.68 4.45-23.54-5-2.93.5-2.65a14.07 14.07 0 006.28 1.05l2.72 1.58-5.4 28.55 5.71 3.33-.65 3.41-15.56-9.08zm22.36-1.03c2-10.72 6.45-14.54 12-11.31s7.73 10.9 5.7 21.62-6.48 14.74-12 11.53-7.73-11.12-5.7-21.84zm14.22 8.29c1.77-9.36.33-14.43-2.87-16.3s-6.12.66-7.89 10-.37 14.64 2.87 16.53 6.12-.86 7.89-10.27zm6.38 17.79l6.31 3.68 4.45-23.54-5-2.93.5-2.65a13.93 13.93 0 006.28 1.05l2.72 1.59-5.4 28.55 5.71 3.32-.65 3.41-15.56-9.07zm22.36-1.03c2-10.72 6.44-14.54 12-11.31s7.73 10.9 5.7 21.62-6.48 14.74-12 11.54-7.73-11.13-5.7-21.85zm14.22 8.29c1.77-9.36.33-14.43-2.87-16.29s-6.12.65-7.89 10-.37 14.63 2.87 16.52 6.12-.86 7.88-10.23zm7.26 4.24c2-10.72 6.45-14.54 12-11.31s7.73 10.9 5.7 21.62-6.48 14.74-12 11.53-7.73-11.12-5.7-21.84zm14.22 8.29c1.77-9.37.33-14.43-2.87-16.3s-6.12.66-7.89 10-.37 14.64 2.87 16.53 6.12-.85 7.89-10.23zm6.38 17.79l6.31 3.68 4.45-23.54-5-2.93.5-2.65a13.93 13.93 0 006.28 1l2.72 1.59-5.4 28.55 5.71 3.32-.65 3.41-15.56-9.08zm21.48 12.53l6.31 3.68 4.45-23.55-5-2.92.5-2.65a13.9 13.9 0 006.28 1l2.72 1.59-5.4 28.55 5.71 3.33-.65 3.41-15.56-9.08zm21.48 12.52l6.31 3.68 4.45-23.54-5-2.92.5-2.66a13.93 13.93 0 006.28 1.05l2.72 1.59-5.4 28.55 5.71 3.33-.65 3.4-15.56-9.07zm22.36-1.03c2-10.71 6.45-14.53 12-11.31s7.73 10.9 5.7 21.62-6.48 14.74-12 11.54-7.72-11.13-5.7-21.85zm14.22 8.3c1.77-9.37.33-14.44-2.87-16.3s-6.12.65-7.89 10-.37 14.63 2.87 16.52 6.12-.86 7.89-10.22zm7.26 4.27c2-10.72 6.45-14.54 12-11.31s7.73 10.9 5.7 21.62-6.48 14.74-12 11.54-7.72-11.17-5.7-21.85zm14.22 8.29c1.77-9.36.33-14.43-2.87-16.3s-6.12.66-7.89 10-.37 14.63 2.87 16.52 6.12-.89 7.89-10.26zm6.38 17.71l6.31 3.68 4.45-23.54-5-2.92.5-2.66a13.93 13.93 0 006.28 1l2.72 1.59-5.4 28.55 5.71 3.33-.64 3.4-15.56-9.07zm-247.65-77.64l6.31 3.68 4.45-23.54-5-2.92.51-2.66a13.79 13.79 0 006.28 1.05l2.72 1.59-5.4 28.55 5.71 3.33-.65 3.4-15.55-9.07zm22.38-1.02c2-10.72 6.44-14.54 12-11.32s7.73 10.91 5.7 21.62-6.48 14.74-12 11.54-7.7-11.13-5.7-21.84zm14.22 8.29c1.77-9.37.33-14.44-2.87-16.3s-6.12.66-7.89 10-.37 14.64 2.87 16.53 6.1-.86 7.87-10.23zm7.24 4.23c2-10.72 6.45-14.54 12-11.31s7.73 10.9 5.7 21.62-6.48 14.74-12 11.54-7.73-11.13-5.7-21.85zm14.22 8.29c1.77-9.36.33-14.43-2.87-16.29s-6.12.65-7.89 10-.37 14.63 2.87 16.52 6.12-.86 7.89-10.23zm7.26 4.24c2-10.72 6.45-14.54 12-11.31s7.73 10.9 5.7 21.62-6.48 14.74-12 11.53-7.73-11.12-5.7-21.84zm14.22 8.29c1.77-9.36.33-14.43-2.87-16.3s-6.12.66-7.89 10-.37 14.64 2.87 16.53 6.12-.86 7.89-10.23zm6.38 17.79l6.31 3.68 4.45-23.54-5-2.93.5-2.65a13.93 13.93 0 006.28 1.05l2.72 1.59-5.4 28.55 5.71 3.32-.65 3.41-15.56-9.07zm22.36-1.03c2-10.72 6.45-14.54 12-11.31s7.73 10.9 5.7 21.62-6.48 14.74-12 11.54-7.72-11.13-5.7-21.85zm14.22 8.29c1.77-9.36.33-14.43-2.87-16.29s-6.12.65-7.89 10-.37 14.63 2.87 16.52 6.12-.86 7.89-10.23zm6.38 17.79l6.31 3.68 4.45-23.54-5-2.92.5-2.66a13.93 13.93 0 006.28 1.05l2.72 1.59-5.4 28.55 5.71 3.33-.65 3.4-15.56-9.07zm22.36-1.03c2-10.71 6.45-14.53 12-11.31s7.73 10.91 5.7 21.62-6.48 14.74-12 11.54-7.73-11.13-5.7-21.85zm14.22 8.3c1.77-9.37.33-14.44-2.87-16.3s-6.12.65-7.89 10-.37 14.63 2.87 16.52 6.12-.86 7.89-10.22zm7.26 4.21c2-10.72 6.45-14.54 12-11.31s7.73 10.9 5.7 21.62-6.48 14.74-12 11.54-7.72-11.11-5.7-21.85zm14.22 8.29c1.78-9.36.33-14.43-2.86-16.3s-6.13.66-7.9 10-.37 14.63 2.87 16.52 6.12-.83 7.89-10.2zm6.38 17.81l6.31 3.68 4.45-23.54-5-2.92.5-2.66a13.93 13.93 0 006.28 1l2.72 1.59-5.4 28.55 5.71 3.33-.64 3.4-15.56-9.07zm22.36-1.03c2-10.72 6.45-14.53 12-11.31s7.73 10.9 5.7 21.62-6.48 14.74-12 11.54-7.72-11.13-5.7-21.85zm14.22 8.3c1.78-9.37.33-14.44-2.87-16.3s-6.12.65-7.89 10-.37 14.63 2.87 16.52 6.12-.86 7.89-10.22zm7.26 4.23c2-10.72 6.45-14.54 12-11.31s7.73 10.9 5.7 21.62-6.48 14.74-12 11.54-7.72-11.13-5.7-21.85zm14.23 8.29c1.77-9.36.33-14.43-2.87-16.3s-6.13.66-7.9 10-.37 14.63 2.88 16.52 6.11-.85 7.88-10.22zm-262.76-72.41l6.31 3.68 4.45-23.54-5-2.93.5-2.65a13.93 13.93 0 006.28 1l2.72 1.58-5.4 28.55 5.71 3.33-.65 3.41-15.56-9.08zm21.48 12.52l6.31 3.68 4.45-23.54-5-2.92.5-2.66a13.93 13.93 0 006.28 1.05l2.72 1.59-5.4 28.55 5.71 3.33-.65 3.4-15.56-9.07zm22.36-1c2-10.72 6.45-14.54 12-11.32s7.73 10.91 5.7 21.62-6.48 14.74-12 11.54-7.73-11.15-5.7-21.84zm14.22 8.29c1.77-9.37.33-14.44-2.87-16.3s-6.12.66-7.89 10-.37 14.64 2.87 16.53 6.12-.89 7.89-10.25zm7.26 4.21c2-10.72 6.45-14.54 12-11.31s7.73 10.9 5.7 21.62-6.48 14.74-12 11.54-7.72-11.13-5.7-21.85zm14.22 8.29c1.77-9.36.33-14.43-2.87-16.29s-6.12.65-7.89 10-.37 14.63 2.87 16.52 6.1-.86 7.89-10.23zm7.26 4.21c2-10.72 6.45-14.54 12-11.31s7.73 10.9 5.7 21.62-6.48 14.74-12 11.53-7.75-11.09-5.7-21.84zm14.22 8.29c1.77-9.37.33-14.43-2.87-16.3s-6.12.66-7.89 10-.37 14.64 2.87 16.53 6.12-.83 7.89-10.2zm6.38 17.82l6.31 3.68 4.45-23.54-5-2.93.5-2.65a13.93 13.93 0 006.28 1.05l2.72 1.59-5.4 28.55 5.71 3.32-.64 3.41-15.58-9.08zm22.35-1.03c2-10.72 6.45-14.54 12-11.31s7.73 10.9 5.7 21.62-6.48 14.74-12 11.54-7.7-11.13-5.7-21.85zm14.22 8.29c1.78-9.36.33-14.43-2.86-16.29s-6.13.65-7.9 10-.37 14.63 2.87 16.52 6.13-.86 7.9-10.23zm6.39 17.79l6.31 3.68 4.45-23.54-5-2.92.5-2.66a13.93 13.93 0 006.28 1l2.72 1.59-5.4 28.55 5.71 3.33-.64 3.4-15.54-9.02zm21.48 12.53l6.31 3.68 4.45-23.54-5-2.93.5-2.65a13.93 13.93 0 006.28 1l2.72 1.59-5.35 28.6 5.7 3.32-.64 3.41-15.56-9.08zm21.48 12.53l6.31 3.67 4.45-23.54-5-2.92.5-2.65a13.9 13.9 0 006.28 1l2.72 1.59-5.4 28.55 5.71 3.33-.64 3.41-15.56-9.08zm21.48 12.52l6.31 3.68 4.45-23.54-5-2.92.5-2.66a13.93 13.93 0 006.28 1.05l2.73 1.59-5.4 28.55 5.7 3.33-.64 3.4-15.56-9.07zm22.36-1.03c2-10.72 6.45-14.53 12-11.31s7.73 10.9 5.7 21.62-6.48 14.74-12 11.54-7.72-11.13-5.7-21.85zm14.23 8.3c1.77-9.37.33-14.44-2.87-16.3s-6.13.65-7.9 10-.37 14.63 2.88 16.52 6.11-.86 7.89-10.23zm-257.88-66.12l6.31 3.68 4.45-23.54-5-2.93.5-2.65a13.93 13.93 0 006.28 1.05l2.73 1.59-5.4 28.55 5.7 3.32-.64 3.41-15.56-9.08zm22.37-1.03c2-10.72 6.44-14.54 12-11.31s7.73 10.9 5.7 21.62-6.48 14.74-12 11.54-7.73-11.13-5.7-21.85zm14.22 8.29c1.77-9.36.33-14.43-2.87-16.3s-6.13.66-7.9 10-.36 14.63 2.88 16.52 6.11-.85 7.89-10.22zm7.26 4.24c2-10.72 6.44-14.54 12-11.32s7.73 10.91 5.7 21.63-6.48 14.73-12 11.53-7.73-11.12-5.7-21.84zm14.22 8.29c1.77-9.37.33-14.43-2.87-16.3s-6.13.66-7.9 10-.37 14.64 2.88 16.53 6.11-.86 7.89-10.23zm6.37 17.79l6.31 3.68 4.45-23.54-5-2.93.5-2.65a14 14 0 006.28 1.05l2.73 1.58-5.4 28.55 5.7 3.33-.64 3.41-15.56-9.08zm21.48 12.53l6.31 3.68 4.46-23.54-5-2.92.5-2.66a13.81 13.81 0 006.28 1.05l2.73 1.59-5.4 28.55 5.7 3.33-.64 3.4-15.62-9.08zm22.37-1c2-10.72 6.44-14.54 12-11.32s7.73 10.91 5.71 21.63-6.49 14.73-12 11.53-7.76-11.16-5.71-21.84zm14.22 8.29c1.77-9.37.33-14.43-2.87-16.3s-6.12.66-7.9 10-.36 14.64 2.88 16.53 6.12-.89 7.89-10.26zm6.37 17.76l6.31 3.68 4.46-23.54-5-2.93.5-2.65a14 14 0 006.29 1l2.72 1.58-5.4 28.55 5.7 3.33-.64 3.41-15.58-9.03zM1327 595c2-10.72 6.44-14.54 12-11.31s7.73 10.9 5.71 21.62-6.49 14.74-12 11.54S1325 605.74 1327 595zm14.22 8.29c1.77-9.36.33-14.43-2.87-16.3s-6.12.66-7.9 10-.36 14.63 2.88 16.52 6.13-.83 7.9-10.2zm6.38 17.81l6.32 3.68 4.45-23.54-5-2.92.51-2.66a13.91 13.91 0 006.28 1.05l2.72 1.59-5.4 28.55 5.7 3.32-.64 3.41-15.54-9.07zm22.4-1.03c2-10.72 6.44-14.54 12-11.31s7.73 10.9 5.71 21.62-6.49 14.74-12 11.54-7.77-11.13-5.71-21.85zm14.22 8.29c1.77-9.36.33-14.43-2.87-16.29s-6.12.65-7.89 10-.37 14.63 2.87 16.52 6.09-.86 7.86-10.23zm6.34 17.79l6.32 3.68 4.45-23.54-5-2.92.51-2.66a13.78 13.78 0 006.28 1l2.72 1.59-5.4 28.55 5.7 3.33-.64 3.4-15.56-9.07zm22.37-1.02c2-10.72 6.44-14.54 12-11.32s7.72 10.91 5.7 21.62-6.49 14.74-12 11.54-7.73-11.13-5.7-21.84zm14.22 8.29c1.77-9.37.33-14.43-2.87-16.3s-6.12.66-7.89 10-.37 14.64 2.87 16.53 6.12-.87 7.89-10.23zM1164.39 581l6.31 3.68 4.45-23.54-5-2.92.5-2.66a14 14 0 006.28 1.05l2.73 1.59-5.4 28.55 5.7 3.33-.64 3.4-15.56-9.07zm21.48 12.53l6.31 3.68 4.45-23.54-5-2.93.5-2.65a14 14 0 006.28 1l2.73 1.59-5.4 28.54 5.7 3.33-.64 3.41-15.56-9.08zm22.37-1.03c2-10.72 6.44-14.54 12-11.31s7.73 10.9 5.7 21.62-6.48 14.74-12 11.54-7.73-11.13-5.7-21.85zm14.22 8.29c1.77-9.36.33-14.43-2.87-16.3s-6.12.66-7.9 10-.36 14.63 2.88 16.52 6.12-.85 7.89-10.22zm6.37 17.79l6.31 3.68 4.46-23.54-5-2.92.5-2.66a14 14 0 006.28 1.05l2.73 1.59-5.4 28.55 5.7 3.33-.64 3.4-15.58-9.06zm22.37-1.03c2-10.72 6.44-14.54 12-11.31s7.73 10.9 5.7 21.62-6.48 14.74-12 11.54-7.73-11.13-5.7-21.85zm14.22 8.3c1.77-9.37.33-14.44-2.87-16.3s-6.12.65-7.9 10-.36 14.63 2.88 16.52 6.12-.86 7.89-10.22zm7.26 4.23c2-10.72 6.44-14.54 12-11.31s7.73 10.9 5.71 21.62-6.49 14.74-12 11.54-7.74-11.13-5.71-21.85zm14.22 8.29c1.77-9.36.33-14.43-2.87-16.3s-6.12.66-7.9 10-.36 14.63 2.88 16.52 6.12-.85 7.89-10.22zm6.37 17.79l6.31 3.68 4.42-23.54-5-2.92.5-2.66a14 14 0 006.29 1l2.72 1.59-5.4 28.55 5.7 3.32-.64 3.41-15.56-9.07zm21.48 12.53l6.31 3.68 4.46-23.54-5-2.93.5-2.65a14 14 0 006.29 1l2.72 1.58-5.4 28.55 5.7 3.33-.64 3.41-15.56-9.08zm21.48 12.52l6.32 3.68 4.45-23.54-5-2.92.51-2.66a13.91 13.91 0 006.28 1.05l2.72 1.59-5.4 28.55 5.7 3.33-.64 3.4-15.56-9.07zm22.37-1.02c2-10.72 6.44-14.54 12-11.32s7.72 10.91 5.7 21.62-6.49 14.74-12 11.54-7.73-11.13-5.7-21.84zm14.22 8.29c1.77-9.37.33-14.43-2.87-16.3s-6.12.66-7.89 10-.37 14.64 2.87 16.53 6.12-.87 7.89-10.23zm7.26 4.23c2-10.72 6.44-14.54 12-11.31s7.72 10.9 5.7 21.62-6.48 14.74-12 11.54-7.73-11.13-5.7-21.85zm14.22 8.29c1.77-9.36.33-14.43-2.87-16.29s-6.12.65-7.89 10-.37 14.63 2.87 16.52 6.12-.86 7.89-10.23zm6.38 17.79l6.31 3.68 4.45-23.54-5-2.92.51-2.66a13.79 13.79 0 006.28 1l2.72 1.59-5.4 28.55 5.71 3.33-.65 3.4-15.61-9.02z" transform="translate(-408.04 -34.4)"/><ellipse class="cls-3" cx="328.91" cy="594.65" rx="43.48" ry="22.14"/><path class="cls-4" d="M752.47 621.63l-8.72 1.64c-6.42-.74-9.66-1.8-11.69.44l-.57.64c-2 2.24-.91 4.68 2.51 5.42l15.46 5.82a8.53 8.53 0 008.79-3.79s1-1.69-1.69-6.61c-1.56-2.8-1.36-2.97-4.09-3.56z" transform="translate(-408.04 -34.4)"/><path class="cls-5" d="M745.35 625.6c1.94 4.54 10.46 3.55 10.31-.18-2.24-25.43-.3-50 3.94-74.12 1.61-9.13-11.78-13.4-16.63-5.31-7.21 2.35-6.97 36.84 2.38 79.61z" transform="translate(-408.04 -34.4)"/><path class="cls-3" d="M1144.05 896.87L740 663.58c-4.67-2.7-4.08-7.46 1.32-10.58l193.6-111.79c5.4-3.12 13.64-3.46 18.32-.76l404.08 233.29c4.67 2.7 4.08 7.46-1.32 10.58l-193.63 111.79c-5.37 3.12-13.64 3.46-18.32.76z" transform="translate(-408.04 -34.4)"/><path class="cls-4" d="M731 628.13l-8.71 1.64c-6.43-.74-9.66-1.8-11.69.44l-.58.64c-2 2.24-.9 4.68 2.52 5.42L728 642.1a8.56 8.56 0 008.79-3.8s1-1.69-1.69-6.6c-1.54-2.81-1.37-2.98-4.1-3.57z" transform="translate(-408.04 -34.4)"/><path class="cls-5" d="M724 632c1.8 4.71 10.35 3.68 10.32-.19-1.46-26.35 1.24-51.87 6.22-76.82 1.89-9.46-11.37-13.89-16.47-5.5-7.31 2.43-8.07 38.18-.07 82.51z" transform="translate(-408.04 -34.4)"/><path class="cls-3" d="M915 397.35c1.31-7.84-1.75-14.89-8-18.48l-97-55.62c-5.31-3-10.7.75-12 8.44l-11.42 68.87c-1.21 7.28 1.63 13.81 7.43 17.14l89.12 51.09c8.13 4.66 20.41-2.25 22.1-12.44z" transform="translate(-408.04 -34.4)"/><path class="cls-6" d="M803.57 393.38a13 13 0 0115.48-2.08c6.9 3.66 3 3.52 11.57 6 5.06 1.46 14.87-8 27-2.51 22.07 9.88 33.91-11.72 42.32-.29l-9.09 54.8-88.69-47.67z" transform="translate(-408.04 -34.4)"/><path d="M394.11 367.52l9.08-54.75m13.12 65.99l9.08-54.74m13 66.67l9.08-54.74m13 66.66l9.08-54.75m12.87 67.51l9.08-54.74" stroke="#fff" stroke-width=".66" fill="none" stroke-linecap="round" stroke-linejoin="round"/><path class="cls-8" d="M900.15 389.65l-2.88-1.76a1.23 1.23 0 01-.44-1.19c.08-.46.4-.69.72-.49l2.88 1.75a1.25 1.25 0 01.44 1.2c-.07.46-.4.68-.72.49zm-10.69 62.9l-2.89-1.76-2.14-1.3c-.32-.2-.65 0-.72.49a1.23 1.23 0 00.44 1.19l2.88 1.76 2.14 1.3c.32.2.64 0 .72-.49a1.25 1.25 0 00-.43-1.19zm-24.09-13.87l-2.88-1.75-2.14-1.3c-.32-.19-.65 0-.72.49a1.24 1.24 0 00.44 1.2l2.88 1.75 2.14 1.31c.31.19.64 0 .71-.49a1.24 1.24 0 00-.43-1.21zm-22.52-12.78l-2.85-1.75-2.14-1.3c-.32-.2-.64 0-.72.49a1.25 1.25 0 00.44 1.19l2.89 1.76 2.14 1.3c.32.19.65 0 .72-.49a1.25 1.25 0 00-.48-1.2zM821.58 414l-2.88-1.75-2.14-1.3c-.32-.19-.64 0-.72.49a1.25 1.25 0 00.44 1.2l2.88 1.75 2.14 1.3c.32.2.64 0 .72-.49a1.23 1.23 0 00-.44-1.2zm55.99-35.43l-2.88-1.75a1.25 1.25 0 01-.44-1.2c.08-.46.4-.68.72-.49l2.88 1.75a1.25 1.25 0 01.44 1.2c-.08.46-.4.68-.72.49zm-22.06-10.97l-2.88-1.75a1.23 1.23 0 01-.44-1.19c.07-.47.4-.69.72-.5l2.88 1.76a1.25 1.25 0 01.44 1.19c-.08.47-.4.69-.72.49zm-22.36-11.24l-2.89-1.76a1.24 1.24 0 01-.43-1.19c.07-.46.4-.68.71-.49l2.89 1.75a1.27 1.27 0 01.44 1.2c-.08.46-.4.68-.72.49zm-21.98-11.42l-2.88-1.75a1.24 1.24 0 01-.44-1.2c.08-.46.4-.68.72-.49l2.88 1.76a1.23 1.23 0 01.44 1.19c-.08.47-.4.69-.72.49zM798.8 402l-2.88-1.76-2.14-1.3c-.31-.19-.64 0-.72.49a1.3 1.3 0 00.44 1.2l2.89 1.75 2.14 1.3c.32.2.65 0 .72-.49a1.23 1.23 0 00-.45-1.19z" transform="translate(-408.04 -34.4)"/><path d="M1188.6 129.83L1135 98.68a6 6 0 00-6.13-.27l-10.87 5.11a62.22 62.22 0 014.75 11.7l-8.3 48.58c-1.06 6.16 1.91 13.32 6.52 16l43.66 25.3c3.3 6.88 5.82 11.38 5.82 11.38l10.36-4.89c.15-.89 3.43-3.34 4.05-7l10-58.79c1.14-6.14-1.65-13.3-6.26-15.97z" transform="translate(-408.04 -34.4)" fill="#3d62c4"/><path d="M1163.73 216.35L1110 185.21c-4.6-2.67-7.48-9.83-6.43-16l10-58.78c1.06-6.17 5.65-9 10.25-6.33l53.74 31.14c4.6 2.67 7.48 9.83 6.43 16L1174 210c-1.08 6.19-5.67 9-10.27 6.35z" transform="translate(-408.04 -34.4)" fill="#4c73db"/><path class="cls-11" d="M1155.43 219.43l-53.73-31.15c-4.61-2.66-7.49-9.82-6.43-16l10-58.78c1-6.17 5.64-9 10.25-6.33l53.73 31.14c4.61 2.67 7.49 9.83 6.43 16l-10 58.79c-1.05 6.16-5.68 9-10.25 6.33z" transform="translate(-408.04 -34.4)"/><path class="cls-8" d="M717.64 136.8l-11.45-24.67 18.57-8.88 2.39 5.27-12.23 5.85 8.99 19.38-6.27 3.05zm28.41 15.07l-2.39-5.27 12.06-5.77-9.1-19.64 6.27-3.04 11.56 24.93-18.4 8.79zm-16.25-3.04l-6.14-1.59 18.45-39.46 6.14 1.58-18.45 39.47z"/><path class="cls-12" d="M1287.2 185.42l-52.91-30.71a6 6 0 00-6.09-.27l-10.56 5a56.78 56.78 0 014.83 11.53l-8.19 47.91c-1 6.08 1.73 13.14 6.27 15.77l43 24.94c3.26 6.79 5.85 11.23 5.85 11.23l10.3-4.82c.15-.87 3.39-3.29 4-6.86l9.92-58c1.04-6.03-1.88-13.09-6.42-15.72z" transform="translate(-408.04 -34.4)"/><path class="cls-13" d="M1262.51 270.74l-53-30.71c-4.54-2.63-7.38-9.69-6.34-15.77l9.91-58c1-6.08 5.56-8.87 10.11-6.24l53 30.71c4.54 2.63 7.38 9.69 6.34 15.77l-9.91 58c-1.05 6.08-5.57 8.87-10.11 6.24z" transform="translate(-408.04 -34.4)"/><path class="cls-11" d="M1252.51 273.27l-53-30.71c-4.54-2.63-7.38-9.69-6.34-15.77l9.91-58c1-6.08 5.57-8.87 10.11-6.24l53 30.71c4.55 2.63 7.38 9.69 6.35 15.77l-9.92 58c-1.05 6.08-5.57 8.87-10.11 6.24z" transform="translate(-408.04 -34.4)"/><path class="cls-8" d="M1264.53 221c-2.6-1.5-3.28-5.87-1.08-6.92 2.48-1.19 3.15-5.07 1.48-8.66l-.86-1.85c-1.67-3.6-5-5.55-7.52-4.36-2.2 1-5.08-2.27-4.57-5.26a9.55 9.55 0 00-4.27-9.21l-1.51-.87c-2.94-1.71-5.79-.34-6.37 3-.51 3-3.9 2.67-5.37-.51-1.67-3.59-5-5.55-7.53-4.36l-1.28.61c-2.48 1.19-3.15 5.07-1.48 8.67 1.48 3.18-.44 6-3 4.53-2.93-1.7-5.78-.34-6.36 3.05l-.3 1.74a9.55 9.55 0 004.27 9.21c2.6 1.5 3.28 5.87 1.08 6.92-2.49 1.19-3.15 5.07-1.48 8.66l.86 1.85c1.67 3.6 5 5.55 7.52 4.36 2.2-1.05 5.08 2.27 4.57 5.26a9.55 9.55 0 004.27 9.21l1.51.87c2.94 1.71 5.79.34 6.37-3 .51-3 3.9-2.67 5.37.51 1.67 3.6 5 5.55 7.53 4.36l1.28-.61c2.48-1.19 3.14-5.07 1.48-8.67-1.48-3.18.44-6 3-4.53 2.93 1.7 5.78.34 6.36-3.05l.3-1.74a9.55 9.55 0 00-4.27-9.21zm-25.53 9.6c-7.29-4.23-12-14.46-10.6-22.86s8.5-11.78 15.79-7.55 12 14.46 10.6 22.86-8.46 11.78-15.79 7.55z" transform="translate(-408.04 -34.4)"/><path d="M1385.62 236.53l-53-30.71a6.07 6.07 0 00-6.15-.28h-.06l-10.31 5.05a50.61 50.61 0 015.07 11.53l-8.23 47.88c-1 6.08 1.47 13.14 6 15.77l42.86 24.94a122.08 122.08 0 006 11.22l10.54-4.81c.15-.87 3.39-3.29 4-6.86l9.91-58c1.09-6.04-2.09-13.1-6.63-15.73z" transform="translate(-408.04 -34.4)" fill="#ff8b43"/><path class="cls-15" d="M1360.67 321.85l-53-30.71c-4.55-2.63-7.38-9.69-6.34-15.77l9.91-58c1-6.08 5.56-8.87 10.1-6.24l53 30.71c4.54 2.63 7.38 9.69 6.34 15.77l-9.91 58c-1.03 6.08-5.56 8.87-10.1 6.24z" transform="translate(-408.04 -34.4)"/><path d="M1351.66 326.7l-53-30.71c-4.54-2.64-7.38-9.7-6.34-15.78l9.91-58c1-6.08 5.56-8.88 10.1-6.24l53 30.71c4.54 2.63 7.38 9.69 6.34 15.77l-9.91 58c-1.03 6.08-5.56 8.88-10.1 6.25z" transform="translate(-408.04 -34.4)" fill="#ff7dac" opacity=".32"/><path class="cls-8" d="M1343.17 289.64l.93.54c2.05 1.2 2.74.66 3.27-2.44s.79-5.87 1.37-9.31c.74-4.28 2.19-5.24 4.76-4.5v-.22c-2.33-2.1-3.22-4.41-2.49-8.7.59-3.44 1.25-6 1.77-9.08s.13-4.26-1.92-5.45l-.93-.54.75-4.4 3.08 1.79c4.31 2.49 5.94 5.55 4.9 11.64-.68 4-1.53 5.81-2.14 9.36-.33 2 .34 4.66 3.5 6.61l-.83 4.85c-3.2-1.73-4.59-.24-4.92 1.74-.61 3.55-.48 5.92-1.16 9.93-1.05 6.09-3.33 6.87-7.64 4.37l-3.08-1.79zm-16.05-4.46l-3.09-1.79c-4.31-2.5-5.94-5.55-4.89-11.64.68-4 1.53-5.81 2.13-9.36.34-2-.33-4.66-3.49-6.62l.83-4.85c3.2 1.74 4.58.25 4.92-1.73.61-3.55.48-5.92 1.16-9.93 1-6.09 3.33-6.87 7.64-4.37l3.08 1.78-.75 4.4-.93-.54c-2.06-1.19-2.74-.65-3.27 2.45s-.79 5.86-1.38 9.31c-.73 4.28-2.18 5.24-4.75 4.49v.23c2.34 2.09 3.23 4.41 2.5 8.7-.59 3.44-1.25 6-1.77 9.08s-.14 4.26 1.92 5.45l.93.54z" transform="translate(-408.04 -34.4)"/><path class="cls-3" d="M640 543.06l62.07-36.45c1.79-1.05 2.33-3.89 1.21-6.32l-18-39.09c-1.12-2.42-3.5-3.54-5.29-2.49l-62.07 36.45c-1.79 1-2.33 3.89-1.21 6.31l18.05 39.09c1.09 2.44 3.47 3.55 5.24 2.5z" transform="translate(-408.04 -34.4)"/><path class="cls-8" d="M253.06 452.43l16.98-10.7 2.73 5.91-16.98 10.7-2.73-5.91zm30.46-5.16l2.73 5.91-25.77 16.23-2.73-5.91 25.77-16.23z"/><ellipse class="cls-8" cx="645.06" cy="508.76" rx="13.79" ry="16.25" transform="rotate(-2.17 -467.133 11264.218)"/><path class="cls-6" d="M653.74 513a1.63 1.63 0 00.38-2.29 4.74 4.74 0 00-3.84-2.64c-.41 0-.8.11-1.21.13h-.7a4.34 4.34 0 00-.52.08h-.32l-.34-.11s-.16-.08-.16-.05a.78.78 0 010-.14l-.49-1.2a3 3 0 00.1-1.05 4.24 4.24 0 00-.15-.79c.48-.35.28-1.22.12-1.8s-.52-1.6-1-1.25v-.2a5.71 5.71 0 00-.33-1.16 2.28 2.28 0 00-.64-.92c-.1-.07-.21-.13-.31-.08a.73.73 0 00-.08-.34 1.58 1.58 0 00-1.83-.83 3.39 3.39 0 00-2.13 1 3.75 3.75 0 00-.85 2.8 1.05 1.05 0 00.11.43.72.72 0 00-.06.27 2.71 2.71 0 00.27 1.16 5.8 5.8 0 00.6 1l.11.16c-.38.37.11 1.31.33 1.68.3.53.8 1.26 1.34.9a2.52 2.52 0 001.29 1.12c.16.39.32.78.47 1.17a1 1 0 01.08.18.45.45 0 01-.06.12l-.24.5-.63.94-.31.44c-.32.45-.65.91-.92 1.24a4.13 4.13 0 00-.71 1.12 7.49 7.49 0 000 2.84 2.5 2.5 0 003.33 1.5zm-12.91-5.9l-.07-.13c.02.03.05.03.07.08z" transform="translate(-408.04 -34.4)"/><ellipse cx="644.9" cy="509.36" rx="17.79" ry="20.52" transform="rotate(-5.71 96.074 4583.285)" stroke-width=".73" stroke="#fff" fill="none" stroke-linecap="round" stroke-linejoin="round"/><path class="cls-2" d="M1394.41 429.68c5.39 3.11 9 10.26 8.08 16l-41.94 259.17c-.91 5.72-6 7.82-11.42 4.71L952.19 480.37c-5.38-3.11-9-10.26-8.07-16l41.93-259.18c.92-5.71 6-7.82 11.42-4.71z" transform="translate(-408.04 -34.4)"/><path d="M1408.17 391.94L1014.75 164.8l-.59-.34-1-.6-.41-.21-.41-.19-.41-.18-.43-.16-.5-.12c-.15 0-.3-.09-.45-.12h-.07l-.4-.09h-2.22l-.4.06h-.27a6.77 6.77 0 00-.77.22h-.14a6.63 6.63 0 00-.94.43l-11.55 6.72a5.94 5.94 0 01.92-.43l.38-.12.46-.13.56-.1h.22a7 7 0 01.8 0h.16a8.15 8.15 0 01.84.07h.07c.3.05.6.11.91.19h.08c.3.08.61.18.92.29h.09a8.34 8.34 0 011 .43l.41.2.31.18 2.08 1.2 394 227.49a1.46 1.46 0 001.46 0l8.65-5a1.45 1.45 0 00.06-2.55zM1010.86 165.5z" transform="translate(-408.04 -34.4)" fill="#cedff5"/><path class="cls-19" d="M1418.45 406.83v-.88c0-.14 0-.29-.05-.43v-.21a.28.28 0 000-.09v-.14c0-.05 0-.29-.07-.43l-.09-.41c0-.15-.07-.29-.11-.44s-.07-.29-.11-.43v-.2a1.55 1.55 0 00-.07-.23c0-.14-.08-.28-.13-.42l-.11-.31v-.05l-.14-.39c0-.12-.1-.25-.16-.37l-.06-.16v-.07l-.06-.15-.18-.38c-.06-.13-.12-.26-.19-.38v-.06l-.21-.4-.21-.36a2 2 0 00-.14-.25l-.36-.19-.37-.58-.12-.19-.5-.72-.08-.1a.27.27 0 00-.07-.08l-.18-.24c-.1-.14-.21-.27-.31-.39l-.13-.15-.06-.07-.12-.14c-.1-.12-.21-.24-.32-.35l-.24-.26v-.05l-.35-.35-.37-.34-.36-.32-.4-.32-.06-.05-.29-.22-.4-.28-.11-.07-.24-.16-.4-.25-9.61-5.55-11.8 7.13s10.13 5.3 10.26 5.38l.4.27.4.28.39.3.16.13c.21.17.42.34.62.52s.4.37.59.57l.08.07.54.57.08.09c.17.2.34.39.5.59l.09.11.47.61.23.33c.09.14.19.27.27.4s.21.32.31.48.13.2.19.31.1.19.16.28l.27.5a.83.83 0 01.07.13c.12.23.24.46.35.7v.06c.12.24.23.49.33.74v.08c.1.25.19.49.28.74v.1c.09.24.17.48.24.73v.11c.07.24.14.49.19.73v.12c.06.24.11.49.15.73a.52.52 0 010 .11c0 .25.08.5.11.74v.1c0 .25 0 .5.07.75s0 .25 0 .37v1.85l-.06.37-.11.68-1 6.42-1.9-1.09-12 6.47 3 1.74.4.27.4.28.39.3.16.13c.21.17.42.34.62.52l.59.57.07.07c.19.19.37.38.55.58a.6.6 0 00.08.08c.17.2.34.39.5.59l.09.11c.16.2.32.41.47.62s.15.22.23.32l.27.4q.17.24.3.48l.2.31c0 .09.1.19.16.28l.27.5a.83.83 0 01.07.13c.12.23.24.47.35.7v.06c.12.25.23.49.33.75v.07c.1.25.19.49.28.74v.1c.09.24.17.49.24.73v.11c.07.25.14.49.19.74v.11c.06.24.11.49.15.74v.1c0 .25.08.5.11.75v.41l-37.1 229.27c-.2 1.21-4.9 9-3.84 8.36l3.35-2.84-3.94 24.37c-.2 1.21-4.9 9-3.84 8.37l11.3-9.58a13.16 13.16 0 004.49-7.94L1413.38 442l.5-3v-2.79a2.46 2.46 0 000-.26l3.85-23.8.5-3v-2.22z" transform="translate(-408.04 -34.4)"/><path class="cls-20" d="M1398.79 399.48c5.39 3.11 9 10.26 8.08 16l-41.93 259.18c-.92 5.72-6 7.82-11.43 4.71l-396.93-229.2c-5.39-3.11-9-10.26-8.08-16L990.43 175c.92-5.71 6-7.82 11.42-4.71z" transform="translate(-408.04 -34.4)"/><path class="cls-21" d="M1384.62 416.16c5.11 2.89 8.57 9.12 7.74 13.92l-37.93 217.43c-.83 4.79-5.65 6.33-10.76 3.44l-376.5-213.29c-5.11-2.89-8.57-9.12-7.73-13.91l37.92-217.44c.84-4.79 5.65-6.33 10.76-3.44z" transform="translate(-408.04 -34.4)"/><path class="cls-22" d="M1353.93 728l-.09-12-15.52 6-3.32-7.66-388.31-224.21c-4.67-2.7-13.74-2.35-19.14.76l-168 96.52v-2.68l-25.78 12.41-3.7-1.45.43 11.79a5.46 5.46 0 002.93 4.55l404.08 233.91c4.68 2.7 12.92 2.67 18.32-.45l193.63-111.64c2.94-1.7 4.45-3.81 4.45-5.89z" transform="translate(-408.04 -34.4)"/><path class="cls-8" d="M1137.28 830.25L733.2 597c-4.68-2.7-4.09-7.46 1.31-10.58l193.63-111.83c5.4-3.12 13.65-3.46 18.32-.76l404.08 233.29c4.68 2.7 4.09 7.46-1.31 10.58L1155.6 829.49c-5.4 3.12-13.6 3.51-18.32.76z" transform="translate(-408.04 -34.4)"/><path class="cls-13" d="M1137.28 821.58L733.2 588.28c-4.68-2.7-4.09-7.46 1.31-10.58l193.63-111.79c5.4-3.12 13.65-3.46 18.32-.76l404.08 233.3c4.68 2.7 4.09 7.46-1.31 10.58L1155.6 820.82c-5.4 3.11-13.6 3.46-18.32.76z" transform="translate(-408.04 -34.4)"/><path class="cls-12" d="M961.45 521.6a3.09 3.09 0 01-2.67-.31l-24.53-14.16c-.89-.51-1.13-1.2-.54-1.54L950 496.2a3.07 3.07 0 012.67.32l24.53 14.15c.89.51 1.13 1.2.54 1.54zm28.46 42.27a3.08 3.08 0 01-2.68-.31l-24.53-14.15c-.88-.51-1.12-1.2-.52-1.54l16.25-9.39a3.05 3.05 0 012.65.31l24.53 14.15c.9.52 1.13 1.21.55 1.54zm-14.39 17.55a3.07 3.07 0 01-2.66-.31L948.32 567c-.87-.5-1.13-1.2-.54-1.54L964 556a3.14 3.14 0 012.66.31l24.53 14.16c.88.51 1.13 1.2.55 1.54zm-38.92 3.39a3.1 3.1 0 01-2.66-.31l-24.53-14.16c-.88-.5-1.12-1.2-.54-1.53l16.25-9.39a3.12 3.12 0 012.67.3l24.53 14.16c.88.51 1.11 1.2.53 1.54zM869.08 575a3.07 3.07 0 01-2.66-.31l-24.53-14.16c-.89-.51-1.13-1.2-.54-1.54l19.08-11a3.14 3.14 0 012.67.32l24.53 14.16c.88.5 1.11 1.2.54 1.53zm42.3 24.36c-.58.34-2 .08-3.16-.6l-32.15-18.54c-1.15-.67-1.62-1.49-1-1.83l19.08-11c.58-.34 2-.07 3.16.59l32.14 18.55c1.17.67 1.62 1.5 1.05 1.83zm211.15 122.03a3 3 0 01-2.48-.41l-24.52-14.15c-.89-.51-1.22-1.16-.74-1.44l7.06-4.08a3.1 3.1 0 012.51.42l24.51 14.15c.88.51 1.2 1.16.72 1.44zm32.78 19.41a3.05 3.05 0 01-2.49-.42l-24.51-14.14c-.9-.52-1.23-1.17-.74-1.45l7.06-4.07a3 3 0 012.5.42l24.52 14.15c.88.51 1.2 1.15.72 1.43zm34.75 19.6a3.05 3.05 0 01-2.46-.44l-24.52-14.15c-.88-.51-1.23-1.15-.76-1.42l6.79-3.93a3.07 3.07 0 012.47.44l24.52 14.15c.88.51 1.22 1.15.76 1.42zm-21.37-27.08a3.05 3.05 0 01-2.46-.44l-24.52-14.15c-.88-.51-1.24-1.15-.77-1.42l6.8-3.93a3.07 3.07 0 012.47.44l24.52 14.18c.88.51 1.22 1.15.75 1.42zm-88.56-36.59a3.12 3.12 0 01-2.68-.31l-159.63-92.13c-.87-.5-1.13-1.2-.55-1.54l19.09-11a3.13 3.13 0 012.64.25l159.63 92.12c.89.52 1.13 1.22.56 1.55z" transform="translate(-408.04 -34.4)"/><path class="cls-12" d="M907 593.28a.37.37 0 01-.25-.07L888 582.39c-.11-.06-.16-.13-.13-.15l1.19-.68s.15 0 .25.07l18.76 10.82c.1.06.16.13.12.15zm-48.08-29.82a.14.14 0 01-.14 0l-8-4.59c-.05 0-.05-.06 0-.08l1.19-.69a.14.14 0 01.14 0l8 4.59v.09zm111.31 40.74a3.1 3.1 0 01-2.67-.32L943 589.73c-.87-.5-1.13-1.21-.55-1.54l16.26-9.39a3.13 3.13 0 012.67.31l24.53 14.15c.89.52 1.12 1.21.54 1.55zm33.77 19.49a3.14 3.14 0 01-2.66-.31l-24.52-14.15c-.88-.51-1.13-1.21-.55-1.55l16.25-9.39a3.15 3.15 0 012.68.32l24.53 14.15c.87.5 1.11 1.2.53 1.54zm33.78 19.49a3.07 3.07 0 01-2.66-.31l-24.53-14.15c-.88-.51-1.12-1.2-.54-1.54l16.26-9.39a3.07 3.07 0 012.66.31l24.54 14.15c.87.51 1.11 1.2.52 1.54zm33.78 19.5a3.11 3.11 0 01-2.66-.31l-24.53-14.16c-.89-.51-1.13-1.21-.55-1.54l16.26-9.39a3.1 3.1 0 012.67.31l24.53 14.16c.89.51 1.12 1.2.54 1.53zm33.78 19.49a3.12 3.12 0 01-2.68-.32l-24.52-14.15c-.88-.51-1.11-1.2-.53-1.53l16.25-9.4a3.1 3.1 0 012.66.31l24.53 14.15c.88.51 1.13 1.21.55 1.55zm33.78 19.48a3.07 3.07 0 01-2.66-.31l-24.53-14.16c-.88-.51-1.12-1.2-.54-1.54l16.25-9.39a3.19 3.19 0 012.68.31l24.52 14.16c.88.51 1.12 1.2.54 1.54zm76.09 43.91a3.14 3.14 0 01-2.67-.32l-66.83-38.56c-.88-.51-1.12-1.21-.54-1.54l16.25-9.39a3.09 3.09 0 012.67.31l66.84 38.57c.88.5 1.12 1.2.53 1.54zM1009.14 600.8a3 3 0 01-2.65-.3L982 586.34c-.88-.51-1.13-1.2-.54-1.54l16.26-9.39a3.08 3.08 0 012.65.31l24.54 14.16c.89.51 1.11 1.2.54 1.53zm33.78 19.5a3.08 3.08 0 01-2.65-.31l-24.55-14.16c-.87-.51-1.12-1.19-.53-1.53l16.26-9.4a3.12 3.12 0 012.65.31l24.54 14.17c.87.5 1.12 1.19.54 1.53zm33.78 19.49a3.07 3.07 0 01-2.66-.31l-24.53-14.16c-.87-.5-1.14-1.2-.55-1.54l16.26-9.39a3.15 3.15 0 012.66.32l24.53 14.16c.88.5 1.13 1.2.55 1.53zm33.77 19.49a3 3 0 01-2.65-.31l-24.53-14.15c-.88-.51-1.13-1.2-.54-1.54l16.26-9.39a3.09 3.09 0 012.65.31l24.53 14.16c.88.51 1.12 1.2.54 1.53zm33.8 19.49a3.1 3.1 0 01-2.66-.31l-24.54-14.16c-.88-.51-1.13-1.2-.54-1.54l16.26-9.39a3.08 3.08 0 012.65.31l24.56 14.16c.88.51 1.12 1.2.55 1.54zm33.73 19.49a3.08 3.08 0 01-2.65-.31l-24.52-14.16c-.89-.51-1.14-1.2-.55-1.54l16.26-9.39a3.12 3.12 0 012.66.32l24.52 14.15c.88.51 1.12 1.2.54 1.53zm33.81 19.49a3.08 3.08 0 01-2.65-.31l-24.54-14.16c-.88-.51-1.12-1.19-.53-1.53l16.26-9.39a3.06 3.06 0 012.64.3l24.54 14.17c.88.5 1.12 1.19.54 1.53zm-188.28-134.49a3.09 3.09 0 01-2.67-.31l-24.53-14.16c-.88-.5-1.12-1.19-.52-1.53l16.25-9.39a3.08 3.08 0 012.65.3l24.53 14.16c.89.51 1.12 1.2.55 1.54zm33.77 19.49a3.07 3.07 0 01-2.66-.31l-24.53-14.15c-.88-.51-1.13-1.2-.54-1.55l16.26-9.39a3.11 3.11 0 012.66.32l24.51 14.15c.87.51 1.12 1.2.54 1.53zm33.78 19.49a3.06 3.06 0 01-2.67-.31l-24.53-14.15c-.88-.51-1.12-1.2-.52-1.54l16.25-9.39a3.08 3.08 0 012.65.31l24.53 14.15c.89.52 1.13 1.21.55 1.54zm33.78 19.49a3.08 3.08 0 01-2.67-.3l-24.53-14.16c-.88-.51-1.13-1.2-.53-1.54l16.25-9.39a3.07 3.07 0 012.66.31l24.53 14.16c.89.51 1.12 1.2.54 1.53zm33.78 19.48a3 3 0 01-2.65-.3l-24.54-14.15c-.89-.52-1.12-1.2-.53-1.54l16.26-9.4a3.06 3.06 0 012.65.32l24.54 14.15c.87.51 1.11 1.2.53 1.53zm33.79 19.5a3.11 3.11 0 01-2.68-.31l-24.53-14.16c-.87-.5-1.12-1.19-.53-1.54l16.26-9.39a3.12 3.12 0 012.65.31l24.53 14.16c.89.51 1.13 1.21.56 1.54zm33.77 19.49a3.09 3.09 0 01-2.66-.3L1199 685.74c-.88-.51-1.12-1.2-.53-1.54l16.26-9.39a3.05 3.05 0 012.65.31l24.54 14.16c.87.5 1.11 1.19.54 1.53zM956.13 544.38a3.09 3.09 0 01-2.67-.31l-41.6-24c-.88-.51-1.13-1.2-.53-1.55l16.25-9.39a3.11 3.11 0 012.66.32l41.6 24c.88.51 1.13 1.2.55 1.54zm326.23 162.38a3.1 3.1 0 01-2.67-.31l-41.59-24c-.87-.5-1.12-1.2-.54-1.54l16.25-9.39a3.12 3.12 0 012.67.31l41.59 24c.89.51 1.13 1.2.54 1.54zM941.73 561.92a3.08 3.08 0 01-2.66-.31L889.49 533c-.89-.51-1.14-1.19-.55-1.53l16.26-9.4a3.12 3.12 0 012.66.32L957.45 551c.89.51 1.12 1.2.54 1.53zm-38.9 3.4a3.13 3.13 0 01-2.67-.31l-33.06-19.08c-.89-.51-1.13-1.21-.54-1.54l16.25-9.39a3.09 3.09 0 012.67.31l33.06 19.08c.89.51 1.13 1.2.54 1.54zm92.39-24.23a3.09 3.09 0 01-2.67-.31L968 526.63c-.88-.51-1.12-1.2-.54-1.54l16.25-9.39a3.09 3.09 0 012.67.31l24.52 14.15c.89.51 1.13 1.2.54 1.54zm33.63 19.39a3.09 3.09 0 01-2.67-.31L1001.65 546c-.88-.51-1.13-1.2-.54-1.54l16.25-9.39a3.13 3.13 0 012.67.31l24.53 14.16c.88.51 1.13 1.2.54 1.54zm33.76 19.52a3.08 3.08 0 01-2.65-.31l-24.54-14.16c-.87-.5-1.12-1.19-.53-1.53l16.25-9.39a3.07 3.07 0 012.66.31l24.54 14.08c.88.51 1.11 1.2.52 1.54zm33.79 19.46a3.1 3.1 0 01-2.67-.31L1069.22 585c-.89-.52-1.13-1.21-.54-1.55l16.25-9.38a3 3 0 012.67.31l24.51 14.15c.89.5 1.13 1.2.54 1.54zm33.77 19.54a3.06 3.06 0 01-2.66-.3L1103 604.49c-.89-.51-1.13-1.2-.55-1.54l16.26-9.39a3.07 3.07 0 012.67.32l24.51 14.12c.89.51 1.12 1.19.53 1.53zm33.83 19.44a3.07 3.07 0 01-2.66-.31L1136.77 624c-.88-.51-1.12-1.19-.53-1.53l16.25-9.39a3.1 3.1 0 012.66.3l24.54 14.16c.87.51 1.12 1.2.53 1.54zm33.75 19.49a3.09 3.09 0 01-2.67-.31l-24.53-14.15c-.89-.52-1.13-1.21-.55-1.55l16.25-9.39a3.12 3.12 0 012.68.32l24.53 14.15c.88.51 1.13 1.2.54 1.54zm33.76 19.49a3.08 3.08 0 01-2.65-.3L1204.31 663c-.87-.5-1.11-1.19-.52-1.53L1220 652a3.07 3.07 0 012.65.3l24.55 14.17c.88.5 1.11 1.19.52 1.53zm19.65 17.19a3.71 3.71 0 00-1.44-.47 2 2 0 00-1.21.16l-16.26 9.39a.57.57 0 00-.29.71 1.83 1.83 0 00.81.83l6.41 3.69-21.32 12.32a.56.56 0 00-.28.71 1.74 1.74 0 00.82.82l16.53 9.54a3.82 3.82 0 001.45.48 2 2 0 001.22-.16l38.64-22.33a.53.53 0 00.28-.7 1.78 1.78 0 00-.83-.83z" transform="translate(-408.04 -34.4)"/><path class="cls-12" d="M898.43 557.4a.37.37 0 01-.25-.07l-18.76-10.83c-.1-.06-.15-.12-.12-.14l1.19-.69a.37.37 0 01.25.07l18.75 10.83c.11.06.16.12.13.14z" transform="translate(-408.04 -34.4)"/><path d="M1387.18 443.56l68.31 38.55c2.23 1.26 3.63 4.91 3.11 8.11l-8 49 .59 19.39-16.68-20-57.51-32.49c-2.23-1.25-3.63-4.9-3.11-8.11l8.31-50.91c.5-3.2 2.8-4.79 4.98-3.54z" transform="translate(-408.04 -34.4)" fill="#699eff" opacity=".71"/><path class="cls-8" d="M1418.79 429.25l-70.92-42.5c-2.31-1.38-4.63.1-5.16 3.31l-8 49-10.6 25.31 24.73-8.37 59.73 35.8c2.31 1.39 4.64-.1 5.16-3.3l8.3-50.91c.54-3.2-.93-6.95-3.24-8.34z" transform="translate(-408.04 -34.4)"/><path d="M1365.17 429.87c-.6 3.66-3.57 5.13-6.65 3.29a10.48 10.48 0 01-4.48-10c.6-3.66 3.57-5.14 6.65-3.3a10.5 10.5 0 014.48 10.01zm17.11 10.44c-.59 3.66-3.57 5.14-6.64 3.3a10.51 10.51 0 01-4.49-10c.6-3.66 3.58-5.13 6.65-3.29a10.48 10.48 0 014.48 9.99zm17.12 10.45c-.6 3.66-3.58 5.13-6.65 3.29a10.48 10.48 0 01-4.48-10c.59-3.66 3.57-5.14 6.64-3.29a10.49 10.49 0 014.49 10z" transform="translate(-408.04 -34.4)" fill="#fcdc6c"/><ellipse class="cls-3" cx="646.56" cy="853.39" rx="44.7" ry="22.77"/><ellipse class="cls-3" cx="142.97" cy="842.79" rx="44.7" ry="22.77"/><path class="cls-25" d="M470.64 642.71a5.78 5.78 0 00-5.6-6.29c-4.72-.15-10.91 1.28-13.42 9-4.32 13.16 2.64 19.41-4.08 27.81s-13.77 29.75-2.56 32.64 17.2-1.91 16-10.79-2.69-10 2.59-17.18c3.97-5.41 6.21-25.52 7.07-35.19z" transform="translate(-408.04 -34.4)"/><path class="cls-3" d="M75.4 786.02L0 742.49l74.92-43.26 76.14 43.44-75.66 43.35z"/><path d="M75.4 863.41L0 819.88l74.92-43.25 76.14 43.44-75.66 43.34z" fill="#dbefff"/><path fill="#cfe3ff" d="M75.4 786.02l.11 55.4-75.4-43.53v-55.4l75.29 43.53z"/><path fill="#b6ceed" d="M75.4 786.02l75.66-43.35v52.78L74.08 841.6l1.32-55.58z"/><path class="cls-8" d="M62.74 823.4l-15.07-8.76v-11.28l15.07 8.76v11.28zm-20-11.28l-15.06-8.76v-20.73l15.06 8.77v20.72zM7.68 792.08l15.06 8.76v-34.61l-15.06-8.77v34.62z"/><path class="cls-20" d="M553.87 881.58l-18-14.8c-2.33-1.07-7.37-1.15-10.71-.38a3.26 3.26 0 00-2.5 3.26l.06 3.32c-.07 4.79.42 5.44 3.5 6.85l18.29 8.4c3.08 1.42 7.56 1.19 9.95-.51l.68-.48c2.37-1.7 1.86-4.24-1.27-5.66z" transform="translate(-408.04 -34.4)"/><path class="cls-5" d="M493.7 765.46s39.19 21.19 40.73 31c1.35 8.62 0 58.91 0 70.94 0 7.48-11 5.4-10.82 0 .36-10.94-3-48.84-10.48-59.1s-44.32-24.75-44.32-24.75z" transform="translate(-408.04 -34.4)"/><path class="cls-20" d="M573.4 870.7l-18-14.8c-2.34-1.08-7.37-1.15-10.71-.39a3.26 3.26 0 00-2.5 3.26l.06 3.32c-.07 4.79.42 5.44 3.5 6.86l18.29 8.4c3.08 1.41 7.56 1.18 10-.51l.68-.49c2.28-1.69 1.76-4.24-1.32-5.65z" transform="translate(-408.04 -34.4)"/><path class="cls-5" d="M513.23 754.58s36.9 20.38 38.44 30.19c1.33 8.63 2.33 59.72 2.33 71.75 0 7.48-11 5.41-10.82 0 .36-10.94-3-48.83-10.48-59.1s-44.32-24.74-44.32-24.74z" transform="translate(-408.04 -34.4)"/><path class="cls-21" d="M501.79 741.69c14.48 15.73 40.6 18.79 52.18 37.86 5.59 9.2-32.77 9.78-42.2 28.43 0 0-36.34-18.58-46.69-25.51a16.32 16.32 0 01-5.06-5.3c-3.1-5.28-7.24-16.33-2.34-33.33 7.17-24.84 44.11-2.15 44.11-2.15z" transform="translate(-408.04 -34.4)"/><path class="cls-12" d="M502.64 741.74c.89-15.6-.44-22.07.65-41.31-1.44-23-1.83-29.32-19.75-29.92l-4.71 1.57a33.09 33.09 0 00-6.43 2.92c-21.69 12.94-26.15 15.72-24.33 29 .4 6.91 5.47-.82 5.19 3.82-.36 5.85-3.94 18.9.24 41.37.59 3.18 1.45 7.85 4.14 9.65 11.65 7.82 41.18-7.44 45-17.1z" transform="translate(-408.04 -34.4)"/><path class="cls-8" d="M481.88 681c.46 3.81-.15 6.4-6.49 7.71-5.48 1.14-12.63-7.47-9.77-10 2.62-2.34 2.19-1.47 7.62-2.85s7.87-1.34 8.64 5.14z" transform="translate(-408.04 -34.4)"/><path class="cls-25" d="M479.25 674.6s-3.13 2.58-4.66 2.81-17-13.76-10.27-28.09c4.23-9.07 21.36-.81 21.36-.81z" transform="translate(-408.04 -34.4)"/><path class="cls-5" d="M473.45 686.53l.77.18a4.91 4.91 0 005.86-3.67l3.37-14.78a4.9 4.9 0 00-3.67-5.85l-.78-.17a4.89 4.89 0 00-5.85 3.67l-5.33 13.72c-.6 2.62 3.01 6.3 5.63 6.9z" transform="translate(-408.04 -34.4)"/><path class="cls-29" d="M481.67 676.89a13.38 13.38 0 01-10.25-6.59s3.51 9.59 9.3 10.72z" transform="translate(-408.04 -34.4)"/><path class="cls-5" d="M479.62 642.57c3.94-3.13 7.84-2.69 10.31.58 3.85-.33 7 2.9 7.93 8.88 1.25 8.33-2.39 18.79-8.14 23.37-4 3.2-8 2.67-10.45-.78-4.71.26-9.42-3.53-10.34-9.67-1.25-8.33 4.94-17.8 10.69-22.38z" transform="translate(-408.04 -34.4)"/><path class="cls-25" d="M482 648.38s-1.72 15.52-14.49 16.19c0 0-11.74-10.89 1.5-23.2 11.68-10.85 23.48 2.11 23.48 2.11z" transform="translate(-408.04 -34.4)"/><path class="cls-25" d="M473.71 655.84c3.64-3.12 15.81-.08 23.79 5.32 4.31 1.26 4.5-2.82 3-7.63a26.3 26.3 0 00-11.29-14.38l-3.68-2.3c-6.82-3.58-17.75 4.07-20.16 8.71l4.77 1.46c-2.39 4.63-1.07 6.41 3.57 8.82z" transform="translate(-408.04 -34.4)"/><path class="cls-5" d="M466.49 666.67a3.71 3.71 0 103.11-4.22 3.7 3.7 0 00-3.11 4.22z" transform="translate(-408.04 -34.4)"/><path class="cls-8" d="M490 669.14l-7.56.83s1.79 4.79 4 4.13 3.56-4.96 3.56-4.96z" transform="translate(-408.04 -34.4)"/><path class="cls-5" d="M512.72 697.89l4.44 26.8c.68 3.58-2.08 20.51-3.93 29.89s-2.81 1.78-8.64 8.94l3-27.51a28.93 28.93 0 00-.65-10c-1.82-7.43-5-20.61-5-21 .06-.78 10.78-7.12 10.78-7.12z" transform="translate(-408.04 -34.4)"/><path class="cls-30" d="M480.9 766.51l4.37-1.54.51-.51.33-.59L519 746.76a1.7 1.7 0 011.46.06l12.54 7.37v-.21l2.37.95-.1 1a.57.57 0 01-.26.25L500.8 774a.19.19 0 00-.09.13c-.71 2.62-1.91 5-4.14 3.61l-13.92-8.2a3.36 3.36 0 01-1.75-3z" transform="translate(-408.04 -34.4)"/><path class="cls-31" d="M499.4 776.69l39.43-20.51c.46-.23.45-.65 0-.93l-16.75-9.82a1.91 1.91 0 00-1.68-.07L481 765.87c-.46.23-.45.65 0 .93l16.75 9.82a2 2 0 001.65.07z" transform="translate(-408.04 -34.4)"/><path class="cls-30" d="M498.3 763.48l9.54-5c.11-.06.11-.16 0-.23l-4.06-2.37a.46.46 0 00-.41 0l-9.54 5c-.11.06-.11.16 0 .23l4.05 2.38a.49.49 0 00.42-.01z" transform="translate(-408.04 -34.4)"/><path class="cls-8" d="M502.86 753.61a4.47 4.47 0 012-2.47l39.12-20a1 1 0 01.83-.12.46.46 0 01.17.14l1.09 1.23-1.1-.1-5.87 21.67a4.47 4.47 0 01-2 2.47l-37 19-1.26 1.21-.17.3c-.72.14-2.29-1-2.29-1z" transform="translate(-408.04 -34.4)"/><path d="M499.16 777.74s40.85-21.58 41.1-22.51l5.93-21.91c.25-.93-.22-1.34-1.06-.91l-39.12 20a4.47 4.47 0 00-2 2.47l-5.93 21.91c-.24.97.24 1.38 1.08.95z" transform="translate(-408.04 -34.4)" fill="#9ebbde"/><path class="cls-8" d="M521.1 756.53c-.32 1.16.76 1.42 2.4.58a7.42 7.42 0 003.55-3.63c.32-1.16-.76-1.43-2.41-.58a7.44 7.44 0 00-3.54 3.63z" transform="translate(-408.04 -34.4)"/><path class="cls-5" d="M460.38 700.33l6.09 37c-.05 2.3 34.37 21.76 34.37 21.76l-1.49 5.74L463.76 750c-11.13-5-11.24-15-11.54-21.08l-2.58-31z" transform="translate(-408.04 -34.4)"/><path class="cls-12" d="M447.15 709.32l3.06 23.41c.76 2 19.14-.9 18.32-3.82-.14-.52-2.87-28.51-11.37-35.38-6.89-5.53-11.97 4.96-10.01 15.79zm45.35-6.43l5.41 10.48c1.16 1.76 18.51-5 17.09-7.63-.25-.47-8.88-27.24-18.64-32.14-7.92-3.98-8.08 19.12-3.86 29.29z" transform="translate(-408.04 -34.4)"/><path d="M1116.75 810.54s30.53-16.69 22.87-36.16-39.27 26.71-39.27 26.71z" transform="translate(-408.04 -34.4)" style="mix-blend-mode:multiply" opacity=".22" fill="#2c1f9c"/><path class="cls-22" d="M1086.94 782.67c2.68 0 56.44 19.38 56.39-25.14s-68.62 6.31-68.62 6.31z" transform="translate(-408.04 -34.4)"/><path class="cls-20" d="M1025.06 879.08l17.63-17.92c2.38-1.41 7.76-2.07 11.43-1.63a3.53 3.53 0 013.06 3.21l.31 3.56c.62 5.13.17 5.88-3 7.75l-18.64 11.09c-3.14 1.87-8 2.13-10.73.59l-.78-.44c-2.73-1.55-2.42-4.29.72-6.21z" transform="translate(-408.04 -34.4)"/><path class="cls-34" d="M1055.86 861.86c0 5.28-12.84 5.28-12.84 0v-17.15h12.84z" transform="translate(-408.04 -34.4)"/><path class="cls-20" d="M1058.93 898l15.27-20c2.18-1.7 7.44-3 11.14-3a3.53 3.53 0 013.43 2.81l.75 3.5c1.26 5 .9 5.81-2 8l-17.12 13.32c-2.89 2.24-7.64 3.11-10.58 1.92l-.83-.34c-2.91-1.13-2.99-3.94-.06-6.21z" transform="translate(-408.04 -34.4)"/><path class="cls-34" d="M1087.35 877.11c.66 5.24-12.08 6.84-12.73 1.6l-2.13-17 12.73-1.59z" transform="translate(-408.04 -34.4)"/><path class="cls-22" d="M1084.42 742.06S1044.68 762.39 1043 773c-1.46 9.29-3.06 64.31-2.13 77.25a5.17 5.17 0 002.9 4.3c3.94 1.88 11 3.93 13.43-4.09 3.35-11.31 2.19-50 10.2-61s47.77-26.67 47.77-26.67z" transform="translate(-408.04 -34.4)"/><path class="cls-22" d="M1111.09 760.51s-44.46 22.16-45.77 32.24c-1.14 8.8 4.35 58.91 5.76 71.51a5.25 5.25 0 003.31 4.29c4 1.6 11 3.08 13.09-4.45 3-10.83.51-47.38 8.17-58.15 4.15-5.83 14.83-12.43 33.06-21 8.34-3.94 14.31-20.32 4.18-21.62z" transform="translate(-408.04 -34.4)"/><path class="cls-5" d="M1072.52 680.32l-8.52 32.51c-.73 3.86-2 9.49-3 16.11-1.48 10.27 1.47 21.46 7.77 29.18 0 0 3-15.92 6-23.41a259.54 259.54 0 009.56-29.16c.02-.85-11.81-25.23-11.81-25.23z" transform="translate(-408.04 -34.4)"/><path class="cls-21" d="M1085.1 658.24l-19.94 34.26c2.72 10.89 8.63 16.43 16.08 19.36l6.34-42.34zm-15.41 30.12s3.21 9.47 21.1 15.59" transform="translate(-408.04 -34.4)"/><path class="cls-21" d="M1079.11 740.47c3.08-16.86 2.4-27.14-.38-50.42 0-32.22 9.81-44.2 30.11-36.8l8.39 2.23c24.5 13.2 36.94 12.54 32.56 38.47l-4.29 56.83c0 29.22-67.95 24.09-66.39-10.31z" transform="translate(-408.04 -34.4)"/><path class="cls-4" d="M1105.67 653.49s3.2 3 4.82 3.3 19-13.74 12.73-29.52c-4-10-22.87-2.16-22.87-2.16z" transform="translate(-408.04 -34.4)"/><path class="cls-5" d="M1111.42 667.28l-1 .16a6.08 6.08 0 01-7-5l-3.15-18.55a6.1 6.1 0 015-7l1-.17a6.09 6.09 0 017 5l5.65 17.38c.52 3.3-4.21 7.62-7.5 8.18z" transform="translate(-408.04 -34.4)"/><path class="cls-29" d="M1102.42 656.42a16.6 16.6 0 0013.16-7.47s-5 11.66-12.28 12.65z" transform="translate(-408.04 -34.4)"/><ellipse class="cls-5" cx="1097.73" cy="637.67" rx="10.72" ry="18.92" transform="rotate(-11.6 723.978 2628.867)"/><path class="cls-5" d="M1117.33 643.76c-1.85 8.86-10.92 12.69-16.81 7.43s-9.16-16.71-7.31-25.57 8.12-11.78 14-6.52 11.97 15.8 10.12 24.66z" transform="translate(-408.04 -34.4)"/><path class="cls-4" d="M1104.3 625.18s.9 16.77 14.56 18.25c0 0 13.26-11-.21-25-11.86-12.35-25.32.84-25.32.84z" transform="translate(-408.04 -34.4)"/><path d="M1086.57 632.36s3.35-6.56 12.51-7.52l-5.75-5.55s-7.19-.03-6.76 13.07z" transform="translate(-408.04 -34.4)" fill="#21ded5"/><path class="cls-4" d="M1112.75 633.69c-3.72-3.56-10.34-2.15-19.23 3.16-8.69 2-11.61-7.82-11.61-7.82-2.3-5.12.83-8.14 6-10.44l13.33-6c7.54-3.43 16.28 1.76 18.58 6.88l.52.82c2.26 5.13-2.47 11.1-7.59 13.4z" transform="translate(-408.04 -34.4)"/><path class="cls-5" d="M1119.84 645.75a4 4 0 11-3.09-4.71 4 4 0 013.09 4.71z" transform="translate(-408.04 -34.4)"/><path class="cls-8" d="M1102.42 656.42s-6.74 9.4 2.76 13.44c15 6.4 19.72-10.63 17.37-11.62l-4.75-2.45a6.41 6.41 0 01-1.5 8.71c-3.54 3-9.9 3.62-12.63-1z" transform="translate(-408.04 -34.4)"/><path class="cls-21" d="M719.99 655.65v55.18l10.18-5.97-10.18-49.21z"/><path class="cls-30" d="M1117.05 766.67l-4.7-1.66-.56-.55-.35-.63-35.44-18.44a1.77 1.77 0 00-1.57.06l-13.54 7.94v-.22l-2.55 1 .11 1a.57.57 0 00.28.27l36.91 19.2c.05 0 .07.07.09.14.77 2.82 2.06 5.35 4.47 3.89l15-8.84a3.6 3.6 0 001.88-3.23z" transform="translate(-408.04 -34.4)"/><path class="cls-31" d="M1097.12 777.64l-42.5-22.1c-.49-.26-.48-.71 0-1L1072.7 744a2.06 2.06 0 011.81-.07L1117 766c.49.26.48.71 0 1l-18.06 10.59a2.13 2.13 0 01-1.82.05z" transform="translate(-408.04 -34.4)"/><path class="cls-30" d="M1098.31 763.4l-10.31-5.34c-.12-.07-.11-.17 0-.25l4.37-2.56a.52.52 0 01.44 0l10.28 5.35c.12.06.12.17 0 .24l-4.37 2.57a.49.49 0 01-.41-.01z" transform="translate(-408.04 -34.4)"/><path class="cls-8" d="M1093.39 752.77a4.82 4.82 0 00-2.14-2.67l-42.15-21.59a1.08 1.08 0 00-.9-.14.58.58 0 00-.19.16l-1.17 1.32 1.19-.1 6.32 23.35a4.76 4.76 0 002.14 2.66l39.86 20.43 1.36 1.3.18.32c.78.16 2.47-1.08 2.47-1.08z" transform="translate(-408.04 -34.4)"/><path d="M1097.37 778.77s-44-23.25-44.29-24.26l-6.39-23.61c-.27-1 .24-1.45 1.15-1l42.16 21.61a4.82 4.82 0 012.14 2.67l6.39 23.61c.27 1.01-.25 1.45-1.16.98z" transform="translate(-408.04 -34.4)" fill="#9ec2ff"/><path class="cls-8" d="M1073.73 755.91c.34 1.26-.82 1.54-2.59.63s-3.48-2.66-3.82-3.92.82-1.53 2.59-.62 3.48 2.66 3.82 3.91z" transform="translate(-408.04 -34.4)"/><path class="cls-5" d="M1129.69 690.05l5.59 49.46c.22 2.65-40.45 15.68-40.45 15.68l3.42 14.33 41.6-10.64c11-4.61 10.7-13 10.58-19.93l-.77-42.85z" transform="translate(-408.04 -34.4)"/><path class="cls-21" d="M1128.46 695.46l3.54 36.64c1 3 28.39-3.22 27.32-7.75-.19-.8-3-44.7-15.29-54.73-10.03-8.14-18.03 8.95-15.57 25.84z" transform="translate(-408.04 -34.4)"/><path d="M723.85 687.99s11.34 2.94 25.38-7.38" stroke-width="4.55" stroke="#fff" fill="none" stroke-linecap="round" stroke-linejoin="round"/><path class="cls-21" d="M900.25 629.25a1.5 1.5 0 000-3 1.5 1.5 0 000 3z" transform="translate(-408.04 -34.4)"/><path class="cls-21" d="M900.25 629.25a1.5 1.5 0 000-3 1.5 1.5 0 000 3z" transform="translate(-408.04 -34.4)"/><path class="cls-3" d="M554.74 655.48c-6.6 2.55-12.18 9.62-14.4 17.41l-7-7.39c4.5-10.06 12.32-18.58 21.27-22s16.9-1 21.64 5.45l-6.77 12.72c-2.43-6.03-8.15-8.74-14.74-6.19z" transform="translate(-408.04 -34.4)"/><path class="cls-3" d="M588 626.78l-6.4 12c-6.38-7.16-16.2-9.59-27.15-5.36s-20.6 14.19-26.73 26.19l-6.65-7c.82-1.47 1.69-2.91 2.59-4.33 7.85-12.34 18.64-22.27 30.63-26.91 13.35-5.12 25.43-2.65 33.71 5.41zm-28 52.56l-.35.48c-.2.25-.41.49-.62.73s-.39.42-.6.62a7.27 7.27 0 01-.57.54 10.22 10.22 0 01-.84.63c-.16.11-.32.24-.48.34a9.28 9.28 0 01-1.44.73 7.41 7.41 0 01-1.43.38h-.49a6 6 0 01-.85 0 5.4 5.4 0 01-.58-.08 4.21 4.21 0 01-.61-.16 4.35 4.35 0 01-.63-.25 2.6 2.6 0 01-.36-.21 5.85 5.85 0 01-2.55-3.6 9.21 9.21 0 01-.21-1 7.61 7.61 0 01-.14-1.39 11.34 11.34 0 01.13-1.92c.66-4.48 3.74-8.84 7.48-10.29s6.89.51 7.67 4.44a10.16 10.16 0 01.18 1.8 9.2 9.2 0 01-.1 1.48c0 .38-.11.75-.18 1.12a14.16 14.16 0 01-.7 2.27 14.54 14.54 0 01-1.73 3.34z" transform="translate(-408.04 -34.4)"/><path class="cls-6" d="M1247.36 374.51c-35.17-21.05-64.09-1.69-72.34 4.95a48.11 48.11 0 00-4.63 3.41l-2.93-7.74c-5.79-14.83-27.43-64.87-62.79-86-45.08-27-79.42-7.1-85.43 49.49-5.86 55.05 20.55 113.38 62.76 138.68 14.86 8.9 29.3 11.61 43 8.1l6.64-2.21a68.13 68.13 0 0020.36-13.48 78.62 78.62 0 006.6-7.62l4.11-3.77c3.55 11.33 6.85 21.76 6.85 21.76l.12.38c14.87 41.61 35 70.29 60 85.23 42.24 25.29 77.15 3.66 83-51.44 6.01-56.59-20.24-112.75-65.32-139.74zm29.85 119.56c-2.8 26.3-20.19 35.43-42.29 22.19-21.41-12.81-31.73-40.81-45.41-79.56l13.49-10.84c11-6.47 25.19-12.86 37.72-5.36 24.91 14.92 39.58 44.5 36.49 73.57zm-133.3-86.41a111 111 0 01-9.89 15.12c-5.3 5.37-10 9.18-14.51 11.67-8.79 3.41-19 1.32-32.23-6.57-22.1-13.24-35.59-40.85-32.79-67.15 3.09-29.08 21.91-38.6 46.83-23.68 15.82 9.47 29.48 40.67 41.53 68.19z" transform="translate(-408.04 -34.4)"/><path class="cls-8" d="M1104.65 339.4s8.84 6.16 22.17 30.88a268.34 268.34 0 0121.28 52.59c9.72 33.5 35.53 112.35 68.33 133.22l24.81-36.59s-25.07-16.89-33.32-37c-9-21.87-38-108.21-57.81-143.06-16.16-28.36-26.06-34.81-26.06-34.81l-23.64 7.77z" transform="translate(-408.04 -34.4)"/><path class="cls-8" d="M1247.15 374.64c-15.51-9.29-29.8-10.7-41.65-8.82l30.3 22.37-15.8 30.16c6.82-1.75 13.89-1.68 20.5 2.28 24.92 14.92 39.59 44.49 36.5 73.57-2.8 26.3-20.19 35.43-42.29 22.19-14.74-8.82-24.22-24.83-33.16-46.59l-28.61 20c14.47 36.65 33.45 62.21 56.51 76 42.24 25.28 77.15 3.65 83-51.44 6.03-56.57-20.21-112.73-65.3-139.72z" transform="translate(-408.04 -34.4)"/><path d="M935.25 868a1.5 1.5 0 000-3 1.5 1.5 0 000 3z" transform="translate(-408.04 -34.4)" fill="#ed68e0"/><path class="cls-8" d="M696.61 304.99l-8.57-29.58 27.97-5.23 4.21 3.64-26.31 4.87 8.37 31.7-5.67-5.4zm-50.25 31.05l-22.61 17.41-12.77-20.39-.49-8.99 14.16 22.72 21.53-17.17.18 6.42z"/><path class="cls-8" d="M1105.67 435.52l26.1 18.87-27.89 31.61-4.82-1.15 26.06-29.42-30-23.38a47 47 0 0010.55 3.47z" transform="translate(-408.04 -34.4)"/><path class="cls-8" d="M762.68 452.78l6.88-30.49 23.48 7.76 2.04 5.25-21.96-7.3-7.67 31.55-2.77-6.77zm141.52 30.6l-27.82 15.28-10.83-25.03 2.07-6.16 10.65 24.74 26.51-13.86-.58 5.03zM800.08 331.06l32.36 22.34-21.78 30.81-8.56 3.39 23.74-32.93-33.17-22.38 7.41-1.23z"/><path class="cls-19" d="M795.17 472.07c-5.23 10.45-13.75 31.24-24.91 35.2-15.43 5.48-31.54-13.07-43.9-22.39-5.54-4.18-.11-13.65 5.5-9.42 10 7.54 22.68 14.16 35.35 9.43 8.47-3.16 14.59-10.44 18.54-18.33 3.15-6.27 12.56-.76 9.42 5.51z" transform="translate(-408.04 -34.4)"/><path class="cls-5" d="M725.4 482.06l-4.69-2.86a5.19 5.19 0 01-1.73-7.13 5.2 5.2 0 017.13-1.73l4.69 2.85a5.2 5.2 0 011.73 7.13 5.21 5.21 0 01-7.13 1.74z" transform="translate(-408.04 -34.4)"/><path class="cls-39" d="M752.45 452.53a11.09 11.09 0 004.91-9.39l-.23-1.86c-6 1.44-9.68 6.74-9.68 6.74s-.31 8.08 5 4.51zm-4-4.18s2.94-4.21 7.55-5.25l.09 1.45a8.24 8.24 0 01-3.65 7c-3.91 2.63-3.94-3.2-3.94-3.2z" transform="translate(-408.04 -34.4)"/><path class="cls-21" d="M721.18 561.34c1.58-14.79 7.59-25.08 25-26.37a7.58 7.58 0 013.23.5l60.79 18.09s13.29 33-19.31 43c-16.5 5.06-48.53-11.67-63.1-21.18a14.85 14.85 0 01-6.61-14.04z" transform="translate(-408.04 -34.4)"/><path class="cls-5" d="M755.94 455.64c4.42 8.33 14.61 9.52 19 2.55s4.31-19.38-.11-27.71-11.54-9.43-15.91-2.45-7.4 19.28-2.98 27.61z" transform="translate(-408.04 -34.4)"/><path class="cls-5" d="M782.87 476.68l.9-.42a6.14 6.14 0 003-8.1l-7.88-17.25a6.13 6.13 0 00-8.1-3l-.9.41a6.15 6.15 0 00-3 8.11l5.11 17.66c1.42 3.06 7.81 3.98 10.87 2.59z" transform="translate(-408.04 -34.4)"/><path class="cls-25" d="M785.3 450.75s2.41 5.92-8.2 8.78c-8.48 2.3-9.22-13.77-18-13.36-9.69.46-13.84-10.75-11.09-16s12.58-9.73 20.74-8 24.34.83 16.55 28.58z" transform="translate(-408.04 -34.4)"/><path class="cls-19" d="M810.22 553.56c-1.4-14.26-7-14.67-5.57-33.29.37-5 .5-10 .45-14.95-.3-27.18-2.51-45.64-17.86-41.23l-4.84 1.29a33.5 33.5 0 00-6.71 2.59c-22.63 11.66-33.94 12.12-29.71 37.12.91 24.78 12.17 19.44 7.45 44.05 0 29.48 56.82 22.86 56.79 4.42z" transform="translate(-408.04 -34.4)"/><path d="M749.42 523.33l12.34-26.9c1 15.4-.31 29.2-7.39 38.82z" transform="translate(-408.04 -34.4)" fill="#8fb6eb"/><path class="cls-29" d="M768.68 462.56l.49-2.43a6.22 6.22 0 01-4.7 2.35 8 8 0 004.21.08z" transform="translate(-408.04 -34.4)"/><path class="cls-25" d="M767 451.64s5.76 6 6.6 13.55c1 9.29 7 15 14.87 9.91 3.9-2.5 7.28-5.33 7-8.14-2.17-23.87-10-37.38-10-37.38z" transform="translate(-408.04 -34.4)"/><path class="cls-19" d="M761.76 491.7S759 549 728.69 530.5c-18.93-11.59-17-45-17-45l8.34-1.31s9.13 36 18.7 30.64 7.18-31.24 11.91-33.23 11.12 10.1 11.12 10.1z" transform="translate(-408.04 -34.4)"/><path class="cls-5" d="M717.64 492.43a4.94 4.94 0 003.06-6.26l-3.78-11a4.94 4.94 0 00-6.26-3.06 4.94 4.94 0 00-3.06 6.26l3.78 11a4.94 4.94 0 006.26 3.06z" transform="translate(-408.04 -34.4)"/><path class="cls-41" d="M717.78 491.92l11.82-8.82a2.09 2.09 0 00.47-2.55L718.49 457a1.39 1.39 0 00-2.08-.69l-11.75 8.57a2.11 2.11 0 00-.48 2.56l11.53 23.39c.29.59.59.67 1.19.81z" transform="translate(-408.04 -34.4)"/><path class="cls-41" d="M716.42 468.15s14.1 13.3 13.65 12.4l-11.59-24.32-1.11-.11a1.22 1.22 0 00-1 .23l-11.75 8.57A1.74 1.74 0 00704 466z" transform="translate(-408.04 -34.4)"/><path class="cls-39" d="M719 491.78l11.72-8.57a2.09 2.09 0 00.43-2.55l-11.58-23.51a1.37 1.37 0 00-2.06-.7L705.79 465a2.09 2.09 0 00-.43 2.55L717 491.07a1.36 1.36 0 002 .71z" transform="translate(-408.04 -34.4)"/><path d="M705.82 469.44l.66 1.34c0 .09 0 .15-.12.12a.38.38 0 01-.24-.22l-.66-1.35c-.05-.09 0-.14.07-.11a.45.45 0 01.29.22zm1.18 2.35l.66 1.34c.05.09 0 .15-.12.12a.35.35 0 01-.24-.22l-.67-1.35c0-.09 0-.14.08-.11a.45.45 0 01.29.22z" transform="translate(-408.04 -34.4)" fill="#45446c"/><path d="M717.15 487.9l11.54-8.42-10.15-20.73-11.47 8.37 10.25 20.18c.08.18-.32.7-.17.6z" transform="translate(-408.04 -34.4)" fill="#dbedff"/><path class="cls-8" d="M710.29 463.63l3.62-2.65a.37.37 0 00.09-.46.25.25 0 00-.38-.13L710 463a.39.39 0 00-.08.46.26.26 0 00.37.17z" transform="translate(-408.04 -34.4)"/><path class="cls-39" d="M747.75 449.27l13.53-2.11a.88.88 0 00.74-1 .89.89 0 00-1-.74l-13.53 2.11a.88.88 0 00-.74 1 .88.88 0 001 .74z" transform="translate(-408.04 -34.4)"/><path class="cls-5" d="M760.06 451a4.15 4.15 0 101.72-5.61 4.15 4.15 0 00-1.72 5.61z" transform="translate(-408.04 -34.4)"/><path class="cls-39" d="M711.9 472.18c1.32 2.27 3.57 4.56 5.92 3.67a5.89 5.89 0 001.35-.72 6.48 6.48 0 001.83-8.33 5.09 5.09 0 00-3.75-2.53c-1.28-.16-2.44 1.14-3.65 2-2.6 1.89-3.29 3.2-1.7 5.91zm1 1.41c-1.06-1.82-.45-6.55 1.3-7.82.84-.6 2 .34 2.86.47a3.41 3.41 0 012.43 1.68 4.34 4.34 0 01-1.25 5.59 4 4 0 01-.89.48c-1.59.6-3.58 1.13-4.47-.4z" transform="translate(-408.04 -34.4)"/><path d="M711.55 473.63a6.29 6.29 0 01-.33-5.47l1.65.72a4.22 4.22 0 00.24 3.62 3.39 3.39 0 004.16 1.51l.55 1.84a5.09 5.09 0 01-6.27-2.22z" transform="translate(-408.04 -34.4)" fill="#ff5c97"/><path class="cls-8" d="M717.28 464.27l-.29 2a3.57 3.57 0 00-2.62.68 4.36 4.36 0 00-1.56 2.12l-1.72-.52a6.43 6.43 0 012.33-3.22 5.47 5.47 0 013.86-1.06zm1.56 16.16l5.06-3.63a.89.89 0 00.17-1.16.71.71 0 00-1-.3L718 479a.89.89 0 00-.17 1.16.7.7 0 001.01.27zm1.55 2.48l5.05-3.64a.9.9 0 00.18-1.16.71.71 0 00-1-.29l-5.05 3.64a.9.9 0 00-.18 1.16.71.71 0 001 .29z" transform="translate(-408.04 -34.4)"/><path class="cls-5" d="M713.1 488.48l-1.41-2.94c1.13 0 2.45 4.6 2.43 3.66v-13.1a1.92 1.92 0 00-2.11-1.65 1.92 1.92 0 00-2 1.77l.18 6.47c-.03.93 1.81 5.82 2.91 5.79zm219.65-78.27L927 427.68a66.74 66.74 0 002 47.22l8.18 19.1 7.69-6-5.55-22.5a35.82 35.82 0 011-20.22c3.19-9.16 5.28-23.95-7.57-35.07z" transform="translate(-408.04 -34.4)"/><path class="cls-15" d="M952 410.61l-3.1 34.68c-1.13 2.78-26.31-4.55-25.06-8.71.22-.74 5.23-41.54 17.24-50.23 9.71-7.05 14.07 8.65 10.92 24.26z" transform="translate(-408.04 -34.4)"/><ellipse class="cls-45" cx="966.89" cy="631.67" rx="38.93" ry="19.34" transform="rotate(-1.02 -1173.437 23532.061)"/><path class="cls-20" d="M937.75 615.68l9.12-1.15c6.1-2.76 9-4.84 11.67-3.27l.77.44c2.72 1.57 2.37 4.34-.77 6.15l-13.4 10.65a8.85 8.85 0 01-9.87-1s-1.5-1.35-.43-7c.61-3.26.4-3.38 2.91-4.82zm40.08 21.51l9 1.71c6.65-.77 10-1.87 12.11.45l.6.66c2.1 2.33.93 4.85-2.61 5.62l-16 6a8.86 8.86 0 01-9.11-3.94s-1-1.75 1.75-6.84c1.59-2.85 1.43-3.04 4.26-3.66z" transform="translate(-408.04 -34.4)"/><path class="cls-34" d="M984.12 639.42c0 4.57-11.1 4.57-11.1 0v-14.83h11.1z" transform="translate(-408.04 -34.4)"/><path class="cls-21" d="M985.52 630.05c-3.65 5.17-11.59 5.21-13.84 1.47L952.4 477.18h40.06z" transform="translate(-408.04 -34.4)"/><path class="cls-34" d="M946.33 617.49c-.25 4.13-11.35 4.13-11.1 0l.82-13.43h11.1z" transform="translate(-408.04 -34.4)"/><path class="cls-21" d="M948.51 611.52c-4.44 4.57-13.16 2.62-14.84-.68l5.88-133.79 27.9 4.13z" transform="translate(-408.04 -34.4)"/><path class="cls-5" d="M977.83 377.69c-2.75 9.59-9.88 12.29-15.92 6s-8.71-19.11-6-28.69 9.88-12.29 15.92-6 8.75 19.1 6 28.69z" transform="translate(-408.04 -34.4)"/><path class="cls-5" d="M987.94 374.65c-2.75 9.59-13 13.05-19.07 6.8s-8.72-19.11-6-28.7 9.87-12.29 15.92-6 11.9 18.31 9.15 27.9z" transform="translate(-408.04 -34.4)"/><path class="cls-5" d="M964.68 402.32l-1-.23a6.49 6.49 0 01-4.91-7.72l4.37-19.57a6.49 6.49 0 017.72-4.91l1 .23a6.49 6.49 0 014.91 7.72l-1.43 19.42c-.78 3.48-7.19 5.83-10.66 5.06z" transform="translate(-408.04 -34.4)"/><path class="cls-4" d="M953 376.09s1 9 13.87 7.22c9.21-1.29 6.53-16.27 15.73-17.77 10.13-1.65 12-14.16 8-19s-15.14-7.31-23.22-3.75-20.54 3.39-14.38 33.3z" transform="translate(-408.04 -34.4)"/><path class="cls-5" d="M982.66 370.74a4.39 4.39 0 11-3-5.43 4.39 4.39 0 013 5.43z" transform="translate(-408.04 -34.4)"/><path class="cls-6" d="M938.38 475.31c3.28-18-.25-32.17 0-51.27 0-34.33-1.65-42.71 16.5-37.49l5.12 1.36a35.58 35.58 0 017.1 2.74c23.93 12.33 30.32 16.13 29.27 30.44.11 23.56-3.36 50-3.86 61.57-4.89 16.34-48.66 4.34-54.13-7.35z" transform="translate(-408.04 -34.4)"/><path class="cls-29" d="M976.27 384.6l-1-2.41a6.58 6.58 0 005.38 1.41 8.45 8.45 0 01-4.38 1z" transform="translate(-408.04 -34.4)"/><path class="cls-5" d="M976.55 408.56s.2 25.12 20.69 65.55c5.63 11.12 42-9.63 42-9.63l-.13-12.63s-30.24 17.87-35.09 5.25c-5.47-14.22-4.02-51.37-27.47-48.54z" transform="translate(-408.04 -34.4)"/><path class="cls-6" d="M978.87 426.86l6.74 34.14c1.41 2.64 25.69-7.3 24-11.32-.3-.71-9.6-40.75-22.45-48.12-10.44-5.96-13.11 10.09-8.29 25.3z" transform="translate(-408.04 -34.4)"/><path class="cls-5" d="M1048.05 461.34l-3.81 2.82a6.64 6.64 0 01-9.26-1.4 6.63 6.63 0 011.4-9.25l3.81-2.82a6.65 6.65 0 019.26 1.4 6.63 6.63 0 01-1.4 9.25z" transform="translate(-408.04 -34.4)"/><path class="cls-15" d="M585.73 432.61l-8.34-20.4 6.89 35.24 1.45-14.84z"/><path class="cls-3" d="M829.32 831.56c-8.23-4.75-2.46-12.84 9.13-12.82 13.13 0 23.74-6.1 23.7-13.68v-3.9c0-7.58-10.72-13.75-23.85-13.77-11.59 0-17.45-8.13-9.27-12.85 9.25-5.34 9.21-14-.11-19.41l-4.79-2.77c-9.31-5.37-24.36-5.4-33.62-.06-8.17 4.72-22.22 1.35-22.25-5.35 0-7.58-10.72-13.75-23.85-13.77h-6.76c-13.13 0-23.73 6.1-23.69 13.68 0 6.7-14 10-22.2 5.28-9.31-5.38-24.36-5.41-33.62-.07l-4.76 2.75c-9.26 5.35-9.21 14 .1 19.41 8.23 4.75 2.47 12.84-9.13 12.82-13.13 0-23.74 6.1-23.7 13.68v3.9c0 7.58 10.72 13.75 23.85 13.77 11.6 0 17.45 8.13 9.27 12.85-9.25 5.34-9.2 14 .11 19.41l4.79 2.77c9.31 5.37 24.37 5.4 33.62.06 8.18-4.72 22.22-1.34 22.25 5.35 0 7.58 10.72 13.75 23.85 13.77h6.76c13.13 0 23.74-6.1 23.7-13.68 0-6.7 14-10 22.19-5.28 9.31 5.38 24.37 5.41 33.62.07l4.76-2.75c9.26-5.35 9.21-14.04-.1-19.41zM699.8 826.9c-23.11-13.34-23.22-34.91-.26-48.17s60.33-13.19 83.44.15 23.23 34.91.26 48.17-60.32 13.19-83.44-.15z" transform="translate(-408.04 -34.4)"/><path class="cls-20" d="M838.66 765.37v-32.29l-18.73-3-8.05-3.86c-.93-2.52-3.08-4.91-6.47-6.87l-4.79-2.77a25.78 25.78 0 00-3.26-1.56l14.29-.66.75-21.68-62.35-7.35-6-14.47-53.45 1.63 7.49 14c-13.93 1-31.81 2.4-31.81 2.4l-2.92 3.74c-5.74-.38-40.16-2.91-40.16-2.91v28.16l12.59-2.2c-.39.2-.78.39-1.15.6l-4.76 2.75c-3.51 2-5.67 4.53-6.51 7.16l-26.22 1.72v35.12l.23.06a7.62 7.62 0 00-.23 1.85v3.9c0 7.58 10.72 13.74 23.85 13.77.78 0 1.53 0 2.26.11l.11 22.13c-.11 3.61 2.21 7.25 7 10l4.79 2.76c9.31 5.38 24.36 5.41 33.62.07 8.17-4.73 22.21-1.35 22.25 5.35 0 7.58 10.72 13.74 23.85 13.77h6.75c13.13 0 23.74-6.1 23.7-13.68 0-6.7 14-10 22.2-5.28 9.31 5.38 24.36 5.41 33.62.06l4.76-2.75c5.77-3.33 7.92-8 6.47-12.27v-19.75A23.4 23.4 0 01815 783c12.71 0 23-5.72 23.64-13v-4.61zm-119.11 8c-23.11 0-41.85-10.81-41.85-24.16s18.74-24.16 41.85-24.16 41.85 10.82 41.85 24.16-18.73 24.19-41.85 24.19z" transform="translate(-408.04 -34.4)"/><path class="cls-21" d="M805.85 758.77c-8.23-4.77-2.47-12.83 9.15-12.77 13.13 0 23.74-6.1 23.7-13.68v-3.91c0-7.58-10.72-13.74-23.85-13.76-11.6 0-17.45-8.13-9.27-12.85 9.25-5.34 9.21-14-.11-19.41l-4.79-2.77c-9.31-5.38-24.37-5.4-33.62-.06-8.18 4.72-22.22 1.34-22.25-5.35 0-7.59-10.72-13.75-23.85-13.77h-6.76c-13.13 0-23.74 6.11-23.7 13.69 0 6.69-14 10-22.19 5.27-9.31-5.38-24.36-5.4-33.62-.06l-4.8 2.66c-9.26 5.34-9.21 14 .1 19.41 8.23 4.75 2.46 12.84-9.13 12.82-13.13 0-23.74 6.1-23.7 13.68v3.9c0 7.58 10.72 13.74 23.85 13.77 11.6 0 17.45 8.12 9.27 12.84-9.25 5.35-9.21 14 .11 19.41l4.79 2.77c9.31 5.38 24.36 5.41 33.62.06 8.17-4.72 22.21-1.34 22.25 5.36 0 7.58 10.72 13.74 23.85 13.77h6.75c13.13 0 23.74-6.1 23.7-13.68 0-6.7 14-10 22.2-5.28 9.31 5.38 24.36 5.41 33.62.06l4.76-2.75c9.28-5.3 9.23-13.99-.08-19.37zm-129.52-4.65c-23.11-13.35-23.23-34.91-.26-48.17s60.32-13.2 83.44.15 23.23 34.91.26 48.17-60.33 13.19-83.44-.15z" transform="translate(-408.04 -34.4)"/><path class="cls-3" d="M972.6 908.79c-6-3.46-1.8-9.35 6.65-9.33 9.57 0 17.3-4.44 17.27-10v-2.85c0-5.52-7.8-10-17.37-10-8.45 0-12.71-5.92-6.76-9.36 6.75-3.89 6.71-10.22-.07-14.14l-3.5-2c-6.78-3.92-17.75-3.94-24.49-.05-6 3.44-16.19 1-16.21-3.9 0-5.52-7.81-10-17.38-10h-4.94c-9.57 0-17.3 4.44-17.27 10 0 4.88-10.17 7.3-16.17 3.84-6.78-3.92-17.75-3.94-24.49 0l-3.47 2c-6.74 3.89-6.71 10.22.08 14.14 6 3.46 1.79 9.35-6.66 9.34-9.57 0-17.3 4.44-17.27 10v2.84c0 5.52 7.81 10 17.37 10 8.45 0 12.72 5.92 6.76 9.36-6.74 3.89-6.71 10.22.08 14.14l3.49 2c6.78 3.92 17.75 3.94 24.49 0 6-3.44 16.19-1 16.22 3.9 0 5.53 7.8 10 17.37 10h4.92c9.57 0 17.3-4.44 17.27-10 0-4.87 10.18-7.3 16.17-3.84 6.79 3.92 17.75 3.94 24.5.05l3.46-2c6.77-3.93 6.73-10.22-.05-14.14zm-94.36-3.39c-16.84-9.72-16.93-25.44-.19-35.1s44-9.61 60.79.11 16.92 25.44.19 35.1-43.95 9.61-60.79-.11z" transform="translate(-408.04 -34.4)"/><path class="cls-20" d="M973.37 850v-20.86l-12.07-1.91-5.19-2.49a9 9 0 00-4.17-4.42l-3.08-1.79a15.74 15.74 0 00-2.11-1l9.22-.43.48-14-40.19-4.74-3.87-9.33-34.39 1.08 4.83 9-20.51 1.54-1.88 2.41c-3.7-.24-25.88-1.87-25.88-1.87v18.15l8.11-1.42c-.25.13-.5.25-.74.39l-3.07 1.77a8.69 8.69 0 00-4.2 4.61l-16.89 1.11v22.64h.14a4.73 4.73 0 00-.14 1.19v2.51c0 4.89 6.91 8.86 15.37 8.88a13.87 13.87 0 011.46.07l.07 14.26c-.08 2.33 1.42 4.68 4.51 6.46l3.08 1.78c6 3.47 15.71 3.49 21.67 0 5.27-3 14.32-.86 14.35 3.45 0 4.89 6.9 8.86 15.36 8.88H898c8.46 0 15.3-3.93 15.27-8.81 0-4.32 9-6.47 14.31-3.4 6 3.46 15.7 3.48 21.67 0l3.07-1.78c3.72-2.14 5.1-5.13 4.17-7.91V861.4c.53 0 1.08-.09 1.65-.09 8.19 0 14.84-3.68 15.24-8.35V850zm-76.77 5.17c-14.89 0-27-7-27-15.57s12.11-15.6 27-15.6 27 7 27 15.57-12.1 15.56-27 15.56z" transform="translate(-408.04 -34.4)"/><path class="cls-21" d="M952.22 845.7c-5.3-3.06-1.59-8.27 5.89-8.25 8.46 0 15.3-3.94 15.27-8.82v-2.52c0-4.88-6.91-8.86-15.37-8.87-7.48 0-11.25-5.24-6-8.28 6-3.45 5.94-9.05-.07-12.51l-3.08-1.79c-6-3.46-15.71-3.48-21.67 0-5.27 3-14.32.87-14.35-3.45 0-4.88-6.9-8.86-15.37-8.87h-4.35c-8.46 0-15.3 3.93-15.28 8.82 0 4.32-9 6.46-14.3 3.4-6-3.47-15.7-3.48-21.67 0l-3.07 1.77c-6 3.45-5.93 9 .07 12.51 5.3 3.06 1.59 8.28-5.89 8.26-8.46 0-15.3 3.94-15.27 8.82v2.52c0 4.88 6.91 8.85 15.37 8.87 7.48 0 11.25 5.24 6 8.28-6 3.44-5.94 9 .07 12.51l3.08 1.78c6 3.47 15.71 3.49 21.67 0 5.27-3 14.32-.86 14.35 3.46 0 4.88 6.9 8.85 15.36 8.87H898c8.46 0 15.3-3.94 15.27-8.82 0-4.32 9-6.46 14.31-3.4 6 3.46 15.7 3.48 21.67 0l3.07-1.77c5.93-3.45 5.9-9.05-.1-12.52zm-83.47-3c-14.9-8.6-15-22.5-.17-31s38.88-8.51 53.77.09 15 22.5.17 31-38.88 8.51-53.77-.09z" transform="translate(-408.04 -34.4)"/><path class="cls-45" d="M1297.73 724.54l-20.23-24.07a11.24 11.24 0 00-1-1.46l-21.67-25.78a6.47 6.47 0 01-1.69-4.4 5.49 5.49 0 011.22-3.23c2.44-3.06 7.49-10.67 2.77-16.28l-14-16.65a27.89 27.89 0 00-16.79-9c-2.72-.4-4.64 1.35-3.25 3l8.11 9.65c6 7.18 4.27 15.12-3.93 17.64l-13 4c-8.2 2.52-19.85-1.29-25.89-8.47l-7.55-9c-1.46-1.74-5.22-1.73-6 0-1.64 3.51-.81 8 2.78 12.29l14 16.65c4.72 5.61 17.87 7.62 23.39 8.24a18 18 0 015 1.3 12.87 12.87 0 014.88 3.42l8.68 10.33a12.82 12.82 0 001 1.45l33.24 39.52c4.7 5.6 15.12 8.16 23.16 5.68l.77-.23c7.99-2.41 10.71-9.01 6-14.6z" transform="translate(-408.04 -34.4)"/><path class="cls-21" d="M1210.57 610.53v16.75l15.48 3.08.92-7.61s-10.07-11-10.6-11.07-5.8-1.15-5.8-1.15zm-48.68 18.9c17.38 11.82 39.25 21.39 63.06 30l-1.44-17.22 15.37 27.67 4.3-31.56 3.8.82V656l-2.16 43.14 12 13.53 15.27 5.81s6.55-3.57 7.17-4.39 8.73 1.66 8.73 1.66v16l-10.17-6.92-8-3.64-12-3.63-10.45-2.25-16.19-22.75-59-37.29-10.14-8.08z" transform="translate(-408.04 -34.4)"/><path class="cls-20" d="M1214.28 625.77c-2.72-.4-4.64 1.35-3.26 3l8.12 9.65c6 7.18 4.27 15.12-3.93 17.65l-13 4c-8.2 2.52-19.85-1.29-25.89-8.47l-7.55-9c-1.47-1.74-5.22-1.72-6 0-1.63 3.5-.8 8 2.78 12.28l14 16.65c4.72 5.61 17.87 7.63 23.39 8.24a18.16 18.16 0 015 1.3 12.82 12.82 0 014.88 3.42l8.69 10.33a12 12 0 001 1.45l33.24 39.53c4.7 5.59 15.12 8.15 23.16 5.68l.77-.24c8-2.47 10.76-9.07 6-14.67l-20.23-24.06a10.68 10.68 0 00-1-1.47l-21.67-25.78a6.47 6.47 0 01-1.69-4.4 5.46 5.46 0 011.22-3.22c2.44-3.06 7.49-10.68 2.77-16.29l-14-16.65a28 28 0 00-16.8-8.93z" transform="translate(-408.04 -34.4)"/><path class="cls-21" d="M1214.28 608.64c-2.72-.4-4.64 1.35-3.26 3l8.12 9.65c6 7.18 4.27 15.12-3.93 17.65l-13 4c-8.2 2.52-19.85-1.29-25.89-8.47l-7.55-9c-1.47-1.74-5.22-1.73-6 0-1.63 3.5-.8 8 2.78 12.28l14 16.65c4.72 5.61 17.87 7.63 23.39 8.24a17.82 17.82 0 015 1.3 12.82 12.82 0 014.88 3.42l8.69 10.33a12 12 0 001 1.45l33.24 39.53c4.7 5.59 15.12 8.15 23.16 5.68l.77-.24c8-2.47 10.76-9.07 6-14.67l-20.23-24.07a11.24 11.24 0 00-1-1.46l-21.67-25.78a6.47 6.47 0 01-1.69-4.4 5.43 5.43 0 011.22-3.22c2.44-3.07 7.49-10.68 2.77-16.29l-14-16.65a28 28 0 00-16.8-8.93z" transform="translate(-408.04 -34.4)"/><path class="cls-21" d="M1270.31 713.75c-3.31 1-7.6 0-9.53-2.34l-3-3.59c-1.94-2.31-.82-5 2.49-6 3.3-1 7.6 0 9.53 2.34l3 3.59c1.94 2.25.82 4.98-2.49 6z" transform="translate(-408.04 -34.4)"/><path class="cls-21" d="M1270.31 713.75c-3.31 1-7.6 0-9.53-2.34l-3-3.59a3.18 3.18 0 01-.49-4c2.76-3.92 13.71 7.59 13.02 9.93z" transform="translate(-408.04 -34.4)"/><path d="M795.07 629.6s29.44 5.71 41.79-14.94m-26.9 16.22l40.47 50.17s9.28 9.66 17.8 4.6 0-13.12 0-13.12l-40.84-47.78" stroke="#4334c2" stroke-width="2.3" fill="none" stroke-linecap="round" stroke-linejoin="round"/><path class="cls-21" d="M920.41 366.52l-67.52-41.68c-3.76-2.32-6.09-8.48-5.21-13.75l25.26-151.32c.88-5.27 4.64-7.67 8.4-5.34l67.52 41.67c3.76 2.33 6.1 8.48 5.22 13.75l-25.26 151.32c-.88 5.28-4.65 7.67-8.41 5.35z" transform="translate(-408.04 -34.4)"/><path class="cls-20" d="M951.15 227.52l3-17.67c.88-5.27-1.45-11.42-5.22-13.75l-67.51-41.67c-3.77-2.33-7.53.07-8.41 5.34l-3 17.67z" transform="translate(-408.04 -34.4)"/><path d="M898 206.44l-8.69-5.37h-.13l-7.6-4.7c-1.77-1.09-3.53 0-3.94 2.51s.68 5.35 2.44 6.44l8.7 5.37.12.06 7.61 4.69c1.76 1.09 3.52 0 3.94-2.5s-.74-5.41-2.45-6.5zm-19.52 109.23l-8.69-5.37-.12-.05-7.61-4.7c-1.76-1.09-3.53 0-3.94 2.51s.68 5.35 2.45 6.44l8.69 5.37a.67.67 0 01.12.06l7.61 4.69c1.76 1.09 3.53 0 3.94-2.5s-.68-5.36-2.45-6.45z" transform="translate(-408.04 -34.4)" fill="#e655be"/><path class="cls-8" d="M897.13 239L884 230.93a5.35 5.35 0 01-1.94-5.11c.33-1.95 1.72-2.84 3.12-2l13.11 8.09a5.33 5.33 0 011.93 5.1c-.3 1.99-1.69 2.87-3.09 1.99zm21.75 14l-13.11-8.09a5.33 5.33 0 01-1.93-5.1c.32-2 1.72-2.85 3.11-2l13.11 8.09A5.34 5.34 0 01922 251c-.33 1.93-1.73 2.82-3.12 2zM899 310.15l-13.1-8.09A5.31 5.31 0 01884 297c.33-1.95 1.72-2.84 3.12-2l13.1 8.09a5.34 5.34 0 011.94 5.1c-.35 1.94-1.74 2.81-3.16 1.96z" transform="translate(-408.04 -34.4)"/><path class="cls-12" d="M900.73 286.41l-13.11-8.09a5.33 5.33 0 01-1.93-5.1c.32-2 1.72-2.85 3.11-2l13.11 8.08a5.35 5.35 0 011.93 5.11c-.32 1.97-1.72 2.86-3.11 2zm14.49-12.92l-24.09-14.87a5.33 5.33 0 01-1.93-5.1c.32-2 1.72-2.85 3.11-2l24.09 14.88a5.34 5.34 0 011.94 5.1c-.34 1.96-1.73 2.85-3.12 1.99z" transform="translate(-408.04 -34.4)"/><path class="cls-8" d="M886.23 302.24l-13.1-8.09a5.31 5.31 0 01-1.94-5.1c.33-2 1.72-2.85 3.12-2l13.1 8.09a5.31 5.31 0 011.94 5.1c-.35 1.97-1.72 2.86-3.12 2z" transform="translate(-408.04 -34.4)"/><path class="cls-12" d="M932.07 278.4a3.65 3.65 0 00-1.8-3.29l-6.27-3.87c-1.39-.87-2.79 0-3.11 2a5.33 5.33 0 001.93 5.1l6.5 4c2.59 2.07 2.94-2.4 2.75-3.94z" transform="translate(-408.04 -34.4)"/><path d="M887.25 172.15c-.48 2.73-2.68 3.83-4.91 2.45a7.73 7.73 0 01-3.14-7.42c.48-2.73 2.68-3.83 4.91-2.45a7.73 7.73 0 013.14 7.42zm22.31 14.44c-.49 2.73-2.69 3.83-4.92 2.45a7.73 7.73 0 01-3.14-7.43c.48-2.72 2.68-3.82 4.91-2.45a7.77 7.77 0 013.15 7.43zm-11.39-7.12c-.49 2.73-2.69 3.83-4.91 2.45a7.71 7.71 0 01-3.15-7.42c.49-2.73 2.68-3.83 4.91-2.45a7.75 7.75 0 013.15 7.42z" transform="translate(-408.04 -34.4)" fill="#4334c2"/></g></g></svg>