<svg xmlns="http://www.w3.org/2000/svg" viewBox="0 0 853.38 903.4"><defs><linearGradient id="linear-gradient" x1="832.08" y1="706.64" x2="934.71" y2="706.64" gradientUnits="userSpaceOnUse"><stop offset="0" stop-color="#deb949"/><stop offset="0" stop-color="#deb849"/><stop offset=".03" stop-color="#dea749"/><stop offset=".06" stop-color="#de9c49"/><stop offset=".11" stop-color="#de9549"/><stop offset=".24" stop-color="#de9349"/><stop offset=".84" stop-color="#bd732b"/></linearGradient><style>.cls-2{fill:#d9e9ff}.cls-3{fill:#bad4f5}.cls-5{fill:#1026bf}.cls-10{fill:#22009c}.cls-7{fill:#1d76ef}.cls-9{fill:#94a6eb}.cls-10{opacity:.31;mix-blend-mode:multiply}.cls-11{fill:#fff}.cls-12{fill:#004da2}.cls-13{fill:#ff7443}.cls-24{fill:#a8c4e5}.cls-16{fill:#2c1f9c}.cls-17{fill:#c6d2f2}.cls-18{fill:#1764ce}.cls-19{fill:#ffc2b0}.cls-21{fill:#9ebbde}.cls-23{fill:#4852db}.cls-25{fill:#e1eaf4}.cls-26{fill:#f09a82}.cls-27{fill:#21ded5}.cls-29{fill:#ffc33a}.cls-33{fill:#0096ff}.cls-37{fill:#ffa23a}.cls-38{fill:#add5f7}.cls-44{fill:none;stroke-linecap:round;stroke-linejoin:round;stroke:#fff;stroke-width:3.83px}</style></defs><g style="isolation:isolate"><g id="image"><path class="cls-2" d="M1105.92 954.64L763.18 756.76c-4-2.29-3.46-6.33 1.12-9L928.54 653c4.58-2.64 11.57-2.93 15.54-.64l342.73 197.84c4 2.29 3.47 6.33-1.11 9L1121.46 954c-4.58 2.64-11.57 2.93-15.54.64z" transform="translate(-625.59 -63.81)"/><path class="cls-3" d="M1349.55 468.38a.31.31 0 000-.1 3 3 0 000-.42v-.43a2.9 2.9 0 00-.06-.41c0-.14 0-.27-.07-.41s0 0 0-.06v-.06a2.86 2.86 0 00-.07-.28c0-.14-.06-.28-.1-.41a1.33 1.33 0 00-.05-.19v-.09a.93.93 0 000-.13l-.12-.41c0-.12-.09-.25-.13-.38l-.15-.41c0-.14-.1-.27-.16-.41s0-.07 0-.11v-.07l-.09-.22-.17-.39c0-.1-.1-.2-.14-.3-.06-.13-.13-.25-.19-.37s-.12-.24-.19-.36a1.09 1.09 0 00-.08-.15v-.06l-.08-.14-.21-.37-.22-.36v-.06l-.24-.38-.24-.35-.16-.23-.07-.11-.42-.56-.13-.18-.55-.69-.46-.32-.07-.09-.2-.23-.34-.38-.13-.13-.07-.08-.19-.09-.34-.34-.26-.25-.05-.05-.35-.36-.38-.34-.38-.32-.41-.31-.3-.21-.4-.28-.12-.08-.23-.15-.41-.25-9.61-5.55-386-223-.58-.34-1-.6-.41-.21-.4-.2-.41-.18-.42-.16a2.86 2.86 0 00-.41-.15l-.44-.14h-.07l-.37-.1h-.47l-.45-.06h-1.73a5 5 0 00-.69.17h-.07a4.36 4.36 0 00-.82.37s-16 10.77-15.71 10.67c.11 0 394.64 223.67 394.64 223.67l-.36.22s10.06 5.34 10.19 5.42l.41.27.4.27.4.3.17.13q.32.24.63.51c.22.18.42.36.63.55l.07.07c.2.18.39.37.58.56a.3.3 0 01.08.08q.29.28.54.57l.1.11.51.59.26.31.3.38c.12.15.23.31.34.46l.22.3.18.26.32.48.08.12c.14.22.28.44.41.67l.4.71v.07c.12.24.24.47.35.7v.09c.11.23.21.46.31.69l.05.11.27.69v.11c.08.23.16.46.23.69v.1c.07.23.14.46.19.69v.1c0 .23.11.46.15.69l.06.35a2.9 2.9 0 01.06.41v2.28l-.94 35-6.11 3.29.35.2-6.71 3.61 3 1.74.41.26.4.28.4.3a1.09 1.09 0 01.17.13c.21.16.43.33.63.51l.62.55.07.07.58.55.08.09.55.57.09.1c.17.2.35.39.51.59l.26.32c.1.12.21.25.3.38s.23.3.34.46l.22.29.18.27c.11.16.22.31.32.47l.08.13c.14.22.28.44.41.66v.06c.14.23.27.47.4.71v.07c.12.23.24.47.35.7v.09c.11.23.21.46.31.69v.11l.27.69a.42.42 0 000 .1c.08.23.16.47.23.7v.1c.07.23.14.46.2.69v.09c.06.24.11.47.15.7s0 .23.06.35a1.87 1.87 0 010 .25l-4.79 179c0 1.12-3.42 8.16-2.51 7.63l2.53-2.31-1.45 54.08c0 1.12-3.42 8.15-2.51 7.62l3.44-4.46c-.62 1.55-.54 4.73-.13 4.49l12.23-9c2-1.79 3.88-3.6 4-6.46l5.51-235.57c0-1.12.08-2.81.08-2.81v-.71a.28.28 0 000-.09 3.11 3.11 0 000-.43v-.58l1.47-54.78c0-1.12.07-2.81.07-2.81v-.35c0-.12-.05-.26-.05-.36z" transform="translate(-625.59 -63.81)"/><path d="M1324.59 523.77c5.39 3.11 9.64 9.91 9.5 15.19l-6.41 239.39c-.13 5.28-4.62 7-10 3.92l-397-229.33c-5.39-3.11-9.64-9.91-9.5-15.19l6.4-239.4c.14-5.27 4.62-7 10-3.92z" transform="translate(-625.59 -63.81)" fill="#e5f2ff"/><path class="cls-5" d="M1324.87 495.85c5.39 3.12 9.11 0 9 5.33l-5.4 249.34c-.14 5.28-5.09 7-10.48 3.84L920.94 525c-5.39-3.11-9.64-9.91-9.5-15.18l6.4-239.4c.14-5.28 4.62-7 10-3.92z" transform="translate(-625.59 -63.81)"/><path d="M1324.87 464.37c5.39 3.11 9.64 9.91 9.5 15.19L1328.43 719c-.14 5.29-5.09 7-10.48 3.84l-397-229.33c-5.39-3.12-9.3 8.64-9.16 3.36L917.84 239c.14-5.28 4.62-7 10-3.92z" transform="translate(-625.59 -63.81)" fill="#22009c"/><path class="cls-7" d="M1324.16 493.48c.18-4.43-3.82-10.36-8.92-13.26L939.17 266.49c-5.1-2.9-9.37-1.66-9.55 2.76l-1.14 29a5.92 5.92 0 00-.29 1.59L923 500.94c-.18 4.43 5.59 12.55 10.7 15.45l371.54 211.15c5.1 2.9 9.38 1.67 9.55-2.76l1.14-29a5.84 5.84 0 00.29-1.59z" transform="translate(-625.59 -63.81)"/><path class="cls-5" d="M1319.45 798.52l-.11-15.73-15.26 9.77-3.27-7.54-382.52-220.85c-4.6-2.66-13.76-2.32-19.08.75L733.5 660v-2.65l-25.17 12.23-3.54-1.43.48 11.62a5.38 5.38 0 002.92 4.48l398.06 230.42c4.6 2.66 12.73 2.63 18-.44l190.74-110c2.91-1.67 4.39-3.75 4.4-5.8z" transform="translate(-625.59 -63.81)"/><path d="M1106 899.22L708 669.4c-4.6-2.66-4-7.35 1.3-10.42L900 548.86c5.32-3.07 13.44-3.41 18.05-.75l398 229.81c4.6 2.66 4 7.35-1.3 10.42l-190.67 110.13c-5.32 3.07-13.44 3.41-18.08.75z" transform="translate(-625.59 -63.81)" fill="#c9d5f5"/><path class="cls-9" d="M923.87 590.69a3.07 3.07 0 01-2.63-.31l-24.17-13.94c-.87-.51-1.11-1.19-.53-1.52l16-9.25a3 3 0 012.63.31l24.16 13.94c.88.5 1.12 1.18.53 1.52zm28.03 41.64a3.07 3.07 0 01-2.64-.31l-24.16-13.94c-.87-.5-1.1-1.18-.52-1.52l16-9.25a3 3 0 012.61.31l24.16 13.94c.89.51 1.11 1.19.55 1.52zm-14.17 17.28a3 3 0 01-2.62-.3l-24.17-13.95c-.86-.5-1.12-1.18-.54-1.52l16-9.25a3.09 3.09 0 012.62.31l24.17 14c.86.5 1.1 1.18.54 1.51zM899.38 653a3 3 0 01-2.61-.3l-24.17-14c-.86-.5-1.1-1.18-.53-1.51l16-9.25a3.06 3.06 0 012.63.3l24.17 14c.86.5 1.09 1.18.52 1.51zm-66.5-9.75a3 3 0 01-2.63-.31L806.09 629c-.87-.51-1.11-1.19-.54-1.52l18.81-10.86a3 3 0 012.62.31l24.17 13.94c.87.51 1.1 1.19.53 1.52zm41.67 24.04c-.58.34-2 .07-3.12-.59l-31.66-18.27c-1.14-.66-1.6-1.47-1-1.8l18.8-10.86c.56-.33 2-.07 3.11.59l31.66 18.27c1.15.66 1.59 1.47 1 1.8zm208 120.21a3 3 0 01-2.45-.41l-24.1-13.93c-.88-.51-1.21-1.15-.73-1.43l7-4a3 3 0 012.47.41l24.15 13.94c.87.5 1.18 1.14.71 1.41zm32.29 19.12a3 3 0 01-2.45-.41l-24.15-13.94c-.88-.51-1.21-1.14-.73-1.42l7-4a3 3 0 012.47.42l24.15 13.94c.87.5 1.18 1.14.71 1.41zm34.23 19.3a3 3 0 01-2.43-.43l-24.15-13.94c-.87-.5-1.22-1.13-.75-1.4l6.69-3.87a3.07 3.07 0 012.43.44l24.14 13.94c.87.5 1.2 1.13.74 1.4zM1128 799.25a3 3 0 01-2.42-.43l-24.15-13.94c-.87-.5-1.22-1.14-.76-1.4l6.7-3.87a3 3 0 012.43.43L1134 794c.87.5 1.21 1.13.75 1.4zm-87.22-36.04a3.07 3.07 0 01-2.64-.32l-157.25-90.75c-.86-.49-1.12-1.18-.54-1.51l18.8-10.86a3.08 3.08 0 012.63.31L1059 750.83c.88.5 1.12 1.19.55 1.52z" transform="translate(-625.59 -63.81)"/><path class="cls-9" d="M870.23 661.3s-.14 0-.25-.07l-18.47-10.66c-.1-.06-.16-.13-.12-.15l1.17-.67a.37.37 0 01.25.07l18.47 10.66c.1.06.16.12.12.14zm-47.36-29.37a.17.17 0 01-.14 0l-7.85-4.53v-.08l1.17-.68a.17.17 0 01.14 0l7.84 4.53c.05 0 .05.06 0 .08zm109.64 40.12a3 3 0 01-2.63-.31l-24.16-13.94c-.86-.5-1.11-1.19-.54-1.52l16-9.25a3.07 3.07 0 012.63.31L948 661.28c.88.51 1.11 1.19.53 1.52zm33.27 19.2a3.06 3.06 0 01-2.61-.3L939 677c-.86-.5-1.11-1.19-.54-1.52l16-9.25a3 3 0 012.63.3l24.16 14c.86.49 1.1 1.18.53 1.51zm33.28 19.2a3 3 0 01-2.62-.3l-24.17-13.95c-.86-.49-1.1-1.18-.52-1.51l16-9.25a3.08 3.08 0 012.62.3l24.17 14c.86.5 1.1 1.18.52 1.51zm33.27 19.21a3 3 0 01-2.61-.31l-24.17-13.94c-.88-.51-1.11-1.19-.54-1.52l16-9.25a3.06 3.06 0 012.64.31l24.16 13.94c.87.5 1.1 1.19.53 1.52zm33.28 19.2a3.08 3.08 0 01-2.63-.31l-24.16-13.94c-.87-.5-1.1-1.18-.53-1.51l16-9.26a3.07 3.07 0 012.63.31l24.15 13.94c.88.5 1.12 1.19.55 1.52zm33.28 19.19a3.05 3.05 0 01-2.62-.31l-24.16-13.94c-.87-.5-1.11-1.19-.54-1.52l16-9.25a3.1 3.1 0 012.64.31l24.16 13.94c.86.5 1.1 1.19.52 1.52zm74.95 43.25a3 3 0 01-2.62-.3l-65.84-38c-.87-.5-1.11-1.18-.54-1.51l16-9.25a3 3 0 012.63.3l65.83 38c.87.51 1.11 1.19.53 1.52zm-203-142.59a3 3 0 01-2.61-.3l-24.17-13.95c-.87-.5-1.11-1.18-.53-1.51l16-9.26a3.07 3.07 0 012.61.31l24.17 14c.87.5 1.1 1.18.53 1.51zm33.28 19.2a3 3 0 01-2.61-.3l-24.18-14c-.86-.5-1.1-1.17-.52-1.51l16-9.25a3.06 3.06 0 012.61.3l24.18 13.95c.86.5 1.1 1.18.53 1.51zm33.28 19.21a3.05 3.05 0 01-2.62-.31l-24.17-13.95c-.85-.49-1.12-1.18-.54-1.51l16-9.26a3.09 3.09 0 012.62.32l24.17 13.94c.86.5 1.1 1.19.54 1.51zm33.27 19.2a3.05 3.05 0 01-2.62-.31l-24.16-13.94c-.87-.51-1.12-1.18-.54-1.52l16-9.25a3.06 3.06 0 012.62.31l24.16 13.94c.87.5 1.1 1.19.54 1.51zm33.33 19.19a3 3 0 01-2.62-.31l-24.18-14c-.87-.5-1.1-1.17-.52-1.51l16-9.25a3 3 0 012.61.31l24.18 14c.86.5 1.1 1.18.53 1.51zm33.22 19.2a3 3 0 01-2.61-.31l-24.16-13.94c-.88-.5-1.12-1.18-.54-1.52l16-9.25a3.05 3.05 0 012.63.32l24.17 13.99c.86.5 1.1 1.18.53 1.5zm33.28 19.2a3.05 3.05 0 01-2.62-.31l-24.17-14c-.87-.49-1.1-1.17-.52-1.5l16-9.25a3 3 0 012.61.3l24.2 14c.86.5 1.1 1.18.53 1.51zM985 651.42a3 3 0 01-2.63-.3l-24.17-13.94c-.86-.5-1.09-1.18-.51-1.52l16-9.25a3 3 0 012.6.31l24.17 13.94c.87.5 1.1 1.18.54 1.51zm33.29 19.2a3 3 0 01-2.62-.29l-24.17-14c-.87-.5-1.11-1.18-.52-1.52l16-9.25a3.06 3.06 0 012.62.31l24.16 13.94c.86.5 1.1 1.18.53 1.51zm33.28 19.21a3.06 3.06 0 01-2.64-.31l-24.16-13.94c-.86-.5-1.1-1.18-.52-1.52l16-9.25a3 3 0 012.61.31l24.14 13.94c.88.51 1.11 1.19.54 1.52zm33.27 19.17a3.06 3.06 0 01-2.63-.3l-24.17-14c-.87-.5-1.1-1.18-.52-1.52l16-9.25a3.06 3.06 0 012.62.31l24.17 13.95c.87.5 1.1 1.18.53 1.5zm33.28 19.22a3 3 0 01-2.62-.3L1091.33 714c-.87-.51-1.1-1.18-.52-1.52l16-9.25a3 3 0 012.61.31l24.17 13.94c.86.5 1.09 1.18.52 1.51zm33.28 19.2a3.06 3.06 0 01-2.64-.3l-24.16-14c-.86-.49-1.1-1.18-.52-1.51l16-9.25a3.08 3.08 0 012.62.3l24.16 13.95c.88.5 1.11 1.18.55 1.51zm33.27 19.2a3 3 0 01-2.63-.3l-24.16-13.94c-.87-.51-1.11-1.18-.53-1.52l16-9.25a3 3 0 012.61.31l24.17 13.94c.87.5 1.1 1.18.53 1.51zM918.63 613.13a3.06 3.06 0 01-2.64-.31l-41-23.64c-.87-.51-1.11-1.19-.53-1.52l16-9.26a3.06 3.06 0 012.62.32l41 23.64c.87.5 1.11 1.19.54 1.51zM1240 773.09a3.07 3.07 0 01-2.63-.31l-41-23.64c-.86-.5-1.11-1.19-.53-1.52l16-9.25a3 3 0 012.62.31l41 23.64c.87.5 1.11 1.18.53 1.52zM904.45 630.41a3 3 0 01-2.63-.31L853 601.91c-.87-.5-1.12-1.18-.54-1.51l16-9.26a3.1 3.1 0 012.62.31l48.84 28.19c.88.51 1.11 1.19.54 1.52zm-38.33 3.34a3.07 3.07 0 01-2.63-.3l-32.57-18.8c-.87-.5-1.1-1.19-.53-1.52l16-9.25a3.07 3.07 0 012.63.31L881.6 623c.87.51 1.11 1.19.53 1.52zm91.01-23.86a3 3 0 01-2.63-.31l-24.15-13.94c-.87-.5-1.11-1.18-.53-1.52l16-9.25a3.07 3.07 0 012.63.31l24.15 13.94c.88.51 1.11 1.18.53 1.52zM990.26 629a3.07 3.07 0 01-2.63-.31l-24.17-13.95c-.86-.49-1.1-1.18-.53-1.51l16-9.25a3.06 3.06 0 012.63.3l24.17 14c.87.5 1.11 1.18.53 1.52zm33.26 19.18a3 3 0 01-2.62-.3l-24.16-13.94c-.87-.5-1.1-1.18-.53-1.52l16-9.25a3.05 3.05 0 012.62.31l24.17 13.94c.87.51 1.1 1.18.52 1.51zm33.29 19.21a3.07 3.07 0 01-2.63-.31L1030 653.15c-.88-.51-1.11-1.19-.54-1.52l16-9.25a3 3 0 012.63.31l24.15 13.93c.87.51 1.12 1.19.54 1.52zm33.26 19.2a3 3 0 01-2.62-.3l-24.16-13.95c-.87-.5-1.11-1.18-.53-1.52l16-9.24a3 3 0 012.63.3l24.16 14c.88.5 1.1 1.17.52 1.51zm33.29 19.19a3 3 0 01-2.62-.3l-24.17-14c-.87-.5-1.1-1.18-.52-1.51l16-9.25a3 3 0 012.61.3l24.19 13.98c.86.5 1.1 1.18.52 1.51zm33.28 19.22a3 3 0 01-2.63-.3l-24.16-13.95c-.88-.5-1.12-1.18-.54-1.52l16-9.24a3 3 0 012.63.3l24.17 14c.87.5 1.11 1.18.53 1.52zm33.26 19.18a3 3 0 01-2.61-.3l-24.18-14c-.86-.5-1.1-1.18-.52-1.51l16-9.25a3 3 0 012.61.3l24.18 13.95c.87.5 1.1 1.18.52 1.51zm19.35 16.93a3.72 3.72 0 00-1.41-.46 2 2 0 00-1.19.16l-16 9.25a.56.56 0 00-.29.7 1.77 1.77 0 00.8.81l6.31 3.65-21 12.13a.53.53 0 00-.27.69 1.67 1.67 0 00.81.82l16.28 9.4a4.1 4.1 0 001.42.47 2 2 0 001.21-.16l38.07-22a.54.54 0 00.26-.7 1.71 1.71 0 00-.81-.82z" transform="translate(-625.59 -63.81)"/><path class="cls-9" d="M861.79 626a.36.36 0 01-.25-.07l-18.47-10.66c-.1-.06-.16-.12-.13-.15l1.17-.67a.36.36 0 01.25.07l18.48 10.66c.1.06.15.13.12.15z" transform="translate(-625.59 -63.81)"/><path class="cls-10" d="M1297 464.51l-23.75-14.07a4 4 0 00.17 1 3.1 3.1 0 01.69-.18 33.12 33.12 0 00-3.71 3.44c-9.24 9.91-10.25 26.1-18 37a10.82 10.82 0 00-.76 1.26c-2.27 1.8-4.86 3.86-6.26 5-3.11 1.69-6.1 3.38-7.55 4.41-1.69 1.2.78 3.25.78 3.25a24.19 24.19 0 0012.2 2.89c3-.74 2.07-3.65 5.73-6.34.62-.45 1.83-.7 1.83 0l-1.4 3.83 1.48.26s2.51-5.28 4.39-8.75a4.33 4.33 0 00.39-3.86 7 7 0 00-.62-1.71 2.1 2.1 0 000-.51 273.73 273.73 0 0117.62-22.69 56.68 56.68 0 001.19 8.87c2.35 11.13 5 16.71 7.34 27.16-1.16 2.57-3.91 8.7-5.08 11.37-2 2.93-3.84 5.8-4.66 7.4-1 1.86 2.07 2.72 2.07 2.72a21.74 21.74 0 0011.82-2.55c2.31-2 .23-4.32 2.26-8.42.34-.7 1.29-1.45 1.56-.84l.43 4.19 1.4-.38s-.08-6.05.07-10.13a4.77 4.77 0 00-1.32-3.78 6.62 6.62 0 00-.7-.82c-1.48-10.2-1.55-28.92-.48-38.62-.03-.02-.51-.12.87-.4z" transform="translate(-625.59 -63.81)"/><circle class="cls-11" cx="1058.28" cy="489.24" r="28.95" transform="rotate(-80.78 708.013 824.99)"/><path class="cls-12" d="M397.51 354.26l22.31-12.8 3.31-34.33-21.49 4.95-4.13 42.18z"/><circle class="cls-11" cx="1068.32" cy="565.04" r="34.65" transform="rotate(-45 678.496 1288.288)"/><circle class="cls-11" cx="441.94" cy="467.84" r="40.3"/><path class="cls-13" d="M458.6 417.24l-4.05 107.27 56.43-25.19v-98.9l-52.38 16.82z"/><path d="M1097.52 492.48a33.82 33.82 0 0012.19 34s21.38-13 13.24-41.54-25.43 7.54-25.43 7.54z" transform="translate(-625.59 -63.81)" fill="#ffe18c"/><ellipse cx="672.62" cy="741.2" rx="14.56" ry="29.32" transform="rotate(-88.98 327.396 1027.71)" style="mix-blend-mode:multiply" opacity=".4" fill="#a8c4e5"/><path class="cls-16" d="M658.27 756.38l.61-15.22c-.24-3.54-2.51-4.26-4.44-5.9a2.4 2.4 0 00-3 0l-1.94 1.5c-2.87 2.08-2.53 5.92-2 8.37l2.07 13.47c.49 2.4 8.03 5.93 8.7-2.22z" transform="translate(-625.59 -63.81)"/><path class="cls-17" d="M648.44 736.34c0 3.61 8.79 3.61 8.79 0v-11.75h-8.79z" transform="translate(-625.59 -63.81)"/><path class="cls-16" d="M698.46 733.38l-12.24-12.12c-1.64-.94-5.33-1.34-7.84-1a2.4 2.4 0 00-2.06 2.22l-.18 2.45c-.39 3.52-.07 4 2.1 5.28l12.86 7.43a8.21 8.21 0 007.35.3l.54-.31c1.87-1.09 1.63-3-.53-4.25z" transform="translate(-625.59 -63.81)"/><path class="cls-17" d="M677.32 720.83c0 3.61 8.79 3.61 8.79 0v-11.75h-8.79z" transform="translate(-625.59 -63.81)"/><path class="cls-18" d="M676.15 717.49c3.44 2.47 9.14 2.42 11-.46a567.81 567.81 0 008.88-108.52l-27.32-8.1c4.91 44.14 10.73 83.2 7.44 117.08z" transform="translate(-625.59 -63.81)"/><path class="cls-18" d="M647.41 728.88c2.79 4.14 9.08 4.17 10.93 1.18l18.41-123.4H645z" transform="translate(-625.59 -63.81)"/><path class="cls-16" d="M672.62 634.31l1.58 11.13 6.07-23.59a37.23 37.23 0 01-4.37.83z" transform="translate(-625.59 -63.81)"/><path class="cls-19" d="M653.8 571.85l-16.39 33c-.82 1.79-3.63 33.59-3.63 33.59l-8.19-4.79s2.48-35.16 3-36.94L638.4 562z" transform="translate(-625.59 -63.81)"/><rect class="cls-19" x="625.88" y="627.74" width="8.68" height="11.81" rx="3.77" ry="3.77" transform="rotate(172.51 319.53 581.23)"/><path class="cls-19" d="M697.06 554.88l10.55 17.17c1.93 3.81 6.11 10.75 7.52 18.62l14.34-5.67-.51 4-19 8.41c1.65-9.17-4-9.89-7.17-13.76-5.63-6.78-11.21-13.56-11.26-13.85-.09-.47 5.53-14.92 5.53-14.92z" transform="translate(-625.59 -63.81)"/><path d="M692.12 540.36l12.36 23.17c-2 8.06-6.39 12.16-11.9 14.32l-4.69-31.33z" transform="translate(-625.59 -63.81)" fill="#91accc"/><path class="cls-21" d="M697.17 605.5a144 144 0 01-1-43.83c0-23.85-9-32.68-24-27.2l-6.21 1.65c-18.13 9.77-27.34 9.28-24.1 28.47l3.14 42.07c0 21.66 53.32 24.34 52.17-1.16z" transform="translate(-625.59 -63.81)"/><path fill="#6f9ed9" d="M28.2 508.04l-7.81 32.46-.94 3.16-1.15-15.64 9.9-19.98z"/><path class="cls-23" d="M674.5 534.65s-2.37 2.19-3.57 2.44-14.09-10.17-9.43-21.85c3-7.39 16.94-1.6 16.94-1.6z" transform="translate(-625.59 -63.81)"/><path class="cls-19" d="M670.24 544.85l.72.13a4.5 4.5 0 005.18-3.68l2.33-13.73a4.5 4.5 0 00-3.67-5.18l-.72-.12a4.5 4.5 0 00-5.18 3.67l-4.18 12.87c-.42 2.43 3.09 5.63 5.52 6.04z" transform="translate(-625.59 -63.81)"/><path class="cls-21" d="M655.21 566.56l-9.07 25.69c-1.28 2-19.82-7.39-18.24-10.45.28-.54 10.15-31.57 20.76-36.58 8.62-4.07 11.34 9.64 6.55 21.34z" transform="translate(-625.59 -63.81)"/><path class="cls-24" d="M688.82 592.36l3.49-1.22.41-.41.26-.47 26.25-13.65a1.35 1.35 0 011.16 0l10 5.87v-.16l1.89.75-.08.78a.42.42 0 01-.21.21l-27.31 14.2a.14.14 0 00-.07.11c-.57 2.09-1.53 4-3.31 2.87l-11.1-6.54a2.68 2.68 0 01-1.4-2.39z" transform="translate(-625.59 -63.81)"/><path class="cls-25" d="M703.58 600.48L735 584.12c.36-.18.35-.52 0-.74l-13.37-7.84a1.57 1.57 0 00-1.34 0l-31.45 16.36c-.37.19-.36.52 0 .74l13.37 7.84a1.54 1.54 0 001.37 0z" transform="translate(-625.59 -63.81)"/><path class="cls-24" d="M702.7 590l7.61-4c.09 0 .09-.13 0-.18l-3.24-1.9a.36.36 0 00-.32 0l-7.61 4c-.09 0-.09.12 0 .18l3.24 1.89a.36.36 0 00.32.01z" transform="translate(-625.59 -63.81)"/><path class="cls-11" d="M706.34 582.07a3.56 3.56 0 011.58-2l31.21-16a.79.79 0 01.66-.09.26.26 0 01.14.11l.87 1-.88-.08-4.68 17.29a3.56 3.56 0 01-1.58 2l-29.5 15.12-1 1-.14.24c-.57.12-1.82-.8-1.82-.8z" transform="translate(-625.59 -63.81)"/><path class="cls-7" d="M703.39 601.32l31.2-16a3.53 3.53 0 001.58-2l4.74-17.47c.2-.75-.18-1.08-.85-.73l-31.21 16a3.58 3.58 0 00-1.58 2l-4.73 17.47c-.2.75.18 1.07.85.73z" transform="translate(-625.59 -63.81)"/><path class="cls-11" d="M720.89 584.4c-.25.93.61 1.14 1.92.46a5.92 5.92 0 002.83-2.89c.25-.93-.61-1.14-1.92-.47a5.94 5.94 0 00-2.83 2.9z" transform="translate(-625.59 -63.81)"/><path class="cls-26" d="M676.9 536.82a12.31 12.31 0 01-9.74-5.53s3.71 8.63 9.09 9.36z" transform="translate(-625.59 -63.81)"/><path class="cls-19" d="M672.48 530c1.37 6.56 6 8.72 10.37 4.82s6.78-12.36 5.41-18.92-6-8.72-10.36-4.83-6.78 12.36-5.42 18.93z" transform="translate(-625.59 -63.81)"/><path class="cls-19" d="M665.87 527.45c1.36 6.56 8.08 9.39 12.43 5.5s6.79-12.37 5.42-18.93-6-8.72-10.37-4.83-8.85 11.7-7.48 18.26z" transform="translate(-625.59 -63.81)"/><path class="cls-23" d="M675.51 513.7s-.67 12.4-10.78 13.51c0 0-9.81-8.13.15-18.5 8.79-9.14 18.75.63 18.75.63z" transform="translate(-625.59 -63.81)"/><path class="cls-27" d="M688.63 519a11.8 11.8 0 00-9.25-5.57l4.25-4.1s5.37-.02 5 9.67z" transform="translate(-625.59 -63.81)"/><path class="cls-23" d="M669.26 520c2.75-2.64 7.65-1.59 14.23 2.33 6.43 1.5 8.59-5.79 8.59-5.79 1.7-3.79-.62-6-4.41-7.72l-9.87-4.44c-5.58-2.54-12 1.31-13.75 5.1l-.38.6c-1.67 3.79 1.8 8.21 5.59 9.92z" transform="translate(-625.59 -63.81)"/><path class="cls-19" d="M664 528.92a2.95 2.95 0 102.28-3.49 2.95 2.95 0 00-2.28 3.49z" transform="translate(-625.59 -63.81)"/><path class="cls-23" d="M688.55 518.49a3.82 3.82 0 103.82-3.81 3.82 3.82 0 00-3.82 3.81z" transform="translate(-625.59 -63.81)"/><circle class="cls-23" cx="67.06" cy="449.34" r="3.82"/><path class="cls-23" d="M683.56 511.48a3.82 3.82 0 103.82-3.82 3.82 3.82 0 00-3.82 3.82z" transform="translate(-625.59 -63.81)"/><circle class="cls-23" cx="61.78" cy="456.98" r="3.82"/><circle class="cls-23" cx="57" cy="456.32" r="3.82"/><path class="cls-2" d="M835.44 897.33l-120.28-69.44c-7.09-4.1-6.19-11.32 2-16l40.33-23.28c8.2-4.73 20.71-5.25 27.8-1.16l120.27 69.44c7.1 4.1 6.2 11.32-2 16l-40.33 23.29c-8.23 4.73-20.7 5.25-27.79 1.15z" transform="translate(-625.59 -63.81)"/><path fill="#ffe33a" d="M132.63 650.95l-34.47-19.83 34.24-19.77 34.69 19.77-34.46 19.83z"/><path class="cls-29" d="M98.16 631.12v116.37l34.44 19.83.03-116.37-34.47-19.83z"/><path fill="#ff913a" d="M132.63 650.95l-.03 116.37 34.49-19.83V631.12l-34.46 19.83z"/><path fill="#1d96ef" d="M176.37 721.69l-34.21-19.89 34.12-19.7 34.35 19.83-34.26 19.76z"/><path class="cls-7" d="M176.37 794.65l-34.04-19.83v-72.96l34.04 19.83v72.96z"/><path fill="#1d4fe8" d="M176.37 794.65l34.04-19.83v-72.96l-34.04 19.83v72.96z"/><path class="cls-11" d="M222.36 776.63l-34.35-19.83 34.13-19.71 34.68 19.79-34.46 19.75z"/><path class="cls-3" d="M221.75 823l35.07-21.02v-45.1l-35.07 19.83V823z"/><path class="cls-11" d="M222.41 822.92v-46.29l-34.35-19.83v46.29l34.35 19.83z"/><path class="cls-18" d="M787.54 226.43l-23.57 11 4.23 14.67-.07 7.19a11.2 11.2 0 00-2.8 7.06l-.39 4.44a21.65 21.65 0 000 2.91l-5.35-10.2-16.07 6.84 15.9 48-8.5 9.32 19.42 38.42 7.66-10.25c5.5 9.81 12.59 22.39 12.59 22.39l3.73.85c1.67 4.31 11.57 30.28 11.57 30.28l20.54-9.6-5.9-8.43c.28.21.55.43.83.63l3.63 2.54c2.67 1.86 5.24 2.59 7.44 2.3l10.2 18.54 25.62-12v-.19a5.9 5.9 0 001.42-.46l2.84-1.35c5.52-2.61 6.37-12.5 1.91-22.08-.26-.57-.49-1.14-.69-1.69l16.1-7.63c2.67-1.15 4.54-4.08 4.92-8.52l.38-4.44c.75-8.62-4.37-19.61-11.42-24.54-6.23-4.35-8.55-15.74-3.68-18.05 5.51-2.62 6.37-12.5 1.91-22.09l-2.3-4.93c-4.46-9.58-12.55-15.23-18.06-12.62-4.87 2.31-12.08-6.77-11.42-14.39.75-8.62-4.36-19.61-11.42-24.54l-3.74-2.52c-4.39-3.07-8.5-3.07-11.16-.54l-14.45 6.76a19.45 19.45 0 01-1-1.82c-4.32-9.28-12-14.84-17.52-12.82l-.28.13a2.5 2.5 0 00-.25.09l-2.84 1.35zM834 310.56c7.89 16.85 6.39 34.21-3.35 38.76s-24-5.43-31.89-22.28-6.38-34.21 3.35-38.76 24.02 5.42 31.89 22.28z" transform="translate(-625.59 -63.81)"/><path class="cls-7" d="M793.91 252.61c-.66 7.62-8.52 6.18-12.46-2.29-4.46-9.58-12.54-15.23-18.06-12.62l-2.84 1.35c-5.51 2.61-6.37 12.5-1.91 22.09 3.94 8.46 0 15.49-6.2 11.14-7.06-4.93-13.38-1.93-14.12 6.7l-.39 4.44C737.19 292 742.3 303 749.35 308c6.24 4.35 8.56 15.74 3.69 18.05-5.52 2.62-6.37 12.51-1.91 22.09l2.29 4.93c4.47 9.59 12.55 15.24 18.07 12.62 4.87-2.31 12.07 6.77 11.41 14.39-.74 8.63 4.37 19.61 11.42 24.54l3.63 2.54c7.06 4.92 13.38 1.93 14.12-6.7.66-7.62 8.53-6.17 12.47 2.29 4.46 9.55 12.54 15.25 18.06 12.58l2.83-1.35c5.52-2.61 6.37-12.5 1.91-22.08-3.94-8.47 0-15.5 6.21-11.15 7.05 4.93 13.38 1.93 14.12-6.7l.38-4.44c.75-8.62-4.36-19.61-11.42-24.54-6.23-4.35-8.55-15.74-3.68-18.05 5.51-2.62 6.37-12.51 1.91-22.09l-2.3-4.93c-4.46-9.58-12.54-15.23-18.06-12.62-4.87 2.31-12.07-6.77-11.42-14.39.75-8.62-4.36-19.61-11.42-24.54l-3.66-2.53c-7-4.92-13.34-1.92-14.09 6.69zm40.78 96.05c-1.85 21.4-17.54 28.85-35.05 16.62s-30.19-39.5-28.34-60.91 17.54-28.84 35-16.62 30.24 39.5 28.39 60.91z" transform="translate(-625.59 -63.81)"/><path class="cls-18" d="M812 426.29l-15.19 7.09 2.73 9.45v4.64a7.23 7.23 0 00-1.8 4.55l-.25 2.86a14.55 14.55 0 000 1.87l-3.49-6.57-10.36 4.41 10.25 30.93-5.48 6 12.52 24.76 4.93-6.6c3.55 6.32 8.12 14.43 8.12 14.43l2.4.55c1.08 2.78 7.46 19.52 7.46 19.52L837 538l-3.8-5.44.53.41 2.34 1.64a7 7 0 004.8 1.48l6.6 11.91 16.53-7.68v-.12a4.39 4.39 0 00.93-.3l1.83-.87c3.55-1.68 4.1-8.06 1.23-14.23-.18-.37-.32-.74-.45-1.09l10.38-4.92c1.72-.73 2.92-2.62 3.17-5.48l.24-2.87c.49-5.55-2.81-12.64-7.36-15.81-4-2.81-5.51-10.15-2.37-11.64 3.55-1.68 4.1-8.06 1.23-14.23l-1.48-3.18c-2.88-6.18-8.09-9.82-11.64-8.14-3.14 1.49-7.78-4.36-7.36-9.27.48-5.56-2.81-12.64-7.36-15.82l-2.34-1.63c-2.83-2-5.48-2-7.19-.35l-9.32 4.36a12.93 12.93 0 01-.62-1.17c-2.79-6-7.75-9.57-11.29-8.27l-.18.08a1 1 0 01-.16.06l-1.83.87zm30 54.22c5.08 10.87 4.11 22.05-2.16 25s-15.54-3.51-20.62-14.38-4.11-22.05 2.16-25 15.48 3.52 20.56 14.38z" transform="translate(-625.59 -63.81)"/><path class="cls-7" d="M816.09 443.16c-.42 4.91-5.49 4-8-1.47-2.88-6.18-8.09-9.82-11.64-8.14l-1.83.87c-3.56 1.69-4.11 8.06-1.23 14.24 2.54 5.45 0 10-4 7.18-4.55-3.17-8.62-1.24-9.1 4.32L780 463c-.48 5.56 2.82 12.64 7.36 15.82 4 2.8 5.52 10.14 2.38 11.63-3.56 1.69-4.11 8.06-1.23 14.24l1.48 3.18c2.87 6.18 8.08 9.82 11.64 8.13 3.14-1.49 7.78 4.36 7.35 9.27-.48 5.56 2.82 12.65 7.36 15.82l2.34 1.64c4.55 3.17 8.63 1.24 9.11-4.32.42-4.91 5.49-4 8 1.48 2.87 6.17 8.08 9.82 11.64 8.13l1.83-.87c3.55-1.68 4.1-8.06 1.23-14.23-2.54-5.46 0-10 4-7.19 4.54 3.18 8.62 1.25 9.1-4.31l.25-2.87c.48-5.55-2.82-12.64-7.36-15.81-4-2.81-5.52-10.15-2.38-11.64 3.56-1.68 4.11-8.06 1.23-14.23l-1.48-3.18c-2.87-6.18-8.08-9.82-11.64-8.14-3.14 1.49-7.78-4.36-7.36-9.27.48-5.56-2.81-12.64-7.36-15.82l-2.34-1.63c-4.5-3.16-8.58-1.23-9.06 4.33zm26.28 61.91c-1.19 13.8-11.3 18.59-22.59 10.71s-19.46-25.46-18.26-39.25 11.3-18.6 22.58-10.72 19.46 25.46 18.27 39.26z" transform="translate(-625.59 -63.81)"/><circle class="cls-11" cx="381.88" cy="484.33" r="51.54"/><circle class="cls-11" cx="1154.8" cy="644.63" r="40.3" transform="rotate(-80.78 804.54 980.388)"/><circle class="cls-11" cx="312.56" cy="501.22" r="40.3"/><circle class="cls-11" cx="1219.19" cy="679.37" r="61.17" transform="rotate(-45 829.354 1402.62)"/><path class="cls-12" d="M1060.72 386.39c-11.23-5.58-20.5-1.22-25.94 2.93-2.5 1.9-6.24-2.28-6.59-7.26-4.46-64.77 40.13-48.57 40.13-48.57z" transform="translate(-625.59 -63.81)"/><path class="cls-29" d="M1068.32 465.52s7 29.64 43.76 31 36.07-23.62 36.07-23.62z" transform="translate(-625.59 -63.81)"/><path class="cls-33" d="M1052.08 398.86c-11.22-5.58-20.49-1.22-25.94 2.93-2.5 1.9-6.24-2.28-6.58-7.26-4.47-64.77 40.12-48.57 40.12-48.57z" transform="translate(-625.59 -63.81)"/><path d="M1174.47 369.13c-3.23-37.44-29.12-80.38-44.25-104.59-4.73-7.56-11.21-14.08-18.55-16.25-7.33 2.17-13.82 8.69-18.54 16.25-15.14 24.21-41 67.15-44.26 104.59-2.79 32.33 2.18 64.72 11.55 90.29l.39 1.06c2.37 6.09 7.9 11 16.13 15.8 9.75 5.63 22.06 8.88 34.73 9.75 12.68-.87 25-4.12 34.74-9.75 8.22-4.75 13.87-9.85 16.24-15.94l.28-.92c9.36-25.57 14.34-57.96 11.54-90.29z" transform="translate(-625.59 -63.81)" fill="#f4eeff"/><ellipse cx="1086.12" cy="378.41" rx="20.02" ry="34.67" transform="rotate(-30.31 655.572 1501.376)" fill="#cabfe0"/><ellipse class="cls-11" cx="1078.82" cy="382.68" rx="20.02" ry="34.67" transform="rotate(-30.31 648.256 1505.636)"/><path class="cls-13" d="M1092.75 389.91c0 9.28-6.55 13-14.64 8.35s-14.64-16-14.64-25.25 6.56-13 14.64-8.35 14.64 15.98 14.64 25.25z" transform="translate(-625.59 -63.81)"/><path class="cls-29" d="M1160.38 319.52c-9.42-21.43-21.5-41.25-30.1-55-4.73-7.56-11.21-14.08-18.55-16.25-15.47 1.92-34.76 40.12-44.2 61.64 9.89 20.7 66.04 31.79 92.85 9.61z" transform="translate(-625.59 -63.81)"/><circle class="cls-11" cx="1147.68" cy="595.78" r="51.54" transform="matrix(.16 -.99 .99 .16 -249.84 1569.4)"/><circle class="cls-11" cx="1122.29" cy="681.24" r="51.54" transform="rotate(-45 732.47 1404.491)"/><path class="cls-2" d="M1275.64 654.3a61.14 61.14 0 01-110 25.47 51.53 51.53 0 01-93.11-1 51.53 51.53 0 0094.75 32.14 61.15 61.15 0 00108.37-56.62z" transform="translate(-625.59 -63.81)"/><circle class="cls-11" cx="954.47" cy="591.07" r="33.67" transform="rotate(-45 564.642 1314.328)"/><path class="cls-2" d="M1009.58 575.79a51.44 51.44 0 01-19.66-3.89 33.67 33.67 0 01-33.33 29c-14.17 0-31.24-9.64-36.21-22-1.56 3.88 0 9.83 0 14.27 0 18.59 17.61 32.83 36.21 32.83a33.66 33.66 0 0033.33-29 51.54 51.54 0 0069.65-60.19 51.54 51.54 0 01-49.99 38.98z" transform="translate(-625.59 -63.81)"/><circle class="cls-11" cx="1048.1" cy="688.75" r="33.67" transform="rotate(-76.72 694.942 1052.06)"/><circle class="cls-11" cx="999.66" cy="696.68" r="33.67" transform="rotate(-77.91 647.378 1051.672)"/><circle class="cls-11" cx="529.15" cy="470.61" r="28.95"/><circle class="cls-11" cx="1201.17" cy="602.3" r="28.95" transform="rotate(-80.78 850.91 938.042)"/><path d="M1149.08 471.93l-10.68-.74c-1.77 5.51-3.85 11.05-6.28 16.63 17.35-4.49 16.96-15.89 16.96-15.89z" transform="translate(-625.59 -63.81)" fill="#c456ba"/><path class="cls-2" d="M1135.13 481.74a65.85 65.85 0 0011.39-5.12c8.22-4.75 13.87-9.86 16.24-15.95l.28-.92c9.36-25.57 14.34-58 11.54-90.29-1.6-18.56-8.77-38.48-17.44-56.79-8.82-18.62-26.82-18.67-19.9 12 10.09 44.86 13.76 99.52-2.11 157.07z" transform="translate(-625.59 -63.81)"/><path class="cls-37" d="M1138.43 329.83c8.28-1.88 15.94-5.2 22.07-10.27-9-20.73-28.08-65.29-48.65-71.27l-.18.05a396.15 396.15 0 0126.76 81.49z" transform="translate(-625.59 -63.81)"/><path class="cls-12" d="M1162.92 382.68l-13.84 7.5 12.63 34.82-.19 6.48c1.16.71 2.28 1.49 3.38 2.3l13.87 38.22 13.88-7.63a3.06 3.06 0 002.1-2.11c15.48-45.26-31.83-79.58-31.83-79.58z" transform="translate(-625.59 -63.81)"/><path class="cls-12" d="M1178.16 397.14l-24.74 15.13c20.73 17 31.65 29.38 20.32 76.77l19.09-11.04.75-.45c1.13-1 1.09-1.83 1.49-3 15.48-45.27-16.91-77.41-16.91-77.41z" transform="translate(-625.59 -63.81)"/><path class="cls-33" d="M1147.68 439c12.17 7.46 20.68 20.55 25.42 29.46 2.17 4.09 6.62 4.79 7.81 1.31 15.48-45.25-31.83-79.54-31.83-79.54z" transform="translate(-625.59 -63.81)"/><path class="cls-11" d="M1101.33 259.6c-5.4 7.24-21.33 29.48-26.62 46.36a4.34 4.34 0 002.13 5.11 4.34 4.34 0 006.06-2.28c2.73-7.08 9.5-22.25 24.42-45a3.67 3.67 0 00-1.49-5.33 3.65 3.65 0 00-4.5 1.14z" transform="translate(-625.59 -63.81)"/><path class="cls-33" d="M1170.28 463.43l1.09 23.74a2 2 0 003.83.5l5.71-17.95zm-150.59-70.96l1.08 23.73a2 2 0 003.84.51l5.7-17.95z" transform="translate(-625.59 -63.81)"/><circle class="cls-11" cx="1068.96" cy="626.16" r="51.54" transform="rotate(-22.5 595.746 2166.8)"/><path class="cls-10" d="M1297 464.51s34.47-11.65 27-26.21-29.52-1-29.52-1l-11.37 19.33z" transform="translate(-625.59 -63.81)"/><path class="cls-19" d="M1300.74 412.87c-12.48 5.53-25.71 15.82-33.31 27.28-5.35 8.08-6.63 17.37-6.12 26.81.69 13 2.8 19.28 3.5 32.32.47 8.82 9.21 8.88 8.73 0-.66-12.22 4.65-44 8-50.3 3-5.54 11.63-3.32 16.34-7.35 5.18-4.44 3.57-14.1 9.82-16.86 3.42-1.52 4.16-6.46 2.47-9.43-2-3.53-6.05-4-9.43-2.47z" transform="translate(-625.59 -63.81)"/><path class="cls-19" d="M1233.55 485.46c10.1-10.85 18-19.38 29.18-29.26 2.19-1.93 6.2-8.2 6.85-8.25-1.48.12 7.08 2.31 10.43 3a41.58 41.58 0 0032.31-6.43c7.27-5 .39-16.93-7-11.9-8.89 6.08-17.67 6.49-27.73 3.51-2.82-.84-5.73-2-8.71-1.93-5.82.1-11.41 3.53-15.7 7.14-11.86 10-15.76 27.42-26.16 38.59-6 6.49.42 12.08 6.48 5.57z" transform="translate(-625.59 -63.81)"/><path class="cls-23" d="M1288.51 402.29c-17.56 19.06-32.31 29.3-31.41 35.73 0 0 4.45-1.42 13.69 3.94s6.65 8.52 8.93 12.61c.52.93 1.77 3.64 2.83 3.67 11 .34 45.5-9.76 43.84-30.36-.82-10.19-2.39-12.88-2.39-12.88s-22.65 4.06-35.49-12.71z" transform="translate(-625.59 -63.81)"/><path class="cls-16" d="M1274.12 497.2c-.95-1.83-3.45-3.82-4.78-3.43l-3.55 5.68-.53.17c-1.93 2.49-11.84 13.06-14.52 16.86-1.37 1.93 1.8 3.11 1.8 3.11 6.73 1.25 13.42-1.79 13.42-1.79 2.87-2 1-4.65 3.93-8.93.49-.72 1.66-1.47 1.86-.78l-.26 4.58 1.6-.31s1-6.55 1.82-10.95a4.85 4.85 0 00-.79-4.21z" transform="translate(-625.59 -63.81)"/><path class="cls-19" d="M1268.42 493.28l-3 2.47s-7.47 11.7-8.88 14c-1.64 2.72 8.18 7.4 14.93-8.58 4.95-8.4-3.05-7.89-3.05-7.89z" transform="translate(-625.59 -63.81)"/><path class="cls-16" d="M1238.62 482.84c-.07-2.07-1.48-4.93-2.85-5.16l-5.64 3.62-.55-.07c-2.81 1.42-16.29 6.73-20.34 9-2.06 1.16.3 3.58.3 3.58 5.54 4 12.89 4.13 12.89 4.13 3.44-.55 2.89-3.78 7.37-6.39.76-.44 2.14-.61 2 .09l-2.19 4 1.57.41s3.67-5.51 6.34-9.12a4.82 4.82 0 001.1-4.09z" transform="translate(-625.59 -63.81)"/><path class="cls-19" d="M1235.15 476.85l-3.75 1s-11.76 7.37-14 8.88c-2.64 1.75 4.23 10.19 17.18-1.36 8.02-5.56.57-8.52.57-8.52z" transform="translate(-625.59 -63.81)"/><path class="cls-23" d="M1309.75 319.59s9.36-6.41 14.78 1.78 1.83 13.76 8 18.24 15 17.75 7.86 21.83-12.11 1.91-13-4.38 0-7.37-5-11.26-12.64-26.21-12.64-26.21z" transform="translate(-625.59 -63.81)"/><ellipse class="cls-16" cx="1313.42" cy="323.71" rx="6.13" ry="5.39" transform="rotate(-82 959.524 654.304)"/><path class="cls-29" d="M1271.07 364.6c8.58-18.1 19.59-19.91 22.91-17.34S1280.85 366 1280.85 366s-5.76 22.43-13.34 18.64c-8.38-4.17-5.21-1.55 3.56-20.04z" transform="translate(-625.59 -63.81)"/><path class="cls-29" d="M1283 408.09c-1.53-12.78-.43-20.73-2.31-36.51 0-19 0-24.21 14.71-25.63l3.95 1.05a27.06 27.06 0 015.45 2.1c18.5 9.54 22.31 11.59 21.5 22.64 0 5.7-3.24-.34-4.07 3.4-1.58 7.18-1.58 25.12 1.52 37.95a6.69 6.69 0 01-2.37 6.94c-9.2 6.97-34.75-4.18-38.38-11.94z" transform="translate(-625.59 -63.81)"/><path class="cls-23" d="M1299.12 346.53s2.1 2.6 3.3 3 16-8.31 12.94-21c-1.92-8-17.12-4.18-17.12-4.18z" transform="translate(-625.59 -63.81)"/><path class="cls-19" d="M1303.91 357.44l-.64.11a4 4 0 01-4.65-3.3l-2.09-12.31a4 4 0 013.3-4.64l.64-.11a4 4 0 014.65 3.29l3.75 11.54c.37 2.18-2.77 5.05-4.96 5.42z" transform="translate(-625.59 -63.81)"/><path class="cls-19" d="M1304.11 320.6c-2.66-3.18-5.88-3.47-8.42-1.23-3-.91-6.16 1.17-7.87 5.86-2.39 6.52-1.17 15.57 2.71 20.21 2.71 3.25 6 3.48 8.57 1.1 3.76 1 8.19-1.3 10-6.1 2.34-6.52-1.1-15.19-4.99-19.84z" transform="translate(-625.59 -63.81)"/><path class="cls-23" d="M1301.23 324.89s-1.18 12.82 9 15.47c0 0 11.28-6.85 2.62-19-7.64-10.69-19.31-2.17-19.31-2.17z" transform="translate(-625.59 -63.81)"/><path class="cls-23" d="M1306.69 332.29c-2.42-3.12-12.75-2.67-20.09.36-3.69.31-3.17-3-1.17-6.65a21.7 21.7 0 0111.49-9.75l3.35-1.25c6.1-1.77 13.67 6.22 14.85 10.36l-4.1.39c1.18 4.14-.19 5.36-4.33 6.54z" transform="translate(-625.59 -63.81)"/><path class="cls-19" d="M1310.74 342.23a3.06 3.06 0 11-1.82-3.92 3.06 3.06 0 011.82 3.92z" transform="translate(-625.59 -63.81)"/><path class="cls-29" d="M688.69 312.03l11.29 24.63-12.16 7.62.87-32.25z"/><rect class="cls-19" x="1291.73" y="405.08" width="9.07" height="12.34" rx="3.94" ry="3.94" transform="rotate(93.74 1013.383 86.39)"/><path class="cls-19" d="M1299.54 414.64s26.85 3.07 29.85-15.56l-6.36-5.81s3.57 13.81-25.59 15.16z" transform="translate(-625.59 -63.81)"/><path class="cls-29" d="M1314.76 368.18l3.49 33.6 6.34 8.21s9.66-3 8.41-17.72c-1.56-18.47-8.63-30.57-8.63-30.57z" transform="translate(-625.59 -63.81)"/><path class="cls-11" d="M1290.45 339.84l6 1.19s-2.31 3.13-4 2.5-2-3.69-2-3.69z" transform="translate(-625.59 -63.81)"/><path class="cls-26" d="M1297.6 347.68a8.63 8.63 0 008.73-3.86s-3.33 6.64-8.15 7.3z" transform="translate(-625.59 -63.81)"/><path class="cls-19" d="M1253.3 348.81s2.34 38.55 15.29 34.88c0 0 4.87.63-1.44-14.21s-5.33-22.11-5.33-22.11z" transform="translate(-625.59 -63.81)"/><path class="cls-38" d="M1285.94 333.68l-17 5.79 2 6 17-5.79c1-.35 1.43-2 .86-3.65s-1.8-2.7-2.86-2.35z" transform="translate(-625.59 -63.81)"/><path class="cls-38" d="M1282.42 333.43l-24.19 8.23 2.91 8.55 24.19-8.23c1.48-.51 2-2.83 1.23-5.19s-2.66-3.87-4.14-3.36z" transform="translate(-625.59 -63.81)"/><path class="cls-16" d="M1267.41 336.56l-29.68 9.21h-.12c-2.09.71-2.73 4.41-1.42 8.26s4.08 6.39 6.17 5.68l.11-.05 29.13-10.91c2.1-.72 2.86-4 1.71-7.42s-3.8-5.48-5.9-4.77z" transform="translate(-625.59 -63.81)"/><path class="cls-23" d="M1248.32 341.36l-14.35 3.51 6.51 17.43 13.06-5.73c2.6-.88 3.55-5 2.12-9.21s-4.74-6.89-7.34-6z" transform="translate(-625.59 -63.81)"/><path class="cls-38" d="M1242.86 351.71c1.66 4.88.22 9.79-3.22 11s-7.58-1.84-9.24-6.73-.22-9.8 3.22-11 7.58 1.84 9.24 6.73z" transform="translate(-625.59 -63.81)"/><ellipse class="cls-16" cx="1236.63" cy="353.83" rx="5.03" ry="7.14" transform="rotate(-18.8 731.203 2211.375)"/><rect class="cls-19" x="1247.91" y="336.75" width="10.78" height="10.21" rx="4.13" ry="4.13" transform="rotate(177.05 941.32 301.927)"/><path class="cls-23" d="M1236.18 350.23a2 2 0 00-3.45-.64c-.89 1.21-1.21 3.3.83 6.86 3.79 6.62 4.3-.34 2.62-6.22z" transform="translate(-625.59 -63.81)"/><path class="cls-11" d="M1236.81 349.82a1.19 1.19 0 11-1.73-.61 1.31 1.31 0 011.73.61z" transform="translate(-625.59 -63.81)"/><path class="cls-29" d="M1417.75 548a1.5 1.5 0 000-3 1.5 1.5 0 000 3z" transform="translate(-625.59 -63.81)"/><path class="cls-29" d="M1417.75 548a1.5 1.5 0 000-3 1.5 1.5 0 000 3z" transform="translate(-625.59 -63.81)"/><path d="M928.63 690.74c-20.72-12.42-54.62-13-75.73-1.26s-21.44 31.3-.73 43.72 54.24 13 75.75 1.51c23.64-12.63 21.42-31.55.71-43.97z" transform="translate(-625.59 -63.81)" style="mix-blend-mode:multiply" opacity=".29" fill="#a8c4e5"/><path d="M919.25 686.45c-19.67-11.79-51.87-12.33-71.92-1.19S827 715 846.64 726.78s51.51 12.34 71.94 1.43c22.42-11.99 20.34-29.96.67-41.76z" transform="translate(-625.59 -63.81)" fill="url(#linear-gradient)"/><path class="cls-11" d="M918.56 670.9c-19.67-11.8-51.87-12.33-71.92-1.2s-20.36 29.73-.69 41.53 51.52 12.34 71.94 1.43c22.45-12 20.34-29.97.67-41.76z" transform="translate(-625.59 -63.81)"/><path class="cls-29" d="M918.56 665.84c-19.67-11.8-51.87-12.33-71.92-1.2s-20.36 29.73-.69 41.53 51.52 12.34 71.94 1.43c22.45-12 20.34-29.97.67-41.76z" transform="translate(-625.59 -63.81)"/><path d="M866.33 701.47a8.22 8.22 0 01-7.73-11.06l6.31-17.26a8.23 8.23 0 1115.46 5.66l-1.53 4.19 30.16-4.63a8.23 8.23 0 112.5 16.27l-43.91 6.74a8.86 8.86 0 01-1.26.09z" transform="translate(-625.59 -63.81)" fill="#d19b00"/><path class="cls-11" d="M866.33 697.48a8.23 8.23 0 01-7.73-11.06l6.31-17.26a8.23 8.23 0 1115.46 5.66l-1.53 4.18 30.16-4.63a8.24 8.24 0 112.5 16.28l-43.91 6.73a7.61 7.61 0 01-1.26.1z" transform="translate(-625.59 -63.81)"/><path d="M1087.14 887.59s25.7-14 19.25-30.43-33.05 22.48-33.05 22.48z" transform="translate(-625.59 -63.81)" style="mix-blend-mode:multiply" opacity=".22" fill="#2c1f9c"/><path d="M1062.05 864.14c2.26 0 47.5 16.31 47.46-21.16s-57.76 5.31-57.76 5.31z" transform="translate(-625.59 -63.81)" fill="#3b2ad1"/><path class="cls-16" d="M1010 945.28l14.85-15.08c2-1.19 6.53-1.74 9.62-1.37a3 3 0 012.57 2.7l.26 3c.53 4.31.15 4.94-2.49 6.52l-15.7 9.33c-2.64 1.57-6.7 1.8-9 .5l-.66-.37c-2.39-1.3-2.13-3.65.55-5.23z" transform="translate(-625.59 -63.81)"/><path class="cls-17" d="M1035.89 930.79c0 4.44-10.8 4.44-10.8 0v-14.43h10.8z" transform="translate(-625.59 -63.81)"/><path class="cls-16" d="M1038.47 961.23l12.86-16.81c1.84-1.43 6.26-2.54 9.37-2.56a3 3 0 012.89 2.36l.63 2.95c1.06 4.21.76 4.88-1.66 6.77l-14.42 11.21c-2.42 1.89-6.43 2.62-8.89 1.62l-.7-.29c-2.47-1-2.5-3.37-.08-5.25z" transform="translate(-625.59 -63.81)"/><path class="cls-17" d="M1062.4 943.63c.55 4.4-10.17 5.75-10.72 1.34l-1.79-14.33 10.72-1.34z" transform="translate(-625.59 -63.81)"/><path class="cls-18" d="M1059.93 830s-33.45 17.12-34.84 26c-1.23 7.82-2.58 54.13-1.79 65a4.34 4.34 0 002.44 3.62c3.31 1.58 9.29 3.31 11.29-3.44 2.82-9.52 1.85-42.06 8.59-51.37s40.21-22.45 40.21-22.45z" transform="translate(-625.59 -63.81)"/><path class="cls-18" d="M1082.37 845.48s-37.42 18.66-38.51 27.14c-1 7.4 3.65 49.58 4.85 60.19a4.39 4.39 0 002.78 3.61c3.4 1.35 9.27 2.59 11-3.75 2.51-9.11.44-39.88 6.88-48.94 3.5-4.91 12.48-10.46 27.83-17.7 7-3.31 12-17.1 3.51-18.2z" transform="translate(-625.59 -63.81)"/><path class="cls-19" d="M1049.92 778l-7.14 27.36c-.61 3.25-1.72 8-2.52 13.57a32.6 32.6 0 006.54 24.55s2.54-13.39 5-19.7a214.29 214.29 0 008-24.55c.07-.72-9.88-21.23-9.88-21.23z" transform="translate(-625.59 -63.81)"/><path class="cls-29" d="M1060.5 759.41l-16.78 28.84c2.29 9.16 7.26 13.83 13.53 16.29l5.34-35.63z" transform="translate(-625.59 -63.81)"/><path class="cls-44" d="M1047.53 784.76s2.7 8 17.76 13.12" transform="translate(-625.59 -63.81)"/><path class="cls-29" d="M1055.46 828.62c2.59-14.19 2-22.85-.32-42.44 0-27.11 8.26-37.2 25.34-31l7.06 1.88c20.62 11.11 31.1 10.55 27.41 32.37l-3.61 47.84c0 24.66-57.19 20.3-55.88-8.65z" transform="translate(-625.59 -63.81)"/><path class="cls-16" d="M1077.81 755.41s2.7 2.49 4.06 2.78 16-11.56 10.72-24.85c-3.36-8.41-19.26-1.82-19.26-1.82z" transform="translate(-625.59 -63.81)"/><path class="cls-19" d="M1082.65 767l-.82.14a5.12 5.12 0 01-5.89-4.18l-2.65-15.61a5.12 5.12 0 014.18-5.89l.82-.14a5.12 5.12 0 015.89 4.18l4.75 14.63c.47 2.78-3.51 6.41-6.28 6.87z" transform="translate(-625.59 -63.81)"/><path class="cls-26" d="M1075.08 757.87a14 14 0 0011.08-6.28s-4.22 9.81-10.34 10.65z" transform="translate(-625.59 -63.81)"/><path class="cls-19" d="M1080.1 750.11c-1.55 7.46-6.83 9.92-11.79 5.49s-7.71-14.06-6.15-21.52 6.83-9.92 11.79-5.49 7.71 14.06 6.15 21.52z" transform="translate(-625.59 -63.81)"/><path class="cls-19" d="M1087.63 747.22c-1.56 7.46-9.19 10.68-14.15 6.25s-7.71-14.06-6.15-21.52 6.83-9.91 11.79-5.48 10.06 13.29 8.51 20.75z" transform="translate(-625.59 -63.81)"/><path class="cls-16" d="M1076.66 731.59s.76 14.1 12.25 15.36c0 0 11.17-9.24-.17-21-10-10.4-21.31.71-21.31.71z" transform="translate(-625.59 -63.81)"/><path class="cls-27" d="M1061.74 737.63s2.82-5.52 10.52-6.33l-4.83-4.67s-6.05-.03-5.69 11z" transform="translate(-625.59 -63.81)"/><path class="cls-16" d="M1083.77 738.75c-3.12-3-8.7-1.81-16.18 2.65-7.32 1.71-9.77-6.58-9.77-6.58-1.94-4.31.7-6.85 5-8.78l11.22-5c6.35-2.89 13.71 1.48 15.64 5.79l.44.69c1.94 4.27-2.04 9.29-6.35 11.23z" transform="translate(-625.59 -63.81)"/><path class="cls-19" d="M1089.74 748.9a3.36 3.36 0 11-2.6-4 3.36 3.36 0 012.6 4z" transform="translate(-625.59 -63.81)"/><path class="cls-11" d="M1075.08 757.87s-5.67 7.92 2.32 11.32c12.66 5.38 16.6-9 14.62-9.78l-4-2.06a5.39 5.39 0 01-1.27 7.33c-3 2.51-8.33 3-10.63-.88z" transform="translate(-625.59 -63.81)"/><path class="cls-37" d="M471.04 722.37v46.45l8.57-5.04-8.57-41.41z"/><path class="cls-24" d="M1087.4 850.67l-4-1.4-.46-.46-.3-.53-29.85-15.52a1.5 1.5 0 00-1.32 0l-11.4 6.68v-.18l-2.15.85.1.89a.43.43 0 00.23.23l31.06 16.15a.19.19 0 01.09.12c.65 2.38 1.73 4.51 3.76 3.27l12.62-7.43a3 3 0 001.59-2.72z" transform="translate(-625.59 -63.81)"/><path class="cls-25" d="M1070.62 859.9l-35.77-18.6c-.42-.21-.41-.59 0-.84l15.21-8.91a1.77 1.77 0 011.52-.07l35.77 18.6c.41.22.4.6 0 .85l-15.2 8.91a1.73 1.73 0 01-1.53.06z" transform="translate(-625.59 -63.81)"/><path class="cls-24" d="M1071.62 847.92l-8.66-4.5c-.1 0-.1-.14 0-.2l3.67-2.16a.44.44 0 01.37 0l8.66 4.51c.1.05.1.14 0 .2l-3.68 2.16a.44.44 0 01-.36-.01z" transform="translate(-625.59 -63.81)"/><path class="cls-11" d="M1067.48 839a4.06 4.06 0 00-1.8-2.24l-35.48-18.18a.92.92 0 00-.76-.11.4.4 0 00-.16.13l-1 1.11 1-.09 5.32 19.66a4.06 4.06 0 001.8 2.24l33.6 17.16 1.14 1.1.16.27c.66.13 2.08-.91 2.08-.91z" transform="translate(-625.59 -63.81)"/><path d="M1070.83 860.85s-37-19.57-37.28-20.42l-5.38-19.87c-.23-.85.21-1.22 1-.83l35.48 18.18a4.08 4.08 0 011.8 2.25l5.35 19.84c.2.88-.2 1.25-.97.85z" transform="translate(-625.59 -63.81)" fill="#9ec2ff"/><path class="cls-11" d="M1050.94 841.61c.28 1.06-.7 1.3-2.19.53a6.72 6.72 0 01-3.21-3.29c-.29-1.06.69-1.29 2.18-.53a6.79 6.79 0 013.22 3.29z" transform="translate(-625.59 -63.81)"/><path class="cls-19" d="M1098 786.18l4.7 41.63c.18 2.23-34 13.2-34 13.2l2.88 12.06 35-9c9.25-3.88 9-11 8.91-16.77l-.65-36.07z" transform="translate(-625.59 -63.81)"/><path class="cls-29" d="M1097 790.74l3 30.83c.87 2.55 23.9-2.71 23-6.52-.16-.68-2.53-37.62-12.87-46.06-8.45-6.86-15.13 7.53-13.13 21.75z" transform="translate(-625.59 -63.81)"/><path class="cls-44" d="M1099.88 813.4s9.54 2.48 21.37-6.21" transform="translate(-625.59 -63.81)"/><circle class="cls-11" cx="893.59" cy="597.38" r="33.67" transform="rotate(-45 503.764 1320.634)"/><path class="cls-33" d="M978.31 437.17c7.14 4.4 13.8 13.83 17.07 23.36l6.34-7c-5.93-12.68-15.08-24.28-24.76-30.25s-17.61-4.9-21.68 1.61l8.6 16.25c1.73-6.48 7.29-8.37 14.43-3.97z" transform="translate(-625.59 -63.81)"/><path class="cls-33" d="M940.32 396.57l8.13 15.36c5.69-6.93 15.53-7.61 27.38-.3s23.09 21 30.94 36.26l6-6.65q-1.56-2.83-3.23-5.6c-9.67-16.05-22.07-29.94-35-37.94-14.54-8.92-26.69-8.7-34.22-1.13zm35.55 67.16l.42.63c.24.34.48.66.74 1s.45.57.69.85l.66.74c.31.33.63.63 1 .92s.36.35.54.5a14.72 14.72 0 001.57 1.16 9.5 9.5 0 001.54.76 4.91 4.91 0 00.51.15 6 6 0 00.87.2 4.09 4.09 0 00.6 0 3.94 3.94 0 00.6-.05 3.22 3.22 0 00.63-.15 2.11 2.11 0 00.34-.16 4.47 4.47 0 002.18-3.63 8.82 8.82 0 00.1-1.08 12.15 12.15 0 000-1.58 16.66 16.66 0 00-.38-2.26c-1.25-5.35-5-11.09-9-13.59s-7.06-.91-7.37 3.48a13 13 0 000 2.05 13.73 13.73 0 00.29 1.74c.09.45.21.9.33 1.35a24.55 24.55 0 001 2.79 26.35 26.35 0 002.14 4.18z" transform="translate(-625.59 -63.81)"/><path stroke="#22009c" stroke-width="6.4" fill="none" stroke-linecap="round" stroke-linejoin="round" d="M555.52 742.35l2.67-163.97"/><path class="cls-29" d="M1186.82 644.63s9.41-4.3 21.57 8.5 16.84 37.72 51.51 32.89l1.3 52.17S1225 740.4 1214 719s-28.13-22.47-28.13-22.47z" transform="translate(-625.59 -63.81)"/><path class="cls-11" d="M1085.23 210.54a5.09 5.09 0 11-5.08-5.08 5.09 5.09 0 015.08 5.08zm121.03 83.37a5.09 5.09 0 11-5.09-5.08 5.09 5.09 0 015.09 5.08z" transform="translate(-625.59 -63.81)"/><circle class="cls-11" cx="558.1" cy="2.95" r="2.95"/><path class="cls-11" d="M1368.27 352.08a3 3 0 11-3-2.95 2.95 2.95 0 013 2.95zm110.73-57a3 3 0 11-3-3 2.95 2.95 0 013 3zm-331.31-87.98a3 3 0 11-3-2.95 2.95 2.95 0 013 2.95z" transform="translate(-625.59 -63.81)"/><circle class="cls-11" cx="506.52" cy="51.87" r="2.95"/><circle class="cls-11" cx="788.91" cy="236.1" r="2.95"/></g></g></svg>