<svg xmlns="http://www.w3.org/2000/svg" xmlns:xlink="http://www.w3.org/1999/xlink" viewBox="0 0 853.38 903.4"><defs><style>.cls-1{isolation:isolate;}.cls-2{fill:#d9e9ff;}.cls-3{fill:#bad4f5;}.cls-4{fill:#e5f2ff;}.cls-5{fill:#1026bf;}.cls-10,.cls-6{fill:#22009c;}.cls-7{fill:#1d76ef;}.cls-8{fill:#c9d5f5;}.cls-9{fill:#94a6eb;}.cls-10{opacity:0.31;}.cls-10,.cls-15,.cls-39,.cls-42{mix-blend-mode:multiply;}.cls-11{fill:#fff;}.cls-12{fill:#004da2;}.cls-13{fill:#ff7443;}.cls-14{fill:#ffe18c;}.cls-15,.cls-24,.cls-39{fill:#a8c4e5;}.cls-15{opacity:0.4;}.cls-16,.cls-42{fill:#2c1f9c;}.cls-17{fill:#c6d2f2;}.cls-18{fill:#1764ce;}.cls-19{fill:#ffc2b0;}.cls-20{fill:#91accc;}.cls-21{fill:#9ebbde;}.cls-22{fill:#6f9ed9;}.cls-23{fill:#4852db;}.cls-25{fill:#e1eaf4;}.cls-26{fill:#f09a82;}.cls-27{fill:#21ded5;}.cls-28{fill:#ffe33a;}.cls-29{fill:#ffc33a;}.cls-30{fill:#ff913a;}.cls-31{fill:#1d96ef;}.cls-32{fill:#1d4fe8;}.cls-33{fill:#0096ff;}.cls-34{fill:#f4eeff;}.cls-35{fill:#cabfe0;}.cls-36{fill:#c456ba;}.cls-37{fill:#ffa23a;}.cls-38{fill:#add5f7;}.cls-39{opacity:0.29;}.cls-40{fill:url(#linear-gradient);}.cls-41{fill:#d19b00;}.cls-42{opacity:0.22;}.cls-43{fill:#3b2ad1;}.cls-44,.cls-46{fill:none;stroke-linecap:round;stroke-linejoin:round;}.cls-44{stroke:#fff;stroke-width:3.83px;}.cls-45{fill:#9ec2ff;}.cls-46{stroke:#22009c;stroke-width:6.4px;}</style><linearGradient id="linear-gradient" x1="832.08" y1="706.64" x2="934.71" y2="706.64" gradientUnits="userSpaceOnUse"><stop offset="0" stop-color="#deb949"/><stop offset="0" stop-color="#deb849"/><stop offset="0.03" stop-color="#dea749"/><stop offset="0.06" stop-color="#de9c49"/><stop offset="0.11" stop-color="#de9549"/><stop offset="0.24" stop-color="#de9349"/><stop offset="0.84" stop-color="#bd732b"/></linearGradient></defs><title>6</title><g class="cls-1"><g id="image"><path class="cls-2" d="M1105.92,954.64,763.18,756.76c-4-2.29-3.46-6.33,1.12-9L928.54,653c4.58-2.64,11.57-2.93,15.54-.64L1286.81,850.2c4,2.29,3.47,6.33-1.11,9L1121.46,954C1116.88,956.64,1109.89,956.93,1105.92,954.64Z" transform="translate(-625.59 -63.81)"/><path class="cls-3" d="M1349.55,468.38h0v0a.31.31,0,0,0,0-.1,3,3,0,0,0,0-.42c0-.12,0-.23,0-.34v-.09a2.9,2.9,0,0,0-.06-.41c0-.14,0-.27-.07-.41s0,0,0-.06v-.06a2.86,2.86,0,0,0-.07-.28c0-.14-.06-.28-.1-.41a1.33,1.33,0,0,0-.05-.19l0-.09a.93.93,0,0,0,0-.13l-.12-.41c0-.12-.09-.25-.13-.38v0h0l-.15-.41c0-.14-.1-.27-.16-.41s0-.07,0-.11l0-.07-.09-.22-.17-.39c0-.1-.1-.2-.14-.3l0,0,0,0c-.06-.13-.13-.25-.19-.37s-.12-.24-.19-.36a1.09,1.09,0,0,0-.08-.15l0-.06-.08-.14-.21-.37-.22-.36,0,0,0-.06-.24-.38-.24-.35-.16-.23-.07-.11-.42-.56-.13-.18,0,0-.55-.69L1345,458l-.07-.09-.2-.23-.34-.38-.13-.13-.07-.08L1344,457l-.34-.34-.26-.25-.05-.05,0,0L1343,456l-.38-.34h0l-.38-.32-.41-.31,0,0,0,0-.3-.21-.4-.28-.12-.08,0,0h0l-.23-.15-.41-.25-9.61-5.55,0,0-386-223h0l-.58-.34h0l-1-.6-.41-.21-.4-.2-.41-.18-.42-.16a2.86,2.86,0,0,0-.41-.15l-.44-.14h-.07l-.37-.1-.19,0-.16,0-.12,0-.45-.06h0l-.52,0h-.64l-.37,0-.2,0h0a5,5,0,0,0-.69.17h0l-.07,0a4.36,4.36,0,0,0-.82.37s-16,10.77-15.71,10.67c.11,0,394.64,223.67,394.64,223.67l-.36.22s10.06,5.34,10.19,5.42l.41.27.4.27.4.3.17.13q.32.24.63.51h0c.22.18.42.36.63.55l.07.07c.2.18.39.37.58.56a.3.3,0,0,1,.08.08q.29.28.54.57l.1.11.51.59.26.31.3.38c.12.15.23.31.34.46l.22.3.18.26.32.48.08.12c.14.22.28.44.41.67l0,0,.4.71,0,.07c.12.24.24.47.35.7l0,.09c.11.23.21.46.31.69l.05.11.27.69,0,.11c.08.23.16.46.23.69l0,.1c.07.23.14.46.19.69l0,.1c0,.23.11.46.15.69l.06.35a2.9,2.9,0,0,1,.06.41c0,.14,0,.28,0,.42l0,.43c0,.15,0,.3,0,.45s0,.24,0,.35,0,.23,0,.63l-.94,35-6.11,3.29.35.2-6.71,3.61,3,1.74.41.26.4.28.4.3a1.09,1.09,0,0,1,.17.13c.21.16.43.33.63.51h0l.62.55.07.07.58.55.08.09.55.57.09.1c.17.2.35.39.51.59l.26.32c.1.12.21.25.3.38s.23.3.34.46l.22.29.18.27c.11.16.22.31.32.47l.08.13c.14.22.28.44.41.66l0,.06c.14.23.27.47.4.71l0,.07c.12.23.24.47.35.7l0,.09c.11.23.21.46.31.69l0,.11.27.69a.42.42,0,0,0,0,.1c.08.23.16.47.23.7l0,.1c.07.23.14.46.2.69l0,.09c.06.24.11.47.15.7s0,.23.06.35a1.87,1.87,0,0,1,0,.25l-4.79,179c0,1.12-3.42,8.16-2.51,7.63l2.53-2.31-1.45,54.08c0,1.12-3.42,8.15-2.51,7.62l3.44-4.46c-.62,1.55-.54,4.73-.13,4.49l12.23-9c2-1.79,3.88-3.6,4-6.46l5.51-235.57c0-1.12.08-2.81.08-2.81v-.35c0-.1,0-.2,0-.3v-.06a.28.28,0,0,0,0-.09,3.11,3.11,0,0,0,0-.43l0-.34v-.08l0-.16,1.47-54.78c0-1.12.07-2.81.07-2.81s0-.23,0-.35S1349.55,468.48,1349.55,468.38Z" transform="translate(-625.59 -63.81)"/><path class="cls-4" d="M1324.59,523.77c5.39,3.11,9.64,9.91,9.5,15.19l-6.41,239.39c-.13,5.28-4.62,7-10,3.92l-397-229.33c-5.39-3.11-9.64-9.91-9.5-15.19l6.4-239.4c.14-5.27,4.62-7,10-3.92Z" transform="translate(-625.59 -63.81)"/><path class="cls-5" d="M1324.87,495.85c5.39,3.12,9.11,0,9,5.33l-5.4,249.34c-.14,5.28-5.09,7-10.48,3.84L920.94,525c-5.39-3.11-9.64-9.91-9.5-15.18l6.4-239.4c.14-5.28,4.62-7,10-3.92Z" transform="translate(-625.59 -63.81)"/><path class="cls-6" d="M1324.87,464.37c5.39,3.11,9.64,9.91,9.5,15.19L1328.43,719c-.14,5.29-5.09,7-10.48,3.84l-397-229.33c-5.39-3.12-9.3,8.64-9.16,3.36L917.84,239c.14-5.28,4.62-7,10-3.92Z" transform="translate(-625.59 -63.81)"/><path class="cls-7" d="M1324.16,493.48c.18-4.43-3.82-10.36-8.92-13.26L939.17,266.49c-5.1-2.9-9.37-1.66-9.55,2.76l-1.14,29a5.92,5.92,0,0,0-.29,1.59L923,500.94c-.18,4.43,5.59,12.55,10.7,15.45l371.54,211.15c5.1,2.9,9.38,1.67,9.55-2.76l1.14-29a5.84,5.84,0,0,0,.29-1.59Z" transform="translate(-625.59 -63.81)"/><path class="cls-5" d="M1319.45,798.52l-.11-15.73-15.26,9.77-3.27-7.54L918.29,564.17c-4.6-2.66-13.76-2.32-19.08.75L733.5,660v-2.65l-25.17,12.23-3.54-1.43.48,11.62a5.38,5.38,0,0,0,2.92,4.48l398.06,230.42c4.6,2.66,12.73,2.63,18-.44l190.74-110c2.91-1.67,4.39-3.75,4.4-5.8Z" transform="translate(-625.59 -63.81)"/><path class="cls-8" d="M1106,899.22,708,669.4c-4.6-2.66-4-7.35,1.3-10.42L900,548.86c5.32-3.07,13.44-3.41,18.05-.75l398,229.81c4.6,2.66,4,7.35-1.3,10.42L1124.08,898.47C1118.76,901.54,1110.64,901.88,1106,899.22Z" transform="translate(-625.59 -63.81)"/><path class="cls-9" d="M923.87,590.69a3.07,3.07,0,0,1-2.63-.31l-24.17-13.94c-.87-.51-1.11-1.19-.53-1.52l16-9.25a3,3,0,0,1,2.63.31l24.16,13.94c.88.5,1.12,1.18.53,1.52Z" transform="translate(-625.59 -63.81)"/><path class="cls-9" d="M951.9,632.33a3.07,3.07,0,0,1-2.64-.31L925.1,618.08c-.87-.5-1.1-1.18-.52-1.52l16-9.25a3,3,0,0,1,2.61.31l24.16,13.94c.89.51,1.11,1.19.55,1.52Z" transform="translate(-625.59 -63.81)"/><path class="cls-9" d="M937.73,649.61a3,3,0,0,1-2.62-.3l-24.17-13.95c-.86-.5-1.12-1.18-.54-1.52l16-9.25a3.09,3.09,0,0,1,2.62.31l24.17,14c.86.5,1.1,1.18.54,1.51Z" transform="translate(-625.59 -63.81)"/><path class="cls-9" d="M899.38,653a3,3,0,0,1-2.61-.3L872.6,638.7c-.86-.5-1.1-1.18-.53-1.51l16-9.25a3.06,3.06,0,0,1,2.63.3l24.17,14c.86.5,1.09,1.18.52,1.51Z" transform="translate(-625.59 -63.81)"/><path class="cls-9" d="M832.88,643.25a3,3,0,0,1-2.63-.31L806.09,629c-.87-.51-1.11-1.19-.54-1.52l18.81-10.86a3,3,0,0,1,2.62.31l24.17,13.94c.87.51,1.1,1.19.53,1.52Z" transform="translate(-625.59 -63.81)"/><path class="cls-9" d="M874.55,667.29c-.58.34-2,.07-3.12-.59l-31.66-18.27c-1.14-.66-1.6-1.47-1-1.8l18.8-10.86c.56-.33,2-.07,3.11.59l31.66,18.27c1.15.66,1.59,1.47,1,1.8Z" transform="translate(-625.59 -63.81)"/><path class="cls-9" d="M1082.55,787.5a3,3,0,0,1-2.45-.41L1056,773.16c-.88-.51-1.21-1.15-.73-1.43l7-4a3,3,0,0,1,2.47.41l24.15,13.94c.87.5,1.18,1.14.71,1.41Z" transform="translate(-625.59 -63.81)"/><path class="cls-9" d="M1114.84,806.62a3,3,0,0,1-2.45-.41l-24.15-13.94c-.88-.51-1.21-1.14-.73-1.42l7-4a3,3,0,0,1,2.47.42l24.15,13.94c.87.5,1.18,1.14.71,1.41Z" transform="translate(-625.59 -63.81)"/><path class="cls-9" d="M1149.07,825.92a3,3,0,0,1-2.43-.43l-24.15-13.94c-.87-.5-1.22-1.13-.75-1.4l6.69-3.87a3.07,3.07,0,0,1,2.43.44L1155,820.66c.87.5,1.2,1.13.74,1.4Z" transform="translate(-625.59 -63.81)"/><path class="cls-9" d="M1128,799.25a3,3,0,0,1-2.42-.43l-24.15-13.94c-.87-.5-1.22-1.14-.76-1.4l6.7-3.87a3,3,0,0,1,2.43.43L1134,794c.87.5,1.21,1.13.75,1.4Z" transform="translate(-625.59 -63.81)"/><path class="cls-9" d="M1040.78,763.21a3.07,3.07,0,0,1-2.64-.32L880.89,672.14c-.86-.49-1.12-1.18-.54-1.51l18.8-10.86a3.08,3.08,0,0,1,2.63.31L1059,750.83c.88.5,1.12,1.19.55,1.52Z" transform="translate(-625.59 -63.81)"/><path class="cls-9" d="M870.23,661.3s-.14,0-.25-.07l-18.47-10.66c-.1-.06-.16-.13-.12-.15l1.17-.67a.37.37,0,0,1,.25.07l18.47,10.66c.1.06.16.12.12.14Z" transform="translate(-625.59 -63.81)"/><path class="cls-9" d="M822.87,631.93a.17.17,0,0,1-.14,0l-7.85-4.53s0-.06,0-.08l1.17-.68a.17.17,0,0,1,.14,0l7.84,4.53c.05,0,.05.06,0,.08Z" transform="translate(-625.59 -63.81)"/><path class="cls-9" d="M932.51,672.05a3,3,0,0,1-2.63-.31L905.72,657.8c-.86-.5-1.11-1.19-.54-1.52l16-9.25a3.07,3.07,0,0,1,2.63.31L948,661.28c.88.51,1.11,1.19.53,1.52Z" transform="translate(-625.59 -63.81)"/><path class="cls-9" d="M965.78,691.25a3.06,3.06,0,0,1-2.61-.3L939,677c-.86-.5-1.11-1.19-.54-1.52l16-9.25a3,3,0,0,1,2.63.3l24.16,14c.86.49,1.1,1.18.53,1.51Z" transform="translate(-625.59 -63.81)"/><path class="cls-9" d="M999.06,710.45a3,3,0,0,1-2.62-.3L972.27,696.2c-.86-.49-1.1-1.18-.52-1.51l16-9.25a3.08,3.08,0,0,1,2.62.3l24.17,14c.86.5,1.1,1.18.52,1.51Z" transform="translate(-625.59 -63.81)"/><path class="cls-9" d="M1032.33,729.66a3,3,0,0,1-2.61-.31l-24.17-13.94c-.88-.51-1.11-1.19-.54-1.52l16-9.25a3.06,3.06,0,0,1,2.64.31l24.16,13.94c.87.5,1.1,1.19.53,1.52Z" transform="translate(-625.59 -63.81)"/><path class="cls-9" d="M1065.61,748.86a3.08,3.08,0,0,1-2.63-.31l-24.16-13.94c-.87-.5-1.1-1.18-.53-1.51l16-9.26a3.07,3.07,0,0,1,2.63.31l24.15,13.94c.88.5,1.12,1.19.55,1.52Z" transform="translate(-625.59 -63.81)"/><path class="cls-9" d="M1098.89,768.05a3.05,3.05,0,0,1-2.62-.31l-24.16-13.94c-.87-.5-1.11-1.19-.54-1.52l16-9.25a3.1,3.1,0,0,1,2.64.31l24.16,13.94c.86.5,1.1,1.19.52,1.52Z" transform="translate(-625.59 -63.81)"/><path class="cls-9" d="M1173.84,811.3a3,3,0,0,1-2.62-.3l-65.84-38c-.87-.5-1.11-1.18-.54-1.51l16-9.25a3,3,0,0,1,2.63.3l65.83,38c.87.51,1.11,1.19.53,1.52Z" transform="translate(-625.59 -63.81)"/><path class="cls-9" d="M970.84,668.71a3,3,0,0,1-2.61-.3l-24.17-13.95c-.87-.5-1.11-1.18-.53-1.51l16-9.26a3.07,3.07,0,0,1,2.61.31l24.17,14c.87.5,1.1,1.18.53,1.51Z" transform="translate(-625.59 -63.81)"/><path class="cls-9" d="M1004.12,687.91a3,3,0,0,1-2.61-.3l-24.18-14c-.86-.5-1.1-1.17-.52-1.51l16-9.25a3.06,3.06,0,0,1,2.61.3l24.18,13.95c.86.5,1.1,1.18.53,1.51Z" transform="translate(-625.59 -63.81)"/><path class="cls-9" d="M1037.4,707.12a3.05,3.05,0,0,1-2.62-.31l-24.17-13.95c-.85-.49-1.12-1.18-.54-1.51l16-9.26a3.09,3.09,0,0,1,2.62.32l24.17,13.94c.86.5,1.1,1.19.54,1.51Z" transform="translate(-625.59 -63.81)"/><path class="cls-9" d="M1070.67,726.32a3.05,3.05,0,0,1-2.62-.31l-24.16-13.94c-.87-.51-1.12-1.18-.54-1.52l16-9.25a3.06,3.06,0,0,1,2.62.31l24.16,13.94c.87.5,1.1,1.19.54,1.51Z" transform="translate(-625.59 -63.81)"/><path class="cls-9" d="M1104,745.51a3,3,0,0,1-2.62-.31l-24.18-14c-.87-.5-1.1-1.17-.52-1.51l16-9.25a3,3,0,0,1,2.61.31l24.18,14c.86.5,1.1,1.18.53,1.51Z" transform="translate(-625.59 -63.81)"/><path class="cls-9" d="M1137.22,764.71a3,3,0,0,1-2.61-.31l-24.16-13.94c-.88-.5-1.12-1.18-.54-1.52l16-9.25a3.05,3.05,0,0,1,2.63.32L1152.71,754c.86.5,1.1,1.18.53,1.5Z" transform="translate(-625.59 -63.81)"/><path class="cls-9" d="M1170.5,783.91a3.05,3.05,0,0,1-2.62-.31l-24.17-14c-.87-.49-1.1-1.17-.52-1.5l16-9.25a3,3,0,0,1,2.61.3L1186,773.15c.86.5,1.1,1.18.53,1.51Z" transform="translate(-625.59 -63.81)"/><path class="cls-9" d="M985,651.42a3,3,0,0,1-2.63-.3l-24.17-13.94c-.86-.5-1.09-1.18-.51-1.52l16-9.25a3,3,0,0,1,2.6.31l24.17,13.94c.87.5,1.1,1.18.54,1.51Z" transform="translate(-625.59 -63.81)"/><path class="cls-9" d="M1018.29,670.62a3,3,0,0,1-2.62-.29l-24.17-14c-.87-.5-1.11-1.18-.52-1.52l16-9.25a3.06,3.06,0,0,1,2.62.31l24.16,13.94c.86.5,1.1,1.18.53,1.51Z" transform="translate(-625.59 -63.81)"/><path class="cls-9" d="M1051.57,689.83a3.06,3.06,0,0,1-2.64-.31l-24.16-13.94c-.86-.5-1.1-1.18-.52-1.52l16-9.25a3,3,0,0,1,2.61.31L1067,679.06c.88.51,1.11,1.19.54,1.52Z" transform="translate(-625.59 -63.81)"/><path class="cls-9" d="M1084.84,709a3.06,3.06,0,0,1-2.63-.3l-24.17-14c-.87-.5-1.1-1.18-.52-1.52l16-9.25a3.06,3.06,0,0,1,2.62.31l24.17,13.95c.87.5,1.1,1.18.53,1.5Z" transform="translate(-625.59 -63.81)"/><path class="cls-9" d="M1118.12,728.22a3,3,0,0,1-2.62-.3L1091.33,714c-.87-.51-1.1-1.18-.52-1.52l16-9.25a3,3,0,0,1,2.61.31l24.17,13.94c.86.5,1.09,1.18.52,1.51Z" transform="translate(-625.59 -63.81)"/><path class="cls-9" d="M1151.4,747.42a3.06,3.06,0,0,1-2.64-.3l-24.16-14c-.86-.49-1.1-1.18-.52-1.51l16-9.25a3.08,3.08,0,0,1,2.62.3l24.16,13.95c.88.5,1.11,1.18.55,1.51Z" transform="translate(-625.59 -63.81)"/><path class="cls-9" d="M1184.67,766.62a3,3,0,0,1-2.63-.3l-24.16-13.94c-.87-.51-1.11-1.18-.53-1.52l16-9.25a3,3,0,0,1,2.61.31l24.17,13.94c.87.5,1.1,1.18.53,1.51Z" transform="translate(-625.59 -63.81)"/><path class="cls-9" d="M918.63,613.13a3.06,3.06,0,0,1-2.64-.31l-41-23.64c-.87-.51-1.11-1.19-.53-1.52l16-9.26a3.06,3.06,0,0,1,2.62.32l41,23.64c.87.5,1.11,1.19.54,1.51Z" transform="translate(-625.59 -63.81)"/><path class="cls-9" d="M1240,773.09a3.07,3.07,0,0,1-2.63-.31l-41-23.64c-.86-.5-1.11-1.19-.53-1.52l16-9.25a3,3,0,0,1,2.62.31l41,23.64c.87.5,1.11,1.18.53,1.52Z" transform="translate(-625.59 -63.81)"/><path class="cls-9" d="M904.45,630.41a3,3,0,0,1-2.63-.31L853,601.91c-.87-.5-1.12-1.18-.54-1.51l16-9.26a3.1,3.1,0,0,1,2.62.31l48.84,28.19c.88.51,1.11,1.19.54,1.52Z" transform="translate(-625.59 -63.81)"/><path class="cls-9" d="M866.12,633.75a3.07,3.07,0,0,1-2.63-.3l-32.57-18.8c-.87-.5-1.1-1.19-.53-1.52l16-9.25a3.07,3.07,0,0,1,2.63.31L881.6,623c.87.51,1.11,1.19.53,1.52Z" transform="translate(-625.59 -63.81)"/><path class="cls-9" d="M957.13,609.89a3,3,0,0,1-2.63-.31l-24.15-13.94c-.87-.5-1.11-1.18-.53-1.52l16-9.25a3.07,3.07,0,0,1,2.63.31l24.15,13.94c.88.51,1.11,1.18.53,1.52Z" transform="translate(-625.59 -63.81)"/><path class="cls-9" d="M990.26,629a3.07,3.07,0,0,1-2.63-.31l-24.17-13.95c-.86-.49-1.1-1.18-.53-1.51l16-9.25a3.06,3.06,0,0,1,2.63.3l24.17,14c.87.5,1.11,1.18.53,1.52Z" transform="translate(-625.59 -63.81)"/><path class="cls-9" d="M1023.52,648.18a3,3,0,0,1-2.62-.3l-24.16-13.94c-.87-.5-1.1-1.18-.53-1.52l16-9.25a3.05,3.05,0,0,1,2.62.31L1039,637.42c.87.51,1.1,1.18.52,1.51Z" transform="translate(-625.59 -63.81)"/><path class="cls-9" d="M1056.81,667.39a3.07,3.07,0,0,1-2.63-.31L1030,653.15c-.88-.51-1.11-1.19-.54-1.52l16-9.25a3,3,0,0,1,2.63.31l24.15,13.93c.87.51,1.12,1.19.54,1.52Z" transform="translate(-625.59 -63.81)"/><path class="cls-9" d="M1090.07,686.59a3,3,0,0,1-2.62-.3l-24.16-13.95c-.87-.5-1.11-1.18-.53-1.52l16-9.24a3,3,0,0,1,2.63.3l24.16,14c.88.5,1.1,1.17.52,1.51Z" transform="translate(-625.59 -63.81)"/><path class="cls-9" d="M1123.36,705.78a3,3,0,0,1-2.62-.3l-24.17-14c-.87-.5-1.1-1.18-.52-1.51l16-9.25a3,3,0,0,1,2.61.3L1138.85,695c.86.5,1.1,1.18.52,1.51Z" transform="translate(-625.59 -63.81)"/><path class="cls-9" d="M1156.64,725a3,3,0,0,1-2.63-.3l-24.16-13.95c-.88-.5-1.12-1.18-.54-1.52l16-9.24a3,3,0,0,1,2.63.3l24.17,14c.87.5,1.11,1.18.53,1.52Z" transform="translate(-625.59 -63.81)"/><path class="cls-9" d="M1189.9,744.18a3,3,0,0,1-2.61-.3l-24.18-14c-.86-.5-1.1-1.18-.52-1.51l16-9.25a3,3,0,0,1,2.61.3l24.18,13.95c.87.5,1.1,1.18.52,1.51Z" transform="translate(-625.59 -63.81)"/><path class="cls-9" d="M1209.25,761.11a3.72,3.72,0,0,0-1.41-.46,2,2,0,0,0-1.19.16l-16,9.25a.56.56,0,0,0-.29.7,1.77,1.77,0,0,0,.8.81l6.31,3.65-21,12.13a.53.53,0,0,0-.27.69,1.67,1.67,0,0,0,.81.82l16.28,9.4a4.1,4.1,0,0,0,1.42.47,2,2,0,0,0,1.21-.16l38.07-22a.54.54,0,0,0,.26-.7,1.71,1.71,0,0,0-.81-.82Z" transform="translate(-625.59 -63.81)"/><path class="cls-9" d="M861.79,626a.36.36,0,0,1-.25-.07l-18.47-10.66c-.1-.06-.16-.12-.13-.15l1.17-.67a.36.36,0,0,1,.25.07l18.48,10.66c.1.06.15.13.12.15Z" transform="translate(-625.59 -63.81)"/><path class="cls-10" d="M1297,464.51l-23.75-14.07a4,4,0,0,0,.17,1,3.1,3.1,0,0,1,.69-.18,33.12,33.12,0,0,0-3.71,3.44c-9.24,9.91-10.25,26.1-18,37a10.82,10.82,0,0,0-.76,1.26c-2.27,1.8-4.86,3.86-6.26,5-3.11,1.69-6.1,3.38-7.55,4.41-1.69,1.2.78,3.25.78,3.25a24.19,24.19,0,0,0,12.2,2.89c3-.74,2.07-3.65,5.73-6.34.62-.45,1.83-.7,1.83,0l-1.4,3.83,1.48.26s2.51-5.28,4.39-8.75a4.33,4.33,0,0,0,.39-3.86,7,7,0,0,0-.62-1.71,2.1,2.1,0,0,0,0-.51,273.73,273.73,0,0,1,17.62-22.69,56.68,56.68,0,0,0,1.19,8.87c2.35,11.13,5,16.71,7.34,27.16-1.16,2.57-3.91,8.7-5.08,11.37-2,2.93-3.84,5.8-4.66,7.4-1,1.86,2.07,2.72,2.07,2.72a21.74,21.74,0,0,0,11.82-2.55c2.31-2,.23-4.32,2.26-8.42.34-.7,1.29-1.45,1.56-.84l.43,4.19,1.4-.38s-.08-6.05.07-10.13a4.77,4.77,0,0,0-1.32-3.78,6.62,6.62,0,0,0-.7-.82c-1.48-10.2-1.55-28.92-.48-38.62C1296.1,464.89,1295.62,464.79,1297,464.51Z" transform="translate(-625.59 -63.81)"/><circle class="cls-11" cx="1058.28" cy="489.24" r="28.95" transform="translate(-219.76 1391.67) rotate(-80.78)"/><polygon class="cls-12" points="397.51 354.26 419.82 341.46 423.13 307.13 401.64 312.08 397.51 354.26"/><circle class="cls-11" cx="1068.32" cy="565.04" r="34.65" transform="translate(-712.23 857.1) rotate(-45)"/><circle class="cls-11" cx="441.94" cy="467.84" r="40.3"/><polygon class="cls-13" points="458.6 417.24 454.55 524.51 510.98 499.32 510.98 400.42 458.6 417.24"/><path class="cls-14" d="M1097.52,492.48a33.82,33.82,0,0,0,12.19,34s21.38-13,13.24-41.54S1097.52,492.48,1097.52,492.48Z" transform="translate(-625.59 -63.81)"/><ellipse class="cls-15" cx="672.62" cy="741.2" rx="14.56" ry="29.32" transform="translate(-705.98 1336.76) rotate(-88.98)"/><path class="cls-16" d="M658.27,756.38l.61-15.22c-.24-3.54-2.51-4.26-4.44-5.9a2.4,2.4,0,0,0-3,0l-1.94,1.5c-2.87,2.08-2.53,5.92-2,8.37l2.07,13.47C650.06,761,657.6,764.53,658.27,756.38Z" transform="translate(-625.59 -63.81)"/><path class="cls-17" d="M648.44,736.34c0,3.61,8.79,3.61,8.79,0V724.59h-8.79Z" transform="translate(-625.59 -63.81)"/><path class="cls-16" d="M698.46,733.38l-12.24-12.12c-1.64-.94-5.33-1.34-7.84-1a2.4,2.4,0,0,0-2.06,2.22l-.18,2.45c-.39,3.52-.07,4,2.1,5.28l12.86,7.43a8.21,8.21,0,0,0,7.35.3l.54-.31C700.86,736.54,700.62,734.63,698.46,733.38Z" transform="translate(-625.59 -63.81)"/><path class="cls-17" d="M677.32,720.83c0,3.61,8.79,3.61,8.79,0V709.08h-8.79Z" transform="translate(-625.59 -63.81)"/><path class="cls-18" d="M676.15,717.49c3.44,2.47,9.14,2.42,11-.46a567.81,567.81,0,0,0,8.88-108.52l-27.32-8.1C673.62,644.55,679.44,683.61,676.15,717.49Z" transform="translate(-625.59 -63.81)"/><path class="cls-18" d="M647.41,728.88c2.79,4.14,9.08,4.17,10.93,1.18l18.41-123.4H645Z" transform="translate(-625.59 -63.81)"/><path class="cls-16" d="M672.62,634.31l1.58,11.13,6.07-23.59a37.23,37.23,0,0,1-4.37.83Z" transform="translate(-625.59 -63.81)"/><path class="cls-19" d="M653.8,571.85l-16.39,33c-.82,1.79-3.63,33.59-3.63,33.59l-8.19-4.79s2.48-35.16,3-36.94L638.4,562Z" transform="translate(-625.59 -63.81)"/><rect class="cls-19" x="625.88" y="627.74" width="8.68" height="11.81" rx="3.77" ry="3.77" transform="translate(712.1 1115.85) rotate(172.51)"/><path class="cls-19" d="M697.06,554.88l10.55,17.17c1.93,3.81,6.11,10.75,7.52,18.62L729.47,585l-.51,4-19,8.41c1.65-9.17-4-9.89-7.17-13.76-5.63-6.78-11.21-13.56-11.26-13.85C691.44,569.33,697.06,554.88,697.06,554.88Z" transform="translate(-625.59 -63.81)"/><path class="cls-20" d="M692.12,540.36l12.36,23.17c-2,8.06-6.39,12.16-11.9,14.32l-4.69-31.33Z" transform="translate(-625.59 -63.81)"/><path class="cls-21" d="M697.17,605.5a144,144,0,0,1-1-43.83c0-23.85-9-32.68-24-27.2l-6.21,1.65c-18.13,9.77-27.34,9.28-24.1,28.47L645,606.66C645,628.32,698.32,631,697.17,605.5Z" transform="translate(-625.59 -63.81)"/><polygon class="cls-22" points="28.2 508.04 20.39 540.5 19.45 543.66 18.3 528.02 28.2 508.04"/><path class="cls-23" d="M674.5,534.65s-2.37,2.19-3.57,2.44-14.09-10.17-9.43-21.85c3-7.39,16.94-1.6,16.94-1.6Z" transform="translate(-625.59 -63.81)"/><path class="cls-19" d="M670.24,544.85l.72.13a4.5,4.5,0,0,0,5.18-3.68l2.33-13.73a4.5,4.5,0,0,0-3.67-5.18l-.72-.12a4.5,4.5,0,0,0-5.18,3.67l-4.18,12.87C664.3,541.24,667.81,544.44,670.24,544.85Z" transform="translate(-625.59 -63.81)"/><path class="cls-21" d="M655.21,566.56l-9.07,25.69c-1.28,2-19.82-7.39-18.24-10.45.28-.54,10.15-31.57,20.76-36.58C657.28,541.15,660,554.86,655.21,566.56Z" transform="translate(-625.59 -63.81)"/><path class="cls-24" d="M688.82,592.36l3.49-1.22.41-.41.26-.47,26.25-13.65a1.35,1.35,0,0,1,1.16,0l10,5.87v-.16l1.89.75-.08.78h0a.42.42,0,0,1-.21.21l-27.31,14.2a.14.14,0,0,0-.07.11c-.57,2.09-1.53,4-3.31,2.87l-11.1-6.54a2.68,2.68,0,0,1-1.4-2.39Z" transform="translate(-625.59 -63.81)"/><path class="cls-25" d="M703.58,600.48,735,584.12c.36-.18.35-.52,0-.74l-13.37-7.84a1.57,1.57,0,0,0-1.34,0l-31.45,16.36c-.37.19-.36.52,0,.74l13.37,7.84A1.54,1.54,0,0,0,703.58,600.48Z" transform="translate(-625.59 -63.81)"/><path class="cls-24" d="M702.7,590l7.61-4c.09,0,.09-.13,0-.18l-3.24-1.9a.36.36,0,0,0-.32,0l-7.61,4c-.09,0-.09.12,0,.18l3.24,1.89A.36.36,0,0,0,702.7,590Z" transform="translate(-625.59 -63.81)"/><path class="cls-11" d="M706.34,582.07a3.56,3.56,0,0,1,1.58-2l31.21-16a.79.79,0,0,1,.66-.09h0a.26.26,0,0,1,.14.11l.87,1-.88-.08-4.68,17.29a3.56,3.56,0,0,1-1.58,2l-29.5,15.12-1,1-.14.24c-.57.12-1.82-.8-1.82-.8Z" transform="translate(-625.59 -63.81)"/><path class="cls-7" d="M703.39,601.32l31.2-16a3.53,3.53,0,0,0,1.58-2l4.74-17.47c.2-.75-.18-1.08-.85-.73l-31.21,16a3.58,3.58,0,0,0-1.58,2l-4.73,17.47C702.34,601.34,702.72,601.66,703.39,601.32Z" transform="translate(-625.59 -63.81)"/><path class="cls-11" d="M720.89,584.4c-.25.93.61,1.14,1.92.46a5.92,5.92,0,0,0,2.83-2.89c.25-.93-.61-1.14-1.92-.47A5.94,5.94,0,0,0,720.89,584.4Z" transform="translate(-625.59 -63.81)"/><path class="cls-26" d="M676.9,536.82a12.31,12.31,0,0,1-9.74-5.53s3.71,8.63,9.09,9.36Z" transform="translate(-625.59 -63.81)"/><path class="cls-19" d="M672.48,530c1.37,6.56,6,8.72,10.37,4.82s6.78-12.36,5.41-18.92-6-8.72-10.36-4.83S671.12,523.43,672.48,530Z" transform="translate(-625.59 -63.81)"/><path class="cls-19" d="M665.87,527.45c1.36,6.56,8.08,9.39,12.43,5.5s6.79-12.37,5.42-18.93-6-8.72-10.37-4.83S664.5,520.89,665.87,527.45Z" transform="translate(-625.59 -63.81)"/><path class="cls-23" d="M675.51,513.7s-.67,12.4-10.78,13.51c0,0-9.81-8.13.15-18.5,8.79-9.14,18.75.63,18.75.63Z" transform="translate(-625.59 -63.81)"/><path class="cls-27" d="M688.63,519a11.8,11.8,0,0,0-9.25-5.57l4.25-4.1S689,509.31,688.63,519Z" transform="translate(-625.59 -63.81)"/><path class="cls-23" d="M669.26,520c2.75-2.64,7.65-1.59,14.23,2.33,6.43,1.5,8.59-5.79,8.59-5.79,1.7-3.79-.62-6-4.41-7.72l-9.87-4.44c-5.58-2.54-12,1.31-13.75,5.1l-.38.6C662,513.87,665.47,518.29,669.26,520Z" transform="translate(-625.59 -63.81)"/><path class="cls-19" d="M664,528.92a2.95,2.95,0,1,0,2.28-3.49A2.95,2.95,0,0,0,664,528.92Z" transform="translate(-625.59 -63.81)"/><path class="cls-23" d="M688.55,518.49a3.82,3.82,0,1,0,3.82-3.81A3.82,3.82,0,0,0,688.55,518.49Z" transform="translate(-625.59 -63.81)"/><circle class="cls-23" cx="67.06" cy="449.34" r="3.82"/><path class="cls-23" d="M683.56,511.48a3.82,3.82,0,1,0,3.82-3.82A3.82,3.82,0,0,0,683.56,511.48Z" transform="translate(-625.59 -63.81)"/><circle class="cls-23" cx="61.78" cy="456.98" r="3.82"/><circle class="cls-23" cx="57" cy="456.32" r="3.82"/><path class="cls-2" d="M835.44,897.33,715.16,827.89c-7.09-4.1-6.19-11.32,2-16l40.33-23.28c8.2-4.73,20.71-5.25,27.8-1.16l120.27,69.44c7.1,4.1,6.2,11.32-2,16l-40.33,23.29C855,900.91,842.53,901.43,835.44,897.33Z" transform="translate(-625.59 -63.81)"/><polygon class="cls-28" points="132.63 650.95 98.16 631.12 132.4 611.35 167.09 631.12 132.63 650.95"/><polygon class="cls-29" points="98.16 631.12 98.16 674.53 98.16 747.49 132.6 767.32 132.63 650.95 98.16 631.12"/><polygon class="cls-30" points="132.63 650.95 132.6 767.32 167.09 747.49 167.09 631.12 132.63 650.95"/><polygon class="cls-31" points="176.37 721.69 142.16 701.8 176.28 682.1 210.63 701.93 176.37 721.69"/><polygon class="cls-7" points="176.37 794.65 142.33 774.82 142.33 701.86 176.37 721.69 176.37 794.65"/><polygon class="cls-32" points="176.37 794.65 210.41 774.82 210.41 701.86 176.37 721.69 176.37 794.65"/><polygon class="cls-11" points="222.36 776.63 188.01 756.8 222.14 737.09 256.82 756.88 222.36 776.63"/><polygon class="cls-3" points="221.75 823 256.82 801.98 256.82 756.88 221.75 776.71 221.75 823"/><polygon class="cls-11" points="222.41 822.92 222.41 776.63 188.06 756.8 188.06 803.09 222.41 822.92"/><path class="cls-18" d="M787.54,226.43l-23.57,11,4.23,14.67-.07,7.19a11.2,11.2,0,0,0-2.8,7.06l-.39,4.44a21.65,21.65,0,0,0,0,2.91l-5.35-10.2-16.07,6.84,15.9,48-8.5,9.32,19.42,38.42L778,355.83c5.5,9.81,12.59,22.39,12.59,22.39l3.73.85c1.67,4.31,11.57,30.28,11.57,30.28l20.54-9.6-5.9-8.43c.28.21.55.43.83.63l3.63,2.54c2.67,1.86,5.24,2.59,7.44,2.3l10.2,18.54,25.62-12,0-.19a5.9,5.9,0,0,0,1.42-.46l2.84-1.35c5.52-2.61,6.37-12.5,1.91-22.08h0c-.26-.57-.49-1.14-.69-1.69l16.1-7.63h0c2.67-1.15,4.54-4.08,4.92-8.52l.38-4.44c.75-8.62-4.37-19.61-11.42-24.54-6.23-4.35-8.55-15.74-3.68-18.05,5.51-2.62,6.37-12.5,1.91-22.09l-2.3-4.93c-4.46-9.58-12.55-15.23-18.06-12.62h0c-4.87,2.31-12.08-6.77-11.42-14.39h0c.75-8.62-4.36-19.61-11.42-24.54L835,233.29c-4.39-3.07-8.5-3.07-11.16-.54h0l-14.45,6.76a19.45,19.45,0,0,1-1-1.82c-4.32-9.28-12-14.84-17.52-12.82v0l-.28.13a2.5,2.5,0,0,0-.25.09l-2.84,1.35ZM834,310.56c7.89,16.85,6.39,34.21-3.35,38.76s-24-5.43-31.89-22.28-6.38-34.21,3.35-38.76S826.13,293.7,834,310.56Z" transform="translate(-625.59 -63.81)"/><path class="cls-7" d="M793.91,252.61h0c-.66,7.62-8.52,6.18-12.46-2.29h0c-4.46-9.58-12.54-15.23-18.06-12.62l-2.84,1.35c-5.51,2.61-6.37,12.5-1.91,22.09h0c3.94,8.46,0,15.49-6.2,11.14h0c-7.06-4.93-13.38-1.93-14.12,6.7l-.39,4.44C737.19,292,742.3,303,749.35,308h0c6.24,4.35,8.56,15.74,3.69,18.05h0c-5.52,2.62-6.37,12.51-1.91,22.09l2.29,4.93c4.47,9.59,12.55,15.24,18.07,12.62h0c4.87-2.31,12.07,6.77,11.41,14.39h0c-.74,8.63,4.37,19.61,11.42,24.54l3.63,2.54c7.06,4.92,13.38,1.93,14.12-6.7.66-7.62,8.53-6.17,12.47,2.29h0C829,412.3,837.08,418,842.6,415.33l2.83-1.35c5.52-2.61,6.37-12.5,1.91-22.08h0c-3.94-8.47,0-15.5,6.21-11.15h0c7.05,4.93,13.38,1.93,14.12-6.7l.38-4.44c.75-8.62-4.36-19.61-11.42-24.54-6.23-4.35-8.55-15.74-3.68-18.05,5.51-2.62,6.37-12.51,1.91-22.09l-2.3-4.93c-4.46-9.58-12.54-15.23-18.06-12.62h0c-4.87,2.31-12.07-6.77-11.42-14.39h0c.75-8.62-4.36-19.61-11.42-24.54L808,245.92C801,241,794.66,244,793.91,252.61Zm40.78,96.05c-1.85,21.4-17.54,28.85-35.05,16.62s-30.19-39.5-28.34-60.91,17.54-28.84,35-16.62S836.54,327.25,834.69,348.66Z" transform="translate(-625.59 -63.81)"/><path class="cls-18" d="M812,426.29l-15.19,7.09,2.73,9.45,0,4.64a7.23,7.23,0,0,0-1.8,4.55l-.25,2.86a14.55,14.55,0,0,0,0,1.87L794,450.18l-10.36,4.41,10.25,30.93-5.48,6,12.52,24.76,4.93-6.6c3.55,6.32,8.12,14.43,8.12,14.43l2.4.55c1.08,2.78,7.46,19.52,7.46,19.52L837,538l-3.8-5.44.53.41,2.34,1.64a7,7,0,0,0,4.8,1.48L847.47,548,864,540.32l0-.12a4.39,4.39,0,0,0,.93-.3l1.83-.87c3.55-1.68,4.1-8.06,1.23-14.23h0c-.18-.37-.32-.74-.45-1.09l10.38-4.92h0c1.72-.73,2.92-2.62,3.17-5.48l.24-2.87c.49-5.55-2.81-12.64-7.36-15.81-4-2.81-5.51-10.15-2.37-11.64,3.55-1.68,4.1-8.06,1.23-14.23l-1.48-3.18c-2.88-6.18-8.09-9.82-11.64-8.14h0c-3.14,1.49-7.78-4.36-7.36-9.27h0c.48-5.56-2.81-12.64-7.36-15.82l-2.34-1.63c-2.83-2-5.48-2-7.19-.35h0l-9.32,4.36a12.93,12.93,0,0,1-.62-1.17c-2.79-6-7.75-9.57-11.29-8.27h0l-.18.08a1,1,0,0,1-.16.06l-1.83.87Zm30,54.22c5.08,10.87,4.11,22.05-2.16,25S824.3,502,819.22,491.13s-4.11-22.05,2.16-25S836.86,469.65,841.94,480.51Z" transform="translate(-625.59 -63.81)"/><path class="cls-7" d="M816.09,443.16h0c-.42,4.91-5.49,4-8-1.47h0c-2.88-6.18-8.09-9.82-11.64-8.14l-1.83.87c-3.56,1.69-4.11,8.06-1.23,14.24h0c2.54,5.45,0,10-4,7.18h0c-4.55-3.17-8.62-1.24-9.1,4.32L780,463c-.48,5.56,2.82,12.64,7.36,15.82h0c4,2.8,5.52,10.14,2.38,11.63h0c-3.56,1.69-4.11,8.06-1.23,14.24l1.48,3.18c2.87,6.18,8.08,9.82,11.64,8.13h0c3.14-1.49,7.78,4.36,7.35,9.27h0c-.48,5.56,2.82,12.65,7.36,15.82l2.34,1.64c4.55,3.17,8.63,1.24,9.11-4.32.42-4.91,5.49-4,8,1.48h0c2.87,6.17,8.08,9.82,11.64,8.13l1.83-.87c3.55-1.68,4.1-8.06,1.23-14.23h0c-2.54-5.46,0-10,4-7.19h0c4.54,3.18,8.62,1.25,9.1-4.31l.25-2.87c.48-5.55-2.82-12.64-7.36-15.81-4-2.81-5.52-10.15-2.38-11.64,3.56-1.68,4.11-8.06,1.23-14.23l-1.48-3.18c-2.87-6.18-8.08-9.82-11.64-8.14h0c-3.14,1.49-7.78-4.36-7.36-9.27h0c.48-5.56-2.81-12.64-7.36-15.82l-2.34-1.63C820.65,435.67,816.57,437.6,816.09,443.16Zm26.28,61.91c-1.19,13.8-11.3,18.59-22.59,10.71s-19.46-25.46-18.26-39.25,11.3-18.6,22.58-10.72S843.56,491.27,842.37,505.07Z" transform="translate(-625.59 -63.81)"/><circle class="cls-11" cx="381.88" cy="484.33" r="51.54"/><circle class="cls-11" cx="1154.8" cy="644.63" r="40.3" transform="translate(-292.09 1617.45) rotate(-80.78)"/><circle class="cls-11" cx="312.56" cy="501.22" r="40.3"/><circle class="cls-11" cx="1219.19" cy="679.37" r="61.17" transform="translate(-748.89 997.26) rotate(-45)"/><path class="cls-12" d="M1060.72,386.39c-11.23-5.58-20.5-1.22-25.94,2.93-2.5,1.9-6.24-2.28-6.59-7.26-4.46-64.77,40.13-48.57,40.13-48.57Z" transform="translate(-625.59 -63.81)"/><path class="cls-29" d="M1068.32,465.52s7,29.64,43.76,31,36.07-23.62,36.07-23.62Z" transform="translate(-625.59 -63.81)"/><path class="cls-33" d="M1052.08,398.86c-11.22-5.58-20.49-1.22-25.94,2.93-2.5,1.9-6.24-2.28-6.58-7.26-4.47-64.77,40.12-48.57,40.12-48.57Z" transform="translate(-625.59 -63.81)"/><path class="cls-34" d="M1174.47,369.13c-3.23-37.44-29.12-80.38-44.25-104.59-4.73-7.56-11.21-14.08-18.55-16.25-7.33,2.17-13.82,8.69-18.54,16.25-15.14,24.21-41,67.15-44.26,104.59-2.79,32.33,2.18,64.72,11.55,90.29l.39,1.06c2.37,6.09,7.9,11,16.13,15.8,9.75,5.63,22.06,8.88,34.73,9.75,12.68-.87,25-4.12,34.74-9.75,8.22-4.75,13.87-9.85,16.24-15.94l.28-.92C1172.29,433.85,1177.27,401.46,1174.47,369.13Z" transform="translate(-625.59 -63.81)"/><ellipse class="cls-35" cx="1086.12" cy="378.41" rx="20.02" ry="34.67" transform="translate(-668.1 536.08) rotate(-30.31)"/><ellipse class="cls-11" cx="1078.82" cy="382.68" rx="20.02" ry="34.67" transform="translate(-671.25 532.97) rotate(-30.31)"/><path class="cls-13" d="M1092.75,389.91c0,9.28-6.55,13-14.64,8.35s-14.64-16-14.64-25.25,6.56-13,14.64-8.35S1092.75,380.64,1092.75,389.91Z" transform="translate(-625.59 -63.81)"/><path class="cls-29" d="M1160.38,319.52c-9.42-21.43-21.5-41.25-30.1-55-4.73-7.56-11.21-14.08-18.55-16.25-15.47,1.92-34.76,40.12-44.2,61.64C1077.42,330.61,1133.57,341.7,1160.38,319.52Z" transform="translate(-625.59 -63.81)"/><circle class="cls-11" cx="1147.68" cy="595.78" r="51.54" transform="matrix(0.16, -0.99, 0.99, 0.16, -249.84, 1569.4)"/><circle class="cls-11" cx="1122.29" cy="681.24" r="51.54" transform="translate(-778.59 929.3) rotate(-45)"/><path class="cls-2" d="M1275.64,654.3a61.14,61.14,0,0,1-110,25.47,51.53,51.53,0,0,1-93.11-1,51.53,51.53,0,0,0,94.75,32.14,61.15,61.15,0,0,0,108.37-56.62Z" transform="translate(-625.59 -63.81)"/><circle class="cls-11" cx="954.47" cy="591.07" r="33.67" transform="translate(-763.99 784.22) rotate(-45)"/><path class="cls-2" d="M1009.58,575.79a51.44,51.44,0,0,1-19.66-3.89,33.67,33.67,0,0,1-33.33,29c-14.17,0-31.24-9.64-36.21-22-1.56,3.88,0,9.83,0,14.27,0,18.59,17.61,32.83,36.21,32.83a33.66,33.66,0,0,0,33.33-29,51.54,51.54,0,0,0,69.65-60.19A51.54,51.54,0,0,1,1009.58,575.79Z" transform="translate(-625.59 -63.81)"/><circle class="cls-11" cx="1048.1" cy="688.75" r="33.67" transform="translate(-488.62 1486.75) rotate(-76.72)"/><circle class="cls-11" cx="999.66" cy="696.68" r="33.67" transform="translate(-516.56 1464.42) rotate(-77.91)"/><circle class="cls-11" cx="529.15" cy="470.61" r="28.95"/><circle class="cls-11" cx="1201.17" cy="602.3" r="28.95" transform="translate(-211.35 1627.66) rotate(-80.78)"/><path class="cls-36" d="M1149.08,471.93l-10.68-.74c-1.77,5.51-3.85,11.05-6.28,16.63C1149.47,483.33,1149.08,471.93,1149.08,471.93Z" transform="translate(-625.59 -63.81)"/><path class="cls-2" d="M1135.13,481.74a65.85,65.85,0,0,0,11.39-5.12c8.22-4.75,13.87-9.86,16.24-15.95l.28-.92c9.36-25.57,14.34-58,11.54-90.29-1.6-18.56-8.77-38.48-17.44-56.79-8.82-18.62-26.82-18.67-19.9,12C1147.33,369.53,1151,424.19,1135.13,481.74Z" transform="translate(-625.59 -63.81)"/><path class="cls-37" d="M1138.43,329.83c8.28-1.88,15.94-5.2,22.07-10.27-9-20.73-28.08-65.29-48.65-71.27l-.18.05A396.15,396.15,0,0,1,1138.43,329.83Z" transform="translate(-625.59 -63.81)"/><path class="cls-12" d="M1162.92,382.68l-13.84,7.5L1161.71,425l-.19,6.48c1.16.71,2.28,1.49,3.38,2.3L1178.77,472l13.88-7.63h0a3.06,3.06,0,0,0,2.1-2.11C1210.23,417,1162.92,382.68,1162.92,382.68Z" transform="translate(-625.59 -63.81)"/><path class="cls-12" d="M1178.16,397.14l-24.74,15.13c20.73,17,31.65,29.38,20.32,76.77L1192.83,478l.75-.45c1.13-1,1.09-1.83,1.49-3C1210.55,429.28,1178.16,397.14,1178.16,397.14Z" transform="translate(-625.59 -63.81)"/><path class="cls-33" d="M1147.68,439c12.17,7.46,20.68,20.55,25.42,29.46,2.17,4.09,6.62,4.79,7.81,1.31,15.48-45.25-31.83-79.54-31.83-79.54Z" transform="translate(-625.59 -63.81)"/><path class="cls-11" d="M1101.33,259.6c-5.4,7.24-21.33,29.48-26.62,46.36a4.34,4.34,0,0,0,2.13,5.11h0a4.34,4.34,0,0,0,6.06-2.28c2.73-7.08,9.5-22.25,24.42-45a3.67,3.67,0,0,0-1.49-5.33h0A3.65,3.65,0,0,0,1101.33,259.6Z" transform="translate(-625.59 -63.81)"/><path class="cls-33" d="M1170.28,463.43l1.09,23.74a2,2,0,0,0,3.83.5l5.71-17.95Z" transform="translate(-625.59 -63.81)"/><path class="cls-33" d="M1019.69,392.47l1.08,23.73a2,2,0,0,0,3.84.51l5.7-17.95Z" transform="translate(-625.59 -63.81)"/><circle class="cls-11" cx="1068.96" cy="626.16" r="51.54" transform="translate(-783.85 392.92) rotate(-22.5)"/><path class="cls-10" d="M1297,464.51s34.47-11.65,27-26.21-29.52-1-29.52-1l-11.37,19.33Z" transform="translate(-625.59 -63.81)"/><path class="cls-19" d="M1300.74,412.87c-12.48,5.53-25.71,15.82-33.31,27.28-5.35,8.08-6.63,17.37-6.12,26.81.69,13,2.8,19.28,3.5,32.32.47,8.82,9.21,8.88,8.73,0-.66-12.22,4.65-44,8-50.3,3-5.54,11.63-3.32,16.34-7.35,5.18-4.44,3.57-14.1,9.82-16.86,3.42-1.52,4.16-6.46,2.47-9.43-2-3.53-6.05-4-9.43-2.47Z" transform="translate(-625.59 -63.81)"/><path class="cls-19" d="M1233.55,485.46c10.1-10.85,18-19.38,29.18-29.26,2.19-1.93,6.2-8.2,6.85-8.25-1.48.12,7.08,2.31,10.43,3a41.58,41.58,0,0,0,32.31-6.43c7.27-5,.39-16.93-7-11.9-8.89,6.08-17.67,6.49-27.73,3.51-2.82-.84-5.73-2-8.71-1.93-5.82.1-11.41,3.53-15.7,7.14-11.86,10-15.76,27.42-26.16,38.59-6,6.49.42,12.08,6.48,5.57Z" transform="translate(-625.59 -63.81)"/><path class="cls-23" d="M1288.51,402.29c-17.56,19.06-32.31,29.3-31.41,35.73,0,0,4.45-1.42,13.69,3.94s6.65,8.52,8.93,12.61c.52.93,1.77,3.64,2.83,3.67,11,.34,45.5-9.76,43.84-30.36C1325.57,417.69,1324,415,1324,415S1301.35,419.06,1288.51,402.29Z" transform="translate(-625.59 -63.81)"/><path class="cls-16" d="M1274.12,497.2c-.95-1.83-3.45-3.82-4.78-3.43l-3.55,5.68-.53.17c-1.93,2.49-11.84,13.06-14.52,16.86-1.37,1.93,1.8,3.11,1.8,3.11,6.73,1.25,13.42-1.79,13.42-1.79,2.87-2,1-4.65,3.93-8.93.49-.72,1.66-1.47,1.86-.78l-.26,4.58,1.6-.31s1-6.55,1.82-10.95A4.85,4.85,0,0,0,1274.12,497.2Z" transform="translate(-625.59 -63.81)"/><path class="cls-19" d="M1268.42,493.28l-3,2.47s-7.47,11.7-8.88,14c-1.64,2.72,8.18,7.4,14.93-8.58C1276.42,492.77,1268.42,493.28,1268.42,493.28Z" transform="translate(-625.59 -63.81)"/><path class="cls-16" d="M1238.62,482.84c-.07-2.07-1.48-4.93-2.85-5.16l-5.64,3.62-.55-.07c-2.81,1.42-16.29,6.73-20.34,9-2.06,1.16.3,3.58.3,3.58,5.54,4,12.89,4.13,12.89,4.13,3.44-.55,2.89-3.78,7.37-6.39.76-.44,2.14-.61,2,.09l-2.19,4,1.57.41s3.67-5.51,6.34-9.12A4.82,4.82,0,0,0,1238.62,482.84Z" transform="translate(-625.59 -63.81)"/><path class="cls-19" d="M1235.15,476.85l-3.75,1s-11.76,7.37-14,8.88c-2.64,1.75,4.23,10.19,17.18-1.36C1242.6,479.81,1235.15,476.85,1235.15,476.85Z" transform="translate(-625.59 -63.81)"/><path class="cls-23" d="M1309.75,319.59s9.36-6.41,14.78,1.78,1.83,13.76,8,18.24,15,17.75,7.86,21.83-12.11,1.91-13-4.38,0-7.37-5-11.26S1309.75,319.59,1309.75,319.59Z" transform="translate(-625.59 -63.81)"/><ellipse class="cls-16" cx="1313.42" cy="323.71" rx="6.13" ry="5.39" transform="matrix(0.14, -0.99, 0.99, 0.14, 177.43, 1512.63)"/><path class="cls-29" d="M1271.07,364.6c8.58-18.1,19.59-19.91,22.91-17.34S1280.85,366,1280.85,366s-5.76,22.43-13.34,18.64C1259.13,380.47,1262.3,383.09,1271.07,364.6Z" transform="translate(-625.59 -63.81)"/><path class="cls-29" d="M1283,408.09c-1.53-12.78-.43-20.73-2.31-36.51,0-19,0-24.21,14.71-25.63l3.95,1.05a27.06,27.06,0,0,1,5.45,2.1c18.5,9.54,22.31,11.59,21.5,22.64,0,5.7-3.24-.34-4.07,3.4-1.58,7.18-1.58,25.12,1.52,37.95a6.69,6.69,0,0,1-2.37,6.94C1312.18,427,1286.63,415.85,1283,408.09Z" transform="translate(-625.59 -63.81)"/><path class="cls-23" d="M1299.12,346.53s2.1,2.6,3.3,3,16-8.31,12.94-21c-1.92-8-17.12-4.18-17.12-4.18Z" transform="translate(-625.59 -63.81)"/><path class="cls-19" d="M1303.91,357.44l-.64.11a4,4,0,0,1-4.65-3.3l-2.09-12.31a4,4,0,0,1,3.3-4.64l.64-.11a4,4,0,0,1,4.65,3.29l3.75,11.54C1309.24,354.2,1306.1,357.07,1303.91,357.44Z" transform="translate(-625.59 -63.81)"/><path class="cls-19" d="M1304.11,320.6c-2.66-3.18-5.88-3.47-8.42-1.23-3-.91-6.16,1.17-7.87,5.86-2.39,6.52-1.17,15.57,2.71,20.21,2.71,3.25,6,3.48,8.57,1.1,3.76,1,8.19-1.3,10-6.1C1311.44,333.92,1308,325.25,1304.11,320.6Z" transform="translate(-625.59 -63.81)"/><path class="cls-23" d="M1301.23,324.89s-1.18,12.82,9,15.47c0,0,11.28-6.85,2.62-19-7.64-10.69-19.31-2.17-19.31-2.17Z" transform="translate(-625.59 -63.81)"/><path class="cls-23" d="M1306.69,332.29c-2.42-3.12-12.75-2.67-20.09.36-3.69.31-3.17-3-1.17-6.65a21.7,21.7,0,0,1,11.49-9.75l3.35-1.25c6.1-1.77,13.67,6.22,14.85,10.36l-4.1.39C1312.2,329.89,1310.83,331.11,1306.69,332.29Z" transform="translate(-625.59 -63.81)"/><path class="cls-19" d="M1310.74,342.23a3.06,3.06,0,1,1-1.82-3.92A3.06,3.06,0,0,1,1310.74,342.23Z" transform="translate(-625.59 -63.81)"/><polygon class="cls-29" points="688.69 312.03 699.98 336.66 687.82 344.28 688.69 312.03"/><rect class="cls-19" x="1291.73" y="405.08" width="9.07" height="12.34" rx="3.94" ry="3.94" transform="translate(1165.69 -919.2) rotate(93.74)"/><path class="cls-19" d="M1299.54,414.64s26.85,3.07,29.85-15.56l-6.36-5.81s3.57,13.81-25.59,15.16Z" transform="translate(-625.59 -63.81)"/><path class="cls-29" d="M1314.76,368.18l3.49,33.6,6.34,8.21s9.66-3,8.41-17.72c-1.56-18.47-8.63-30.57-8.63-30.57Z" transform="translate(-625.59 -63.81)"/><path class="cls-11" d="M1290.45,339.84l6,1.19s-2.31,3.13-4,2.5S1290.45,339.84,1290.45,339.84Z" transform="translate(-625.59 -63.81)"/><path class="cls-26" d="M1297.6,347.68a8.63,8.63,0,0,0,8.73-3.86s-3.33,6.64-8.15,7.3Z" transform="translate(-625.59 -63.81)"/><path class="cls-19" d="M1253.3,348.81s2.34,38.55,15.29,34.88c0,0,4.87.63-1.44-14.21s-5.33-22.11-5.33-22.11Z" transform="translate(-625.59 -63.81)"/><path class="cls-38" d="M1285.94,333.68l-17,5.79,2,6,17-5.79c1-.35,1.43-2,.86-3.65S1287,333.33,1285.94,333.68Z" transform="translate(-625.59 -63.81)"/><path class="cls-38" d="M1282.42,333.43l-24.19,8.23,2.91,8.55,24.19-8.23c1.48-.51,2-2.83,1.23-5.19S1283.9,332.92,1282.42,333.43Z" transform="translate(-625.59 -63.81)"/><path class="cls-16" d="M1267.41,336.56h0l-29.68,9.21h0l-.12,0c-2.09.71-2.73,4.41-1.42,8.26s4.08,6.39,6.17,5.68l.11-.05h0l29.13-10.91h0c2.1-.72,2.86-4,1.71-7.42S1269.51,335.85,1267.41,336.56Z" transform="translate(-625.59 -63.81)"/><path class="cls-23" d="M1248.32,341.36h0l-14.35,3.51,6.51,17.43,13.06-5.73h0c2.6-.88,3.55-5,2.12-9.21S1250.92,340.47,1248.32,341.36Z" transform="translate(-625.59 -63.81)"/><path class="cls-38" d="M1242.86,351.71c1.66,4.88.22,9.79-3.22,11s-7.58-1.84-9.24-6.73-.22-9.8,3.22-11S1241.2,346.82,1242.86,351.71Z" transform="translate(-625.59 -63.81)"/><ellipse class="cls-16" cx="1236.63" cy="353.83" rx="5.03" ry="7.14" transform="translate(-673.64 353.62) rotate(-18.8)"/><rect class="cls-19" x="1247.91" y="336.75" width="10.78" height="10.21" rx="4.13" ry="4.13" transform="translate(1896.93 555.01) rotate(177.05)"/><path class="cls-23" d="M1236.18,350.23a2,2,0,0,0-3.45-.64c-.89,1.21-1.21,3.3.83,6.86C1237.35,363.07,1237.86,356.11,1236.18,350.23Z" transform="translate(-625.59 -63.81)"/><path class="cls-11" d="M1236.81,349.82a1.19,1.19,0,1,1-1.73-.61A1.31,1.31,0,0,1,1236.81,349.82Z" transform="translate(-625.59 -63.81)"/><path class="cls-29" d="M1417.75,548a1.5,1.5,0,0,0,0-3,1.5,1.5,0,0,0,0,3Z" transform="translate(-625.59 -63.81)"/><path class="cls-29" d="M1417.75,548a1.5,1.5,0,0,0,0-3,1.5,1.5,0,0,0,0,3Z" transform="translate(-625.59 -63.81)"/><path class="cls-39" d="M928.63,690.74c-20.72-12.42-54.62-13-75.73-1.26s-21.44,31.3-.73,43.72,54.24,13,75.75,1.51C951.56,722.08,949.34,703.16,928.63,690.74Z" transform="translate(-625.59 -63.81)"/><path class="cls-40" d="M919.25,686.45c-19.67-11.79-51.87-12.33-71.92-1.19S827,715,846.64,726.78s51.51,12.34,71.94,1.43C941,716.22,938.92,698.25,919.25,686.45Z" transform="translate(-625.59 -63.81)"/><path class="cls-11" d="M918.56,670.9c-19.67-11.8-51.87-12.33-71.92-1.2s-20.36,29.73-.69,41.53,51.52,12.34,71.94,1.43C940.34,700.66,938.23,682.69,918.56,670.9Z" transform="translate(-625.59 -63.81)"/><path class="cls-29" d="M918.56,665.84c-19.67-11.8-51.87-12.33-71.92-1.2s-20.36,29.73-.69,41.53,51.52,12.34,71.94,1.43C940.34,695.6,938.23,677.63,918.56,665.84Z" transform="translate(-625.59 -63.81)"/><path class="cls-41" d="M866.33,701.47a8.22,8.22,0,0,1-7.73-11.06l6.31-17.26a8.23,8.23,0,1,1,15.46,5.66L878.84,683,909,678.37a8.23,8.23,0,1,1,2.5,16.27l-43.91,6.74A8.86,8.86,0,0,1,866.33,701.47Z" transform="translate(-625.59 -63.81)"/><path class="cls-11" d="M866.33,697.48a8.23,8.23,0,0,1-7.73-11.06l6.31-17.26a8.23,8.23,0,1,1,15.46,5.66L878.84,679,909,674.37a8.24,8.24,0,1,1,2.5,16.28l-43.91,6.73A7.61,7.61,0,0,1,866.33,697.48Z" transform="translate(-625.59 -63.81)"/><path class="cls-42" d="M1087.14,887.59s25.7-14,19.25-30.43-33.05,22.48-33.05,22.48Z" transform="translate(-625.59 -63.81)"/><path class="cls-43" d="M1062.05,864.14c2.26,0,47.5,16.31,47.46-21.16s-57.76,5.31-57.76,5.31Z" transform="translate(-625.59 -63.81)"/><path class="cls-16" d="M1010,945.28l14.85-15.08c2-1.19,6.53-1.74,9.62-1.37a3,3,0,0,1,2.57,2.7l.26,3c.53,4.31.15,4.94-2.49,6.52l-15.7,9.33c-2.64,1.57-6.7,1.8-9,.5l-.66-.37C1007.06,949.21,1007.32,946.86,1010,945.28Z" transform="translate(-625.59 -63.81)"/><path class="cls-17" d="M1035.89,930.79c0,4.44-10.8,4.44-10.8,0V916.36h10.8Z" transform="translate(-625.59 -63.81)"/><path class="cls-16" d="M1038.47,961.23l12.86-16.81c1.84-1.43,6.26-2.54,9.37-2.56a3,3,0,0,1,2.89,2.36l.63,2.95c1.06,4.21.76,4.88-1.66,6.77l-14.42,11.21c-2.42,1.89-6.43,2.62-8.89,1.62l-.7-.29C1036.08,965.48,1036.05,963.11,1038.47,961.23Z" transform="translate(-625.59 -63.81)"/><path class="cls-17" d="M1062.4,943.63c.55,4.4-10.17,5.75-10.72,1.34l-1.79-14.33,10.72-1.34Z" transform="translate(-625.59 -63.81)"/><path class="cls-18" d="M1059.93,830s-33.45,17.12-34.84,26c-1.23,7.82-2.58,54.13-1.79,65a4.34,4.34,0,0,0,2.44,3.62c3.31,1.58,9.29,3.31,11.29-3.44,2.82-9.52,1.85-42.06,8.59-51.37s40.21-22.45,40.21-22.45Z" transform="translate(-625.59 -63.81)"/><path class="cls-18" d="M1082.37,845.48s-37.42,18.66-38.51,27.14c-1,7.4,3.65,49.58,4.85,60.19a4.39,4.39,0,0,0,2.78,3.61c3.4,1.35,9.27,2.59,11-3.75,2.51-9.11.44-39.88,6.88-48.94,3.5-4.91,12.48-10.46,27.83-17.7,7-3.31,12-17.1,3.51-18.2Z" transform="translate(-625.59 -63.81)"/><path class="cls-19" d="M1049.92,778l-7.14,27.36c-.61,3.25-1.72,8-2.52,13.57a32.6,32.6,0,0,0,6.54,24.55s2.54-13.39,5-19.7a214.29,214.29,0,0,0,8-24.55C1059.87,798.51,1049.92,778,1049.92,778Z" transform="translate(-625.59 -63.81)"/><path class="cls-29" d="M1060.5,759.41l-16.78,28.84c2.29,9.16,7.26,13.83,13.53,16.29l5.34-35.63Z" transform="translate(-625.59 -63.81)"/><path class="cls-44" d="M1047.53,784.76s2.7,8,17.76,13.12" transform="translate(-625.59 -63.81)"/><path class="cls-29" d="M1055.46,828.62c2.59-14.19,2-22.85-.32-42.44,0-27.11,8.26-37.2,25.34-31l7.06,1.88c20.62,11.11,31.1,10.55,27.41,32.37l-3.61,47.84C1111.34,861.93,1054.15,857.57,1055.46,828.62Z" transform="translate(-625.59 -63.81)"/><path class="cls-16" d="M1077.81,755.41s2.7,2.49,4.06,2.78,16-11.56,10.72-24.85c-3.36-8.41-19.26-1.82-19.26-1.82Z" transform="translate(-625.59 -63.81)"/><path class="cls-19" d="M1082.65,767l-.82.14a5.12,5.12,0,0,1-5.89-4.18l-2.65-15.61a5.12,5.12,0,0,1,4.18-5.89l.82-.14a5.12,5.12,0,0,1,5.89,4.18l4.75,14.63C1089.4,762.91,1085.42,766.54,1082.65,767Z" transform="translate(-625.59 -63.81)"/><path class="cls-26" d="M1075.08,757.87a14,14,0,0,0,11.08-6.28s-4.22,9.81-10.34,10.65Z" transform="translate(-625.59 -63.81)"/><path class="cls-19" d="M1080.1,750.11c-1.55,7.46-6.83,9.92-11.79,5.49s-7.71-14.06-6.15-21.52,6.83-9.92,11.79-5.49S1081.66,742.65,1080.1,750.11Z" transform="translate(-625.59 -63.81)"/><path class="cls-19" d="M1087.63,747.22c-1.56,7.46-9.19,10.68-14.15,6.25s-7.71-14.06-6.15-21.52,6.83-9.91,11.79-5.48S1089.18,739.76,1087.63,747.22Z" transform="translate(-625.59 -63.81)"/><path class="cls-16" d="M1076.66,731.59s.76,14.1,12.25,15.36c0,0,11.17-9.24-.17-21-10-10.4-21.31.71-21.31.71Z" transform="translate(-625.59 -63.81)"/><path class="cls-27" d="M1061.74,737.63s2.82-5.52,10.52-6.33l-4.83-4.67S1061.38,726.6,1061.74,737.63Z" transform="translate(-625.59 -63.81)"/><path class="cls-16" d="M1083.77,738.75c-3.12-3-8.7-1.81-16.18,2.65-7.32,1.71-9.77-6.58-9.77-6.58-1.94-4.31.7-6.85,5-8.78l11.22-5c6.35-2.89,13.71,1.48,15.64,5.79l.44.69C1092.06,731.79,1088.08,736.81,1083.77,738.75Z" transform="translate(-625.59 -63.81)"/><path class="cls-19" d="M1089.74,748.9a3.36,3.36,0,1,1-2.6-4A3.36,3.36,0,0,1,1089.74,748.9Z" transform="translate(-625.59 -63.81)"/><path class="cls-11" d="M1075.08,757.87s-5.67,7.92,2.32,11.32c12.66,5.38,16.6-9,14.62-9.78l-4-2.06a5.39,5.39,0,0,1-1.27,7.33c-3,2.51-8.33,3-10.63-.88Z" transform="translate(-625.59 -63.81)"/><polygon class="cls-37" points="471.04 722.37 471.04 768.82 479.61 763.78 471.04 722.37"/><path class="cls-24" d="M1087.4,850.67l-4-1.4-.46-.46-.3-.53-29.85-15.52a1.5,1.5,0,0,0-1.32,0l-11.4,6.68,0-.18-2.15.85.1.89h0a.43.43,0,0,0,.23.23l31.06,16.15a.19.19,0,0,1,.09.12c.65,2.38,1.73,4.51,3.76,3.27l12.62-7.43a3,3,0,0,0,1.59-2.72Z" transform="translate(-625.59 -63.81)"/><path class="cls-25" d="M1070.62,859.9l-35.77-18.6c-.42-.21-.41-.59,0-.84l15.21-8.91a1.77,1.77,0,0,1,1.52-.07l35.77,18.6c.41.22.4.6,0,.85l-15.2,8.91A1.73,1.73,0,0,1,1070.62,859.9Z" transform="translate(-625.59 -63.81)"/><path class="cls-24" d="M1071.62,847.92l-8.66-4.5c-.1,0-.1-.14,0-.2l3.67-2.16a.44.44,0,0,1,.37,0l8.66,4.51c.1.05.1.14,0,.2l-3.68,2.16A.44.44,0,0,1,1071.62,847.92Z" transform="translate(-625.59 -63.81)"/><path class="cls-11" d="M1067.48,839a4.06,4.06,0,0,0-1.8-2.24l-35.48-18.18a.92.92,0,0,0-.76-.11h0a.4.4,0,0,0-.16.13l-1,1.11,1-.09,5.32,19.66a4.06,4.06,0,0,0,1.8,2.24L1070,858.68l1.14,1.1.16.27c.66.13,2.08-.91,2.08-.91Z" transform="translate(-625.59 -63.81)"/><path class="cls-45" d="M1070.83,860.85s-37-19.57-37.28-20.42l-5.38-19.87c-.23-.85.21-1.22,1-.83l35.48,18.18a4.08,4.08,0,0,1,1.8,2.25L1071.8,860C1072,860.88,1071.6,861.25,1070.83,860.85Z" transform="translate(-625.59 -63.81)"/><path class="cls-11" d="M1050.94,841.61c.28,1.06-.7,1.3-2.19.53a6.72,6.72,0,0,1-3.21-3.29c-.29-1.06.69-1.29,2.18-.53A6.79,6.79,0,0,1,1050.94,841.61Z" transform="translate(-625.59 -63.81)"/><path class="cls-19" d="M1098,786.18l4.7,41.63c.18,2.23-34,13.2-34,13.2l2.88,12.06,35-9c9.25-3.88,9-11,8.91-16.77l-.65-36.07Z" transform="translate(-625.59 -63.81)"/><path class="cls-29" d="M1097,790.74l3,30.83c.87,2.55,23.9-2.71,23-6.52-.16-.68-2.53-37.62-12.87-46.06C1101.68,762.13,1095,776.52,1097,790.74Z" transform="translate(-625.59 -63.81)"/><path class="cls-44" d="M1099.88,813.4s9.54,2.48,21.37-6.21" transform="translate(-625.59 -63.81)"/><circle class="cls-11" cx="893.59" cy="597.38" r="33.67" transform="translate(-786.28 743.02) rotate(-45)"/><path class="cls-33" d="M978.31,437.17c7.14,4.4,13.8,13.83,17.07,23.36l6.34-7c-5.93-12.68-15.08-24.28-24.76-30.25s-17.61-4.9-21.68,1.61l8.6,16.25C965.61,434.66,971.17,432.77,978.31,437.17Z" transform="translate(-625.59 -63.81)"/><path class="cls-33" d="M940.32,396.57l8.13,15.36c5.69-6.93,15.53-7.61,27.38-.3s23.09,21,30.94,36.26l6-6.65q-1.56-2.83-3.23-5.6c-9.67-16.05-22.07-29.94-35-37.94C960,388.78,947.85,389,940.32,396.57Z" transform="translate(-625.59 -63.81)"/><path class="cls-33" d="M975.87,463.73l.42.63c.24.34.48.66.74,1s.45.57.69.85l.66.74c.31.33.63.63,1,.92s.36.35.54.5a14.72,14.72,0,0,0,1.57,1.16,9.5,9.5,0,0,0,1.54.76,4.91,4.91,0,0,0,.51.15,6,6,0,0,0,.87.2,4.09,4.09,0,0,0,.6,0,3.94,3.94,0,0,0,.6-.05,3.22,3.22,0,0,0,.63-.15,2.11,2.11,0,0,0,.34-.16,4.47,4.47,0,0,0,2.18-3.63h0a8.82,8.82,0,0,0,.1-1.08,12.15,12.15,0,0,0,0-1.58,16.66,16.66,0,0,0-.38-2.26c-1.25-5.35-5-11.09-9-13.59s-7.06-.91-7.37,3.48a13,13,0,0,0,0,2.05,13.73,13.73,0,0,0,.29,1.74c.09.45.21.9.33,1.35h0a24.55,24.55,0,0,0,1,2.79A26.35,26.35,0,0,0,975.87,463.73Z" transform="translate(-625.59 -63.81)"/><line class="cls-46" x1="555.52" y1="742.35" x2="558.19" y2="578.38"/><path class="cls-29" d="M1186.82,644.63s9.41-4.3,21.57,8.5,16.84,37.72,51.51,32.89l1.3,52.17S1225,740.4,1214,719s-28.13-22.47-28.13-22.47Z" transform="translate(-625.59 -63.81)"/><path class="cls-11" d="M1085.23,210.54a5.09,5.09,0,1,1-5.08-5.08A5.09,5.09,0,0,1,1085.23,210.54Z" transform="translate(-625.59 -63.81)"/><path class="cls-11" d="M1206.26,293.91a5.09,5.09,0,1,1-5.09-5.08A5.09,5.09,0,0,1,1206.26,293.91Z" transform="translate(-625.59 -63.81)"/><circle class="cls-11" cx="558.1" cy="2.95" r="2.95"/><path class="cls-11" d="M1368.27,352.08a3,3,0,1,1-3-2.95A2.95,2.95,0,0,1,1368.27,352.08Z" transform="translate(-625.59 -63.81)"/><path class="cls-11" d="M1479,295.08a3,3,0,1,1-3-3A2.95,2.95,0,0,1,1479,295.08Z" transform="translate(-625.59 -63.81)"/><path class="cls-11" d="M1147.69,207.1a3,3,0,1,1-3-2.95A2.95,2.95,0,0,1,1147.69,207.1Z" transform="translate(-625.59 -63.81)"/><circle class="cls-11" cx="506.52" cy="51.87" r="2.95"/><circle class="cls-11" cx="788.91" cy="236.1" r="2.95"/></g></g></svg>