<svg xmlns="http://www.w3.org/2000/svg" xmlns:xlink="http://www.w3.org/1999/xlink" viewBox="0 0 1003.11 876.89"><defs><style>.cls-1{isolation:isolate;}.cls-15,.cls-2,.cls-29,.cls-8{opacity:0.4;}.cls-15,.cls-2,.cls-29,.cls-38,.cls-4,.cls-8{mix-blend-mode:multiply;}.cls-13,.cls-3,.cls-32,.cls-35,.cls-41,.cls-42,.cls-45,.cls-46{fill:none;}.cls-3{stroke:#a8b2e5;}.cls-3,.cls-33{stroke-miterlimit:10;}.cls-3,.cls-41{stroke-width:2.19px;}.cls-4{fill:#e8eefa;}.cls-5{fill:#0f2f69;}.cls-6{fill:#acaff2;}.cls-7{fill:#dee5ff;}.cls-8{fill:#a8c4e5;}.cls-9{fill:#ebb44b;}.cls-10,.cls-33{fill:#fff;}.cls-11{fill:#ffd482;}.cls-12{fill:#f2c97b;}.cls-13{stroke:#ffd482;stroke-width:1.02px;}.cls-13,.cls-32,.cls-35,.cls-41,.cls-42,.cls-45,.cls-46{stroke-linecap:round;stroke-linejoin:round;}.cls-14{fill:#abcfff;}.cls-15{fill:#a8b2e5;}.cls-16{fill:#ffa03a;}.cls-17{fill:#ffc33a;}.cls-18{fill:#1578ef;}.cls-19{fill:#bad4ff;}.cls-20{fill:#3b2ad1;}.cls-21{fill:#1c4591;}.cls-22{fill:#e1eaf4;}.cls-23{fill:#e6558a;}.cls-24{fill:#ff80ae;}.cls-25{fill:#ffaa82;}.cls-26{fill:#1575ef;}.cls-27{fill:#ea8a6c;}.cls-28{fill:#2153ad;}.cls-29{fill:#bbdaff;}.cls-30,.cls-43{fill:#729ce3;}.cls-31{fill:url(#linear-gradient);}.cls-32,.cls-35,.cls-45,.cls-46{stroke:#fff;}.cls-32{stroke-width:1.74px;}.cls-33{stroke:#35519c;stroke-width:1.27px;}.cls-34{fill:#1550ef;}.cls-35{stroke-width:1.26px;}.cls-36{fill:#eeedff;}.cls-37{fill:#cf8484;}.cls-38{fill:#e0e6ff;}.cls-39{fill:#191791;}.cls-40{fill:#46a6e8;}.cls-41,.cls-42{stroke:#dee5ff;}.cls-42{stroke-width:2px;}.cls-43{opacity:0.74;}.cls-44{fill:url(#linear-gradient-2);}.cls-45{stroke-width:1.17px;}</style><linearGradient id="linear-gradient" x1="732.01" y1="740.95" x2="938.22" y2="740.95" gradientUnits="userSpaceOnUse"><stop offset="0.05" stop-color="#bad4ff"/><stop offset="0.48" stop-color="#94ceff"/><stop offset="0.68" stop-color="#9ec2ff"/><stop offset="1" stop-color="#85aaff"/></linearGradient><linearGradient id="linear-gradient-2" x1="445.58" y1="170.72" x2="602.58" y2="170.72" xlink:href="#linear-gradient"/></defs><title>3</title><g class="cls-1"><g id="image"><g class="cls-2"><line class="cls-3" x1="65" y1="246.3" x2="162.15" y2="191.57"/><polygon class="cls-3" points="358.07 185.77 455.23 131.04 453.61 27.37 356.46 82.11 358.07 185.77"/><polygon class="cls-3" points="260.92 240.5 358.07 185.77 356.46 82.11 259.31 136.84 260.92 240.5"/><polygon class="cls-3" points="66.61 349.97 163.77 295.24 162.15 191.57 65 246.3 66.61 349.97"/><line class="cls-3" x1="455.22" y1="131.04" x2="456.84" y2="234.71"/><polygon class="cls-3" points="262.53 344.17 359.68 289.44 358.07 185.77 260.92 240.5 262.53 344.17"/><polygon class="cls-3" points="165.38 398.9 262.53 344.17 260.92 240.5 163.77 295.24 165.38 398.9"/><polygon class="cls-3" points="68.22 453.63 165.38 398.9 163.77 295.24 66.61 349.97 68.22 453.63"/><line class="cls-3" x1="456.84" y1="234.71" x2="458.45" y2="338.37"/><polygon class="cls-3" points="361.3 393.1 458.45 338.37 456.84 234.71 359.68 289.44 361.3 393.1"/><polygon class="cls-3" points="264.14 447.84 361.3 393.1 359.68 289.44 262.53 344.17 264.14 447.84"/><polygon class="cls-3" points="166.99 502.57 264.14 447.84 262.53 344.17 165.38 398.9 166.99 502.57"/><polygon class="cls-3" points="69.84 557.3 166.99 502.57 165.38 398.9 68.22 453.63 69.84 557.3"/><line class="cls-3" x1="162.15" y1="191.57" x2="259.31" y2="136.84"/></g><ellipse class="cls-4" cx="992.23" cy="571.86" rx="19.48" ry="39.22" transform="matrix(0.02, -1, 1, 0.02, 318.84, 1505.37)"/><path class="cls-5" d="M961.1,563.1l16.58-11.31a12.8,12.8,0,0,1,7.69-.26c1.34.33,1.55-.67,1.48.58l1.44,5.23c1.35,3.48,1.73,4.06-2.26,5.43l-16.65,6.1c-2.81,1-6.83.66-8.94-.81l-.6-.42C957.73,566.17,958.3,564.12,961.1,563.1Z" transform="translate(-80.25 -46.15)"/><path class="cls-6" d="M986.82,553.08c-.08,4.09-10.05,3.91-10-.19l.25-13.32,10,.18Z" transform="translate(-80.25 -46.15)"/><path class="cls-7" d="M988.23,548c-3.91,3-10.37,3.33-12.51.14a654.61,654.61,0,0,1-9.41-124.26l31-11c-3.8,33.56-8,64.62-9.51,93C990.63,522.08,987.81,537.51,988.23,548Z" transform="translate(-80.25 -46.15)"/><path class="cls-6" d="M993.91,466.34l-4.13,13.18a170.49,170.49,0,0,1-7.08-37.63c1.55.38,1.47-1.51,3.21-1.29Z" transform="translate(-80.25 -46.15)"/><ellipse class="cls-8" cx="794.2" cy="579.52" rx="64.63" ry="36.56"/><path class="cls-9" d="M917.43,612.59c.53,2.38-.48,20.28-1.56,22.84-2,8.19-9.18,16-21.22,21.68-26.42,12.56-66.4,10.53-89.3-4.54-10.67-7-16.47-14.16-16.6-23.07-.34-4.82-.49-18.28-.49-18.28.84-2.94,4.25.13,6.41-2.62,3.56-5.41,9.55-10.38,17.92-14.37,26.42-12.56,66.4-10.52,89.3,4.54C911.54,605.12,916.76,604.92,917.43,612.59Z" transform="translate(-80.25 -46.15)"/><ellipse class="cls-10" cx="772.64" cy="566.43" rx="64.63" ry="36.56"/><ellipse class="cls-11" cx="772.64" cy="564.44" rx="64.63" ry="36.56"/><ellipse class="cls-10" cx="772.59" cy="563.48" rx="45.18" ry="25.56"/><path class="cls-12" d="M824,593.08c19.23-9,47.71-7.49,63.62,3.38,6.34,4.33,9.72,9.5,10.29,14.72.67-6.25-2.68-12.65-10.29-17.85C871.74,582.46,843.26,580.94,824,590c-11.56,5.42-17.13,13.4-16.28,21.27C808.48,604.41,814,597.78,824,593.08Z" transform="translate(-80.25 -46.15)"/><path class="cls-11" d="M832.87,618c-2.69-2.25-4.89-5.41-4.92-8.25l8.91-.52a9.32,9.32,0,0,0,4.21,6.59c2.93,1.95,5.53,2.18,8.12.9,5.79-2.87-8.12-12,2-17a21.55,21.55,0,0,1,18.35.14l5.8-2.87,5.07,3.38-5.68,2.81c2.83,2.48,3.44,5,3.17,7.47l-8.6-.24a5.61,5.61,0,0,0-2.88-5.18c-2.51-1.67-4.93-2-7.47-.8-5.34,2.65,8.9,11.62-1.84,16.94a22.28,22.28,0,0,1-19-.09l-5.85,2.9-5.07-3.38Z" transform="translate(-80.25 -46.15)"/><line class="cls-13" x1="773.58" y1="603.65" x2="773.74" y2="619.2"/><line class="cls-13" x1="790.21" y1="602.5" x2="790.27" y2="617.62"/><line class="cls-13" x1="806.01" y1="598.68" x2="806.07" y2="613.8"/><line class="cls-13" x1="820.18" y1="592.22" x2="820.24" y2="606.16"/><line class="cls-13" x1="831.78" y1="582.43" x2="831.46" y2="596.6"/><line class="cls-13" x1="756.18" y1="602.5" x2="756.12" y2="617.62"/><line class="cls-13" x1="740.38" y1="598.68" x2="740.32" y2="613.8"/><line class="cls-13" x1="726.2" y1="592.22" x2="726.15" y2="606.16"/><line class="cls-13" x1="714.6" y1="582.43" x2="714.93" y2="596.6"/><path class="cls-7" d="M606.3,343.15s-23.5-30.37-66.1-7.07c-32.57,17.8-15.37,16.55-54.52,29.18-23.09,7.44-59.43-34.18-116.3-7.3-103,48.67-139.93-48.37-184.37,5.28l2.33,249.48L606.65,380.66Z" transform="translate(-80.25 -46.15)"/><path class="cls-14" d="M606.68,383.53a1.47,1.47,0,0,0,1.41-1.5L605.75,132.8a1.44,1.44,0,0,0-1.44-1.45,1.47,1.47,0,0,0-1.41,1.49l2.34,249.24A1.44,1.44,0,0,0,606.68,383.53Z" transform="translate(-80.25 -46.15)"/><path class="cls-14" d="M502.21,438.46a1.45,1.45,0,0,0,1.41-1.49l-2.33-249.23a1.44,1.44,0,0,0-1.44-1.45,1.45,1.45,0,0,0-1.41,1.49L500.77,437A1.44,1.44,0,0,0,502.21,438.46Z" transform="translate(-80.25 -46.15)"/><path class="cls-14" d="M397.78,496.53a1.47,1.47,0,0,0,1.41-1.5L396.85,245.8a1.44,1.44,0,0,0-1.44-1.45,1.47,1.47,0,0,0-1.41,1.49l2.34,249.24A1.44,1.44,0,0,0,397.78,496.53Z" transform="translate(-80.25 -46.15)"/><path class="cls-14" d="M293.34,554.53a1.46,1.46,0,0,0,1.41-1.5L292.41,303.8a1.43,1.43,0,0,0-1.43-1.45,1.45,1.45,0,0,0-1.41,1.49l2.33,249.24A1.44,1.44,0,0,0,293.34,554.53Z" transform="translate(-80.25 -46.15)"/><path class="cls-14" d="M187.35,613a1.47,1.47,0,0,0,1.41-1.5l-2.34-249.23A1.44,1.44,0,0,0,185,360.8a1.47,1.47,0,0,0-1.41,1.49l2.34,249.24A1.44,1.44,0,0,0,187.35,613Z" transform="translate(-80.25 -46.15)"/><path class="cls-14" d="M187.58,341.13l13.77-8.47a7.06,7.06,0,0,0,2.73-5.55h0c0-2.11-1.28-3.07-2.8-2.13l-13.77,8.47a7.06,7.06,0,0,0-2.73,5.55h0C184.8,341.11,186.06,342.07,187.58,341.13Z" transform="translate(-80.25 -46.15)"/><path class="cls-14" d="M293.62,286.89l13.76-8.48a7,7,0,0,0,2.73-5.54h0c0-2.11-1.28-3.07-2.8-2.14l-13.76,8.48a7,7,0,0,0-2.74,5.54h0C290.83,286.86,292.1,287.82,293.62,286.89Z" transform="translate(-80.25 -46.15)"/><path class="cls-14" d="M397.31,233.25l13.77-8.48a7,7,0,0,0,2.73-5.54h0c0-2.11-1.28-3.07-2.8-2.14l-13.77,8.48a7,7,0,0,0-2.73,5.54h0C394.53,233.22,395.79,234.18,397.31,233.25Z" transform="translate(-80.25 -46.15)"/><path class="cls-14" d="M502.5,178.27l13.76-8.47a7,7,0,0,0,2.74-5.55h0c0-2.11-1.28-3.07-2.81-2.13l-13.76,8.48a7,7,0,0,0-2.73,5.54h0C499.72,178.25,501,179.21,502.5,178.27Z" transform="translate(-80.25 -46.15)"/><path class="cls-14" d="M606.12,122.58l13.76-8.47a7,7,0,0,0,2.73-5.54h0c0-2.12-1.28-3.08-2.8-2.14L606,114.91a7,7,0,0,0-2.73,5.54h0C603.33,122.56,604.59,123.52,606.12,122.58Z" transform="translate(-80.25 -46.15)"/><path class="cls-14" d="M191.42,627.46,205.19,619a.67.67,0,0,0,.12-.06l10.22-6.29c1.53-.94,2.79,0,2.81,2.13a7.06,7.06,0,0,1-2.73,5.55l-13.77,8.47a.52.52,0,0,1-.13.06l-10.22,6.29c-1.52.94-2.78,0-2.8-2.13A7,7,0,0,1,191.42,627.46Z" transform="translate(-80.25 -46.15)"/><path class="cls-14" d="M412.83,498.21l13.76-8.47.13-.06,10.22-6.29c1.52-.94,2.79,0,2.8,2.13a7,7,0,0,1-2.73,5.54l-13.76,8.48a.52.52,0,0,0-.13.06l-10.22,6.29c-1.52.94-2.78,0-2.8-2.13A7.06,7.06,0,0,1,412.83,498.21Z" transform="translate(-80.25 -46.15)"/><path class="cls-14" d="M298.42,563.26l13.76-8.48.13-.06,10.22-6.29c1.53-.94,2.79,0,2.81,2.13a7,7,0,0,1-2.74,5.54l-13.76,8.48a.52.52,0,0,1-.13.06l-10.22,6.29c-1.52.94-2.78,0-2.8-2.13A7,7,0,0,1,298.42,563.26Z" transform="translate(-80.25 -46.15)"/><path class="cls-14" d="M513.74,440.21l13.76-8.48.13-.06,10.22-6.29c1.53-.94,2.79,0,2.81,2.13a7,7,0,0,1-2.74,5.54l-13.76,8.48a.52.52,0,0,1-.13.06l-10.22,6.29c-1.52.94-2.78,0-2.8-2.13A7,7,0,0,1,513.74,440.21Z" transform="translate(-80.25 -46.15)"/><path class="cls-14" d="M621.24,381.8,635,373.32l.13-.06L645.35,367c1.52-.94,2.79,0,2.8,2.13a7,7,0,0,1-2.73,5.54l-13.76,8.48-.13.06-10.22,6.29c-1.52.94-2.78,0-2.8-2.13A7,7,0,0,1,621.24,381.8Z" transform="translate(-80.25 -46.15)"/><polygon class="cls-15" points="534.14 534.42 534.14 534.42 132.62 757.78 80.75 726.64 489.38 492.95 534.14 534.42"/><polygon class="cls-16" points="581.64 234.04 581.64 248.63 714.83 324.63 715.21 309.48 581.64 234.04"/><polyline class="cls-17" points="534.14 533.9 478.5 503.12 474.13 398.46 523.53 311.2 466.33 277.1 281.44 616.07 333.3 647.21 523.53 311.2 534.14 533.9"/><polyline class="cls-17" points="674.39 285.74 689.97 271.15 628.59 234.04 481.69 503.35 533.56 534.49"/><polyline class="cls-17" points="333.45 644.54 277.82 613.76 273.45 509.1 322.85 421.84 265.64 387.74 80.75 726.71 132.62 757.85 322.85 421.84 333.45 644.54"/><polyline class="cls-16" points="333.3 647.21 277.82 613.76 273.45 509.1 322.85 421.84 265.64 387.74 322.85 421.84 333.45 644.54"/><polyline class="cls-16" points="534.14 534.49 478.5 503.71 474.13 399.05 523.53 311.79 466.33 277.7 523.53 311.79 534.14 534.49"/><polygon class="cls-17" points="581.64 234.04 708.82 164.27 715.13 311.85 581.64 234.04"/><path class="cls-18" d="M539.75,490.29c4.79-3,10.46-6.54,13.76-10.6a9.25,9.25,0,0,0,2.44-4.38c.48-1.62-.07,1.08.11-.6q.06-.56.09-1.11c.07-1.61.23-.2-.2-2.11-1-4.24-11.51-18.73-14.14-23.25-4.17-7.16-.62-4.22-5-11.26s-1.4-14.84,4.45-9.16c6.25,6.07,17,19.27,21.38,27.19,2.82,5,5.57,10.55,6.17,16.26,1.43,13.63-10.11,22.11-20.54,28.65-2.89,1.81-6.54,2-9.07-.85-2.09-2.32-2.3-7,.56-8.78Z" transform="translate(-80.25 -46.15)"/><polygon class="cls-19" points="336.34 376.59 325.99 375.31 333.72 368.99 336.34 376.59"/><path class="cls-20" d="M409.29,421.84l-3.05-.38,2.67-2.18C407.84,420.52,408,421.35,409.29,421.84Z" transform="translate(-80.25 -46.15)"/><path class="cls-21" d="M412.2,418.62a4.13,4.13,0,0,0,4.39,4.12A4.58,4.58,0,0,0,421,418.3a4.13,4.13,0,0,0-4.39-4.12A4.59,4.59,0,0,0,412.2,418.62Z" transform="translate(-80.25 -46.15)"/><polygon class="cls-21" points="336.74 368.03 379.93 358.49 380.15 367.03 343.68 374.96 336.74 368.03"/><path class="cls-21" d="M415.84,418.87a4.87,4.87,0,0,0,1.09-.18v0l38.4-8.65,2.66,3.68-40.26,8.75v0a4.87,4.87,0,0,1-1.09.18,4.18,4.18,0,0,1-4.28-3.14Z" transform="translate(-80.25 -46.15)"/><path class="cls-22" d="M458.12,405.07h0l2.56-.53,0,1.5a4.78,4.78,0,0,1,1.15,3,5.08,5.08,0,0,1-1,3.36v.66l-1.36.39,0,0a2.87,2.87,0,0,1-.69.16c-1.82.14-3.36-1.65-3.46-4S456.44,405.38,458.12,405.07Z" transform="translate(-80.25 -46.15)"/><path class="cls-23" d="M460.3,404.58h.13l2.63-.42.11,2.22a5.16,5.16,0,0,1,.59,2.21,5.43,5.43,0,0,1-.38,2.23l.09,1.87-2.46.38a2,2,0,0,1-.35.06c-1.81.14-3.36-1.65-3.46-4S458.49,404.73,460.3,404.58Z" transform="translate(-80.25 -46.15)"/><path class="cls-24" d="M459.83,408.7c.1,2.35,1.65,4.14,3.46,4s3.2-2.18,3.1-4.54-1.64-4.15-3.46-4S459.74,406.34,459.83,408.7Z" transform="translate(-80.25 -46.15)"/><ellipse class="cls-8" cx="586.71" cy="644.97" rx="64.63" ry="36.56"/><path class="cls-9" d="M709.94,678c.53,2.38-.48,20.28-1.56,22.84-2,8.19-9.18,16-21.22,21.68-26.42,12.56-66.4,10.53-89.3-4.54-10.67-7-16.46-14.16-16.6-23.07-.34-4.82-.49-18.28-.49-18.28.85-2.94,4.25.13,6.41-2.62,3.57-5.41,9.55-10.38,17.93-14.37,26.42-12.56,66.4-10.52,89.3,4.54C704.05,670.57,709.27,670.37,709.94,678Z" transform="translate(-80.25 -46.15)"/><ellipse class="cls-10" cx="565.15" cy="631.88" rx="64.63" ry="36.56"/><ellipse class="cls-11" cx="565.15" cy="629.89" rx="64.63" ry="36.56"/><ellipse class="cls-10" cx="565.11" cy="628.93" rx="45.18" ry="25.56"/><path class="cls-12" d="M616.55,658.53c19.22-9,47.7-7.49,63.61,3.38,6.34,4.33,9.73,9.5,10.29,14.72.68-6.25-2.68-12.65-10.29-17.85-15.91-10.87-44.39-12.39-63.61-3.38-11.56,5.41-17.14,13.4-16.29,21.27C601,669.86,606.52,663.23,616.55,658.53Z" transform="translate(-80.25 -46.15)"/><path class="cls-11" d="M625.38,683.48c-2.69-2.25-4.88-5.41-4.92-8.25l8.92-.53a9.31,9.31,0,0,0,4.2,6.6c2.93,2,5.53,2.18,8.12.89,5.8-2.86-8.11-12,2-17a21.55,21.55,0,0,1,18.35.14l5.79-2.87,5.07,3.38-5.68,2.81c2.84,2.48,3.44,5,3.17,7.47l-8.59-.24a5.65,5.65,0,0,0-2.88-5.18c-2.51-1.67-4.94-2.05-7.47-.8-5.35,2.65,8.9,11.62-1.85,16.93a22.24,22.24,0,0,1-19-.08l-5.85,2.9-5.07-3.38Z" transform="translate(-80.25 -46.15)"/><line class="cls-13" x1="566.09" y1="669.1" x2="566.26" y2="684.65"/><line class="cls-13" x1="582.72" y1="667.95" x2="582.78" y2="683.07"/><line class="cls-13" x1="598.52" y1="664.13" x2="598.58" y2="679.25"/><line class="cls-13" x1="612.69" y1="657.67" x2="612.75" y2="671.61"/><line class="cls-13" x1="624.3" y1="647.88" x2="623.97" y2="662.05"/><line class="cls-13" x1="548.69" y1="667.95" x2="548.63" y2="683.07"/><line class="cls-13" x1="532.89" y1="664.13" x2="532.83" y2="679.25"/><line class="cls-13" x1="518.72" y1="657.67" x2="518.66" y2="671.61"/><line class="cls-13" x1="507.12" y1="647.88" x2="507.44" y2="662.05"/><ellipse class="cls-8" cx="938.48" cy="641.71" rx="64.63" ry="36.56"/><path class="cls-9" d="M1061.71,674.78c.53,2.39-.47,20.28-1.56,22.85-2,8.18-9.17,16-21.21,21.68-26.43,12.56-66.41,10.53-89.3-4.54-10.68-7-16.47-14.16-16.61-23.08-.34-4.82-.48-18.27-.48-18.27.84-2.94,4.24.12,6.4-2.62,3.57-5.42,9.55-10.39,17.93-14.37,26.42-12.56,66.4-10.53,89.3,4.54C1055.82,667.31,1061,667.12,1061.71,674.78Z" transform="translate(-80.25 -46.15)"/><ellipse class="cls-10" cx="916.93" cy="628.63" rx="64.63" ry="36.56"/><ellipse class="cls-11" cx="916.93" cy="626.63" rx="64.63" ry="36.56"/><ellipse class="cls-10" cx="916.88" cy="625.67" rx="45.18" ry="25.56"/><path class="cls-12" d="M968.32,655.28c19.22-9,47.7-7.5,63.61,3.37,6.35,4.34,9.73,9.5,10.29,14.72.68-6.25-2.67-12.65-10.29-17.85-15.91-10.87-44.39-12.38-63.61-3.38-11.56,5.42-17.13,13.41-16.29,21.28C952.77,666.6,958.29,660,968.32,655.28Z" transform="translate(-80.25 -46.15)"/><path class="cls-11" d="M977.15,680.22c-2.69-2.25-4.88-5.41-4.92-8.24l8.92-.53a9.29,9.29,0,0,0,4.21,6.59c2.92,2,5.52,2.18,8.11.9,5.8-2.87-8.11-12,2-17a21.55,21.55,0,0,1,18.35.13l5.8-2.86,5.06,3.37-5.68,2.81c2.84,2.48,3.44,5,3.17,7.47l-8.59-.23a5.65,5.65,0,0,0-2.88-5.19c-2.51-1.67-4.94-2-7.47-.79-5.35,2.64,8.9,11.61-1.85,16.93a22.25,22.25,0,0,1-18.95-.08l-5.86,2.89L971.53,683Z" transform="translate(-80.25 -46.15)"/><line class="cls-13" x1="917.86" y1="665.85" x2="918.03" y2="681.39"/><line class="cls-13" x1="934.49" y1="664.69" x2="934.55" y2="679.81"/><line class="cls-13" x1="950.29" y1="660.87" x2="950.35" y2="675.99"/><line class="cls-13" x1="964.47" y1="654.42" x2="964.52" y2="668.36"/><line class="cls-13" x1="976.07" y1="644.63" x2="975.74" y2="658.8"/><line class="cls-13" x1="900.46" y1="664.69" x2="900.4" y2="679.81"/><line class="cls-13" x1="884.66" y1="660.87" x2="884.6" y2="675.99"/><line class="cls-13" x1="870.49" y1="654.42" x2="870.43" y2="668.36"/><line class="cls-13" x1="858.89" y1="644.63" x2="859.21" y2="658.8"/><ellipse class="cls-8" cx="755.21" cy="504.22" rx="64.63" ry="36.56"/><path class="cls-9" d="M878.45,537.29c.53,2.38-.48,20.28-1.56,22.84-2,8.19-9.18,16-21.22,21.68-26.42,12.56-66.4,10.53-89.3-4.54-10.67-7-16.47-14.16-16.6-23.07-.35-4.82-.49-18.28-.49-18.28.84-2.94,4.25.13,6.41-2.62,3.56-5.41,9.55-10.38,17.92-14.36,26.42-12.57,66.4-10.53,89.3,4.53C872.55,529.82,877.77,529.62,878.45,537.29Z" transform="translate(-80.25 -46.15)"/><ellipse class="cls-10" cx="733.66" cy="491.13" rx="64.63" ry="36.56"/><ellipse class="cls-11" cx="733.66" cy="489.14" rx="64.63" ry="36.56"/><ellipse class="cls-10" cx="733.61" cy="488.18" rx="45.18" ry="25.56"/><path class="cls-12" d="M785.05,517.78c19.23-9,47.71-7.49,63.62,3.38,6.34,4.33,9.72,9.5,10.29,14.72.67-6.25-2.68-12.65-10.29-17.85-15.91-10.87-44.39-12.39-63.62-3.38-11.56,5.42-17.13,13.4-16.28,21.27C769.5,529.11,775,522.48,785.05,517.78Z" transform="translate(-80.25 -46.15)"/><path class="cls-11" d="M793.89,542.73c-2.69-2.25-4.89-5.41-4.92-8.24l8.91-.53a9.32,9.32,0,0,0,4.21,6.59c2.93,2,5.53,2.18,8.12.9,5.79-2.87-8.12-12,2-17a21.55,21.55,0,0,1,18.35.14l5.8-2.87,5.07,3.38-5.68,2.81c2.83,2.48,3.44,5,3.17,7.47l-8.6-.24a5.61,5.61,0,0,0-2.88-5.18c-2.51-1.67-4.93-2.05-7.47-.8-5.34,2.65,8.9,11.62-1.84,16.94a22.28,22.28,0,0,1-19-.09l-5.85,2.9-5.07-3.38Z" transform="translate(-80.25 -46.15)"/><line class="cls-13" x1="734.6" y1="528.36" x2="734.76" y2="543.9"/><line class="cls-13" x1="751.23" y1="527.2" x2="751.29" y2="542.32"/><line class="cls-13" x1="767.03" y1="523.38" x2="767.09" y2="538.5"/><line class="cls-13" x1="781.2" y1="516.92" x2="781.26" y2="530.87"/><line class="cls-13" x1="792.8" y1="507.13" x2="792.48" y2="521.3"/><line class="cls-13" x1="717.2" y1="527.2" x2="717.14" y2="542.32"/><line class="cls-13" x1="701.4" y1="523.38" x2="701.34" y2="538.5"/><line class="cls-13" x1="687.22" y1="516.92" x2="687.17" y2="530.87"/><line class="cls-13" x1="675.62" y1="507.13" x2="675.95" y2="521.3"/><path class="cls-9" d="M878.45,510.46c.53,2.39-.48,20.28-1.56,22.84-2,8.19-9.18,16-21.22,21.68-26.42,12.56-66.4,10.53-89.3-4.53-10.67-7-16.47-14.16-16.6-23.08-.35-4.82-.49-18.28-.49-18.28.84-2.94,4.25.13,6.41-2.62,3.56-5.41,9.55-10.38,17.92-14.36,26.42-12.56,66.4-10.53,89.3,4.53C872.55,503,877.77,502.8,878.45,510.46Z" transform="translate(-80.25 -46.15)"/><ellipse class="cls-10" cx="733.66" cy="464.3" rx="64.63" ry="36.56"/><ellipse class="cls-11" cx="733.66" cy="462.31" rx="64.63" ry="36.56"/><ellipse class="cls-10" cx="733.61" cy="461.35" rx="45.18" ry="25.56"/><path class="cls-12" d="M785.05,491c19.23-9,47.71-7.49,63.62,3.38,6.34,4.33,9.72,9.5,10.29,14.72.67-6.25-2.68-12.65-10.29-17.85-15.91-10.87-44.39-12.38-63.62-3.38-11.56,5.42-17.13,13.4-16.28,21.27C769.5,502.28,775,495.65,785.05,491Z" transform="translate(-80.25 -46.15)"/><path class="cls-11" d="M793.89,515.9c-2.69-2.25-4.89-5.41-4.92-8.24l8.91-.53a9.32,9.32,0,0,0,4.21,6.59c2.93,1.95,5.53,2.18,8.12.9,5.79-2.87-8.12-12,2-17a21.55,21.55,0,0,1,18.35.14l5.8-2.87,5.07,3.38-5.68,2.81c2.83,2.48,3.44,5,3.17,7.47l-8.6-.24a5.61,5.61,0,0,0-2.88-5.18c-2.51-1.67-4.93-2.05-7.47-.79-5.34,2.64,8.9,11.61-1.84,16.93a22.24,22.24,0,0,1-19-.09l-5.85,2.9-5.07-3.38Z" transform="translate(-80.25 -46.15)"/><line class="cls-13" x1="734.6" y1="501.53" x2="734.76" y2="517.07"/><line class="cls-13" x1="751.23" y1="500.37" x2="751.29" y2="515.49"/><line class="cls-13" x1="767.03" y1="496.55" x2="767.09" y2="511.67"/><line class="cls-13" x1="781.2" y1="490.09" x2="781.26" y2="504.04"/><line class="cls-13" x1="792.8" y1="480.3" x2="792.48" y2="494.47"/><line class="cls-13" x1="717.2" y1="500.37" x2="717.14" y2="515.49"/><line class="cls-13" x1="701.4" y1="496.55" x2="701.34" y2="511.67"/><line class="cls-13" x1="687.22" y1="490.09" x2="687.17" y2="504.04"/><line class="cls-13" x1="675.62" y1="480.3" x2="675.95" y2="494.47"/><path class="cls-9" d="M878.45,481.8c.53,2.38-.48,20.28-1.56,22.84-2,8.19-9.18,16-21.22,21.68-26.42,12.56-66.4,10.53-89.3-4.54-10.67-7-16.47-14.16-16.6-23.07-.35-4.82-.49-18.28-.49-18.28.84-2.94,4.25.12,6.41-2.62,3.56-5.41,9.55-10.39,17.92-14.37C800,450.88,840,452.91,862.91,468,872.55,474.33,877.77,474.13,878.45,481.8Z" transform="translate(-80.25 -46.15)"/><ellipse class="cls-10" cx="733.66" cy="435.64" rx="64.63" ry="36.56"/><ellipse class="cls-11" cx="733.66" cy="433.65" rx="64.63" ry="36.56"/><ellipse class="cls-10" cx="733.61" cy="432.69" rx="45.18" ry="25.56"/><path class="cls-12" d="M785.05,462.29c19.23-9,47.71-7.49,63.62,3.38,6.34,4.33,9.72,9.5,10.29,14.72.67-6.25-2.68-12.65-10.29-17.85-15.91-10.88-44.39-12.39-63.62-3.38-11.56,5.41-17.13,13.4-16.28,21.27C769.5,473.62,775,467,785.05,462.29Z" transform="translate(-80.25 -46.15)"/><path class="cls-11" d="M793.89,487.24C791.2,485,789,481.83,789,479l8.91-.53a9.34,9.34,0,0,0,4.21,6.6c2.93,1.95,5.53,2.17,8.12.89,5.79-2.86-8.12-12,2-17a21.55,21.55,0,0,1,18.35.14l5.8-2.87,5.07,3.38-5.68,2.81c2.83,2.48,3.44,5,3.17,7.47l-8.6-.24a5.61,5.61,0,0,0-2.88-5.18c-2.51-1.68-4.93-2.05-7.47-.8-5.34,2.65,8.9,11.61-1.84,16.93a22.24,22.24,0,0,1-19-.08l-5.85,2.9L788.26,490Z" transform="translate(-80.25 -46.15)"/><line class="cls-13" x1="734.6" y1="472.86" x2="734.76" y2="488.4"/><line class="cls-13" x1="751.23" y1="471.71" x2="751.29" y2="486.83"/><line class="cls-13" x1="767.03" y1="467.89" x2="767.09" y2="483.01"/><line class="cls-13" x1="781.2" y1="461.43" x2="781.26" y2="475.37"/><line class="cls-13" x1="792.8" y1="451.64" x2="792.48" y2="465.81"/><line class="cls-13" x1="717.2" y1="471.71" x2="717.14" y2="486.83"/><line class="cls-13" x1="701.4" y1="467.89" x2="701.34" y2="483.01"/><line class="cls-13" x1="687.22" y1="461.43" x2="687.17" y2="475.37"/><line class="cls-13" x1="675.62" y1="451.64" x2="675.95" y2="465.81"/><path class="cls-9" d="M878.45,454.74c.53,2.39-.48,20.28-1.56,22.85-2,8.18-9.18,16-21.22,21.68-26.42,12.56-66.4,10.53-89.3-4.54-10.67-7-16.47-14.16-16.6-23.08-.35-4.82-.49-18.27-.49-18.27.84-2.94,4.25.12,6.41-2.62,3.56-5.42,9.55-10.39,17.92-14.37,26.42-12.56,66.4-10.53,89.3,4.54C872.55,447.27,877.77,447.08,878.45,454.74Z" transform="translate(-80.25 -46.15)"/><ellipse class="cls-10" cx="733.66" cy="408.59" rx="64.63" ry="36.56"/><ellipse class="cls-11" cx="733.66" cy="406.59" rx="64.63" ry="36.56"/><ellipse class="cls-10" cx="733.61" cy="405.63" rx="45.18" ry="25.56"/><path class="cls-12" d="M785.05,435.24c19.23-9,47.71-7.5,63.62,3.37,6.34,4.34,9.72,9.5,10.29,14.72.67-6.25-2.68-12.65-10.29-17.85-15.91-10.87-44.39-12.38-63.62-3.38-11.56,5.42-17.13,13.41-16.28,21.28C769.5,446.56,775,439.93,785.05,435.24Z" transform="translate(-80.25 -46.15)"/><path class="cls-11" d="M793.89,460.18c-2.69-2.25-4.89-5.41-4.92-8.24l8.91-.53a9.32,9.32,0,0,0,4.21,6.59c2.93,1.95,5.53,2.18,8.12.9,5.79-2.87-8.12-12,2-17a21.55,21.55,0,0,1,18.35.13l5.8-2.86,5.07,3.37-5.68,2.81c2.83,2.48,3.44,5,3.17,7.47l-8.6-.23a5.63,5.63,0,0,0-2.88-5.19c-2.51-1.67-4.93-2.05-7.47-.79-5.34,2.64,8.9,11.61-1.84,16.93a22.28,22.28,0,0,1-19-.08l-5.85,2.89L788.26,463Z" transform="translate(-80.25 -46.15)"/><line class="cls-13" x1="734.6" y1="445.81" x2="734.76" y2="461.35"/><line class="cls-13" x1="751.23" y1="444.65" x2="751.29" y2="459.77"/><line class="cls-13" x1="767.03" y1="440.83" x2="767.09" y2="455.95"/><line class="cls-13" x1="781.2" y1="434.38" x2="781.26" y2="448.32"/><line class="cls-13" x1="792.8" y1="424.59" x2="792.48" y2="438.75"/><line class="cls-13" x1="717.2" y1="444.65" x2="717.14" y2="459.77"/><line class="cls-13" x1="701.4" y1="440.83" x2="701.34" y2="455.95"/><line class="cls-13" x1="687.22" y1="434.38" x2="687.17" y2="448.32"/><line class="cls-13" x1="675.62" y1="424.59" x2="675.95" y2="438.75"/><ellipse class="cls-8" cx="655.2" cy="561.15" rx="64.63" ry="36.56"/><path class="cls-9" d="M778.43,594.22c.53,2.38-.48,20.28-1.56,22.84-2,8.19-9.18,16-21.22,21.68-26.42,12.56-66.4,10.53-89.3-4.54-10.67-7-16.46-14.16-16.6-23.07-.34-4.82-.49-18.28-.49-18.28.85-2.94,4.25.13,6.41-2.62,3.57-5.41,9.55-10.38,17.93-14.37C700,563.3,740,565.34,762.9,580.4,772.54,586.75,777.76,586.55,778.43,594.22Z" transform="translate(-80.25 -46.15)"/><ellipse class="cls-10" cx="633.64" cy="548.06" rx="64.63" ry="36.56"/><ellipse class="cls-11" cx="633.64" cy="546.07" rx="64.63" ry="36.56"/><ellipse class="cls-10" cx="633.6" cy="545.11" rx="45.18" ry="25.56"/><path class="cls-12" d="M685,574.71c19.22-9,47.7-7.49,63.61,3.38,6.34,4.33,9.73,9.5,10.29,14.72.68-6.25-2.68-12.65-10.29-17.85-15.91-10.87-44.39-12.39-63.61-3.38C673.48,577,667.9,585,668.75,592.85,669.49,586,675,579.41,685,574.71Z" transform="translate(-80.25 -46.15)"/><path class="cls-11" d="M693.87,599.66c-2.69-2.25-4.88-5.41-4.92-8.25l8.92-.52a9.31,9.31,0,0,0,4.2,6.59c2.93,1.95,5.53,2.18,8.12.9,5.8-2.87-8.11-12,2-17a21.55,21.55,0,0,1,18.35.14l5.79-2.87,5.07,3.38-5.68,2.81c2.84,2.48,3.44,5,3.17,7.47l-8.59-.24a5.65,5.65,0,0,0-2.88-5.18c-2.51-1.67-4.94-2-7.47-.8-5.35,2.65,8.9,11.62-1.85,16.93a22.24,22.24,0,0,1-19-.08l-5.85,2.9-5.07-3.38Z" transform="translate(-80.25 -46.15)"/><line class="cls-13" x1="634.58" y1="585.28" x2="634.75" y2="600.83"/><line class="cls-13" x1="651.21" y1="584.13" x2="651.27" y2="599.25"/><line class="cls-13" x1="667.01" y1="580.31" x2="667.07" y2="595.43"/><line class="cls-13" x1="681.18" y1="573.85" x2="681.24" y2="587.79"/><line class="cls-13" x1="692.79" y1="564.06" x2="692.46" y2="578.23"/><line class="cls-13" x1="617.18" y1="584.13" x2="617.12" y2="599.25"/><line class="cls-13" x1="601.38" y1="580.31" x2="601.32" y2="595.43"/><line class="cls-13" x1="587.21" y1="573.85" x2="587.15" y2="587.79"/><line class="cls-13" x1="575.61" y1="564.06" x2="575.93" y2="578.23"/><path class="cls-9" d="M778.43,567.39c.53,2.38-.48,20.28-1.56,22.84-2,8.19-9.18,16-21.22,21.68-26.42,12.56-66.4,10.53-89.3-4.53-10.67-7-16.46-14.16-16.6-23.08-.34-4.82-.49-18.28-.49-18.28.85-2.94,4.25.13,6.41-2.62C659.24,558,665.22,553,673.6,549c26.42-12.57,66.4-10.53,89.3,4.53C772.54,559.92,777.76,559.73,778.43,567.39Z" transform="translate(-80.25 -46.15)"/><ellipse class="cls-10" cx="633.64" cy="521.23" rx="64.63" ry="36.56"/><ellipse class="cls-11" cx="633.64" cy="519.24" rx="64.63" ry="36.56"/><ellipse class="cls-10" cx="633.6" cy="518.28" rx="45.18" ry="25.56"/><path class="cls-12" d="M685,547.88c19.22-9,47.7-7.49,63.61,3.38,6.34,4.33,9.73,9.5,10.29,14.72.68-6.25-2.68-12.65-10.29-17.85-15.91-10.87-44.39-12.39-63.61-3.38-11.56,5.42-17.14,13.4-16.29,21.27C669.49,559.21,675,552.58,685,547.88Z" transform="translate(-80.25 -46.15)"/><path class="cls-11" d="M693.87,572.83c-2.69-2.25-4.88-5.41-4.92-8.24l8.92-.53a9.31,9.31,0,0,0,4.2,6.59c2.93,2,5.53,2.18,8.12.9,5.8-2.87-8.11-12,2-17a21.55,21.55,0,0,1,18.35.14l5.79-2.87,5.07,3.38L735.74,558c2.84,2.48,3.44,5,3.17,7.47l-8.59-.24a5.65,5.65,0,0,0-2.88-5.18c-2.51-1.67-4.94-2-7.47-.8-5.35,2.65,8.9,11.62-1.85,16.94a22.24,22.24,0,0,1-19-.09l-5.85,2.9-5.07-3.38Z" transform="translate(-80.25 -46.15)"/><line class="cls-13" x1="634.58" y1="558.46" x2="634.75" y2="574"/><line class="cls-13" x1="651.21" y1="557.3" x2="651.27" y2="572.42"/><line class="cls-13" x1="667.01" y1="553.48" x2="667.07" y2="568.6"/><line class="cls-13" x1="681.18" y1="547.02" x2="681.24" y2="560.97"/><line class="cls-13" x1="692.79" y1="537.23" x2="692.46" y2="551.4"/><line class="cls-13" x1="617.18" y1="557.3" x2="617.12" y2="572.42"/><line class="cls-13" x1="601.38" y1="553.48" x2="601.32" y2="568.6"/><line class="cls-13" x1="587.21" y1="547.02" x2="587.15" y2="560.97"/><line class="cls-13" x1="575.61" y1="537.23" x2="575.93" y2="551.4"/><path class="cls-9" d="M778.43,538.73c.53,2.38-.48,20.28-1.56,22.84-2,8.19-9.18,16-21.22,21.68-26.42,12.56-66.4,10.53-89.3-4.54-10.67-7-16.46-14.16-16.6-23.07-.34-4.82-.49-18.28-.49-18.28.85-2.94,4.25.12,6.41-2.62,3.57-5.41,9.55-10.39,17.93-14.37,26.42-12.56,66.4-10.53,89.3,4.54C772.54,531.26,777.76,531.06,778.43,538.73Z" transform="translate(-80.25 -46.15)"/><ellipse class="cls-10" cx="633.64" cy="492.57" rx="64.63" ry="36.56"/><ellipse class="cls-11" cx="633.64" cy="490.58" rx="64.63" ry="36.56"/><ellipse class="cls-10" cx="633.6" cy="489.62" rx="45.18" ry="25.56"/><path class="cls-12" d="M685,519.22c19.22-9,47.7-7.49,63.61,3.38,6.34,4.33,9.73,9.5,10.29,14.72.68-6.25-2.68-12.65-10.29-17.85-15.91-10.88-44.39-12.39-63.61-3.38-11.56,5.41-17.14,13.4-16.29,21.27C669.49,530.55,675,523.92,685,519.22Z" transform="translate(-80.25 -46.15)"/><path class="cls-11" d="M693.87,544.16c-2.69-2.24-4.88-5.4-4.92-8.24l8.92-.53a9.33,9.33,0,0,0,4.2,6.6c2.93,1.94,5.53,2.17,8.12.89,5.8-2.87-8.11-12,2-17a21.52,21.52,0,0,1,18.35.14l5.79-2.87,5.07,3.38-5.68,2.81c2.84,2.48,3.44,5,3.17,7.47l-8.59-.24a5.65,5.65,0,0,0-2.88-5.18c-2.51-1.68-4.94-2-7.47-.8-5.35,2.65,8.9,11.61-1.85,16.93a22.24,22.24,0,0,1-19-.08l-5.85,2.9L688.24,547Z" transform="translate(-80.25 -46.15)"/><line class="cls-13" x1="634.58" y1="529.79" x2="634.75" y2="545.33"/><line class="cls-13" x1="651.21" y1="528.64" x2="651.27" y2="543.76"/><line class="cls-13" x1="667.01" y1="524.82" x2="667.07" y2="539.94"/><line class="cls-13" x1="681.18" y1="518.36" x2="681.24" y2="532.3"/><line class="cls-13" x1="692.79" y1="508.57" x2="692.46" y2="522.74"/><line class="cls-13" x1="617.18" y1="528.64" x2="617.12" y2="543.76"/><line class="cls-13" x1="601.38" y1="524.82" x2="601.32" y2="539.94"/><line class="cls-13" x1="587.21" y1="518.36" x2="587.15" y2="532.3"/><line class="cls-13" x1="575.61" y1="508.57" x2="575.93" y2="522.74"/><path class="cls-9" d="M778.43,511.67c.53,2.39-.48,20.28-1.56,22.85-2,8.18-9.18,16-21.22,21.68-26.42,12.56-66.4,10.53-89.3-4.54-10.67-7-16.46-14.16-16.6-23.08-.34-4.82-.49-18.27-.49-18.27.85-2.94,4.25.12,6.41-2.62,3.57-5.42,9.55-10.39,17.93-14.37,26.42-12.56,66.4-10.53,89.3,4.54C772.54,504.2,777.76,504,778.43,511.67Z" transform="translate(-80.25 -46.15)"/><ellipse class="cls-10" cx="633.64" cy="465.52" rx="64.63" ry="36.56"/><ellipse class="cls-11" cx="633.64" cy="463.52" rx="64.63" ry="36.56"/><ellipse class="cls-10" cx="633.6" cy="462.56" rx="45.18" ry="25.56"/><path class="cls-12" d="M685,492.17c19.22-9,47.7-7.5,63.61,3.37,6.34,4.34,9.73,9.5,10.29,14.72.68-6.25-2.68-12.65-10.29-17.85C732.74,481.54,704.26,480,685,489c-11.56,5.42-17.14,13.41-16.29,21.28C669.49,503.49,675,496.86,685,492.17Z" transform="translate(-80.25 -46.15)"/><path class="cls-11" d="M693.87,517.11c-2.69-2.25-4.88-5.41-4.92-8.24l8.92-.53a9.31,9.31,0,0,0,4.2,6.59c2.93,2,5.53,2.18,8.12.9,5.8-2.87-8.11-12,2-17a21.59,21.59,0,0,1,18.35.14l5.79-2.87,5.07,3.38-5.68,2.81c2.84,2.48,3.44,5,3.17,7.47l-8.59-.23a5.66,5.66,0,0,0-2.88-5.19c-2.51-1.67-4.94-2.05-7.47-.79-5.35,2.64,8.9,11.61-1.85,16.93a22.28,22.28,0,0,1-19-.08l-5.85,2.89-5.07-3.37Z" transform="translate(-80.25 -46.15)"/><line class="cls-13" x1="634.58" y1="502.74" x2="634.75" y2="518.28"/><line class="cls-13" x1="651.21" y1="501.58" x2="651.27" y2="516.7"/><line class="cls-13" x1="667.01" y1="497.76" x2="667.07" y2="512.88"/><line class="cls-13" x1="681.18" y1="491.31" x2="681.24" y2="505.25"/><line class="cls-13" x1="692.79" y1="481.52" x2="692.46" y2="495.68"/><line class="cls-13" x1="617.18" y1="501.58" x2="617.12" y2="516.7"/><line class="cls-13" x1="601.38" y1="497.76" x2="601.32" y2="512.88"/><line class="cls-13" x1="587.21" y1="491.31" x2="587.15" y2="505.25"/><line class="cls-13" x1="575.61" y1="481.52" x2="575.93" y2="495.68"/><path class="cls-9" d="M917.43,587.45c.53,2.38-.48,20.28-1.56,22.84-2,8.19-9.18,16-21.22,21.68-26.42,12.56-66.4,10.53-89.3-4.54-10.67-7-16.47-14.16-16.6-23.07-.34-4.82-.49-18.28-.49-18.28.84-2.94,4.25.12,6.41-2.62,3.56-5.41,9.55-10.38,17.92-14.37,26.42-12.56,66.4-10.53,89.3,4.54C911.54,580,916.76,579.78,917.43,587.45Z" transform="translate(-80.25 -46.15)"/><ellipse class="cls-10" cx="772.64" cy="541.29" rx="64.63" ry="36.56"/><ellipse class="cls-11" cx="772.64" cy="539.3" rx="64.63" ry="36.56"/><ellipse class="cls-10" cx="772.59" cy="538.34" rx="45.18" ry="25.56"/><path class="cls-12" d="M824,567.94c19.23-9,47.71-7.49,63.62,3.38,6.34,4.33,9.72,9.5,10.29,14.72.67-6.25-2.68-12.65-10.29-17.85-15.91-10.87-44.39-12.39-63.62-3.38-11.56,5.41-17.13,13.4-16.28,21.27C808.48,579.27,814,572.64,824,567.94Z" transform="translate(-80.25 -46.15)"/><path class="cls-11" d="M832.87,592.89c-2.69-2.25-4.89-5.41-4.92-8.25l8.91-.53a9.32,9.32,0,0,0,4.21,6.6c2.93,1.95,5.53,2.18,8.12.89,5.79-2.86-8.12-12,2-17a21.55,21.55,0,0,1,18.35.14l5.8-2.87,5.07,3.38-5.68,2.81c2.83,2.48,3.44,5,3.17,7.47l-8.6-.24a5.61,5.61,0,0,0-2.88-5.18c-2.51-1.67-4.93-2.05-7.47-.8-5.34,2.65,8.9,11.61-1.84,16.93a22.24,22.24,0,0,1-19-.08l-5.85,2.9-5.07-3.38Z" transform="translate(-80.25 -46.15)"/><line class="cls-13" x1="773.58" y1="578.51" x2="773.74" y2="594.05"/><line class="cls-13" x1="790.21" y1="577.36" x2="790.27" y2="592.48"/><line class="cls-13" x1="806.01" y1="573.54" x2="806.07" y2="588.66"/><line class="cls-13" x1="820.18" y1="567.08" x2="820.24" y2="581.02"/><line class="cls-13" x1="831.78" y1="557.29" x2="831.46" y2="571.46"/><line class="cls-13" x1="756.18" y1="577.36" x2="756.12" y2="592.48"/><line class="cls-13" x1="740.38" y1="573.54" x2="740.32" y2="588.66"/><line class="cls-13" x1="726.2" y1="567.08" x2="726.15" y2="581.02"/><line class="cls-13" x1="714.6" y1="557.29" x2="714.93" y2="571.46"/><path class="cls-5" d="M994.17,338.8s8.51,1.47,8.93,5.72a46.15,46.15,0,0,1,0,8.26l-28.42-3.07,1.73-11.78Z" transform="translate(-80.25 -46.15)"/><path class="cls-25" d="M955.47,367.53s-16,25.87-15.4,41.93c0,0,6.39,8.8,9.32,1,7.15-19.06,11.71-35.38,18.51-41.87S955.47,367.53,955.47,367.53Z" transform="translate(-80.25 -46.15)"/><path class="cls-5" d="M998.16,578l7.33-16.72c1.24-1.43,4.68-2.62,7.25-2.71a3.23,3.23,0,0,1,2.84,2.24l1.09,2.86c1.7,4.1,1.58,4.77,0,6.67l-9.72,11.28a6.62,6.62,0,0,1-7,1.78l-.63-.27C997,582.24,996.52,579.93,998.16,578Z" transform="translate(-80.25 -46.15)"/><path class="cls-6" d="M1016.62,561c0,4-9.93,5-9.91,1l0-12.92,9.92-1.05Z" transform="translate(-80.25 -46.15)"/><path class="cls-7" d="M1017.52,552.67c-2.81,4.86-9.88,5.65-12.19,2.61L982,420.76l33.19-2.52.72,86C1020.92,526.15,1019.21,539.4,1017.52,552.67Z" transform="translate(-80.25 -46.15)"/><path class="cls-25" d="M1008,382c7.42,8.77,11.09,13,16.91,25.06,3.8,7.87,2.13,14.68-1.16,19-4.49,5.86-9.66,12.45-9.66,12.45l5.77,5.24s21-17.95,17.62-34.43l-12.37-39Z" transform="translate(-80.25 -46.15)"/><path class="cls-25" d="M1019,440l-.93-.88a4.56,4.56,0,0,0-6.37.51l-3.66,3.89a4.54,4.54,0,0,0-.14,6.38l.94.88a4.53,4.53,0,0,0,6.36-.51l3.67-3.88A4.54,4.54,0,0,0,1019,440Z" transform="translate(-80.25 -46.15)"/><path class="cls-26" d="M964.44,345.85c-9.88,15.84-19.37,31.78-20.44,42.61,2.6,9.06,5.1,4,11.44,6.28l18.95-33.27-5.19-8.71Z" transform="translate(-80.25 -46.15)"/><path class="cls-26" d="M963.4,421.67c-.49-15.68-.92-30.22-3.86-49.68-.85-27,9.06-37.36,26.29-31.68l7.09,1.65c20.91,10.43,31.33,9.55,28.34,31.43l-2.11,47.8C1019.91,445.75,963,450.57,963.4,421.67Z" transform="translate(-80.25 -46.15)"/><polygon class="cls-5" points="927.7 334.21 937.72 370.74 938.89 374.29 939.64 356.51 927.7 334.21"/><path class="cls-26" d="M1006.17,376.09l19.33,36.67c1.53,2.22,12.77-1.25,12.64-5.16-.28-8.18-13.1-50.63-25.3-55.94C1002.92,347.36,1000.36,363,1006.17,376.09Z" transform="translate(-80.25 -46.15)"/><path class="cls-21" d="M987.8,374.56s-2.88,2.11-1.43,5.1,16.36,1.09,15.27-3.71S999.67,369.08,987.8,374.56Z" transform="translate(-80.25 -46.15)"/><path class="cls-21" d="M952.52,397.1a4.22,4.22,0,0,0,5.06-3.29s0-.06,0-.09c.55-3.28-12.67-10.4-14.57-5.86C941.24,392.13,941.79,394.77,952.52,397.1Z" transform="translate(-80.25 -46.15)"/><path class="cls-10" d="M1001.61,345.89s1.28,7.37-9.36,13.8c-5.48,3.32-8.12,8.78-9.4,13.29-.74,2.63-2.3,1.37-2.65-1.38-.91-7.16-1.2-9.24-2.82-14.52-2.61-8.54.82-21.33,1.29-21.43S1001.61,345.89,1001.61,345.89Z" transform="translate(-80.25 -46.15)"/><path class="cls-10" d="M978.67,379a1.79,1.79,0,1,0,1.79-1.8A1.79,1.79,0,0,0,978.67,379Z" transform="translate(-80.25 -46.15)"/><path class="cls-10" d="M978.93,385.92a1.8,1.8,0,1,0,1.79-1.79A1.79,1.79,0,0,0,978.93,385.92Z" transform="translate(-80.25 -46.15)"/><path class="cls-5" d="M986.67,340.65s-10.26,3.44-7.74,13.11l.41,11.48s-8.19-12.9-4.66-25.15S986.67,340.65,986.67,340.65Z" transform="translate(-80.25 -46.15)"/><path class="cls-5" d="M982.72,341.06s2.22,2.68,3.47,3.12,16.53-8.84,13.22-22c-2.09-8.33-17.88-4.15-17.88-4.15Z" transform="translate(-80.25 -46.15)"/><path class="cls-25" d="M991.45,352.38l-.76.22a4.86,4.86,0,0,1-6-3.36l-4.07-14.47a4.86,4.86,0,0,1,3.36-6l.76-.21a4.86,4.86,0,0,1,6,3.35l6,13.33C997.41,347.84,994,351.66,991.45,352.38Z" transform="translate(-80.25 -46.15)"/><path class="cls-27" d="M982.85,342.59a13.27,13.27,0,0,0,9.82-7s-3,9.68-8.69,11.08Z" transform="translate(-80.25 -46.15)"/><path class="cls-5" d="M996.32,339.54s7.35,8.46-5.69,15.7c0,0-5,5.39-5,11.2,0,0,4.35-3.58,6.87-5.53S1014,347.05,996.32,339.54Z" transform="translate(-80.25 -46.15)"/><path class="cls-25" d="M985.55,336.36c-2.41,6.82-7.68,8.46-11.78,3.67s-5.48-14.2-3.07-21,7.68-8.46,11.78-3.67S988,329.54,985.55,336.36Z" transform="translate(-80.25 -46.15)"/><path class="cls-25" d="M993,334.6c-2.41,6.81-14,11.36-18.08,6.57s-1.49-16.68.92-23.5,7.68-8.46,11.78-3.67S995.39,327.78,993,334.6Z" transform="translate(-80.25 -46.15)"/><path class="cls-5" d="M984.65,318.5s-1.07,13.37,9.58,16c0,0,11.67-7.27,2.5-19.8-8.07-11-20.13-2-20.13-2Z" transform="translate(-80.25 -46.15)"/><path class="cls-5" d="M969.58,328s1.22-5.75,8.08-8.39l-5.59-3.09S966.52,318,969.58,328Z" transform="translate(-80.25 -46.15)"/><path class="cls-5" d="M990.44,326.14c-2.42-3-7.37-2.84-14.32-.07a6,6,0,0,1-3.32.45c-5.27-.9-6.28-7.36-6.28-7.36-1.27-4.29,1.53-6.35,5.83-7.62l11.19-3.32c6.33-1.92,12.7,3.12,14,7.42l.32.71C999.11,320.64,994.73,324.87,990.44,326.14Z" transform="translate(-80.25 -46.15)"/><path class="cls-25" d="M995.4,334.05a3.18,3.18,0,1,1-1.94-4.06A3.17,3.17,0,0,1,995.4,334.05Z" transform="translate(-80.25 -46.15)"/><path class="cls-6" d="M1015,455.33s-8.21-14.43-8.33-15.9c0,0-3.12,7.53,0,11.71A11.22,11.22,0,0,0,1015,455.33Z" transform="translate(-80.25 -46.15)"/><path class="cls-6" d="M978.18,409.51,973.82,408l-.51-.51-.32-.58-32.78-17a1.68,1.68,0,0,0-1.45.05l-12.51,7.34,0-.2-2.36.94.1,1h0a.54.54,0,0,0,.26.26l34.1,17.73a.16.16,0,0,1,.09.13c.72,2.61,1.91,4.95,4.13,3.59l13.86-8.16a3.34,3.34,0,0,0,1.75-3Z" transform="translate(-80.25 -46.15)"/><path class="cls-22" d="M959.75,419.64l-39.27-20.42c-.46-.24-.45-.65,0-.93l16.69-9.78a1.89,1.89,0,0,1,1.67-.07l39.27,20.42c.46.24.45.66,0,.93l-16.69,9.78A1.89,1.89,0,0,1,959.75,419.64Z" transform="translate(-80.25 -46.15)"/><path class="cls-6" d="M960.85,406.49l-9.5-4.95c-.11-.05-.11-.15,0-.22l4-2.37a.47.47,0,0,1,.4,0l9.51,4.94c.11.06.11.16,0,.22l-4,2.37A.49.49,0,0,1,960.85,406.49Z" transform="translate(-80.25 -46.15)"/><path class="cls-10" d="M956.31,396.66a4.51,4.51,0,0,0-2-2.47l-39-19.95a1,1,0,0,0-.82-.13h0a.4.4,0,0,0-.18.14l-1.08,1.22,1.1-.1L920.22,397a4.47,4.47,0,0,0,2,2.47L959,418.3l1.26,1.2.17.3c.72.15,2.28-1,2.28-1Z" transform="translate(-80.25 -46.15)"/><path class="cls-28" d="M960,420.69l-39-20a4.43,4.43,0,0,1-2-2.46l-5.91-21.82c-.25-.93.22-1.34,1.06-.91l39,20a4.43,4.43,0,0,1,2,2.46l5.91,21.82C961.3,420.71,960.83,421.12,960,420.69Z" transform="translate(-80.25 -46.15)"/><path class="cls-10" d="M938.14,399.56c.32,1.16-.76,1.42-2.39.58a7.47,7.47,0,0,1-3.54-3.62c-.31-1.15.76-1.41,2.4-.57A7.34,7.34,0,0,1,938.14,399.56Z" transform="translate(-80.25 -46.15)"/><path class="cls-25" d="M935.33,412.07l5.17,3.25a4,4,0,0,0,5.55-1.26h0a4.05,4.05,0,0,0-1.26-5.56l-5.17-3.25a4.05,4.05,0,0,0-5.56,1.26h0A4,4,0,0,0,935.33,412.07Z" transform="translate(-80.25 -46.15)"/><path class="cls-29" d="M843,690.77l117.37,67.05c3.18,1.82,2.8,5.06-.84,7.21l-71.28,42.06c-3.65,2.15-23.94,3.14-27.12,1.32L758.49,740.65c-3.18-1.82-2.8-5.06.85-7.21l71.27-42.06C834.26,689.23,839.84,689,843,690.77Z" transform="translate(-80.25 -46.15)"/><path class="cls-30" d="M938.63,760.81h0l-.41-8.33L924.54,751,819.11,690.77c-3.18-1.81-8.77-1.54-12.41.61L739.55,731l-7.44-.8.31,7.43a.11.11,0,0,1,0,0v0h0a3.75,3.75,0,0,0,2.15,2.94l117.37,67c3.18,1.82,8.76,1.55,12.41-.6L935.63,765c2-1.21,3.07-2.76,3-4.22Z" transform="translate(-80.25 -46.15)"/><path class="cls-31" d="M818.7,682.49l117.37,67c3.17,1.82,2.79,5.06-.85,7.21L863.94,798.8c-3.64,2.15-9.23,2.42-12.41.61l-117.37-67c-3.18-1.82-2.8-5.06.85-7.21l71.28-42.06C809.93,680.94,815.52,680.67,818.7,682.49Z" transform="translate(-80.25 -46.15)"/><path class="cls-10" d="M843.56,773.51l20.85,11.91c1,.58.89,1.6-.26,2.28h0a4.35,4.35,0,0,1-3.93.19L839.37,776c-1-.57-.88-1.6.27-2.28h0A4.36,4.36,0,0,1,843.56,773.51Z" transform="translate(-80.25 -46.15)"/><path class="cls-10" d="M815.92,690l20,11.41c1.25.71,1.1,2-.33,2.83h0a5.39,5.39,0,0,1-4.88.24l-20-11.4c-1.25-.71-1.1-2,.33-2.84h0A5.45,5.45,0,0,1,815.92,690Z" transform="translate(-80.25 -46.15)"/><path class="cls-11" d="M801,699.63l17.16,9.8c2,1.16,1.78,3.22-.53,4.58L814.31,716c-2.31,1.36-5.86,1.54-7.88.38l-17.16-9.8c-2-1.15-1.78-3.22.54-4.58l3.28-1.94C795.4,698.65,799,698.47,801,699.63Z" transform="translate(-80.25 -46.15)"/><path class="cls-10" d="M757.52,724.92l52.28,29.86c1,.58.89,1.6-.26,2.28h0a4.33,4.33,0,0,1-3.92.19l-52.29-29.86c-1-.58-.89-1.6.27-2.28h0A4.33,4.33,0,0,1,757.52,724.92Z" transform="translate(-80.25 -46.15)"/><path class="cls-10" d="M864.26,763.81l17.36,9.92c1.52.87,1.34,2.42-.4,3.45h0a6.57,6.57,0,0,1-5.93.29l-17.37-9.92c-1.52-.87-1.34-2.42.4-3.45h0A6.59,6.59,0,0,1,864.26,763.81Z" transform="translate(-80.25 -46.15)"/><path class="cls-10" d="M834.89,747,852.26,757c1.52.87,1.33,2.42-.41,3.45h0a6.57,6.57,0,0,1-5.93.29l-17.37-9.92c-1.52-.87-1.34-2.42.41-3.45h0A6.63,6.63,0,0,1,834.89,747Z" transform="translate(-80.25 -46.15)"/><path class="cls-10" d="M805.52,730.26l17.37,9.92c1.52.87,1.34,2.42-.4,3.45h0a6.59,6.59,0,0,1-5.94.29L799.19,734c-1.53-.87-1.34-2.42.4-3.45h0A6.57,6.57,0,0,1,805.52,730.26Z" transform="translate(-80.25 -46.15)"/><path class="cls-10" d="M776.15,713.48l17.37,9.92c1.52.87,1.34,2.42-.4,3.45h0a6.57,6.57,0,0,1-5.93.29l-17.37-9.92c-1.52-.87-1.34-2.42.4-3.45h0A6.63,6.63,0,0,1,776.15,713.48Z" transform="translate(-80.25 -46.15)"/><path class="cls-10" d="M895.09,747.74c4.54-2.68,12-2.72,16.58-.09s4.66,6.94.11,9.63-12,2.72-16.58.09S890.54,750.42,895.09,747.74Z" transform="translate(-80.25 -46.15)"/><path class="cls-32" d="M934.15,756.74,862.87,798.8c-3.64,2.15-9.22,2.42-12.4.61l-117.37-67" transform="translate(-80.25 -46.15)"/><path class="cls-15" d="M590.75,761c-15.69-31.7-66-48-120.86-38.93-48.55,8-79,34.78-74.55,62.79a35.84,35.84,0,0,0,3.56,21.88,50.6,50.6,0,0,0,8.51,12l-16.36,9.44a29.6,29.6,0,0,0-6.79-4.6c-5.14-2.45-9.57-2.26-12.54,0h0l-90.35,54h0c-3.32,1.91-5.19,6-4.73,11.85.87,11,9.62,23.67,19.54,28.39,4.4,2.1,8.29,2.27,11.19.85h0l.12-.07a9.32,9.32,0,0,0,1.05-.62l89.7-53.67h0c3.85-1.67,6.07-6,5.57-12.29a27.72,27.72,0,0,0-.88-4.88l23.79-13.73c25.67,14.2,63.34,20.38,100,14.34,48.56-8,79-34.78,74.56-62.79C602.4,777.75,594.37,768.29,590.75,761ZM439,808.75c1.68,1.09,3.45,2.13,5.29,3.11C442.46,810.88,440.69,809.84,439,808.75Zm131.4-14a32.83,32.83,0,0,0,3.24-6.24,32.83,32.83,0,0,1-3.24,6.24,40.55,40.55,0,0,1-3,4A40.55,40.55,0,0,0,570.41,794.8ZM459.47,818.2c2,.63,4,1.2,6,1.73-2-.53-4-1.1-6-1.73-2.18-.7-4.31-1.46-6.37-2.27C455.16,816.74,457.29,817.5,459.47,818.2Zm36.09,5.68c-3.84,0-7.64-.27-11.38-.64C487.92,823.61,491.72,823.83,495.56,823.88Zm23.29-1.74c13-2.14,24.22-6,33.21-11.13-9,5.09-20.25,9-33.2,11.13a130.9,130.9,0,0,1-15.57,1.62A130.52,130.52,0,0,0,518.85,822.14Zm42.87-17.78q-2.13,1.78-4.55,3.45Q559.59,806.15,561.72,804.36Z" transform="translate(-80.25 -46.15)"/><path class="cls-33" d="M376.19,851.54l-19.54-11.28,53-30.61c10.91-6.68,22.81,7.88,14.46,13.71Z" transform="translate(-80.25 -46.15)"/><path class="cls-34" d="M587.84,759.5c-15.68-31.7-72.9-50-127.8-41s-86.67,42.09-71,73.78,72.91,50.05,127.8,41S603.53,791.19,587.84,759.5Zm-75.76,62.8c-47,7.75-96-8-109.43-35.09s13.78-55.42,60.78-63.18,96,8,109.43,35.1S559.08,814.55,512.08,822.3Z" transform="translate(-80.25 -46.15)"/><ellipse class="cls-26" cx="377.26" cy="841.87" rx="14.07" ry="24.37" transform="translate(-491.08 316.15) rotate(-34.54)"/><polygon class="cls-26" points="192.55 829.83 282.9 775.88 309.42 816.56 218.55 870.93 192.55 829.83"/><ellipse class="cls-26" cx="286.04" cy="896.4" rx="14.07" ry="24.37" transform="translate(-538.07 274.03) rotate(-34.54)"/><path class="cls-35" d="M270.11,877.7c3-2,7.29-2.12,12.25.25,9.92,4.72,18.67,17.44,19.54,28.39.36,4.53-.69,8-2.73,10.28" transform="translate(-80.25 -46.15)"/><path class="cls-26" d="M587.84,753.64c-15.68-31.7-72.9-50-127.8-41s-86.67,42.09-71,73.78,72.91,50.05,127.8,41S603.53,785.33,587.84,753.64Zm-75.76,62.8c-47,7.76-96-8-109.43-35.09s13.78-55.42,60.78-63.17,96,8,109.43,35.09S559.08,808.69,512.08,816.44Z" transform="translate(-80.25 -46.15)"/><path class="cls-10" d="M507.59,793.35l.7.13a3.91,3.91,0,0,0,4-2.05l19.67-39.67a2,2,0,0,0-1.43-3.07l-.7-.13a3.93,3.93,0,0,0-4,2.05l-19.68,39.67A2,2,0,0,0,507.59,793.35Z" transform="translate(-80.25 -46.15)"/><path class="cls-10" d="M491.26,785.9l.33.06a1.87,1.87,0,0,0,1.89-1l21-42.35a1,1,0,0,0-.68-1.46l-.33-.06a1.89,1.89,0,0,0-1.9,1l-21,42.35A1,1,0,0,0,491.26,785.9Z" transform="translate(-80.25 -46.15)"/><path class="cls-35" d="M376.52,822s12.25,3.56,18.45,26.27" transform="translate(-80.25 -46.15)"/><path class="cls-24" d="M719.43,818.61c-6.85,9.76-10.74,14.57-22.59,16.9-16.39,3.22-29.87-17.92-41-29.18-5-5,1.94-13.79,7-8.68,9,9.11,20.76,17.69,34.26,14.81,9-1.92,10.89-1.88,16.06-9.25,4.11-5.86,12.19,6.06,8.09,11.92Z" transform="translate(-80.25 -46.15)"/><path class="cls-25" d="M655.35,803.34,651,799.76a5.3,5.3,0,0,1-.69-7.45h0a5.32,5.32,0,0,1,7.46-.69l4.3,3.58a5.32,5.32,0,0,1,.69,7.46h0A5.29,5.29,0,0,1,655.35,803.34Z" transform="translate(-80.25 -46.15)"/><ellipse class="cls-4" cx="707.05" cy="899.57" rx="19.99" ry="40.23" transform="translate(-338.61 1467.51) rotate(-84.29)"/><path class="cls-25" d="M675,878.73s.14,15.82,39.73,27.54l2.41-3.7L683.59,869.2Z" transform="translate(-80.25 -46.15)"/><path class="cls-5" d="M714,906.86l6.48,3c3.87,3.47,5.49,5.68,7.87,5.15l.68-.14c2.37-.53,2.77-2.66.87-4.73l-7.42-11a6.88,6.88,0,0,0-7.53-1.6s-1.43.65-2,5.11C712.69,905.16,712.5,905.2,714,906.86Z" transform="translate(-80.25 -46.15)"/><path class="cls-25" d="M664.92,882.64s-12.4,10.59,41.4,32.26l3.51-6.95-34.07-26.78Z" transform="translate(-80.25 -46.15)"/><path class="cls-26" d="M730.07,859.24,681.56,862s-32.93,18.43-6.36,29.2l37.08,12.52c8,2.77,15.24,2.65,20.64-4.45,4.77-6.26,4.91-20.68,1.71-27.06Z" transform="translate(-80.25 -46.15)"/><path class="cls-5" d="M706,914.83l6.48,3c3.87,3.47,5.49,5.67,7.87,5.15l.68-.15c2.38-.52,2.77-2.65.87-4.72l-7.42-11a6.86,6.86,0,0,0-7.53-1.6s-1.43.65-2,5.11C704.62,913.14,704.44,913.17,706,914.83Z" transform="translate(-80.25 -46.15)"/><path class="cls-36" d="M639.91,811.9l13.74-6.11a2.13,2.13,0,0,0,1.05-2.43l-6.24-26a1.41,1.41,0,0,0-1.9-1.16l-13.63,5.89a2.13,2.13,0,0,0-1,2.43l6.21,25.88c.15.65.43.79,1,1.07Z" transform="translate(-80.25 -46.15)"/><path class="cls-36" d="M643.9,788s11,16.4,10.8,15.41l-6.06-26.8-1.08-.37a1.24,1.24,0,0,0-1,0l-13.63,5.89a1.82,1.82,0,0,0-.91.94Z" transform="translate(-80.25 -46.15)"/><path class="cls-5" d="M641.14,812l13.59-5.88a2.13,2.13,0,0,0,1-2.44l-6.24-26a1.4,1.4,0,0,0-1.89-1.16L634,782.44a2.13,2.13,0,0,0-1,2.44l6.24,26A1.37,1.37,0,0,0,641.14,812Z" transform="translate(-80.25 -46.15)"/><path class="cls-7" d="M640.18,807.76,653.56,802l-5.43-22.92-13.3,5.74,5.65,22.4C640.53,807.4,640,807.84,640.18,807.76Z" transform="translate(-80.25 -46.15)"/><path class="cls-37" d="M697.44,791.34c3.13,7.95,9.39,7,14,1.2s5.91-14.35,2.78-22.3-9.42-9.68-14.06-3.85S694.32,783.39,697.44,791.34Z" transform="translate(-80.25 -46.15)"/><path class="cls-25" d="M690.25,790c3,7.55,11.56,9.57,16,4s5.58-16.14,2.61-23.69-8.94-9.18-13.35-3.65S687.28,782.41,690.25,790Z" transform="translate(-80.25 -46.15)"/><path class="cls-25" d="M712.66,812l.66-.28c2.23-.92,1.9-4.07.68-7l-5.69-16.5c-1.21-2.92-4-4.56-6.25-3.64l-.66.28c-2.23.92-3.06,4.07-1.85,7l4.81,16.58C705.57,811.42,710.43,813,712.66,812Z" transform="translate(-80.25 -46.15)"/><path class="cls-5" d="M716.37,785.88s-.08,4.31-8.1,5.92c-7.65,1.54-7.88-10.3-15.45-10.8-8.33-.56-9.75-9.36-6.89-13.56s11.7-7.09,18.51-4.83S718.65,766.28,716.37,785.88Z" transform="translate(-80.25 -46.15)"/><path class="cls-24" d="M730.51,820.86l3.65,41.24s1,11.41-22.9,13.88c-18.4,1.9-20.75-12.49-21.82-14.67l-7.11-31.47-17,10a55.2,55.2,0,0,1,26.94-34.71c4.1-2.21,10.14-4.84,15.08-6.89,7.34-3,10.63-1.83,17.27,2.53C728.2,803.05,730.51,820.86,730.51,820.86Z" transform="translate(-80.25 -46.15)"/><path class="cls-25" d="M634.54,808.93h0a4.13,4.13,0,0,0,4.19-4l.08-4.21a4.13,4.13,0,0,0-4-4.19h0a4.13,4.13,0,0,0-4.19,4l-.08,4.21A4.13,4.13,0,0,0,634.54,808.93Z" transform="translate(-80.25 -46.15)"/><path class="cls-10" d="M700.69,801.07s7-5.27,12.13-4.3C712.82,796.77,712.38,803.68,700.69,801.07Z" transform="translate(-80.25 -46.15)"/><path class="cls-5" d="M696.2,762.07a21.62,21.62,0,0,1,19.41,2.12c10.45,6.47,6,13.39,5.32,23.8s3.49,5.9-3.2,7.4-17.94-4.32-22.5-13.77-7.1-12.58-7.1-12.58Z" transform="translate(-80.25 -46.15)"/><path class="cls-25" d="M694.22,786.39a3.57,3.57,0,1,0,2-4.63A3.58,3.58,0,0,0,694.22,786.39Z" transform="translate(-80.25 -46.15)"/><path class="cls-24" d="M694.25,822.29l-20.87,22a15.58,15.58,0,0,1-24.69-2.81l-17.76-32.84,8.4-1.61L657,828.22a6.09,6.09,0,0,0,9.21.21c6.09-6.72,16.37-17.56,19.75-18.14C690.86,809.46,694.25,822.29,694.25,822.29Z" transform="translate(-80.25 -46.15)"/><path class="cls-5" d="M719.12,789.48s12.55-1.13,17.44,9.61,29.32,10.61,22.63,21.58-15.85,19.39-24.94,6.36-18.52-18.67-20.62-30.46S719.12,789.48,719.12,789.48Z" transform="translate(-80.25 -46.15)"/><path class="cls-10" d="M721.1,788.81c.71,1.13-.49,3.16-2.69,4.53s-4.54,1.56-5.25.43.49-3.16,2.69-4.53S720.39,787.67,721.1,788.81Z" transform="translate(-80.25 -46.15)"/><path class="cls-25" d="M434.27,422.22h0a4.38,4.38,0,0,0-.78-6.13L430,413.35a4.38,4.38,0,0,0-6.13.78h0a4.4,4.4,0,0,0,.78,6.14l3.54,2.73A4.37,4.37,0,0,0,434.27,422.22Z" transform="translate(-80.25 -46.15)"/><ellipse class="cls-38" cx="518.81" cy="663.25" rx="37.46" ry="18.61" transform="translate(-100.8 -29.56) rotate(-1.8)"/><path class="cls-39" d="M546.18,644.79l-9.39-1.18c-6.27-2.85-9.21-5-12-3.37l-.8.45c-2.79,1.62-2.44,4.47.79,6.34l13.78,11a9.1,9.1,0,0,0,10.16-1s1.55-1.4.44-7.27C548.54,646.41,548.76,646.29,546.18,644.79Z" transform="translate(-80.25 -46.15)"/><path class="cls-39" d="M505.18,663.54,496,666.76c-7.1.36-10.8-.18-12.63,2.51l-.51.76c-1.83,2.68-.18,5,3.66,5.18l20,3.34c3.84.17,5.38-2.33,6.71-5.48a13.45,13.45,0,0,0-1.37-8C510.29,662.1,508.26,663.67,505.18,663.54Z" transform="translate(-80.25 -46.15)"/><path class="cls-10" d="M501.16,666.77c0,4.39,10.68,4.39,10.68,0V652.5H501.16Z" transform="translate(-80.25 -46.15)"/><path class="cls-21" d="M499.81,657.75c1.35,5.56,12.46,5.16,14.62,1.56-.71-48,5.14-97.87,17.25-148.65H493.13C492.94,559.9,494.82,609,499.81,657.75Z" transform="translate(-80.25 -46.15)"/><path class="cls-10" d="M537.52,645.66c.24,4,10.92,4,10.68,0l-.79-12.92H536.73Z" transform="translate(-80.25 -46.15)"/><path class="cls-21" d="M535.42,639.92c4.27,4.39,12.67,2.52,14.28-.65L544,510.53l-26.84,4Z" transform="translate(-80.25 -46.15)"/><path class="cls-25" d="M499.56,413.12c2.75,8.58,12.12,11.43,17.41,5.62s7.34-17.49,4.6-26.07-9.26-10.83-14.54-5S496.82,404.54,499.56,413.12Z" transform="translate(-80.25 -46.15)"/><path class="cls-25" d="M521.31,437.47l.93-.24a5.85,5.85,0,0,0,4.21-7.1L522,412.58a5.86,5.86,0,0,0-7.11-4.22l-.92.24a5.86,5.86,0,0,0-4.22,7.1l1.83,17.5C512.35,436.31,518.2,438.26,521.31,437.47Z" transform="translate(-80.25 -46.15)"/><path class="cls-39" d="M528.2,412.57s-.58,5.5-8.77,5.35c-7.88-.14-5.94-13.61-13.78-14.65-8.61-1.13-10.49-11.68-7.23-15.85s12.63-6.57,19.56-3.77S536,387.09,528.2,412.57Z" transform="translate(-80.25 -46.15)"/><path class="cls-25" d="M506.39,408.54a4,4,0,1,0,2.57-5A4,4,0,0,0,506.39,408.54Z" transform="translate(-80.25 -46.15)"/><path class="cls-26" d="M545.17,508.85c-3.15-17.28,3.35-29.07,3.07-47.45,1.5-30.68-8.39-39.06-19-37.95,0,0-9.58,2.82-11.75,3.94-23,11.87-29.18,15.53-28.17,29.29-.1,22.67,3.24,48.09,3.72,59.25C497.79,531.6,539.9,520.07,545.17,508.85Z" transform="translate(-80.25 -46.15)"/><path class="cls-27" d="M510.37,421.79l.87-2.2a6,6,0,0,1-4.82,1.41A7.65,7.65,0,0,0,510.37,421.79Z" transform="translate(-80.25 -46.15)"/><polygon class="cls-5" points="442.98 511.24 454.3 494.98 442.98 499.96 442.98 511.24"/><polygon class="cls-18" points="348.31 380.3 373.55 402.09 410.41 418.72 424.98 387.74 381.6 386.26 354.61 371.77 348.31 380.3"/><path class="cls-40" d="M507,432.91c12.42-.82,20.44-.35,22.52-9.2h0c-2-1.13-3.42-1.34-4.93-.36a28.55,28.55,0,0,1-12.55,4.3,5.35,5.35,0,0,0-3.66,2.54Z" transform="translate(-80.25 -46.15)"/><path class="cls-18" d="M489.23,464.23l3.82,51.7s1.73,8.18,12.18,7.64Z" transform="translate(-80.25 -46.15)"/><path class="cls-41" d="M663.27,191.3c.36-.86,50-84.82,50-84.82" transform="translate(-80.25 -46.15)"/><path class="cls-41" d="M81.35,498.61c.35-.86,25-42.52,25-42.52" transform="translate(-80.25 -46.15)"/><path class="cls-41" d="M905.08,523.36c.36-.85,25-42.51,25-42.51" transform="translate(-80.25 -46.15)"/><path class="cls-42" d="M489.81,86c.32-.78,22.83-38.87,22.83-38.87" transform="translate(-80.25 -46.15)"/><path class="cls-41" d="M231.53,182.07c.36-.86,25-42.51,25-42.51" transform="translate(-80.25 -46.15)"/><path class="cls-41" d="M825.12,383.9c.36-.86,50-84.82,50-84.82" transform="translate(-80.25 -46.15)"/><polygon class="cls-43" points="585.58 157.07 428.58 246.43 428.58 146.7 585.58 57.34 585.58 157.07"/><polygon class="cls-44" points="602.58 175.91 445.58 265.27 445.58 165.54 602.58 76.18 602.58 175.91"/><ellipse class="cls-45" cx="609.02" cy="216.88" rx="36.15" ry="24.92" transform="translate(100.37 654.89) rotate(-68.1)"/><polygon class="cls-46" points="450.63 176.54 455.23 165.89 593.1 87.54 598.4 91.42 598.4 166.25 594.16 176.54 457.22 254.48 450.63 250.41 450.63 176.54"/><path class="cls-10" d="M608.32,231.79c-2.66,2.08-5.33,3.09-7.07,3l1.58-3.76c1.79,0,3.91-.64,6.44-2.87,3.08-2.7,4.62-5.75,4.62-8.33,0-6.74-11.6,4.9-11.6-3.2,0-3.71,2.41-8.48,6-12.2v-4.2l2.49-2.19v4.12c2.66-2,4.41-2.29,5.9-2l-1.82,3.65c-1.54-.15-2.83.11-5.08,2.08-2.53,2.23-4.15,5.23-4.15,7.64,0,6,11.6-5.82,11.6,3.12,0,3.95-2.5,8.89-6.45,12.89v4.2l-2.49,2.19Z" transform="translate(-80.25 -46.15)"/></g></g></svg>