<svg xmlns="http://www.w3.org/2000/svg" viewBox="0 0 1005.19 817.16"><defs><style>.cls-1{isolation:isolate;}.cls-2{fill:#e1eaf4;}.cls-3{opacity:0.4;}.cls-3,.cls-31,.cls-54{mix-blend-mode:multiply;}.cls-4{fill:#a8c4e5;}.cls-5{fill:#4e75d4;}.cls-6{fill:#2c1f9c;}.cls-7{fill:#00409d;}.cls-8{opacity:0.69;}.cls-9{fill:#e6f0ff;}.cls-10{fill:#85bcff;}.cls-11{fill:#6588e0;}.cls-12{fill:#fff;}.cls-13{fill:#173891;}.cls-14{fill:#d9e9ff;}.cls-15{fill:#bad4f5;}.cls-16{fill:#e5f2ff;}.cls-17{fill:#1d76ef;}.cls-18{fill:#c9d5f5;}.cls-19{fill:#b9c4f0;}.cls-20{fill:#88b9e3;}.cls-21{fill:#96ccfa;}.cls-22{fill:#ffe573;}.cls-23{fill:#ffe173;}.cls-24{fill:#c6d2f2;}.cls-25{fill:#2776ef;}.cls-26{fill:#00a5ff;}.cls-27{fill:#ffc2b0;}.cls-28{fill:#f09a82;}.cls-29{fill:#ffac00;}.cls-30{fill:#ff6543;}.cls-31{opacity:0.36;}.cls-32{fill:#88bdeb;}.cls-33{fill:#dbefff;}.cls-34{fill:#bad4ff;}.cls-35{fill:#9ec2ff;}.cls-36{fill:#3b2ad1;}.cls-37{fill:#21ded5;}.cls-38{fill:#98c1f5;}.cls-39{fill:#1d57ef;}.cls-40{fill:#22009c;}.cls-41{fill:#fd67c1;}.cls-42{fill:#babaff;}.cls-43{fill:#dcdcf7;}.cls-44{fill:#4949de;}.cls-45{fill:#e69f35;}.cls-46{fill:#ffc248;}.cls-47{fill:#a8c9ed;}.cls-48{fill:#ebf3ff;}.cls-49{fill:#5732db;}.cls-50{fill:none;stroke:#fff;stroke-miterlimit:10;stroke-width:1.81px;}.cls-51{fill:#6899e3;}.cls-52{fill:#0063d0;}.cls-53{fill:#27e0c0;}.cls-55{fill:#bacdeb;}.cls-56{fill:#0040d0;}.cls-57{fill:#ffae96;}.cls-58{fill:#89aef0;}.cls-59{fill:#7297d4;}.cls-60{fill:#3f5fc2;}.cls-61{fill:#e655be;}.cls-62{fill:#deeaff;}.cls-63{fill:#4c73db;}.cls-64{fill:#e8eefa;}.cls-65{fill:#4857ff;}.cls-66{fill:#3f4ce0;}.cls-67{fill:#de5aa9;}</style></defs><title>4svg</title><g class="cls-1"><g id="image"><path class="cls-2" d="M814.56,840.63l30.43,3a2.84,2.84,0,0,0,3.11-2.55h0a2.85,2.85,0,0,0-2.55-3.11l-30.44-3a2.85,2.85,0,0,0-3.11,2.55h0A2.84,2.84,0,0,0,814.56,840.63Z" transform="translate(-441.95 -121.54)"/><path class="cls-2" d="M814.3,849.29l30.44,3a2.83,2.83,0,0,0,3.1-2.55h0a2.85,2.85,0,0,0-2.55-3.11l-30.43-3a2.84,2.84,0,0,0-3.11,2.55h0A2.84,2.84,0,0,0,814.3,849.29Z" transform="translate(-441.95 -121.54)"/><g class="cls-3"><path class="cls-4" d="M877.5,818.81c-8.18-16.54-34.42-25-63.06-20.31-25.34,4.18-41.24,18.15-38.91,32.76a18.77,18.77,0,0,0,1.86,11.42,26.64,26.64,0,0,0,4.44,6.28l-8.54,4.93a15.21,15.21,0,0,0-3.54-2.41c-2.68-1.27-5-1.17-6.54,0h0l-47.15,28.15h0c-1.73,1-2.71,3.15-2.46,6.19.45,5.72,5,12.35,10.19,14.82,2.3,1.09,4.33,1.18,5.84.44h0l.06,0a3.76,3.76,0,0,0,.55-.32l46.81-28h0c2-.87,3.16-3.13,2.9-6.41a14.74,14.74,0,0,0-.46-2.55l12.42-7.16c13.39,7.41,33.05,10.63,52.17,7.48,25.34-4.18,41.24-18.15,38.91-32.77C883.58,827.57,879.39,822.63,877.5,818.81Zm-79.17,24.94c.87.56,1.79,1.11,2.76,1.62C800.12,844.86,799.2,844.31,798.33,843.75Zm68.56-7.28a17.15,17.15,0,0,0,1.69-3.26,17.15,17.15,0,0,1-1.69,3.26,22.57,22.57,0,0,1-1.57,2.07A22.57,22.57,0,0,0,866.89,836.47ZM809,848.68c1,.33,2.07.62,3.13.9-1.06-.28-2.11-.57-3.13-.9s-2.25-.76-3.32-1.19C806.75,847.92,807.86,848.31,809,848.68Zm18.83,3c-2,0-4-.14-5.93-.33C823.84,851.5,825.83,851.61,827.83,851.64Zm12.16-.91a52.49,52.49,0,0,0,17.32-5.81A52.49,52.49,0,0,1,840,850.73a68.14,68.14,0,0,1-8.13.85A68.14,68.14,0,0,0,840,850.73Zm22.36-9.27c-.73.62-1.53,1.22-2.37,1.8C860.82,842.68,861.62,842.08,862.35,841.46Z" transform="translate(-441.95 -121.54)"/></g><path class="cls-5" d="M873.68,820.26l-2,2a1.47,1.47,0,0,0-.1-.22c-8.18-16.54-28.54-34.65-65.91-30.35-19.85,2.28-34.16,16.07-38.5,29.83l-1.41-2.07.05,10.77h0a20.5,20.5,0,0,0,2,8.94c8.19,16.53,38,26.11,66.69,21.38,23.42-3.86,38.77-16.08,39.12-29.45h0Zm-65.62-12.64c21.64-3.57,44.2,3.67,50.38,16.16,2.61,5.27,2.31,9.14-.51,12.13l-.53.53c-3.76,3.47-11.15,5.71-21.57,7.57l-14.3,1.18a118.85,118.85,0,0,1-21-2.75l-21.37-8C775.41,822.71,787.7,811,808.06,807.62Z" transform="translate(-441.95 -121.54)"/><path class="cls-6" d="M752,868.21l-11.64-6.72L772,843.26c6.5-4,13.59,4.69,8.62,8.16Z" transform="translate(-441.95 -121.54)"/><path class="cls-7" d="M771.08,861.5c.46,5.71-3.37,8.35-8.55,5.88s-9.74-9.1-10.2-14.82,3.38-8.35,8.56-5.88S770.63,855.78,771.08,861.5Z" transform="translate(-441.95 -121.54)"/><polygon class="cls-7" points="265.25 753.29 312.39 725.14 326.23 746.37 278.82 774.74 265.25 753.29"/><ellipse class="cls-7" cx="714.11" cy="885.48" rx="7.34" ry="12.72" transform="translate(-818.13 439.43) rotate(-34.54)"/><g class="cls-8"><path class="cls-9" d="M866.45,813.72c-7.38-14.9-34.27-23.52-60.07-19.27S765.63,814.24,773,829.14s34.27,23.52,60.07,19.26S873.82,828.62,866.45,813.72Z" transform="translate(-441.95 -121.54)"/></g><path class="cls-10" d="M871.59,811c-8.18-16.54-38-26.12-66.68-21.39s-45.24,22-37,38.5,38,26.12,66.69,21.39S879.78,827.53,871.59,811Zm-91.52,14.69c-6.18-12.5,6.35-25.52,28-29.09s44.2,3.66,50.38,16.16-6.35,25.51-28,29.08S786.26,838.17,780.07,825.68Z" transform="translate(-441.95 -121.54)"/><path class="cls-11" d="M808.06,796.8c-21.09,3.48-33.52,15.94-28.42,28.13,3.35-8,13.8-14.68,28.42-17.09,21.64-3.57,44.19,3.66,50.38,16.16.16.31.3.62.43.93a14,14,0,0,0-.43-12C852.25,800.47,829.7,793.23,808.06,796.8Z" transform="translate(-441.95 -121.54)"/><path class="cls-12" d="M833,836.64l.36.07a2,2,0,0,0,2.08-1.07l10.26-20.7a1,1,0,0,0-.75-1.6l-.36-.07a2.06,2.06,0,0,0-2.07,1.07L832.27,835A1.05,1.05,0,0,0,833,836.64Z" transform="translate(-441.95 -121.54)"/><path class="cls-12" d="M824.5,832.75l.17,0a1,1,0,0,0,1-.51l11-22.1a.5.5,0,0,0-.36-.76l-.17,0a1,1,0,0,0-1,.51l-11,22.1A.5.5,0,0,0,824.5,832.75Z" transform="translate(-441.95 -121.54)"/><path class="cls-12" d="M771,860.71a.33.33,0,0,1-.32-.24c-3.14-11.5-9.34-13.46-9.4-13.48a.33.33,0,0,1-.22-.41.32.32,0,0,1,.4-.22c.27.08,6.61,2,9.85,13.93a.33.33,0,0,1-.23.41Z" transform="translate(-441.95 -121.54)"/><path class="cls-12" d="M819.09,851.57c-1.58,0-3.15-.05-4.72-.14-28.32-1.63-38.07-13-38.17-13.07a.33.33,0,0,1,0-.46.32.32,0,0,1,.46,0c.09.11,9.7,11.22,37.69,12.84,27.09,1.56,53-11.24,57.14-23.3a.32.32,0,0,1,.41-.2.33.33,0,0,1,.2.42c-2.07,6-9.44,12.29-19.73,16.92A82.35,82.35,0,0,1,819.09,851.57Z" transform="translate(-441.95 -121.54)"/><path class="cls-12" d="M779.41,814.83h-.08a.33.33,0,0,1-.24-.39c0-.14,3.63-14.33,29.77-18.08s39.52,6.26,39.65,6.36a.33.33,0,0,1,.06.46.31.31,0,0,1-.46.06c-.13-.1-13.4-9.93-39.16-6.23s-29.19,17.44-29.22,17.58A.33.33,0,0,1,779.41,814.83Z" transform="translate(-441.95 -121.54)"/><path class="cls-13" d="M819.65,862c-26.75,0-40-10.13-40.16-10.25a.36.36,0,0,1-.06-.5.35.35,0,0,1,.5-.06c.17.13,16.58,12.66,49.9,9.62s41.6-22.22,41.68-22.41a.36.36,0,0,1,.47-.19.35.35,0,0,1,.19.46c-.08.2-8.59,19.79-42.28,22.85C826.28,861.85,822.87,862,819.65,862Z" transform="translate(-441.95 -121.54)"/><path class="cls-14" d="M1443.4,736.49,965.68,460.67c-5.53-3.19-15.28-2.79-21.66.9L715.1,593.73a14.13,14.13,0,0,0-3,2.29l-34.75,20.06c-6.39,3.69-7.09,9.32-1.56,12.51l462.52,277.73c5.53,3.19,30.49.88,36.87-2.81l228.92-132.16a14.13,14.13,0,0,0,3-2.29L1441.85,749C1448.23,745.31,1448.93,739.68,1443.4,736.49Z" transform="translate(-441.95 -121.54)"/><path class="cls-15" d="M1394,400.07v-.18c0-.16,0-.32,0-.48s0-.26,0-.38v-.1c0-.16,0-.31-.07-.47s-.05-.31-.09-.46a.15.15,0,0,0,0-.07v-.07a3,3,0,0,1-.07-.32l-.12-.46a1.41,1.41,0,0,0-.06-.22.36.36,0,0,0,0-.1.83.83,0,0,1,0-.15c0-.15-.09-.31-.14-.46l-.15-.44v0h0c-.05-.15-.11-.31-.17-.47l-.18-.46a.61.61,0,0,1,0-.12.36.36,0,0,1,0-.09c0-.08-.07-.17-.11-.25s-.13-.29-.19-.44a3.54,3.54,0,0,1-.16-.34l0,0,0-.05L1392,393l-.21-.41-.09-.16,0-.08-.09-.16-.24-.41-.25-.41,0,0,0-.06-.28-.44-.27-.39-.18-.27-.09-.12c-.15-.22-.31-.43-.47-.64l-.15-.21,0,0q-.3-.39-.63-.78l-.09-.11-.09-.09-.22-.27-.39-.42-.15-.16-.08-.08-.14-.15-.39-.39-.29-.28-.06-.05,0-.05-.42-.38-.44-.39h0l-.43-.36c-.15-.12-.3-.24-.46-.35a.1.1,0,0,0,0,0l-.07-.05-.33-.25-.46-.31-.13-.09,0,0h0l-.27-.18-.46-.28s-10.88-6.28-10.91-6.31l0,0L934.11,124.16h0l-.66-.39h0l-1.18-.68-.46-.24-.46-.22-.46-.21c-.16-.06-.31-.13-.47-.18l-.47-.17-.5-.16h-.08l-.42-.11-.22,0-.17,0-.14,0-.51-.08h0c-.2,0-.4,0-.59,0h-.73l-.42,0a1.66,1.66,0,0,0-.22,0h-.05a5.06,5.06,0,0,0-.79.19h0l-.08,0a5,5,0,0,0-.94.41s-18.15,12.24-17.83,12.12c.12,0,448.11,254,448.11,254l-.41.25s11.43,6.06,11.58,6.16l.46.29.46.32.45.34a1.33,1.33,0,0,1,.19.14c.25.19.49.38.72.58h0c.24.21.48.41.71.63l.09.08c.22.2.43.41.65.63l.1.1c.2.21.41.42.61.64l.11.12c.2.22.39.44.58.67l.29.36.35.43.38.52c.09.11.17.22.25.34l.21.3.36.54.09.14c.16.25.32.5.47.76l0,.06c.16.27.31.53.45.8a.36.36,0,0,1,0,.09c.14.26.28.52.4.79l.05.1c.13.26.24.53.35.79l0,.12c.11.26.22.52.31.78l.05.12c.09.26.18.53.26.79a.49.49,0,0,0,0,.11c.08.27.15.53.22.79,0,0,0,.07,0,.11.07.26.13.52.18.79s0,.26.07.39,0,.31.07.46,0,.33,0,.49,0,.32,0,.48,0,.34,0,.52v.39l0,.72-1.07,39.78-6.94,3.73.4.24-7.61,4.1,3.4,2,.45.3c.16.1.31.21.46.32l.46.33.19.15.72.58h0l.71.62.08.08.66.63.09.1c.21.21.42.43.62.65l.11.12c.19.22.39.44.58.67s.19.24.29.35l.35.44.38.52.25.33.21.31.36.53.09.15c.16.25.31.5.46.75l0,.06q.24.4.45.81s0,.05,0,.08c.14.27.27.53.4.8l0,.1c.12.26.24.52.35.78a.61.61,0,0,1,0,.12c.11.26.21.53.31.79a.56.56,0,0,1,0,.12q.15.39.27.78l0,.12c.08.26.16.52.23.79a.36.36,0,0,0,0,.1c.07.27.12.53.17.79s0,.27.08.4a2.7,2.7,0,0,0,0,.28l-5.44,203.26c0,1.27-3.89,9.26-2.86,8.66l2.88-2.62-1.65,61.4c0,1.27-3.88,9.27-2.85,8.66l3.91-5.07c-.7,1.77-.61,5.37-.15,5.11l13.89-10.22c2.23-2,4.4-4.09,4.49-7.33l6.25-267.49c0-1.28.09-3.19.09-3.19v-.4c0-.11,0-.22,0-.34v-.06a.37.37,0,0,0,0-.11c0-.16,0-.32,0-.48s0-.26,0-.39v-.1l0-.18L1394,404c0-1.27.09-3.19.09-3.19v-.39C1394.05,400.29,1394.05,400.18,1394,400.07Z" transform="translate(-441.95 -121.54)"/><path class="cls-16" d="M1365.71,463c6.11,3.53,10.94,11.25,10.78,17.24L1369.21,752c-.15,6-5.24,8-11.36,4.45L907,496.08c-6.12-3.54-10.95-11.25-10.79-17.25L903.52,207c.16-6,5.25-8,11.37-4.45Z" transform="translate(-441.95 -121.54)"/><path class="cls-7" d="M1366,431.26c6.12,3.53,10.34.06,10.18,6.05l-6.14,283.12c-.15,6-5.77,7.89-11.89,4.36L907.35,464.38c-6.11-3.53-10.94-11.25-10.78-17.24l7.27-271.84c.16-6,5.24-8,11.36-4.45Z" transform="translate(-441.95 -121.54)"/><path class="cls-7" d="M1366,395.51c6.12,3.53,11,11.25,10.79,17.24l-6.75,271.93c-.15,6-5.77,7.89-11.89,4.35L907.35,428.63c-6.11-3.54-10.55,9.81-10.39,3.82l6.88-292.9c.16-6,5.24-8,11.36-4.45Z" transform="translate(-441.95 -121.54)"/><path class="cls-17" d="M1365.21,428.56c.2-5-4.33-11.76-10.13-15.06l-427-242.68c-5.79-3.3-10.65-1.89-10.84,3.13l-1.3,32.92a6.27,6.27,0,0,0-.32,1.8L909.72,437c-.2,5,6.35,14.24,12.15,17.53l421.88,239.77c5.79,3.29,10.65,1.89,10.85-3.14l1.3-32.91a6.63,6.63,0,0,0,.32-1.81Z" transform="translate(-441.95 -121.54)"/><path class="cls-7" d="M1359.87,774.94l-.13-17.86-17.33,11.09-3.71-8.57L904.35,508.83c-5.23-3-15.62-2.63-21.66.85l-188.17,108v-3l-28.58,13.89-4-5,.54,16.6c.44,2.88,1.55,4.07,3.32,5.09l452,261.64c5.23,3,14.46,3,20.5-.5l216.58-124.87c3.3-1.91,5-4.27,5-6.6Z" transform="translate(-441.95 -121.54)"/><path class="cls-18" d="M1117.53,889.28l-452-261c-5.24-3-4.57-8.34,1.47-11.83l216.58-125c6-3.49,15.26-3.87,20.5-.85l452,260.95c5.23,3,4.57,8.34-1.47,11.83L1138,888.43C1132,891.92,1122.76,892.3,1117.53,889.28Z" transform="translate(-441.95 -121.54)"/><path class="cls-19" d="M910.68,538.94a3.44,3.44,0,0,1-3-.34l-27.44-15.84c-1-.57-1.26-1.34-.61-1.72l18.18-10.5a3.46,3.46,0,0,1,3,.34l27.44,15.84c1,.57,1.26,1.34.6,1.72Z" transform="translate(-441.95 -121.54)"/><path class="cls-19" d="M942.51,586.22a3.4,3.4,0,0,1-3-.34L912.08,570c-1-.57-1.25-1.33-.59-1.72l18.19-10.5a3.47,3.47,0,0,1,3,.35L960.08,574c1,.58,1.26,1.35.62,1.72Z" transform="translate(-441.95 -121.54)"/><path class="cls-19" d="M926.42,605.85a3.42,3.42,0,0,1-3-.35L896,589.67c-1-.57-1.27-1.34-.61-1.72l18.19-10.51a3.5,3.5,0,0,1,3,.35L944,593.63c1,.57,1.25,1.35.61,1.72Z" transform="translate(-441.95 -121.54)"/><path class="cls-19" d="M882.88,609.64a3.46,3.46,0,0,1-3-.34l-27.44-15.84c-1-.56-1.25-1.34-.6-1.72l18.18-10.5a3.48,3.48,0,0,1,3,.34l27.44,15.84c1,.57,1.25,1.34.59,1.72Z" transform="translate(-441.95 -121.54)"/><path class="cls-19" d="M807.37,598.63a3.45,3.45,0,0,1-3-.35L777,582.44c-1-.57-1.27-1.34-.61-1.72l21.35-12.33a3.49,3.49,0,0,1,3,.35l27.44,15.83c1,.57,1.25,1.35.6,1.72Z" transform="translate(-441.95 -121.54)"/><path class="cls-19" d="M854.68,625.93c-.66.38-2.24.08-3.54-.68l-35.95-20.74c-1.29-.75-1.82-1.66-1.16-2l21.35-12.34c.64-.37,2.24-.07,3.53.67l36,20.75c1.3.75,1.81,1.67,1.17,2Z" transform="translate(-441.95 -121.54)"/><path class="cls-19" d="M1090.86,762.42a3.37,3.37,0,0,1-2.78-.46l-27.42-15.82c-1-.58-1.37-1.31-.82-1.62l7.89-4.56a3.46,3.46,0,0,1,2.8.47L1098,756.26c1,.57,1.35,1.29.81,1.6Z" transform="translate(-441.95 -121.54)"/><path class="cls-19" d="M1127.53,784.13a3.38,3.38,0,0,1-2.79-.46l-27.42-15.83c-1-.58-1.37-1.3-.82-1.62l7.89-4.55a3.41,3.41,0,0,1,2.81.47L1134.61,778c1,.57,1.35,1.3.81,1.61Z" transform="translate(-441.95 -121.54)"/><path class="cls-19" d="M1166.4,806.05a3.36,3.36,0,0,1-2.75-.48l-27.43-15.83c-1-.57-1.38-1.29-.86-1.59l7.61-4.4a3.46,3.46,0,0,1,2.75.49l27.43,15.83c1,.57,1.37,1.29.85,1.59Z" transform="translate(-441.95 -121.54)"/><path class="cls-19" d="M1142.49,775.76a3.38,3.38,0,0,1-2.75-.49l-27.43-15.82c-1-.57-1.38-1.29-.85-1.6l7.6-4.39a3.44,3.44,0,0,1,2.76.49l27.43,15.83c1,.57,1.36,1.29.84,1.59Z" transform="translate(-441.95 -121.54)"/><path class="cls-19" d="M1043.44,734.84a3.47,3.47,0,0,1-3-.36l-178.56-103c-1-.56-1.27-1.35-.61-1.73l21.35-12.33a3.52,3.52,0,0,1,3,.35l178.56,103c1,.57,1.27,1.36.62,1.73Z" transform="translate(-441.95 -121.54)"/><path class="cls-19" d="M849.78,619.12s-.17,0-.28-.08l-21-12.1c-.11-.07-.18-.14-.14-.17l1.33-.76s.17,0,.28.07l21,12.11c.12.07.18.14.14.17Z" transform="translate(-441.95 -121.54)"/><path class="cls-19" d="M796,585.77a.18.18,0,0,1-.16,0l-8.91-5.14s-.06-.07,0-.09l1.32-.77a.2.2,0,0,1,.17,0l8.9,5.14c.05,0,.06.07,0,.09Z" transform="translate(-441.95 -121.54)"/><path class="cls-19" d="M920.5,631.33a3.48,3.48,0,0,1-3-.35l-27.43-15.83c-1-.57-1.26-1.35-.61-1.73l18.18-10.5a3.51,3.51,0,0,1,3,.35l27.44,15.83c1,.58,1.25,1.35.6,1.73Z" transform="translate(-441.95 -121.54)"/><path class="cls-19" d="M958.28,653.13a3.45,3.45,0,0,1-3-.34L927.87,637c-1-.57-1.26-1.35-.61-1.73l18.18-10.5a3.47,3.47,0,0,1,3,.35l27.44,15.83c1,.56,1.24,1.34.59,1.72Z" transform="translate(-441.95 -121.54)"/><path class="cls-19" d="M996.06,674.94a3.46,3.46,0,0,1-3-.35l-27.44-15.83c-1-.57-1.25-1.34-.6-1.72l18.18-10.5a3.44,3.44,0,0,1,3,.34l27.44,15.84c1,.56,1.25,1.34.59,1.71Z" transform="translate(-441.95 -121.54)"/><path class="cls-19" d="M1033.85,696.74a3.44,3.44,0,0,1-3-.34l-27.44-15.84c-1-.57-1.26-1.35-.61-1.72l18.18-10.5a3.46,3.46,0,0,1,3,.34l27.45,15.84c1,.57,1.24,1.34.59,1.72Z" transform="translate(-441.95 -121.54)"/><path class="cls-19" d="M1071.63,718.55a3.45,3.45,0,0,1-3-.36l-27.43-15.83c-1-.56-1.25-1.34-.6-1.71l18.18-10.51a3.51,3.51,0,0,1,3,.34l27.43,15.83c1,.58,1.27,1.36.62,1.74Z" transform="translate(-441.95 -121.54)"/><path class="cls-19" d="M1109.42,740.34a3.49,3.49,0,0,1-3-.35L1079,724.16c-1-.57-1.26-1.35-.61-1.72l18.18-10.51a3.47,3.47,0,0,1,3,.35L1127,728.11c1,.57,1.26,1.35.6,1.73Z" transform="translate(-441.95 -121.54)"/><path class="cls-19" d="M1194.53,789.45a3.45,3.45,0,0,1-3-.35L1116.79,746c-1-.57-1.26-1.34-.61-1.72l18.18-10.5a3.46,3.46,0,0,1,3,.34l74.76,43.14c1,.57,1.25,1.35.6,1.73Z" transform="translate(-441.95 -121.54)"/><path class="cls-19" d="M964,625.4a3.4,3.4,0,0,1-3-.34l-27.45-15.84c-1-.57-1.26-1.33-.6-1.71L951.18,597a3.47,3.47,0,0,1,3,.35l27.44,15.84c1,.57,1.24,1.33.6,1.71Z" transform="translate(-441.95 -121.54)"/><path class="cls-19" d="M1001.81,649.34a3.42,3.42,0,0,1-3-.34l-27.45-15.85c-1-.56-1.25-1.32-.59-1.71L989,620.94a3.47,3.47,0,0,1,3,.34l27.45,15.85c1,.56,1.26,1.34.61,1.71Z" transform="translate(-441.95 -121.54)"/><path class="cls-19" d="M1039.6,671.15a3.48,3.48,0,0,1-3-.35L1009.18,655c-1-.56-1.27-1.34-.61-1.72l18.18-10.5a3.48,3.48,0,0,1,3,.35l27.44,15.84c1,.56,1.26,1.34.61,1.71Z" transform="translate(-441.95 -121.54)"/><path class="cls-19" d="M1077.38,693a3.45,3.45,0,0,1-3-.35L1047,676.77c-1-.57-1.27-1.34-.61-1.72l18.19-10.51a3.48,3.48,0,0,1,3,.36L1095,680.73c1,.57,1.26,1.34.61,1.71Z" transform="translate(-441.95 -121.54)"/><path class="cls-19" d="M1115.17,714.75a3.46,3.46,0,0,1-3-.35l-27.45-15.84c-1-.57-1.26-1.34-.6-1.72l18.19-10.51a3.45,3.45,0,0,1,3,.35l27.45,15.84c1,.57,1.26,1.35.61,1.72Z" transform="translate(-441.95 -121.54)"/><path class="cls-19" d="M1153,736.54a3.45,3.45,0,0,1-3-.34l-27.43-15.83c-1-.58-1.28-1.35-.62-1.73l18.19-10.5a3.46,3.46,0,0,1,3,.35l27.43,15.83c1,.57,1.25,1.34.6,1.72Z" transform="translate(-441.95 -121.54)"/><path class="cls-19" d="M1190.73,758.35a3.43,3.43,0,0,1-3-.35l-27.45-15.84c-1-.57-1.25-1.33-.59-1.71l18.19-10.51a3.42,3.42,0,0,1,2.95.35l27.45,15.84c1,.56,1.25,1.34.61,1.71Z" transform="translate(-441.95 -121.54)"/><path class="cls-19" d="M980.12,607.91a3.46,3.46,0,0,1-3-.34l-27.44-15.84c-1-.56-1.24-1.33-.58-1.72l18.19-10.5a3.47,3.47,0,0,1,3,.34l27.44,15.84c1,.57,1.25,1.34.61,1.71Z" transform="translate(-441.95 -121.54)"/><path class="cls-19" d="M1017.9,629.71a3.47,3.47,0,0,1-3-.34l-27.44-15.83c-1-.57-1.26-1.35-.6-1.73l18.19-10.5a3.43,3.43,0,0,1,3,.35l27.44,15.83c1,.57,1.25,1.34.6,1.71Z" transform="translate(-441.95 -121.54)"/><path class="cls-19" d="M1055.69,651.52a3.49,3.49,0,0,1-3-.35l-27.43-15.83c-1-.57-1.25-1.34-.59-1.72l18.18-10.51a3.46,3.46,0,0,1,3,.35l27.43,15.83c1,.58,1.27,1.35.62,1.72Z" transform="translate(-441.95 -121.54)"/><path class="cls-19" d="M1093.46,673.32a3.44,3.44,0,0,1-3-.34L1063,657.14c-1-.57-1.26-1.34-.6-1.72l18.19-10.51a3.47,3.47,0,0,1,3,.35L1111,661.1c1,.57,1.25,1.34.61,1.71Z" transform="translate(-441.95 -121.54)"/><path class="cls-19" d="M1131.26,695.11a3.47,3.47,0,0,1-3-.34l-27.44-15.83c-1-.58-1.26-1.34-.59-1.73l18.18-10.5a3.47,3.47,0,0,1,3,.35l27.44,15.84c1,.56,1.24,1.33.6,1.7Z" transform="translate(-441.95 -121.54)"/><path class="cls-19" d="M1169.05,716.92a3.49,3.49,0,0,1-3-.35l-27.44-15.84c-1-.56-1.25-1.33-.59-1.72l18.19-10.5a3.44,3.44,0,0,1,3,.35l27.44,15.83c1,.57,1.27,1.35.62,1.72Z" transform="translate(-441.95 -121.54)"/><path class="cls-19" d="M1206.82,738.72a3.47,3.47,0,0,1-3-.34l-27.44-15.84c-1-.57-1.26-1.34-.59-1.72L1194,710.31a3.47,3.47,0,0,1,3,.35l27.44,15.84c1,.56,1.25,1.34.61,1.71Z" transform="translate(-441.95 -121.54)"/><path class="cls-19" d="M904.73,564.42a3.46,3.46,0,0,1-3-.34l-46.52-26.85c-1-.57-1.27-1.35-.6-1.73L872.8,525a3.45,3.45,0,0,1,3,.35L922.3,552.2c1,.57,1.26,1.34.62,1.72Z" transform="translate(-441.95 -121.54)"/><path class="cls-19" d="M1269.64,746.06a3.45,3.45,0,0,1-3-.35l-46.53-26.85c-1-.56-1.25-1.34-.6-1.72l18.18-10.5a3.47,3.47,0,0,1,3,.34l46.53,26.85c1,.57,1.26,1.35.6,1.73Z" transform="translate(-441.95 -121.54)"/><path class="cls-19" d="M888.63,584.05a3.43,3.43,0,0,1-3-.36l-55.46-32c-1-.58-1.27-1.34-.61-1.72l18.18-10.51a3.49,3.49,0,0,1,3,.35l55.46,32c1,.58,1.26,1.35.62,1.72Z" transform="translate(-441.95 -121.54)"/><path class="cls-19" d="M845.11,587.85a3.46,3.46,0,0,1-3-.36l-37-21.34c-1-.57-1.26-1.34-.61-1.72l18.18-10.5a3.47,3.47,0,0,1,3,.34l37,21.35c1,.57,1.26,1.34.6,1.72Z" transform="translate(-441.95 -121.54)"/><path class="cls-19" d="M948.46,560.74a3.44,3.44,0,0,1-3-.35l-27.42-15.82c-1-.57-1.27-1.35-.61-1.73l18.18-10.5a3.45,3.45,0,0,1,3,.35L966,548.52c1,.57,1.26,1.34.6,1.72Z" transform="translate(-441.95 -121.54)"/><path class="cls-19" d="M986.07,582.43a3.45,3.45,0,0,1-3-.35l-27.44-15.83c-1-.57-1.26-1.35-.61-1.72L973.22,554a3.45,3.45,0,0,1,3,.35l27.45,15.84c1,.57,1.26,1.34.6,1.72Z" transform="translate(-441.95 -121.54)"/><path class="cls-19" d="M1023.84,604.23a3.42,3.42,0,0,1-3-.34l-27.44-15.84c-1-.57-1.26-1.34-.6-1.72l18.18-10.5a3.48,3.48,0,0,1,3,.34L1041.43,592c1,.57,1.25,1.34.59,1.72Z" transform="translate(-441.95 -121.54)"/><path class="cls-19" d="M1061.64,626a3.47,3.47,0,0,1-3-.35l-27.42-15.82c-1-.58-1.27-1.35-.61-1.73l18.18-10.5a3.44,3.44,0,0,1,3,.35l27.42,15.82c1,.57,1.26,1.35.6,1.73Z" transform="translate(-441.95 -121.54)"/><path class="cls-19" d="M1099.41,647.83a3.44,3.44,0,0,1-3-.33L1069,631.66c-1-.57-1.26-1.34-.61-1.72l18.18-10.5a3.44,3.44,0,0,1,3,.35L1117,635.62c1,.57,1.25,1.33.59,1.71Z" transform="translate(-441.95 -121.54)"/><path class="cls-19" d="M1137.21,669.63a3.47,3.47,0,0,1-3-.34l-27.45-15.84c-1-.57-1.24-1.34-.59-1.72l18.18-10.5a3.45,3.45,0,0,1,3,.34l27.45,15.84c1,.57,1.26,1.34.6,1.72Z" transform="translate(-441.95 -121.54)"/><path class="cls-19" d="M1175,691.44a3.45,3.45,0,0,1-3-.35l-27.44-15.83c-1-.58-1.27-1.35-.61-1.73l18.18-10.5a3.47,3.47,0,0,1,3,.35l27.44,15.83c1,.57,1.26,1.35.6,1.73Z" transform="translate(-441.95 -121.54)"/><path class="cls-19" d="M1212.76,713.23a3.43,3.43,0,0,1-3-.33l-27.46-15.85c-1-.56-1.24-1.33-.59-1.71l18.18-10.5a3.45,3.45,0,0,1,3,.33L1230.36,701c1,.57,1.24,1.33.58,1.71Z" transform="translate(-441.95 -121.54)"/><path class="cls-19" d="M1234.74,732.46a4.18,4.18,0,0,0-1.61-.52,2.19,2.19,0,0,0-1.35.18l-18.19,10.5a.64.64,0,0,0-.33.79,2,2,0,0,0,.91.93l7.17,4.13-23.85,13.78a.62.62,0,0,0-.31.79,2,2,0,0,0,.92.93l18.49,10.67a4.25,4.25,0,0,0,1.61.53,2.27,2.27,0,0,0,1.37-.18l43.23-25a.6.6,0,0,0,.3-.79,1.9,1.9,0,0,0-.92-.93Z" transform="translate(-441.95 -121.54)"/><path class="cls-19" d="M840.19,579s-.17,0-.28-.08l-21-12.1c-.11-.07-.18-.14-.13-.17l1.32-.76a.45.45,0,0,1,.29.08l21,12.1c.12.07.18.15.14.17Z" transform="translate(-441.95 -121.54)"/><g class="cls-3"><path class="cls-4" d="M1081.07,925.51l-35-29.21c-2.75-2.29-8.17-3-12-1.58l-9.13,3.36c-.26.09-.49.19-.72.29l-5.57,2c-3.88,1.42-4.81,4.47-2.06,6.76l35,29.2c2.75,2.3,8.17,3,12,1.58l9.13-3.35a7.76,7.76,0,0,0,.72-.3l5.57-2C1082.9,930.84,1083.82,927.8,1081.07,925.51Z" transform="translate(-441.95 -121.54)"/></g><path class="cls-20" d="M1071.09,928.07h0a.29.29,0,0,1,0-.09l-4.48-16.26-33.72-16.23h0a11.33,11.33,0,0,0-2-.74l-25.6-9.28,4.56,17.13h0a4,4,0,0,0,1.54,2.5l35,29.2c2.75,2.29,8.17,3,12.05,1.58l9.13-3.35C1070.17,931.54,1071.44,929.8,1071.09,928.07Z" transform="translate(-441.95 -121.54)"/><path class="cls-21" d="M1041.77,917.13l-35-29.21c-2.75-2.29-1.82-5.33,2.06-6.76l9.13-3.35c3.88-1.43,9.3-.71,12,1.58l35,29.2c2.74,2.3,1.82,5.34-2.06,6.76l-9.13,3.35C1049.94,920.13,1044.51,919.42,1041.77,917.13Z" transform="translate(-441.95 -121.54)"/><path class="cls-22" d="M1071.09,928.07h0a.29.29,0,0,1,0-.09l-4.48-16.26-20.8-10-15.62,5.75-1.07,12.46,17.23,14.38c2.75,2.29,8.17,3,12.05,1.58l9.13-3.35c2.66-1,3.93-2.72,3.58-4.45Z" transform="translate(-441.95 -121.54)"/><path class="cls-23" d="M1065,908.59l-11.62-9.69-23.22,8.55,11.6,9.68c2.74,2.29,8.17,3,12,1.57l9.13-3.35C1066.83,913.93,1067.75,910.89,1065,908.59Z" transform="translate(-441.95 -121.54)"/><path class="cls-12" d="M1029.57,907.35a.43.43,0,0,1-.26-.09l-23.46-19.68a.4.4,0,0,1,.52-.62l23.46,19.68a.41.41,0,0,1,.05.57A.43.43,0,0,1,1029.57,907.35Z" transform="translate(-441.95 -121.54)"/><path class="cls-12" d="M1049.1,920.05a12.88,12.88,0,0,1-6.56-1.82l-11.9-9.86a.4.4,0,1,1,.52-.62l11.86,9.84a12,12,0,0,0,9.81,1c5.46-2,11.55-4.4,11.61-4.42a.4.4,0,1,1,.3.74c-.06,0-6.17,2.48-11.63,4.44A11.78,11.78,0,0,1,1049.1,920.05Z" transform="translate(-441.95 -121.54)"/><g class="cls-3"><ellipse class="cls-4" cx="736.21" cy="615.54" rx="15.69" ry="31.59" transform="translate(-334.23 1219.19) rotate(-88.98)"/></g><path class="cls-6" d="M729.76,623.24l-12.06-12c-1.62-.93-5.26-1.33-7.74-1a2.38,2.38,0,0,0-2,2.19l-.18,2.41c-.38,3.47-.07,4,2.07,5.21l12.69,7.32a8.1,8.1,0,0,0,7.25.31l.52-.31C732.13,626.35,731.9,624.47,729.76,623.24Z" transform="translate(-441.95 -121.54)"/><path class="cls-24" d="M708.46,610.65c0,3.9,9.47,3.9,9.47,0V598h-9.47Z" transform="translate(-441.95 -121.54)"/><path class="cls-6" d="M760.69,606.19l-11.84-11.72c-1.59-.92-5.16-1.31-7.59-1a2.31,2.31,0,0,0-2,2.15l-.18,2.37c-.37,3.4-.06,3.89,2,5.1l12.44,7.19a7.94,7.94,0,0,0,7.12.29l.51-.29C763,609.25,762.79,607.4,760.69,606.19Z" transform="translate(-441.95 -121.54)"/><path class="cls-24" d="M739.58,593.94c0,3.9,9.47,3.9,9.47,0V581.29h-9.47Z" transform="translate(-441.95 -121.54)"/><path class="cls-25" d="M738.31,590.35c3.71,2.66,9.85,2.6,11.9-.5l9.57-116.91-29.43-8.73Z" transform="translate(-441.95 -121.54)"/><path class="cls-25" d="M707.36,602.62c3,4.46,9.77,4.49,11.77,1.27L739,471H704.77Z" transform="translate(-441.95 -121.54)"/><polygon class="cls-6" points="291.66 385.27 292.38 394.57 300.8 365.77 296.1 366.67 291.66 385.27"/><path class="cls-6" d="M755.52,399.51l13.32,25c-2.18,8.69-6.88,13.11-12.83,15.44l-5-33.76Z" transform="translate(-441.95 -121.54)"/><path class="cls-12" d="M748.4,434.07a.47.47,0,0,1-.15-.92c13.87-4.75,18.29-15.62,18.33-15.73a.48.48,0,0,1,.62-.27.46.46,0,0,1,.26.61c0,.12-4.6,11.39-18.91,16.29Z" transform="translate(-441.95 -121.54)"/><path class="cls-26" d="M759.9,468.15V422.47c0-25.69-9.71-35.2-25.9-29.3L727.32,395c-19.54,10.53-29.47,10-26,30.67L704.77,471C704.77,494.28,761.14,495.58,759.9,468.15Z" transform="translate(-441.95 -121.54)"/><polygon class="cls-6" points="272.29 311.9 263.86 346.88 262.86 350.29 261.62 333.43 272.29 311.9"/><path class="cls-6" d="M733.77,392.38s-3.08,1.85-4.45,1.85-12.25-11.61-4.5-23.29c4.9-7.4,18-.57,18-.57Z" transform="translate(-441.95 -121.54)"/><ellipse class="cls-27" cx="742.85" cy="380.95" rx="15.6" ry="8.84" transform="translate(-343.52 790.13) rotate(-66.62)"/><path class="cls-27" d="M726,382.57c0,7.46,6.67,12.08,12.31,8.82s10.21-11.94,10.21-19.41-4.57-10.87-10.21-7.62S726,375.1,726,382.57Z" transform="translate(-441.95 -121.54)"/><path class="cls-27" d="M732,404.36l.78.13a4.86,4.86,0,0,0,5.58-4l2.51-14.8a4.86,4.86,0,0,0-4-5.58l-.78-.13a4.86,4.86,0,0,0-5.58,4L726,397.84C725.55,400.47,729.33,403.91,732,404.36Z" transform="translate(-441.95 -121.54)"/><path class="cls-27" d="M724.82,385.33A3.29,3.29,0,1,0,728.1,382,3.29,3.29,0,0,0,724.82,385.33Z" transform="translate(-441.95 -121.54)"/><path class="cls-6" d="M743.92,370.37s-1.34,17.31-19.1,11.67c0,0-8.86-11.09,4.37-20.13,11.66-8,20.3,4.94,20.3,4.94Z" transform="translate(-441.95 -121.54)"/><path class="cls-6" d="M752.74,378.54s-1.59-5.86-8.82-8.17l5.57-3.52S755.3,368,752.74,378.54Z" transform="translate(-441.95 -121.54)"/><path class="cls-12" d="M722.81,447.36a3,3,0,0,1-3-3V431.88a1.41,1.41,0,0,1,1.27-1.41,10.2,10.2,0,0,0,6.89-3.33,1.37,1.37,0,0,1,1.53-.33,1.4,1.4,0,0,1,.89,1.31v13c0,4.39-4,6.1-7.5,6.23ZM729,427.65a.43.43,0,0,0-.31.14,11.18,11.18,0,0,1-7.5,3.63.45.45,0,0,0-.4.46v12.51a2,2,0,0,0,.62,1.46,2,2,0,0,0,1.48.56c3-.11,6.59-1.56,6.59-5.28v-13a.45.45,0,0,0-.3-.43A.4.4,0,0,0,729,427.65Z" transform="translate(-441.95 -121.54)"/><path class="cls-12" d="M720.39,435.59l-.16-.93c5-.86,7.92-2.59,9.29-5.44l.86.41C728.86,432.78,725.69,434.68,720.39,435.59Z" transform="translate(-441.95 -121.54)"/><path class="cls-28" d="M739.13,395.14a13.23,13.23,0,0,1-10.49-5.95s4,9.29,9.79,10.09Z" transform="translate(-441.95 -121.54)"/><path class="cls-29" d="M731.79,503l50.8-28c4.36-2.39,7.88-9.13,7.87-15l-.1-56.41c0-5.92-3.55-8.77-7.9-6.37l-50.81,27.95c-4.35,2.4-7.88,9.14-7.87,15.05l.1,56.41C723.89,502.51,727.43,505.37,731.79,503Z" transform="translate(-441.95 -121.54)"/><polygon class="cls-29" points="285.19 381.93 300.01 390.55 360.13 283.84 346.01 275.67 285.19 381.93"/><path class="cls-30" d="M746.49,511.54l50.79-28c4.36-2.4,7.88-9.13,7.87-15l-.1-56.41c0-5.91-3.55-8.76-7.9-6.37l-50.8,28c-4.35,2.39-7.87,9.13-7.86,15l.1,56.4C738.6,511.09,742.14,513.94,746.49,511.54Z" transform="translate(-441.95 -121.54)"/><path class="cls-27" d="M703.87,432.69S691.7,451.54,712.26,481c5.66,8.1,36.71,10.76,36.71,10.76l0-6.46s-21.36-1.79-26.65-11.16C716.34,463.55,720.62,427.67,703.87,432.69Z" transform="translate(-441.95 -121.54)"/><path class="cls-27" d="M752.89,495.62l-3.27-.7c-2.51-.53-4.56-3.35-4.55-6.25h0c0-2.9,2.07-4.83,4.58-4.3l3.27.7c2.52.54,4.56,3.35,4.56,6.25h0C757.47,494.22,755.4,496.16,752.89,495.62Z" transform="translate(-441.95 -121.54)"/><path class="cls-26" d="M717.55,427.59l1.78,30.71c-.41,2.69-21.7,2.78-21.44-1.14.05-.69-3.12-37.24,4.89-47.8C709.28,400.77,717.34,413.27,717.55,427.59Z" transform="translate(-441.95 -121.54)"/><path class="cls-12" d="M708.81,452.24a26.24,26.24,0,0,1-11.66-2.76.44.44,0,1,1,.39-.78,24.5,24.5,0,0,0,21.09.6.43.43,0,0,1,.59.18.44.44,0,0,1-.18.59A23.89,23.89,0,0,1,708.81,452.24Z" transform="translate(-441.95 -121.54)"/><path class="cls-12" d="M774.42,470a9,9,0,0,1-4.6-1.2c-3.22-1.86-5-5.58-5-10.47,0-9.21,6.29-20.06,14.31-24.69,4.29-2.47,8.44-2.8,11.69-.93s5,5.58,5,10.47c0,9.21-6.29,20.06-14.31,24.69A14.34,14.34,0,0,1,774.42,470Zm11.79-33.72a9.67,9.67,0,0,0-4.7,1.48c-6.47,3.73-11.94,13.15-11.94,20.57,0,3.12.93,5.38,2.63,6.36s4.22.64,6.93-.93c6.47-3.74,11.94-13.16,11.94-20.58,0-3.12-.94-5.38-2.63-6.35A4.36,4.36,0,0,0,786.21,436.28Z" transform="translate(-441.95 -121.54)"/><path class="cls-12" d="M758.44,485.79a2.37,2.37,0,0,1-2-3.73l6.56-9.5a2.38,2.38,0,1,1,3.91,2.7l-6.56,9.5A2.38,2.38,0,0,1,758.44,485.79Z" transform="translate(-441.95 -121.54)"/><g class="cls-31"><path class="cls-32" d="M859.49,923,879,911.32a2.6,2.6,0,0,0,0-4.45l-30.81-18.31-34.65,8Z" transform="translate(-441.95 -121.54)"/></g><polygon class="cls-33" points="392.98 785.99 418.87 771.04 393.14 756.19 367 771.1 392.98 785.99"/><path class="cls-34" d="M860.78,892.56" transform="translate(-441.95 -121.54)"/><polygon class="cls-35" points="392.98 785.99 392.94 785.96 392.94 815.7 418.83 800.75 418.83 771.06 392.98 785.99"/><polygon class="cls-34" points="392.98 785.99 367 771.1 367 799.91 393.44 815.76 393.44 785.72 392.98 785.99"/><path class="cls-33" d="M809,892.64" transform="translate(-441.95 -121.54)"/><polygon class="cls-12" points="413.62 795.03 400.21 802.54 400.21 789.13 413.62 781.61 413.62 795.03"/><g class="cls-31"><path class="cls-32" d="M1368.63,910.58l26.49-15.91a3.53,3.53,0,0,0-.06-6l-41.81-24.86-47,10.81Z" transform="translate(-441.95 -121.54)"/></g><polygon class="cls-33" points="893.35 767.98 928.49 747.69 893.57 727.52 858.08 747.77 893.35 767.98"/><path class="cls-34" d="M1370.39,869.19" transform="translate(-441.95 -121.54)"/><polygon class="cls-35" points="893.35 767.98 893.3 767.95 893.3 808.31 928.44 788.02 928.44 747.72 893.35 767.98"/><polygon class="cls-34" points="893.35 767.98 858.08 747.77 858.08 786.88 893.97 808.39 893.97 767.62 893.35 767.98"/><path class="cls-33" d="M1300,869.31" transform="translate(-441.95 -121.54)"/><polygon class="cls-12" points="921.37 780.25 903.15 790.45 903.15 772.24 921.37 762.04 921.37 780.25"/><g class="cls-31"><path class="cls-32" d="M510.55,910.56,537,894.66a3.54,3.54,0,0,0,0-6l-41.81-24.86-47,10.82Z" transform="translate(-441.95 -121.54)"/></g><polygon class="cls-33" points="35.27 767.96 70.41 747.67 35.49 727.51 0 747.75 35.27 767.96"/><path class="cls-34" d="M512.31,869.18" transform="translate(-441.95 -121.54)"/><polygon class="cls-35" points="35.27 767.96 35.22 767.93 35.22 808.29 70.36 788 70.36 747.7 35.27 767.96"/><polygon class="cls-34" points="35.27 767.96 0 747.75 0 786.87 35.88 808.38 35.88 767.6 35.27 767.96"/><path class="cls-33" d="M442,869.29" transform="translate(-441.95 -121.54)"/><polygon class="cls-12" points="63.29 780.24 45.07 790.44 45.07 772.22 63.29 762.02 63.29 780.24"/><ellipse class="cls-14" cx="665.5" cy="839.94" rx="19.35" ry="32.61" transform="matrix(0.09, -1, 1, 0.09, -670.79, 1308.77)"/><polygon class="cls-14" points="213.01 706.38 295.17 658.95 213.53 611.81 130.57 659.14 213.01 706.38"/><polygon class="cls-33" points="161.76 665.46 243.91 618.03 162.27 570.89 79.31 618.23 161.76 665.46"/><path class="cls-34" d="M685.74,749.66" transform="translate(-441.95 -121.54)"/><polygon class="cls-35" points="161.76 665.46 161.64 735.99 243.79 688.56 243.79 618.03 161.76 665.46"/><polygon class="cls-34" points="161.76 665.46 79.31 618.23 79.31 685.9 163.2 736.19 161.76 665.46"/><path class="cls-33" d="M521.26,749.93" transform="translate(-441.95 -121.54)"/><polygon class="cls-12" points="149.79 717.83 133.38 708.28 133.38 695.99 149.79 705.54 149.79 717.83"/><polygon class="cls-12" points="128 705.54 111.58 695.99 111.58 673.41 128 682.96 128 705.54"/><polygon class="cls-12" points="89.8 683.7 106.21 693.25 106.21 655.53 89.8 645.99 89.8 683.7"/><path class="cls-36" d="M642,758.05c-2.25,0-47.32,16.25-47.28-21.08s57.54,5.29,57.54,5.29Z" transform="translate(-441.95 -121.54)"/><path class="cls-6" d="M693.87,838.89l-14.79-15c-2-1.18-6.5-1.74-9.58-1.37a3,3,0,0,0-2.56,2.69l-.26,3c-.53,4.3-.15,4.93,2.48,6.5l15.63,9.3c2.64,1.56,6.69,1.78,9,.49l.66-.37C696.76,842.8,696.5,840.45,693.87,838.89Z" transform="translate(-441.95 -121.54)"/><path class="cls-24" d="M668,824.45c0,4.42,10.76,4.42,10.76,0V810.07H668Z" transform="translate(-441.95 -121.54)"/><path class="cls-6" d="M665.47,854.77,652.66,838c-1.83-1.42-6.24-2.53-9.34-2.55a3,3,0,0,0-2.87,2.36l-.63,2.93c-1.06,4.2-.76,4.87,1.66,6.75l14.35,11.17c2.42,1.88,6.41,2.61,8.87,1.61l.7-.29C667.85,859,667.89,856.65,665.47,854.77Z" transform="translate(-441.95 -121.54)"/><path class="cls-24" d="M641.63,837.24c-.55,4.39,10.13,5.72,10.68,1.33l1.79-14.27L643.42,823Z" transform="translate(-441.95 -121.54)"/><path class="cls-17" d="M644.09,724s33.32,17,34.71,25.93c1.23,7.79,2.57,53.93,1.79,64.77a4.34,4.34,0,0,1-2.43,3.61c-3.3,1.57-9.27,3.29-11.26-3.43-2.81-9.48-1.84-41.89-8.56-51.17s-40.05-22.36-40.05-22.36Z" transform="translate(-441.95 -121.54)"/><path class="cls-17" d="M621.73,739.46s37.28,18.59,38.38,27c.95,7.37-3.65,49.39-4.84,60a4.4,4.4,0,0,1-2.77,3.6c-3.39,1.34-9.23,2.58-11-3.74-2.49-9.08-.43-39.73-6.85-48.75-3.49-4.89-12.44-10.43-27.72-17.64-7-3.3-12-17-3.51-18.13Z" transform="translate(-441.95 -121.54)"/><path class="cls-27" d="M654.07,672.23l7.11,27.25c.61,3.24,1.71,8,2.51,13.52a32.49,32.49,0,0,1-6.51,24.46s-2.53-13.35-5-19.63a216.6,216.6,0,0,1-8-24.45C644.15,692.67,654.07,672.23,654.07,672.23Z" transform="translate(-441.95 -121.54)"/><path class="cls-15" d="M643.52,653.72l16.72,28.72c-2.28,9.13-7.23,13.78-13.48,16.23l-5.31-35.49Z" transform="translate(-441.95 -121.54)"/><path class="cls-12" d="M638.75,694a1.91,1.91,0,0,1-.61-3.72c13.75-4.7,16.48-11.82,16.5-11.89a1.91,1.91,0,0,1,3.61,1.24c-.12.36-3.17,8.89-18.88,14.26A1.88,1.88,0,0,1,638.75,694Z" transform="translate(-441.95 -121.54)"/><path class="cls-15" d="M648.54,722.66c-2.57-14.13-2-22.76.32-42.27,0-27-8.22-37.07-25.24-30.86l-7,1.87c-20.54,11.07-31,10.51-27.3,32.25l3.6,47.66C592.88,755.84,649.85,751.51,648.54,722.66Z" transform="translate(-441.95 -121.54)"/><path class="cls-6" d="M626.28,649.73s-2.69,2.48-4,2.77-16-11.52-10.67-24.75c3.34-8.38,19.18-1.82,19.18-1.82Z" transform="translate(-441.95 -121.54)"/><path class="cls-27" d="M621.46,661.29l.81.14a5.1,5.1,0,0,0,5.87-4.16l2.64-15.56a5.1,5.1,0,0,0-4.16-5.87l-.82-.14a5.11,5.11,0,0,0-5.87,4.17l-4.73,14.57C614.73,657.2,618.7,660.82,621.46,661.29Z" transform="translate(-441.95 -121.54)"/><path class="cls-28" d="M629,652.19a13.93,13.93,0,0,1-11-6.26s4.2,9.77,10.3,10.6Z" transform="translate(-441.95 -121.54)"/><ellipse class="cls-27" cx="632.94" cy="636.47" rx="15.86" ry="8.99" transform="translate(-559.72 1007) rotate(-78.4)"/><path class="cls-27" d="M616.5,641.57c1.55,7.43,9.15,10.64,14.09,6.23s7.68-14,6.13-21.44-6.8-9.87-11.74-5.46S615,634.14,616.5,641.57Z" transform="translate(-441.95 -121.54)"/><path class="cls-6" d="M627.43,626s-.76,14-12.21,15.3c0,0-11.12-9.2.17-20.95,10-10.35,21.23.71,21.23.71Z" transform="translate(-441.95 -121.54)"/><path class="cls-37" d="M642.29,632s-2.81-5.5-10.49-6.31l4.82-4.65S642.65,621,642.29,632Z" transform="translate(-441.95 -121.54)"/><path class="cls-6" d="M620.34,633.13c3.12-3,8.67-1.8,16.12,2.65,7.29,1.69,9.74-6.56,9.74-6.56,1.93-4.29-.7-6.82-5-8.75l-11.18-5c-6.32-2.88-13.65,1.47-15.58,5.77l-.43.68C612.08,626.2,616.05,631.2,620.34,633.13Z" transform="translate(-441.95 -121.54)"/><path class="cls-27" d="M614.39,643.24a3.34,3.34,0,1,0,2.59-4A3.34,3.34,0,0,0,614.39,643.24Z" transform="translate(-441.95 -121.54)"/><path class="cls-12" d="M629,652.19s5.65,7.88-2.31,11.27c-12.62,5.36-16.54-8.92-14.57-9.74l4-2.06a5.37,5.37,0,0,0,1.26,7.3c3,2.5,8.3,3,10.59-.87Z" transform="translate(-441.95 -121.54)"/><polygon class="cls-38" points="165.58 558.85 165.58 605.12 157.04 600.11 165.58 558.85"/><path class="cls-4" d="M616.73,744.63l3.95-1.39.46-.46.3-.53,29.73-15.47a1.53,1.53,0,0,1,1.32.06l11.36,6.65,0-.18,2.14.86-.1.88h0a.5.5,0,0,1-.23.23l-30.95,16.09a.18.18,0,0,0-.08.12c-.64,2.37-1.72,4.49-3.74,3.26l-12.58-7.41a3,3,0,0,1-1.58-2.71Z" transform="translate(-441.95 -121.54)"/><path class="cls-2" d="M633.45,753.83l35.63-18.53c.41-.22.41-.6,0-.84l-15.14-8.88a1.73,1.73,0,0,0-1.52-.06l-35.63,18.53c-.41.21-.41.59,0,.84l15.14,8.88A1.8,1.8,0,0,0,633.45,753.83Z" transform="translate(-441.95 -121.54)"/><path class="cls-4" d="M632.45,741.89l8.62-4.48c.1,0,.1-.15,0-.21l-3.67-2.14a.42.42,0,0,0-.36,0l-8.63,4.49c-.1.05-.1.14,0,.2l3.66,2.15A.44.44,0,0,0,632.45,741.89Z" transform="translate(-441.95 -121.54)"/><path class="cls-12" d="M636.57,733a4.05,4.05,0,0,1,1.79-2.23l35.35-18.11a.9.9,0,0,1,.75-.11h0a.4.4,0,0,1,.16.13l1,1.11-1-.09-5.31,19.58a4,4,0,0,1-1.79,2.24L634.1,752.61,633,753.7l-.16.27c-.65.13-2.06-.9-2.06-.9Z" transform="translate(-441.95 -121.54)"/><path class="cls-39" d="M633.23,754.78s36.91-19.5,37.14-20.35l5.36-19.79c.23-.85-.2-1.22-1-.83l-35.35,18.11a4,4,0,0,0-1.79,2.24L632.27,754C632,754.8,632.47,755.17,633.23,754.78Z" transform="translate(-441.95 -121.54)"/><path class="cls-12" d="M653.05,735.61c-.28,1,.69,1.29,2.18.53a6.74,6.74,0,0,0,3.2-3.29c.29-1.05-.69-1.28-2.17-.52A6.75,6.75,0,0,0,653.05,735.61Z" transform="translate(-441.95 -121.54)"/><path class="cls-27" d="M606.13,680.39l-4.68,41.47c-.18,2.22,33.91,13.15,33.91,13.15l-2.87,12-34.87-8.92c-9.22-3.87-9-10.92-8.88-16.71l.65-35.93Z" transform="translate(-441.95 -121.54)"/><path class="cls-15" d="M607.17,684.93l-2.94,30.71c-.87,2.55-23.81-2.7-22.91-6.5.16-.67,2.52-37.47,12.82-45.88C602.5,656.43,609.2,670.76,607.17,684.93Z" transform="translate(-441.95 -121.54)"/><path class="cls-12" d="M600.86,709.74c-4.12,0-11.09-1.09-19-6.89a1.91,1.91,0,1,1,2.26-3.07c10.82,8,19.33,6,19.68,5.88a1.91,1.91,0,0,1,.95,3.69A16.63,16.63,0,0,1,600.86,709.74Z" transform="translate(-441.95 -121.54)"/><path class="cls-12" d="M1191.78,364,937.67,195.55c-5.18-2.9-9.49-1.67-9.66,2.76l-5.9,231.51c-.16,4.42,5.71,12.53,10.88,15.43l251.4,140.87Z" transform="translate(-441.95 -121.54)"/><path class="cls-40" d="M1191.37,376.34l1.55-32.83c.17-4.42-1.46-5.75-6.64-8.64L937.71,195.55c-5.17-2.9-9.49-1.67-9.65,2.76l-1.17,30.83Z" transform="translate(-441.95 -121.54)"/><path class="cls-41" d="M954.35,226.18c0,3-2.14,4.26-4.79,2.73a10.53,10.53,0,0,1-4.78-8.25c0-3,2.14-4.26,4.78-2.73A10.52,10.52,0,0,1,954.35,226.18Z" transform="translate(-441.95 -121.54)"/><path class="cls-12" d="M972.8,236.83c0,3-2.15,4.26-4.79,2.73a10.53,10.53,0,0,1-4.78-8.25c0-3,2.14-4.26,4.78-2.73A10.56,10.56,0,0,1,972.8,236.83Z" transform="translate(-441.95 -121.54)"/><path class="cls-42" d="M991.24,247.48c0,3-2.14,4.26-4.78,2.73a10.54,10.54,0,0,1-4.79-8.25c0-3,2.15-4.26,4.79-2.73A10.55,10.55,0,0,1,991.24,247.48Z" transform="translate(-441.95 -121.54)"/><path class="cls-43" d="M1175,390.24,1046.18,316a4.13,4.13,0,0,0-.49-.22l-96.56-55.68c-2.43-1.4-4.49.1-4.56,3.35l-3.89,164.36c-.07,3.24,1.86,7.05,4.29,8.45l128.81,74.28a4.13,4.13,0,0,0,.49.22l96.55,55.68c2.44,1.4,4.5-.1,4.57-3.35l3.88-164.36C1179.35,395.45,1177.42,391.64,1175,390.24Z" transform="translate(-441.95 -121.54)"/><path class="cls-12" d="M1063.36,404.85l-40.24-23.21c-2.34-1.35-4.19-5-4.12-8.1l1.09-46.08c.08-3.11,2-4.56,4.38-3.21l40.25,23.21c2.33,1.35,4.18,5,4.11,8.1l-1.09,46.08C1067.67,404.75,1065.7,406.2,1063.36,404.85Z" transform="translate(-441.95 -121.54)"/><path class="cls-12" d="M1058.82,485.33,959.58,428.1c-2.43-1.41-4.37-5.21-4.29-8.46l1.25-53c.08-3.25,2.14-4.75,4.57-3.35l99.25,57.23c2.43,1.41,4.36,5.21,4.29,8.46l-1.26,53C1063.32,485.23,1061.26,486.73,1058.82,485.33Z" transform="translate(-441.95 -121.54)"/><path class="cls-43" d="M968.81,430.54l-.09-.06a1.42,1.42,0,0,1-.59-1.19l1.28-48.21c0-.45.3-.66.64-.47l.09.06a1.46,1.46,0,0,1,.6,1.19l-1.29,48.21C969.44,430.52,969.15,430.73,968.81,430.54Z" transform="translate(-441.95 -121.54)"/><path class="cls-43" d="M984.7,439.83l-.1-.06a1.48,1.48,0,0,1-.59-1.19l1.29-48.2c0-.46.3-.67.63-.47l.1,0a1.45,1.45,0,0,1,.59,1.19l-1.28,48.21C985.32,439.82,985,440,984.7,439.83Z" transform="translate(-441.95 -121.54)"/><path class="cls-43" d="M1000.59,449.12l-.1-.06a1.43,1.43,0,0,1-.59-1.18l1.29-48.21c0-.46.29-.67.63-.47l.1.05a1.45,1.45,0,0,1,.59,1.19l-1.29,48.21C1001.21,449.11,1000.93,449.32,1000.59,449.12Z" transform="translate(-441.95 -121.54)"/><path class="cls-43" d="M1016.47,458.41l-.09-.05a1.42,1.42,0,0,1-.59-1.19l1.28-48.21c0-.46.3-.67.64-.47l.09.06a1.44,1.44,0,0,1,.6,1.18l-1.29,48.21C1017.1,458.4,1016.81,458.61,1016.47,458.41Z" transform="translate(-441.95 -121.54)"/><path class="cls-43" d="M1032.36,467.7l-.09-.05a1.46,1.46,0,0,1-.6-1.19l1.29-48.21c0-.46.3-.67.64-.47l.09.06a1.42,1.42,0,0,1,.59,1.19l-1.28,48.2C1033,467.69,1032.7,467.9,1032.36,467.7Z" transform="translate(-441.95 -121.54)"/><path class="cls-43" d="M968.12,429.35h0c0-.42.28-.62.59-.43l79.62,46.56a1.35,1.35,0,0,1,.55,1.11h0c0,.42-.27.62-.59.43l-79.62-46.57A1.34,1.34,0,0,1,968.12,429.35Z" transform="translate(-441.95 -121.54)"/><path class="cls-43" d="M1048.25,477l-.1-.06a1.45,1.45,0,0,1-.59-1.19l1.29-48.21c0-.45.29-.66.63-.47l.1.06a1.45,1.45,0,0,1,.59,1.19l-1.29,48.21C1048.87,477,1048.59,477.19,1048.25,477Z" transform="translate(-441.95 -121.54)"/><path class="cls-44" d="M1045.41,431.11c-3,0-6.62-1.07-10.54-4.33-10.16-8.45-13.24-8.84-22-2.78-11.21,7.77-16.08,3.5-25.76-5-1.51-1.32-3.21-2.82-5.07-4.38-3.8-3.2-7.14-4.46-9.94-3.74-3.65.94-5.24,5-5.26,5a1.16,1.16,0,1,1-2.17-.84c.08-.21,2-5.21,6.85-6.44,3.56-.92,7.61.49,12,4.21,1.87,1.57,3.59,3.08,5.1,4.41,9.6,8.43,13.18,11.58,22.9,4.84s13.84-6.21,24.8,2.91c9.64,8,16.57.91,16.86.6a1.17,1.17,0,0,1,1.7,1.6A14.07,14.07,0,0,1,1045.41,431.11Z" transform="translate(-441.95 -121.54)"/><path class="cls-44" d="M1002.78,428.29c0,1.4-1,2-2.25,1.26a4.69,4.69,0,0,1-2.12-3.81c0-1.41,1-2,2.25-1.27A4.72,4.72,0,0,1,1002.78,428.29Z" transform="translate(-441.95 -121.54)"/><path class="cls-44" d="M1028.19,421.23c0,1.4-1,2-2.25,1.26a4.69,4.69,0,0,1-2.12-3.81c0-1.41,1-2,2.25-1.27A4.72,4.72,0,0,1,1028.19,421.23Z" transform="translate(-441.95 -121.54)"/><path class="cls-12" d="M1146.12,534.78,1087,500.64c-5.6-3.23-10.07-11.84-9.93-19.12l2.12-114c.14-7.28,4.83-10.59,10.43-7.36l59.13,34.14c5.6,3.23,10.07,11.84,9.93,19.12l-2.12,114C1156.41,534.7,1151.72,538,1146.12,534.78Z" transform="translate(-441.95 -121.54)"/><path class="cls-45" d="M1006.61,370.28,966,347.94c-3.48-1.92-6.3-7.3-6.29-12l.08-45.07c0-4.73,2.84-7,6.32-5.09l40.59,22.34c3.48,1.91,6.3,7.3,6.29,12l-.08,45.08C1012.92,369.91,1010.09,372.19,1006.61,370.28Z" transform="translate(-441.95 -121.54)"/><polygon class="cls-45" points="568.38 249.14 556.53 256.03 508.5 170.76 519.78 164.22 568.38 249.14"/><path class="cls-46" d="M994.86,377.13l-40.6-22.34c-3.47-1.91-6.29-7.3-6.28-12l.08-45.08c0-4.72,2.83-7,6.31-5.09L995,314.94c3.48,1.91,6.29,7.3,6.29,12l-.08,45.08C1001.17,376.77,998.34,379,994.86,377.13Z" transform="translate(-441.95 -121.54)"/><path class="cls-12" d="M966.32,321.68l-8.08,4c-.75.37-1.92-.35-2.61-1.6h0c-.69-1.25-.65-2.57.09-2.94l8.08-4c.74-.37,1.91.35,2.6,1.6h0C967.1,320,967.06,321.31,966.32,321.68Z" transform="translate(-441.95 -121.54)"/><path class="cls-12" d="M963.17,337.71l-7.55-13.63c-.7-1.25-.66-2.57.08-2.94h0c.74-.37,1.92.35,2.61,1.6l7.55,13.64c.7,1.25.66,2.57-.08,2.94h0C965,339.69,963.86,339,963.17,337.71Z" transform="translate(-441.95 -121.54)"/><path class="cls-12" d="M982.92,331.27,991,344.6c.74,1.22,1.91,1.86,2.61,1.41h0c.69-.45.65-1.82-.09-3.05l-8.08-13.33c-.74-1.22-1.91-1.85-2.61-1.4h0C982.14,328.68,982.18,330.05,982.92,331.27Z" transform="translate(-441.95 -121.54)"/><path class="cls-12" d="M986.07,350.93l7.55-4.91c.69-.45.65-1.82-.09-3h0c-.74-1.22-1.91-1.85-2.6-1.4l-7.56,4.91c-.69.45-.65,1.82.09,3h0C984.2,350.75,985.37,351.38,986.07,350.93Z" transform="translate(-441.95 -121.54)"/><path class="cls-12" d="M971.11,344.62l4.83-8.63c.45-.79.06-2.29-.85-3.32h0c-.91-1-2-1.24-2.46-.44l-4.84,8.62c-.44.79,0,2.29.86,3.32h0C969.56,345.21,970.67,345.41,971.11,344.62Z" transform="translate(-441.95 -121.54)"/><path class="cls-12" d="M975.9,336.07l4.83-8.63c.45-.79.06-2.29-.85-3.32h0c-.91-1-2-1.24-2.46-.44l-4.84,8.62c-.44.79-.06,2.29.86,3.32h0C974.35,336.66,975.46,336.86,975.9,336.07Z" transform="translate(-441.95 -121.54)"/><path class="cls-47" d="M1375.36,805.37l-144.58-97.84c-9-5.33-16.19-19.59-15.94-31.85l6.64-320.85c.26-12.26,7.8-17.87,16.86-12.54l151.22,89c9.06,5.33,16.2,19.59,15.94,31.85l-6.6,319.33c-.17,8.07-3.25,11.42-8.37,14.34Z" transform="translate(-441.95 -121.54)"/><path class="cls-48" d="M1296.81,503.76s-82.28,183.86-82,171.6l-6.18-324.47,19.45-10.14c2.85-1.33,6.41-1,10.23,1.22l151.22,89c4.42,2.61,8.39,7.34,11.26,12.93Z" transform="translate(-441.95 -121.54)"/><path class="cls-12" d="M1366.42,804.31l-150.84-89c-9.06-5.33-15.82-19.59-15.57-31.85l6.64-320.85c.26-12.26,7.61-17.88,16.67-12.55l150.76,89c9.06,5.33,15.74,19.58,15.48,31.84l-6.64,320.85C1382.67,804,1375.48,809.64,1366.42,804.31Z" transform="translate(-441.95 -121.54)"/><path class="cls-7" d="M1363.34,805.44l-150.84-89c-9.06-5.34-15.82-19.59-15.57-31.85l6.64-320.85c.25-12.26,7.61-17.88,16.67-12.55l150.75,89c9.06,5.33,15.74,19.58,15.49,31.84l-6.64,320.85C1379.58,805.15,1372.4,810.77,1363.34,805.44Z" transform="translate(-441.95 -121.54)"/><path class="cls-17" d="M1360.24,750.6l-147.08-86.55a4.91,4.91,0,0,1-2.41-4.35l5.61-271a5.08,5.08,0,0,1,7.59-4.32L1371,471a4.91,4.91,0,0,1,2.41,4.35l-5.61,271A5.08,5.08,0,0,1,1360.24,750.6Z" transform="translate(-441.95 -121.54)"/><path class="cls-49" d="M1320.76,431.77l-46.64-27.45a7.08,7.08,0,0,1-2.89-5.77h0c0-2.22,1.42-3.24,3.06-2.28l46.64,27.45a7.09,7.09,0,0,1,2.89,5.78h0C1323.78,431.71,1322.4,432.74,1320.76,431.77Z" transform="translate(-441.95 -121.54)"/><path class="cls-50" d="M1346.47,675.54" transform="translate(-441.95 -121.54)"/><path class="cls-9" d="M1396,515.92h0c-2.53,1.07-4.55-.28-4.49-3l.38-18.27a8.32,8.32,0,0,1,4.69-6.86h0c2.53-1.06,4.55.29,4.5,3l-.38,18.27A8.32,8.32,0,0,1,1396,515.92Z" transform="translate(-441.95 -121.54)"/><path class="cls-51" d="M1397.91,516.17h0c-2.53,1.07-4.55-.28-4.49-3l.38-18.27a8.32,8.32,0,0,1,4.69-6.86h0c2.53-1.06,4.55.29,4.5,3l-.38,18.26A8.32,8.32,0,0,1,1397.91,516.17Z" transform="translate(-441.95 -121.54)"/><path class="cls-9" d="M1395.27,549.18h0c-2.52,1.06-4.55-.28-4.49-3l.38-18.27a8.32,8.32,0,0,1,4.7-6.86h0c2.52-1.07,4.54.28,4.49,3l-.38,18.27A8.32,8.32,0,0,1,1395.27,549.18Z" transform="translate(-441.95 -121.54)"/><path class="cls-51" d="M1397.22,549.43h0c-2.52,1.06-4.55-.28-4.49-3l.38-18.27a8.32,8.32,0,0,1,4.7-6.86h0c2.52-1.07,4.54.28,4.49,3l-.38,18.27A8.32,8.32,0,0,1,1397.22,549.43Z" transform="translate(-441.95 -121.54)"/><path class="cls-52" d="M1240.93,569.26l41.39,23.91c3.55,2.05,6.51-.24,6.62-5.12l1-46.48c.11-4.87-2.68-10.48-6.23-12.53l-41.39-23.91c-3.55-2.05-6.51.24-6.62,5.12l-1,46.48C1234.59,561.6,1237.38,567.21,1240.93,569.26Z" transform="translate(-441.95 -121.54)"/><path class="cls-52" d="M1286,450.33l-41.53-25.13c-3.55-2.15-6.46,0-6.5,4.73l-.29,45.47c0,4.76,2.83,10.37,6.39,12.53l41.52,25.13c3.56,2.15,6.47,0,6.5-4.73l.3-45.47C1292.39,458.1,1289.53,452.49,1286,450.33Z" transform="translate(-441.95 -121.54)"/><path class="cls-52" d="M1313.89,529.32l41.53,25.14c3.55,2.15,6.46,0,6.5-4.73l.29-45.47c0-4.77-2.83-10.38-6.39-12.53L1314.3,466.6c-3.56-2.16-6.47,0-6.5,4.73l-.3,45.46C1307.47,521.56,1310.33,527.17,1313.89,529.32Z" transform="translate(-441.95 -121.54)"/><path class="cls-52" d="M1282.59,613.3l-41.53-25.14c-3.56-2.15-6.47,0-6.5,4.73l-.29,45.47c0,4.77,2.83,10.38,6.38,12.53L1282.18,676c3.56,2.16,6.47,0,6.5-4.73l.29-45.46C1289,621.06,1286.15,615.45,1282.59,613.3Z" transform="translate(-441.95 -121.54)"/><path class="cls-52" d="M1352.44,654.69l-41.52-25.13c-3.56-2.16-6.47,0-6.5,4.73l-.3,45.46c0,4.77,2.83,10.38,6.39,12.54L1352,717.42c3.56,2.15,6.47,0,6.5-4.73l.3-45.47C1358.86,662.46,1356,656.84,1352.44,654.69Z" transform="translate(-441.95 -121.54)"/><path class="cls-52" d="M1309.84,610.65l41.09,23c3.52,2,6.46-.34,6.57-5.15l1-45.83c.11-4.81-2.66-10.3-6.18-12.27l-41.08-22.94c-3.52-2-6.46.33-6.57,5.14l-1,45.84C1303.56,603.19,1306.32,608.68,1309.84,610.65Z" transform="translate(-441.95 -121.54)"/><path class="cls-30" d="M1272.19,600.12l-41.39-23.91c-3.54-2.05-6.33-7.66-6.22-12.54l1.05-46.48c.11-4.87,3.07-7.16,6.62-5.11l41.39,23.9c3.54,2,6.33,7.66,6.22,12.54l-1,46.48C1278.71,599.88,1275.74,602.17,1272.19,600.12Z" transform="translate(-441.95 -121.54)"/><polygon class="cls-12" points="800.61 441.48 790.53 425.54 798.8 419.24 800.92 422.64 795.47 426.8 803.39 439.32 800.61 441.48"/><polygon class="cls-12" points="819.48 451.01 817.35 447.6 822.72 443.51 814.7 430.82 817.48 428.66 827.67 444.76 819.48 451.01"/><polygon class="cls-12" points="805.33 448.54 802.26 446.67 813.02 422.34 816.09 424.21 805.33 448.54"/><path class="cls-46" d="M1275.44,520l-41.53-25.14c-3.56-2.15-6.42-7.76-6.39-12.53l.3-45.46c0-4.77,2.94-6.89,6.5-4.73l41.52,25.13c3.56,2.15,6.42,7.76,6.39,12.53l-.29,45.47C1281.91,520,1279,522.16,1275.44,520Z" transform="translate(-441.95 -121.54)"/><path class="cls-17" d="M1272.06,683l-41.53-25.13c-3.56-2.16-6.42-7.77-6.39-12.53l.3-45.47c0-4.77,2.94-6.89,6.5-4.73l41.52,25.13c3.56,2.16,6.42,7.77,6.39,12.53l-.3,45.47C1278.52,683,1275.61,685.12,1272.06,683Z" transform="translate(-441.95 -121.54)"/><path class="cls-30" d="M1341.91,724.37l-41.53-25.14c-3.55-2.15-6.41-7.76-6.38-12.53l.29-45.46c0-4.77,2.94-6.89,6.5-4.74l41.53,25.14c3.55,2.15,6.41,7.76,6.38,12.53l-.29,45.46C1348.38,724.4,1345.47,726.52,1341.91,724.37Z" transform="translate(-441.95 -121.54)"/><path class="cls-34" d="M1340.8,640.54l-41.08-22.94c-3.52-2-6.29-7.46-6.18-12.27l1-45.83c.11-4.81,3-7.11,6.57-5.15l41.09,22.95c3.52,2,6.29,7.46,6.18,12.26l-1,45.84C1347.27,640.21,1344.32,642.51,1340.8,640.54Z" transform="translate(-441.95 -121.54)"/><path class="cls-12" d="M1326,614.66l.66.37c1.44.8,1.83.41,1.88-1.81s0-4.2,0-6.66c.07-3.07.92-3.78,2.65-3.31v-.16c-1.71-1.44-2.51-3.07-2.44-6.14,0-2.47.24-4.33.28-6.51s-.31-3-1.75-3.84l-.66-.37.07-3.15,2.17,1.21c3,1.69,4.37,3.83,4.27,8.2-.06,2.86-.44,4.16-.5,6.71a5.34,5.34,0,0,0,2.89,4.64l-.08,3.47c-2.23-1.17-3-.08-3,1.34-.06,2.54.25,4.23.19,7.09-.1,4.37-1.51,5-4.53,3.28l-2.17-1.21Z" transform="translate(-441.95 -121.54)"/><path class="cls-12" d="M1315.21,611.81l-2.16-1.21c-3-1.69-4.37-3.83-4.27-8.19.06-2.86.44-4.17.5-6.71a5.34,5.34,0,0,0-2.89-4.64l.08-3.47c2.23,1.16,3,.07,3-1.34.06-2.54-.25-4.23-.19-7.1.1-4.36,1.5-5,4.53-3.27l2.17,1.21-.08,3.15-.65-.37c-1.44-.81-1.83-.41-1.88,1.81s0,4.2,0,6.66c-.07,3.07-.93,3.78-2.65,3.3v.16c1.71,1.45,2.51,3.08,2.44,6.15-.06,2.46-.24,4.32-.29,6.5s.32,3,1.76,3.85l.65.36Z" transform="translate(-441.95 -121.54)"/><path class="cls-12" d="M1338.68,550.19l-28.89-17.49c-2.47-1.5-4.43-5.42-4.36-8.76l.67-31.86c.06-3.34,2.13-4.84,4.6-3.34l28.89,17.49c2.48,1.5,4.43,5.42,4.36,8.76l-.66,31.86C1343.22,550.19,1341.15,551.69,1338.68,550.19Z" transform="translate(-441.95 -121.54)"/><path class="cls-53" d="M1308.9,532.43a2.55,2.55,0,0,1-.53-3.95l3.75-3.94a2.88,2.88,0,0,1,4.71.86l5.57,12.52,6.41-8.83a2.88,2.88,0,0,1,5,.77l7,19.09a1.34,1.34,0,0,1-2,1.6Z" transform="translate(-441.95 -121.54)"/><path class="cls-46" d="M1320.92,511.85c0,3.85-2.33,5.54-5.24,3.78s-5.29-6.31-5.3-10.16,2.33-5.54,5.24-3.78S1320.91,508,1320.92,511.85Z" transform="translate(-441.95 -121.54)"/><path class="cls-12" d="M1262.71,643.83h0c-1.58-1-2.37-3.66-1.23-4.28h0c1.28-.69,1.29-3.07,0-5.31l-.65-1.15c-1.26-2.23-3.32-3.48-4.6-2.78h0c-1.14.61-3-1.47-3-3.3h0a7.39,7.39,0,0,0-3.23-5.73l-.93-.56c-1.8-1.09-3.27-.29-3.28,1.79h0c0,1.83-1.94,1.58-3-.39h0c-1.27-2.24-3.33-3.49-4.61-2.79l-.66.36c-1.28.7-1.3,3.07,0,5.31h0c1.11,2,.3,3.71-1.29,2.74h0c-1.8-1.08-3.26-.29-3.28,1.79v1.07a7.35,7.35,0,0,0,3.23,5.72c1.59,1,2.37,3.66,1.24,4.27h0c-1.29.7-1.3,3.08,0,5.31l.65,1.15c1.26,2.24,3.33,3.49,4.61,2.79h0c1.13-.61,3,1.47,3,3.3h0a7.39,7.39,0,0,0,3.23,5.72l.93.56c1.8,1.09,3.27.29,3.28-1.78,0-1.83,1.94-1.58,3.06.39,1.26,2.24,3.32,3.48,4.6,2.79l.66-.36c1.28-.7,1.3-3.07,0-5.31h0c-1.11-2-.3-3.71,1.29-2.75h0c1.8,1.09,3.27.29,3.28-1.78v-1.07A7.39,7.39,0,0,0,1262.71,643.83Zm-13.37,5.56c-4.46-2.7-8-9.06-8-14.21s3.68-7.13,8.14-4.42,8.06,9.06,8,14.21S1253.8,652.09,1249.34,649.39Z" transform="translate(-441.95 -121.54)"/><path class="cls-12" d="M1263.16,478.09l-4.36-9a5.73,5.73,0,0,1,1.13-6.28l2.88-2.71a2.75,2.75,0,0,1,4.61.89l4.36,9a5.74,5.74,0,0,1-1.13,6.28l-2.88,2.7A2.75,2.75,0,0,1,1263.16,478.09Z" transform="translate(-441.95 -121.54)"/><path class="cls-12" d="M1242.39,488.33l-4.36-9a5.76,5.76,0,0,1,1.14-6.28l2.88-2.7a2.75,2.75,0,0,1,4.61.88l4.36,9a5.75,5.75,0,0,1-1.14,6.28l-2.88,2.7A2.75,2.75,0,0,1,1242.39,488.33Z" transform="translate(-441.95 -121.54)"/><path class="cls-12" d="M1245.46,490.26s20.06-3.31,26.41-15.88l-5-8.42s-15.58,18.24-26.58,11.47Z" transform="translate(-441.95 -121.54)"/><path class="cls-30" d="M1142.16,461.55l-46-25.32c-3.94-2.18-7.13-8.28-7.12-13.64l.09-51.1c0-5.36,3.21-7.94,7.16-5.77l46,25.33c4,2.17,7.14,8.27,7.13,13.63l-.09,51.1C1149.31,461.14,1146.1,463.72,1142.16,461.55Z" transform="translate(-441.95 -121.54)"/><polygon class="cls-30" points="704.42 340.46 690.99 348.27 636.53 251.61 649.32 244.2 704.42 340.46"/><path class="cls-30" d="M1128.84,469.32l-46-25.33c-3.94-2.17-7.13-8.27-7.13-13.63l.09-51.1c0-5.36,3.22-7.94,7.16-5.77l46,25.33c3.94,2.17,7.13,8.27,7.13,13.63l-.09,51.1C1136,468.91,1132.78,471.49,1128.84,469.32Z" transform="translate(-441.95 -121.54)"/><path class="cls-41" d="M1133.56,394.79a1.61,1.61,0,0,1-1.52-1.1l-21-62.43a1.61,1.61,0,0,1,3-1l21,62.43a1.61,1.61,0,0,1-1,2A1.63,1.63,0,0,1,1133.56,394.79Z" transform="translate(-441.95 -121.54)"/><path class="cls-41" d="M1091.64,372.61a1.53,1.53,0,0,1-.74-.18,1.61,1.61,0,0,1-.69-2.17l20.73-39.91V186.43a1.61,1.61,0,0,1,3.22,0V330.74a1.6,1.6,0,0,1-.19.74l-20.9,40.27A1.61,1.61,0,0,1,1091.64,372.61Z" transform="translate(-441.95 -121.54)"/><path class="cls-12" d="M1124.51,458.28l-36.38-21c-3.12-1.8-5.64-6.62-5.64-10.78V386.86c0-4.16,2.52-6.07,5.64-4.27l36.38,21c3.11,1.8,5.64,6.63,5.64,10.79V454C1130.15,458.17,1127.62,460.08,1124.51,458.28Z" transform="translate(-441.95 -121.54)"/><path class="cls-46" d="M1116.86,447.22c2.37,1.42,5.14-1.24,4.39-4.23a28.79,28.79,0,0,0-2.39-6.8h0a15.05,15.05,0,0,0-2.19-2.56c-.73-.73-1.69-1.77-2.62-2.78l-.93-1h0l-1.88-2.13-.85-1.15a1.85,1.85,0,0,1-.19-.27,3.52,3.52,0,0,1,0-.45L1110,423a3.82,3.82,0,0,0,1.23-2.93c1.24.77,1.44-1.09,1.51-2.4,0-.93.07-3.27-.9-4.08,0-.15,0-.29,0-.42a12.82,12.82,0,0,0,.18-2.46,9.05,9.05,0,0,0-.56-2.84,2.4,2.4,0,0,0-.32-.64,4,4,0,0,0-.19-1,14.94,14.94,0,0,0-3.86-6.53,7.54,7.54,0,0,0-4.55-2.13c-1.06-.1-2.45.17-2.4,2.36a2.48,2.48,0,0,0,.16.81c-.21-.1-.36.06-.45.25a4.77,4.77,0,0,0-.31,2.33,20.94,20.94,0,0,0,.44,2.83c0,.15.06.32.09.49-1.18-.73-.85,2.06-.68,3.19.21,1.42.63,3.55,1.75,4.29a14.57,14.57,0,0,0,.43,1.91,11.63,11.63,0,0,0,1.08,2.5v0c.07,1,.14,2,.2,3a1.79,1.79,0,0,1,0,.34c0-.07-.18.11-.23.14l-.49.32h0l-.48-.05v0l-.12,0a7.45,7.45,0,0,0-1-.08h0c-.41,0-.82,0-1.22,0-.73,0-1.47-.12-2.18-.06-1.76.16-4.09,2.2-4.26,7a6.09,6.09,0,0,0,2.63,5.43Zm-4.39-29.64c0,.13,0,.25,0,.34C1112.45,417.81,1112.46,417.7,1112.47,417.58Z" transform="translate(-441.95 -121.54)"/><g class="cls-54"><path class="cls-55" d="M909.56,555.14l-7.07-13.49-89.1,58.49a7.24,7.24,0,1,0,8,12Z" transform="translate(-441.95 -121.54)"/></g><g class="cls-54"><path class="cls-55" d="M981.49,596.7l-7.07-13.49L885.31,641.7a7.25,7.25,0,0,0,8.05,12Z" transform="translate(-441.95 -121.54)"/></g><path class="cls-7" d="M975.33,599.56h0a4.85,4.85,0,0,1-2.34-3.28l-35.2-180a5.87,5.87,0,0,1,8.7-6.21h0l36,184.33A4.87,4.87,0,0,1,975.33,599.56Z" transform="translate(-441.95 -121.54)"/><path class="cls-7" d="M907.18,548.21h0a4.87,4.87,0,0,1-2.34-3.28l-35.2-180a5.87,5.87,0,0,1,8.7-6.22h0l36,184.34A4.87,4.87,0,0,1,907.18,548.21Z" transform="translate(-441.95 -121.54)"/><path class="cls-7" d="M823.4,611.52l-12.22,5.66,53.91-239.43,10.61,6.13-50.06,223.5C825.17,609.46,825.25,610.46,823.4,611.52Z" transform="translate(-441.95 -121.54)"/><polygon class="cls-56" points="483.51 357.73 412.05 316.47 422.95 309.86 488.16 347.32 483.51 357.73"/><path class="cls-36" d="M864.88,377.75s11.84-48.87,54.85-24,30,73,30,73l-10.61-6.12s12.12-36.2-19.7-59.3-43.94,22.56-43.94,22.56Z" transform="translate(-441.95 -121.54)"/><polygon class="cls-17" points="490.71 368.34 410.88 322.25 412.08 316.46 491.92 362.55 490.71 368.34"/><polygon class="cls-56" points="474.11 400.72 402.64 359.46 413.55 352.85 478.76 390.31 474.11 400.72"/><polygon class="cls-56" points="481.31 411.33 401.47 365.24 402.68 359.45 482.52 405.54 481.31 411.33"/><polygon class="cls-56" points="464.71 443.71 393.24 402.44 404.15 395.84 469.36 433.29 464.71 443.71"/><polygon class="cls-17" points="471.91 454.32 392.07 408.23 393.28 402.43 473.12 448.53 471.91 454.32"/><polygon class="cls-56" points="455.31 486.69 383.84 445.43 394.75 438.83 459.95 476.28 455.31 486.69"/><polygon class="cls-17" points="462.5 497.31 382.67 451.21 383.88 445.42 463.71 491.51 462.5 497.31"/><path class="cls-7" d="M895.41,654.54,885,660.84l54.15-240.22,10.61,6.12L898.9,650.24A6.63,6.63,0,0,1,895.41,654.54Z" transform="translate(-441.95 -121.54)"/><path class="cls-17" d="M881,660.77h0a3.57,3.57,0,0,1-1.43-3.75c5.7-23.8,52.42-218.46,57.91-245.53,2.3-11.31.32-23.42-5.87-36-.49-1-1-2-1.49-2.88C926,365,920,358.7,913.78,355.36c-16-8.61-28.81-7.75-38.19,2.57-8.32,9.16-10.67,22.6-10.69,22.73l0,.12L814.73,614.37a3.56,3.56,0,0,1-5.48,2.2l-.24-.16a3.57,3.57,0,0,1-1.49-3.74L860.27,377c.2-1.18,2.75-14.8,11.43-24.35a26.38,26.38,0,0,1,19.14-9.13c9.29-.32,19.59,3.72,31.63,12.11l1.32,1.15a53.55,53.55,0,0,1,12.93,19.5c3.72,10.11,8.63,23.08,5.4,39-5.33,26.26-47.89,210.15-55.59,243.39A3.56,3.56,0,0,1,881,660.77Z" transform="translate(-441.95 -121.54)"/><path class="cls-41" d="M846.44,529.25l8.17-1c5.46-2.47,8-4.33,10.45-2.93l.69.4c2.44,1.41,2.13,3.88-.68,5.51l-12,9.54a7.93,7.93,0,0,1-8.84-.86s-1.35-1.21-.39-6.32C844.38,530.65,844.19,530.55,846.44,529.25Z" transform="translate(-441.95 -121.54)"/><path class="cls-41" d="M891.91,494.35l8.55,3.77c6.77.77,10.34.45,11.89,3.24l.44.79c1.56,2.79-.19,5-3.87,5l-17.26,2.29c-3.69-.06-7.76-1.15-7.62-4.81,0,0-.53-4,3.38-8.46C889.65,493.61,889,494.3,891.91,494.35Z" transform="translate(-441.95 -121.54)"/><path class="cls-27" d="M885.94,333.56l39.39,18.77L943.41,332l9.51,5.64-21.17,26.44a8.2,8.2,0,0,1-9.28,2.56l-26.09-9.74Z" transform="translate(-441.95 -121.54)"/><path class="cls-28" d="M863.64,334.49l-.94-.26a5.66,5.66,0,0,1-3.84-7.35l6-17.82a6.44,6.44,0,0,1,7.69-4.16l.94.26a5.66,5.66,0,0,1,3.84,7.34l-3.22,17.83C873,333.5,866.81,335.36,863.64,334.49Z" transform="translate(-441.95 -121.54)"/><path class="cls-27" d="M886.65,306.75c.12,11.48-11.94,12.3-18.46,7.07s-9.49-15.41-8-24.87,12.66-14.94,19.18-9.71S886.54,297.11,886.65,306.75Z" transform="translate(-441.95 -121.54)"/><path class="cls-6" d="M886.24,287.35a4.88,4.88,0,1,1-5.46-4.23A4.88,4.88,0,0,1,886.24,287.35Z" transform="translate(-441.95 -121.54)"/><path class="cls-6" d="M885.48,281.38a4.89,4.89,0,1,1-5.47-4.23A4.88,4.88,0,0,1,885.48,281.38Z" transform="translate(-441.95 -121.54)"/><path class="cls-28" d="M876.14,318.53c-8.33-.45-11.46-4.67-5-10.6,0,0,1.12,9,8.73,8.63C879.85,316.56,877.08,317.18,876.14,318.53Z" transform="translate(-441.95 -121.54)"/><path class="cls-6" d="M855.9,312a8.13,8.13,0,0,0,8,5.68c8.92-.26,4.93-21,14-24.63,4.72-1.92,8.23-8.49,3.85-12.57s-7.86-4.84-17-1.73C856.71,281.48,840.86,287.85,855.9,312Z" transform="translate(-441.95 -121.54)"/><path class="cls-57" d="M871.37,308.72a4.22,4.22,0,0,1,1.24-8.34A23.64,23.64,0,0,0,871.37,308.72Z" transform="translate(-441.95 -121.54)"/><path class="cls-12" d="M895.91,498.4c-1.08,4-9.57,1.77-8.49-2.27L890.93,483l8.49,2.28Z" transform="translate(-441.95 -121.54)"/><path class="cls-35" d="M891.21,405.43l21,25.76a19.43,19.43,0,0,1,2.92,19.35l-17.36,43.94c-2.06,2.21-14.16-.05-12.44-7l11.88-43.12L859.35,419Z" transform="translate(-441.95 -121.54)"/><path class="cls-12" d="M853.75,531.18c-.19,4.07-8.92,3.65-8.72-.42l.64-13.24,8.73.42Z" transform="translate(-441.95 -121.54)"/><path class="cls-58" d="M868.89,423.41l-12.67,98.13c0,5.67-12.94,5.67-12.94,0L840.07,413.8Z" transform="translate(-441.95 -121.54)"/><path class="cls-35" d="M879.87,429.31c-6.35-3.91-25.49-4.17-34.59-8.73-6.08-4.52-5.49-6.89-5.76-12.44l-.32-6.65,48.74,10.43Z" transform="translate(-441.95 -121.54)"/><path class="cls-46" d="M838.19,398.73c-.63-13.3,0-4.75-.47-25.73.4-20.17-1.73-29.05.1-39.22,2-11,9.35-16.8,18.4-15.25,0,0,7,1.69,9.3,2.57,24.42,9.32,26,4.69,29.05,32.3l-2.29,49.26C900.94,417.34,839.2,429.15,838.19,398.73Z" transform="translate(-441.95 -121.54)"/><path class="cls-12" d="M856.22,318.53a10.3,10.3,0,0,0,6.92,9.5c7,2.49,14.64-2.52,14.64-2.52S864.68,318.83,856.22,318.53Z" transform="translate(-441.95 -121.54)"/><path class="cls-6" d="M873.47,303.28h0a1.59,1.59,0,0,1-1.59-1.59v-7.53a1.6,1.6,0,0,1,1.59-1.59h0a1.6,1.6,0,0,1,1.6,1.59v7.53A1.6,1.6,0,0,1,873.47,303.28Z" transform="translate(-441.95 -121.54)"/><path class="cls-27" d="M942.72,339.48h0a6.25,6.25,0,0,1,1.63-8.64l3.74-2.55a6.23,6.23,0,0,1,8.64,1.63h0a6.24,6.24,0,0,1-1.62,8.64l-3.74,2.55A6.24,6.24,0,0,1,942.72,339.48Z" transform="translate(-441.95 -121.54)"/><path class="cls-45" d="M895.13,353.22c-2.17-19.43-3.08-19.6-12.23-23.19.63,3.85,5.05,6.07,5.66,11.55,0,0-6.17,71.7-6.58,73.47,8.43-2.76,13.86-7.5,10.87-12.58Z" transform="translate(-441.95 -121.54)"/><path class="cls-46" d="M889,355.88l17.19,8.28c6.71,2.61,16.46-16.35,12-17.78-.78-.26-28.6-20.53-37.64-19.14C866.81,329.35,873.45,349.3,889,355.88Z" transform="translate(-441.95 -121.54)"/><path class="cls-59" d="M1100.77,592.68c4.86,8.67,12.92,26,22.55,28.92,13.32,4,26.28-12.35,36.41-20.75,4.54-3.76-.44-11.6-5-7.79-8.21,6.81-18.71,12.93-29.66,9.41-7.32-2.36-12.81-8.3-16.47-14.84-2.92-5.21-10.7-.15-7.79,5Z" transform="translate(-441.95 -121.54)"/><path class="cls-27" d="M1167.84,610.54h0a4.2,4.2,0,0,1-3-5.11l2.5-9.57a4.2,4.2,0,0,1,5.11-3h0a4.21,4.21,0,0,1,3,5.12l-2.5,9.57A4.2,4.2,0,0,1,1167.84,610.54Z" transform="translate(-441.95 -121.54)"/><path class="cls-29" d="M1142.36,693.07l.06-.24h0l6.62-23.33a13.52,13.52,0,0,0-7.78-16.08c-6.15-2.38-12.63,1-14.48,7.47l-6.62,23.32h0c0,.07,0,.15-.08.22a13.53,13.53,0,0,0,7.79,16.09C1134,702.92,1140.51,699.57,1142.36,693.07Z" transform="translate(-441.95 -121.54)"/><polygon class="cls-60" points="681.37 550.76 719.27 417.29 732.62 419.86 692.6 561.61 681.37 550.76"/><path class="cls-36" d="M1174.57,541.4c5.18,3,4.82-2.82,10,3L1147,677.26c-4.83,7.94-8.86,8.74-12.56,6.46Z" transform="translate(-441.95 -121.54)"/><path class="cls-61" d="M1146.34,679.4l.06-.24h0l1.27-4.48a10.94,10.94,0,0,1-14.33,6.15,13.65,13.65,0,0,1-8.06-16.17c0-.08,0-.15.07-.23h0l-1.76,5.95h0l-.07.22C1120.31,682.76,1143.1,691.64,1146.34,679.4Z" transform="translate(-441.95 -121.54)"/><path class="cls-62" d="M1133.29,680.81c6.31,2.42,12.25,1.65,14.1-4.85l.72-2.78h0l1.27-4.48c-2.71,8.23-25.32,2.35-22.38-10a1,1,0,0,1,.07-.23h0l-1.76,5.95h0l-.07.22A13.64,13.64,0,0,0,1133.29,680.81Z" transform="translate(-441.95 -121.54)"/><path class="cls-62" d="M1184.93,543.56l-6.45-30.36-17.06,23.88C1161.69,546.05,1183.45,550.61,1184.93,543.56Z" transform="translate(-441.95 -121.54)"/><path class="cls-63" d="M1179,511.57l2.29,15s0,1.82-3,1.23-2.13,1.48-5.41.4-3.65-2.12-3.65-2.12Z" transform="translate(-441.95 -121.54)"/><path class="cls-35" d="M1125.24,611.9l16.7,25.8a8.65,8.65,0,0,0,15.15-1.14l15.68-27.71-5-5-17.18,18.39s-12.74-21.8-17.48-25.11C1129.5,594.62,1125.24,611.9,1125.24,611.9Z" transform="translate(-441.95 -121.54)"/><g class="cls-54"><ellipse class="cls-64" cx="668.73" cy="678.29" rx="44.7" ry="23.36"/></g><path class="cls-36" d="M1087.73,784.26l7.82-1c5.23-2.37,7.67-4.15,10-2.8l.66.38c2.33,1.34,2,3.71-.65,5.27l-11.49,9.13a7.6,7.6,0,0,1-8.47-.83s-1.28-1.16-.36-6C1085.76,785.6,1085.58,785.5,1087.73,784.26Z" transform="translate(-441.95 -121.54)"/><path class="cls-36" d="M1116.15,794.74l8.79,1.65c6.48-.74,9.74-1.82,11.79.45l.58.64c2,2.26.91,4.72-2.54,5.46l-15.59,5.88a8.62,8.62,0,0,1-8.86-3.83s-1-1.7,1.7-6.66C1113.56,795.5,1113.39,795.33,1116.15,794.74Z" transform="translate(-441.95 -121.54)"/><path class="cls-27" d="M1083.08,677.33l3.09,107.57c.19,6.84,8.09,4.41,9,.23l2-99.74Z" transform="translate(-441.95 -121.54)"/><path class="cls-27" d="M1105.83,683,1112.41,799c.3,7.25,7.91,4.78,8.7.36l1.89-108.1Z" transform="translate(-441.95 -121.54)"/><path class="cls-65" d="M1129.71,642.77,1122.09,783s-5.48,8.54-12.92,0l-5.48-116-2.89-24.22Z" transform="translate(-441.95 -121.54)"/><path class="cls-65" d="M1101.29,645.76l-3.1,121.85s-8.57,8.19-15.74-2.05l-2-123.5Z" transform="translate(-441.95 -121.54)"/><rect class="cls-65" x="1088.37" y="654.54" width="35.32" height="22.39" transform="translate(-24.22 -547.93) rotate(26.74)"/><path class="cls-27" d="M1114.69,571.38c-2.49,8.68-9.17,8.33-14.63,2.66s-7.66-14.49-5.17-23.17,8.94-11.12,14.41-5.46S1117.18,562.7,1114.69,571.38Z" transform="translate(-441.95 -121.54)"/><path class="cls-27" d="M1123.84,568.63c-2.49,8.67-11.79,11.81-17.26,6.15s-7.88-17.29-5.39-26,12.89-11.82,18.36-6.15S1126.33,560,1123.84,568.63Z" transform="translate(-441.95 -121.54)"/><path class="cls-27" d="M1101.35,595.44l-.76-.23c-2.57-.79-2.54-4.31-1.5-7.68l4.56-18.87c1-3.37,4-5.48,6.55-4.69l.76.24c2.56.78,3.81,4.19,2.78,7.55l-3.58,18.88C1109.13,594,1103.91,596.23,1101.35,595.44Z" transform="translate(-441.95 -121.54)"/><path class="cls-6" d="M1094.48,566.86s.53,4.77,9.59,5.71c8.63.89,7.64-12.24,16-13.6,9.17-1.5,9.81-11.4,6.2-15.75s-13.7-6.61-21-3.39S1089.87,545.39,1094.48,566.86Z" transform="translate(-441.95 -121.54)"/><path class="cls-27" d="M1119.06,565.09a4,4,0,1,1-2.72-4.92A4,4,0,0,1,1119.06,565.09Z" transform="translate(-441.95 -121.54)"/><path class="cls-35" d="M1080,603.22l-2.37,46.16s-3,8.67,21.53,15.18c20.17,5.35,31.63-3.76,32.8-6l-1.24-44.88,17.73,10.84a58.3,58.3,0,0,0-27.78-37.18c-4.28-2.42-10.62-5.31-15.8-7.57-7.69-3.35-11.19-2.14-18.29,2.33C1082.74,584.45,1080,603.22,1080,603.22Z" transform="translate(-441.95 -121.54)"/><path class="cls-65" d="M1107.16,552.37c-.62,5.38-4.88,9.31-9.51,8.77s-7.89-5.33-7.26-10.71,4.87-9.31,9.5-8.77S1107.78,547,1107.16,552.37Z" transform="translate(-441.95 -121.54)"/><path class="cls-6" d="M1098.89,548.41c1-5.12-5.9-7.9-9-3.72a20.52,20.52,0,0,0-2.67,5.37c-5.11,14.59-30.09,9.51-20.75,37.3,0,0-13.26,16,6.83,25.69,3.22,1.56,7.22.26,11.18-2.26,10-6.37,14.43-18.51,12-30.12-.85-4.07-.91-8.4,1-11.89,2.44-4.43,3.44-9.61,1.84-14.4A11.69,11.69,0,0,1,1098.89,548.41Z" transform="translate(-441.95 -121.54)"/><path class="cls-12" d="M1111.84,582.9s-7.27-5.7-12.73-4.77C1099.11,578.13,1099.44,585.43,1111.84,582.9Z" transform="translate(-441.95 -121.54)"/><polygon class="cls-12" points="528.51 584.25 553.7 601.28 572.95 559.23 546.96 543.93 528.51 584.25"/><polygon class="cls-27" points="475.65 577.9 473.31 577.9 490.71 615.2 497.72 603.44 481.45 576.32 475.65 577.9"/><path class="cls-65" d="M932.85,653l-17,22.76a24.87,24.87,0,0,0-4.41,20.67c.81,3.3,2.16,5.85,4.2,7.34a1.63,1.63,0,0,0,1.75.14l7-3.81a1.49,1.49,0,0,0,.66-1.91,10.6,10.6,0,0,1,.12-7.89c2.09-5.77,19.18-25.09,19.18-25.09Z" transform="translate(-441.95 -121.54)"/><g class="cls-3"><ellipse class="cls-4" cx="955.54" cy="863.1" rx="39.36" ry="19.56" transform="translate(-457.1 -104.46) rotate(-1.02)"/></g><path class="cls-27" d="M966.5,644.17c-2.58,9-9.27,11.53-15,5.66s-8.17-17.94-5.59-26.94,9.27-11.53,14.95-5.66S969.08,635.17,966.5,644.17Z" transform="translate(-441.95 -121.54)"/><path class="cls-27" d="M976,641.31c-2.59,9-12.23,12.26-17.91,6.38s-8.17-17.93-5.59-26.93,9.27-11.54,15-5.66S978.57,632.31,976,641.31Z" transform="translate(-441.95 -121.54)"/><path class="cls-27" d="M954.16,667.29l-1-.22a6.08,6.08,0,0,1-4.6-7.24l4.1-18.38a6.08,6.08,0,0,1,7.24-4.6l1,.21a6.09,6.09,0,0,1,4.6,7.25l-1.34,18.23C963.43,665.8,957.42,668,954.16,667.29Z" transform="translate(-441.95 -121.54)"/><path class="cls-6" d="M946.46,642.61s-1.12,6.24,9.77,6.84c8.71.48,6.13-15.28,14.77-16.69,9.5-1.55,11.22-13.29,7.48-17.8s-14.22-6.86-21.8-3.52S933.18,617.23,946.46,642.61Z" transform="translate(-441.95 -121.54)"/><path class="cls-27" d="M971,637.64a4.12,4.12,0,1,1-2.82-5.1A4.12,4.12,0,0,1,971,637.64Z" transform="translate(-441.95 -121.54)"/><path class="cls-65" d="M929.46,735.81c1.54-8.44,1.06-10.85,2.67-23.39,1-7.63-2.8-23-2.67-32,.31-23.31-1.51-32.87,15.54-28l4.8,1.27a33.23,33.23,0,0,1,6.66,2.57c22.47,11.58,28.47,15.15,27.48,28.58.1,22.11-6.05,20.73-5.51,41.06C973.8,741.26,934.6,746.75,929.46,735.81Z" transform="translate(-441.95 -121.54)"/><path class="cls-28" d="M965,650.65l-1-2.25a6.18,6.18,0,0,0,5.05,1.31A7.89,7.89,0,0,1,965,650.65Z" transform="translate(-441.95 -121.54)"/><ellipse class="cls-6" cx="502.99" cy="503.99" rx="10.59" ry="11.46"/><path class="cls-12" d="M949.66,651.54a2.7,2.7,0,0,0-3.27,3.08c.36,2.11,1.64,4.62,5.48,5.92,5.31,1.8,11.15.83,14,.17a.77.77,0,0,0,.22-1.4C962.88,657.35,955.28,652.9,949.66,651.54Z" transform="translate(-441.95 -121.54)"/><path class="cls-27" d="M1012.91,693.47h0a4.57,4.57,0,0,0-6.32,1.26l-5.72,8.59a4.56,4.56,0,0,0,1.26,6.31h0a4.56,4.56,0,0,0,6.31-1.27l5.72-8.58A4.57,4.57,0,0,0,1012.91,693.47Z" transform="translate(-441.95 -121.54)"/><path class="cls-27" d="M986.87,724.32v-5.67l15-16.17s7.09,5.25,6.69,5.48-5.35,6.93-13.31,16.13c-3.84,4.45-7.94,5.58-8.33.23Z" transform="translate(-441.95 -121.54)"/><path class="cls-66" d="M973.69,688.38,978.43,726c-.09.43-4.85,17.49-11.36,18Z" transform="translate(-441.95 -121.54)"/><path class="cls-6" d="M934.77,851.14l8.47-1.63c5.55-3,8.09-5.09,10.74-3.79l.75.37c2.64,1.3,2.49,3.91-.34,5.81l-11.91,10.8a8.31,8.31,0,0,1-9.3-.29s-1.49-1.18-.83-6.58C932.72,852.75,932.51,852.65,934.77,851.14Z" transform="translate(-441.95 -121.54)"/><path class="cls-27" d="M943,852.63c-.3,6-9.23,4.87-9.53.38l-2.6-120.21,30-2.67Z" transform="translate(-441.95 -121.54)"/><path class="cls-6" d="M965.1,862.83,974,864.5c6.53-.75,9.82-1.84,11.88.44l.59.65c2.06,2.28.91,4.76-2.56,5.51L968.15,877a8.69,8.69,0,0,1-8.93-3.86s-1.91-2.67.8-7.66C961.57,862.65,962.32,863.43,965.1,862.83Z" transform="translate(-441.95 -121.54)"/><path class="cls-27" d="M968.61,866.72c-1.88,4.78-9,4.18-8.89.26,3.87-47.33-6.17-92.48-17.65-136l34.73-3.75C978.16,778.15,977.7,821.76,968.61,866.72Z" transform="translate(-441.95 -121.54)"/><path class="cls-29" d="M978.43,720.16l2,83.7s-16.65,27.63-51-2.11l1.06-37.22c-4-18.12-4.72-38.53.33-47.65C946.4,728.16,962,728.46,978.43,720.16Z" transform="translate(-441.95 -121.54)"/><path class="cls-67" d="M930.52,764.53l9.15,6.41s-10.16-9.53-10.75-15Z" transform="translate(-441.95 -121.54)"/><path class="cls-40" d="M954.37,727.91c-16.45,0-24.48-9.28-25-9.83a1.87,1.87,0,0,1,.24-2.62,1.85,1.85,0,0,1,2.61.23c.61.72,14.79,16.78,45.39,2.78a1.86,1.86,0,0,1,1.54,3.38C969.44,726.32,961.18,727.91,954.37,727.91Z" transform="translate(-441.95 -121.54)"/><path class="cls-65" d="M982.8,675.28s7.33,17.05,6.75,42c0,.76.28,5.07.53,8.43.24,3.17-2.87,4.41-6,4.54-2.84.12-4.65-2.3-5.52-5.4-1.84-6.57-6.25-23.91-5.52-32.3C974.12,679.79,982.8,675.28,982.8,675.28Z" transform="translate(-441.95 -121.54)"/><path class="cls-12" d="M944.94,637.92a.93.93,0,0,1-.26-1.82c8.72-2.54,9.93-6.58,9.93-10.57,0-7.39-4.7-10.55-4.9-10.68a.94.94,0,0,1-.28-1.29.92.92,0,0,1,1.28-.27c.24.15,5.75,3.8,5.75,12.24,0,6.28-3.47,10.09-11.26,12.35A.75.75,0,0,1,944.94,637.92Z" transform="translate(-441.95 -121.54)"/></g></g></svg>